<?xml version="1.0" encoding="utf-8"?>
<!-- Generator: Adobe Illustrator 28.0.0, SVG Export Plug-In . SVG Version: 6.00 Build 0)  -->
<svg version="1.1" id="Layer_2_00000010271402512078844220000011712678664047669412_"
	 xmlns="http://www.w3.org/2000/svg" xmlns:xlink="http://www.w3.org/1999/xlink" x="0px" y="0px" viewBox="0 0 1041 1377.8"
	 style="enable-background:new 0 0 1041 1377.8;" xml:space="preserve">
<style type="text/css">
	.st0{fill:#FFFFFF;stroke:#000000;stroke-width:0.5;stroke-miterlimit:10;}
	.st1{fill:none;stroke:#000000;stroke-width:0.75;stroke-linecap:round;stroke-linejoin:round;}
</style>
<g id="TEXT">
	<g>
		<rect x="264.1" y="1236.5" class="st0" width="512.8" height="115.9"/>
		<g>
			<g>
				<path d="M305.2,1300.3l4.5-11.7h1.7l4.8,11.7h-1.8l-1.4-3.5h-4.9l-1.3,3.5H305.2L305.2,1300.3L305.2,1300.3z M308.5,1295.5h4
					l-1.2-3.2c-0.4-1-0.7-1.8-0.8-2.4c-0.2,0.8-0.4,1.5-0.6,2.2L308.5,1295.5z"/>
				<path d="M329.3,1296.2l1.5,0.4c-0.3,1.3-0.9,2.2-1.8,2.9s-1.9,1-3.1,1s-2.3-0.3-3.1-0.8s-1.4-1.3-1.8-2.2s-0.6-2-0.6-3.1
					c0-1.2,0.2-2.3,0.7-3.2c0.5-0.9,1.1-1.6,2-2.1c0.9-0.5,1.8-0.7,2.8-0.7c1.2,0,2.2,0.3,3,0.9c0.8,0.6,1.3,1.4,1.7,2.5l-1.5,0.4
					c-0.3-0.8-0.7-1.5-1.2-1.9s-1.2-0.6-1.9-0.6c-0.9,0-1.7,0.2-2.2,0.7s-1,1-1.3,1.7c-0.2,0.7-0.4,1.5-0.4,2.2c0,1,0.1,1.9,0.4,2.6
					s0.7,1.3,1.3,1.7s1.3,0.6,2,0.6c0.9,0,1.6-0.2,2.2-0.8C328.7,1297.9,329.1,1297.2,329.3,1296.2L329.3,1296.2L329.3,1296.2z"/>
				<path d="M338.1,1299.3c-0.5,0.4-1,0.8-1.5,1c-0.5,0.2-1,0.3-1.6,0.3c-0.9,0-1.6-0.2-2.1-0.7c-0.5-0.4-0.8-1-0.8-1.7
					c0-0.4,0.1-0.8,0.3-1.1c0.2-0.3,0.4-0.6,0.7-0.8c0.3-0.2,0.7-0.4,1-0.5c0.3-0.1,0.7-0.2,1.3-0.2c1.2-0.1,2-0.3,2.6-0.5v-0.4
					c0-0.6-0.1-1-0.4-1.2c-0.4-0.3-0.9-0.5-1.6-0.5c-0.7,0-1.2,0.1-1.5,0.3c-0.3,0.2-0.6,0.7-0.7,1.2l-1.4-0.2
					c0.1-0.6,0.3-1.1,0.6-1.4s0.7-0.7,1.3-0.8s1.2-0.3,1.9-0.3s1.3,0.1,1.8,0.2s0.8,0.4,1,0.6c0.2,0.3,0.4,0.6,0.5,1
					c0,0.2,0.1,0.7,0.1,1.3v1.9c0,1.3,0,2.2,0.1,2.5s0.2,0.7,0.4,1h-1.5C338.3,1300,338.2,1299.6,338.1,1299.3L338.1,1299.3
					L338.1,1299.3z M338,1296.1c-0.5,0.2-1.3,0.4-2.3,0.5c-0.6,0.1-1,0.2-1.2,0.3s-0.4,0.3-0.6,0.5c-0.1,0.2-0.2,0.4-0.2,0.7
					c0,0.4,0.1,0.7,0.4,1c0.3,0.2,0.7,0.4,1.3,0.4s1-0.1,1.5-0.4s0.8-0.6,1-1c0.2-0.3,0.2-0.8,0.2-1.4L338,1296.1L338,1296.1z"/>
				<path d="M344.8,1299l0.2,1.3c-0.4,0.1-0.8,0.1-1.1,0.1c-0.5,0-0.9-0.1-1.2-0.2c-0.3-0.2-0.5-0.4-0.6-0.7s-0.2-0.8-0.2-1.7v-4.9
					h-1v-1.1h1v-2.1l1.4-0.9v3h1.4v1.1h-1.4v4.9c0,0.4,0,0.7,0.1,0.8s0.1,0.2,0.2,0.3c0.1,0.1,0.3,0.1,0.5,0.1
					C344.3,1299.1,344.5,1299.1,344.8,1299L344.8,1299L344.8,1299z"/>
				<path d="M351.7,1299.3c-0.5,0.4-1,0.8-1.5,1c-0.5,0.2-1,0.3-1.6,0.3c-0.9,0-1.6-0.2-2.1-0.7c-0.5-0.4-0.8-1-0.8-1.7
					c0-0.4,0.1-0.8,0.3-1.1c0.2-0.3,0.4-0.6,0.7-0.8c0.3-0.2,0.7-0.4,1-0.5c0.3-0.1,0.7-0.2,1.3-0.2c1.2-0.1,2-0.3,2.6-0.5v-0.4
					c0-0.6-0.1-1-0.4-1.2c-0.4-0.3-0.9-0.5-1.6-0.5c-0.7,0-1.2,0.1-1.5,0.3c-0.3,0.2-0.6,0.7-0.7,1.2l-1.4-0.2
					c0.1-0.6,0.3-1.1,0.6-1.4s0.7-0.7,1.3-0.8s1.2-0.3,1.9-0.3s1.3,0.1,1.8,0.2s0.8,0.4,1,0.6c0.2,0.3,0.4,0.6,0.5,1
					c0,0.2,0.1,0.7,0.1,1.3v1.9c0,1.3,0,2.2,0.1,2.5s0.2,0.7,0.4,1H352C351.9,1300,351.8,1299.6,351.7,1299.3L351.7,1299.3
					L351.7,1299.3z M351.6,1296.1c-0.5,0.2-1.3,0.4-2.3,0.5c-0.6,0.1-1,0.2-1.2,0.3s-0.4,0.3-0.6,0.5c-0.1,0.2-0.2,0.4-0.2,0.7
					c0,0.4,0.1,0.7,0.4,1c0.3,0.2,0.7,0.4,1.3,0.4s1-0.1,1.5-0.4s0.8-0.6,1-1c0.2-0.3,0.2-0.8,0.2-1.4L351.6,1296.1L351.6,1296.1z"
					/>
				<path d="M355.2,1300.3v-11.7h1.4v11.7H355.2z"/>
				<path d="M358.4,1296.1c0-1.6,0.4-2.7,1.3-3.5c0.7-0.6,1.6-0.9,2.7-0.9c1.2,0,2.1,0.4,2.8,1.1s1.1,1.8,1.1,3.2
					c0,1.1-0.2,1.9-0.5,2.6s-0.8,1.1-1.4,1.5c-0.6,0.3-1.3,0.5-2,0.5c-1.2,0-2.1-0.4-2.9-1.1S358.4,1297.5,358.4,1296.1
					L358.4,1296.1z M359.8,1296.1c0,1.1,0.2,1.9,0.7,2.4c0.5,0.5,1.1,0.8,1.8,0.8s1.3-0.3,1.8-0.8c0.5-0.5,0.7-1.4,0.7-2.5
					c0-1.1-0.2-1.8-0.7-2.4s-1.1-0.8-1.8-0.8s-1.3,0.3-1.8,0.8C360.1,1294.2,359.8,1295,359.8,1296.1L359.8,1296.1L359.8,1296.1z"/>
				<path d="M367.7,1301l1.4,0.2c0.1,0.4,0.2,0.7,0.5,0.9c0.4,0.3,0.8,0.4,1.5,0.4c0.7,0,1.2-0.1,1.5-0.4s0.6-0.6,0.7-1.1
					c0.1-0.3,0.1-0.9,0.1-1.8c-0.6,0.7-1.4,1.1-2.3,1.1c-1.2,0-2.1-0.4-2.7-1.3s-1-1.8-1-3c0-0.8,0.2-1.6,0.4-2.2
					c0.3-0.7,0.7-1.2,1.3-1.6c0.6-0.4,1.2-0.6,2-0.6c1,0,1.8,0.4,2.5,1.2v-1h1.3v7.3c0,1.3-0.1,2.2-0.4,2.8s-0.7,1-1.3,1.3
					c-0.6,0.3-1.3,0.5-2.2,0.5c-1,0-1.8-0.2-2.5-0.7C368,1302.6,367.7,1301.9,367.7,1301L367.7,1301L367.7,1301z M368.9,1295.9
					c0,1.1,0.2,1.9,0.7,2.4s1,0.8,1.7,0.8s1.2-0.2,1.7-0.8c0.5-0.5,0.7-1.3,0.7-2.4s-0.2-1.8-0.7-2.3c-0.5-0.5-1-0.8-1.7-0.8
					s-1.2,0.3-1.6,0.8S368.9,1294.9,368.9,1295.9L368.9,1295.9L368.9,1295.9z"/>
				<path d="M382.6,1300.3v-1.2c-0.7,1-1.5,1.4-2.7,1.4c-0.5,0-1-0.1-1.4-0.3s-0.8-0.4-1-0.7c-0.2-0.3-0.4-0.6-0.4-1.1
					c-0.1-0.3-0.1-0.7-0.1-1.3v-5.2h1.4v4.7c0,0.8,0,1.2,0.1,1.5c0.1,0.4,0.3,0.7,0.6,0.9c0.3,0.2,0.7,0.3,1.1,0.3s0.8-0.1,1.2-0.3
					s0.6-0.5,0.8-0.9s0.2-0.9,0.2-1.7v-4.5h1.4v8.5L382.6,1300.3L382.6,1300.3L382.6,1300.3z"/>
				<path d="M391.9,1297.6l1.5,0.2c-0.2,0.9-0.7,1.5-1.3,2s-1.4,0.7-2.4,0.7c-1.2,0-2.2-0.4-3-1.1c-0.7-0.8-1.1-1.8-1.1-3.2
					s0.4-2.5,1.1-3.3c0.7-0.8,1.7-1.2,2.8-1.2s2.1,0.4,2.8,1.2s1.1,1.8,1.1,3.2v0.4h-6.3c0,0.9,0.3,1.6,0.8,2.1
					c0.5,0.5,1.1,0.7,1.8,0.7c0.5,0,1-0.1,1.3-0.4S391.7,1298.2,391.9,1297.6L391.9,1297.6L391.9,1297.6z M387.2,1295.3h4.7
					c-0.1-0.7-0.2-1.2-0.5-1.6c-0.5-0.6-1-0.8-1.8-0.8c-0.7,0-1.2,0.2-1.7,0.7C387.5,1293.9,387.3,1294.5,387.2,1295.3L387.2,1295.3
					L387.2,1295.3z"/>
				<path d="M399.2,1296.1c0-1.6,0.4-2.7,1.3-3.5c0.7-0.6,1.6-0.9,2.7-0.9c1.2,0,2.1,0.4,2.8,1.1s1.1,1.8,1.1,3.2
					c0,1.1-0.2,1.9-0.5,2.6s-0.8,1.1-1.4,1.5c-0.6,0.3-1.3,0.5-2,0.5c-1.2,0-2.1-0.4-2.9-1.1S399.2,1297.5,399.2,1296.1
					L399.2,1296.1z M400.7,1296.1c0,1.1,0.2,1.9,0.7,2.4c0.5,0.5,1.1,0.8,1.8,0.8s1.3-0.3,1.8-0.8c0.5-0.5,0.7-1.4,0.7-2.5
					c0-1.1-0.2-1.8-0.7-2.4s-1.1-0.8-1.8-0.8s-1.3,0.3-1.8,0.8C400.9,1294.2,400.7,1295,400.7,1296.1L400.7,1296.1L400.7,1296.1z"/>
				<path d="M409.2,1300.3v-7.3h-1.3v-1.1h1.3v-0.9c0-0.6,0-1,0.2-1.3c0.1-0.4,0.4-0.7,0.7-0.9s0.8-0.3,1.5-0.3
					c0.4,0,0.8,0.1,1.3,0.1l-0.2,1.2c-0.3-0.1-0.6-0.1-0.8-0.1c-0.4,0-0.7,0.1-0.9,0.3c-0.2,0.2-0.3,0.5-0.3,1v0.8h1.7v1.1h-1.7v7.3
					L409.2,1300.3L409.2,1300.3L409.2,1300.3z"/>
				<path d="M417.5,1296.6l1.5-0.1c0.1,0.6,0.2,1.1,0.5,1.4c0.2,0.4,0.6,0.7,1.2,0.9s1.1,0.3,1.8,0.3c0.6,0,1.1-0.1,1.6-0.3
					c0.5-0.2,0.8-0.4,1-0.7c0.2-0.3,0.3-0.6,0.3-1s-0.1-0.7-0.3-1s-0.6-0.5-1-0.7c-0.3-0.1-1-0.3-2.1-0.6c-1.1-0.3-1.8-0.5-2.3-0.7
					c-0.6-0.3-1-0.7-1.2-1.1c-0.3-0.4-0.4-0.9-0.4-1.5c0-0.6,0.2-1.1,0.5-1.7s0.8-0.9,1.5-1.2c0.6-0.3,1.4-0.4,2.1-0.4
					c0.9,0,1.6,0.1,2.3,0.4s1.2,0.7,1.5,1.2s0.5,1.2,0.6,1.8l-1.5,0.1c-0.1-0.7-0.3-1.3-0.8-1.7c-0.5-0.4-1.1-0.6-2-0.6
					s-1.6,0.2-2,0.5s-0.6,0.8-0.6,1.2c0,0.4,0.2,0.8,0.5,1s1.1,0.6,2.3,0.8c1.3,0.3,2.1,0.5,2.6,0.8c0.7,0.3,1.2,0.7,1.5,1.2
					c0.3,0.5,0.5,1,0.5,1.7s-0.2,1.2-0.5,1.8c-0.4,0.6-0.9,1-1.5,1.3c-0.7,0.3-1.4,0.5-2.2,0.5c-1.1,0-1.9-0.2-2.7-0.5
					c-0.7-0.3-1.3-0.8-1.7-1.4C417.8,1298,417.6,1297.3,417.5,1296.6L417.5,1296.6L417.5,1296.6z"/>
				<path d="M428.8,1290.3v-1.7h1.4v1.7H428.8z M428.8,1300.3v-8.5h1.4v8.5H428.8z"/>
				<path d="M432.4,1300.3v-8.5h1.3v1.2c0.3-0.4,0.6-0.8,1.1-1s0.9-0.4,1.5-0.4c0.6,0,1.1,0.1,1.5,0.4c0.4,0.3,0.7,0.6,0.8,1.1
					c0.7-1,1.5-1.5,2.6-1.5c0.8,0,1.5,0.2,1.9,0.7s0.7,1.2,0.7,2.2v5.8h-1.4v-5.3c0-0.6,0-1-0.1-1.2s-0.3-0.5-0.5-0.6
					c-0.2-0.2-0.5-0.2-0.9-0.2c-0.6,0-1.1,0.2-1.5,0.6s-0.6,1-0.6,1.9v4.9h-1.4v-5.5c0-0.6-0.1-1.1-0.3-1.4
					c-0.2-0.3-0.6-0.5-1.2-0.5c-0.4,0-0.8,0.1-1.1,0.3c-0.3,0.2-0.6,0.5-0.8,0.9c-0.2,0.4-0.2,1-0.2,1.8v4.4L432.4,1300.3
					L432.4,1300.3L432.4,1300.3z"/>
				<path d="M446,1303.6v-11.7h1.3v1.1c0.3-0.4,0.7-0.8,1-1s0.9-0.3,1.4-0.3c0.7,0,1.4,0.2,1.9,0.6s1,0.9,1.2,1.6
					c0.3,0.7,0.4,1.4,0.4,2.2c0,0.9-0.2,1.7-0.5,2.3s-0.8,1.2-1.3,1.6c-0.6,0.4-1.2,0.6-1.9,0.6c-0.5,0-0.9-0.1-1.3-0.3
					s-0.7-0.5-0.9-0.8v4.1L446,1303.6L446,1303.6L446,1303.6z M447.3,1296.1c0,1.1,0.2,1.9,0.7,2.4c0.4,0.5,1,0.8,1.6,0.8
					s1.2-0.3,1.6-0.8c0.5-0.5,0.7-1.4,0.7-2.5s-0.2-1.9-0.7-2.4c-0.4-0.5-1-0.8-1.6-0.8s-1.2,0.3-1.6,0.9S447.3,1295,447.3,1296.1
					L447.3,1296.1L447.3,1296.1z"/>
				<path d="M455,1300.3v-11.7h1.4v11.7H455z"/>
				<path d="M464.5,1297.6l1.5,0.2c-0.2,0.9-0.7,1.5-1.3,2s-1.4,0.7-2.4,0.7c-1.2,0-2.2-0.4-3-1.1s-1.1-1.8-1.1-3.2s0.4-2.5,1.1-3.3
					c0.7-0.8,1.7-1.2,2.8-1.2s2.1,0.4,2.8,1.2s1.1,1.8,1.1,3.2v0.4h-6.3c0,0.9,0.3,1.6,0.8,2.1c0.5,0.5,1.1,0.7,1.8,0.7
					c0.5,0,1-0.1,1.3-0.4S464.3,1298.2,464.5,1297.6L464.5,1297.6L464.5,1297.6z M459.8,1295.3h4.7c-0.1-0.7-0.2-1.2-0.5-1.6
					c-0.5-0.6-1-0.8-1.8-0.8c-0.7,0-1.2,0.2-1.7,0.7C460.1,1293.9,459.8,1294.5,459.8,1295.3L459.8,1295.3L459.8,1295.3z"/>
				<path d="M472.5,1300.3v-11.7h4.4c0.8,0,1.4,0,1.8,0.1c0.6,0.1,1,0.3,1.4,0.6s0.7,0.6,0.9,1.1c0.2,0.5,0.3,1,0.3,1.6
					c0,1-0.3,1.8-1,2.5c-0.6,0.7-1.8,1-3.4,1h-3v4.8H472.5L472.5,1300.3L472.5,1300.3z M474.1,1294.2h3c1,0,1.7-0.2,2.1-0.6
					c0.4-0.4,0.6-0.9,0.6-1.6c0-0.5-0.1-0.9-0.4-1.3s-0.6-0.6-1-0.7c-0.3-0.1-0.7-0.1-1.4-0.1h-3L474.1,1294.2L474.1,1294.2
					L474.1,1294.2z"/>
				<path d="M483.2,1300.3v-11.7h1.4v11.7H483.2z"/>
				<path d="M492.6,1297.6l1.5,0.2c-0.2,0.9-0.7,1.5-1.3,2s-1.4,0.7-2.4,0.7c-1.2,0-2.2-0.4-3-1.1s-1.1-1.8-1.1-3.2s0.4-2.5,1.1-3.3
					c0.7-0.8,1.7-1.2,2.8-1.2s2.1,0.4,2.8,1.2s1.1,1.8,1.1,3.2v0.4h-6.3c0,0.9,0.3,1.6,0.8,2.1c0.5,0.5,1.1,0.7,1.8,0.7
					c0.5,0,1-0.1,1.3-0.4S492.4,1298.2,492.6,1297.6L492.6,1297.6L492.6,1297.6z M487.9,1295.3h4.7c-0.1-0.7-0.2-1.2-0.5-1.6
					c-0.5-0.6-1-0.8-1.8-0.8c-0.7,0-1.2,0.2-1.7,0.7C488.2,1293.9,488,1294.5,487.9,1295.3L487.9,1295.3L487.9,1295.3z"/>
				<path d="M501.4,1299.3c-0.5,0.4-1,0.8-1.5,1s-1,0.3-1.6,0.3c-0.9,0-1.6-0.2-2.1-0.7c-0.5-0.4-0.8-1-0.8-1.7
					c0-0.4,0.1-0.8,0.3-1.1c0.2-0.3,0.4-0.6,0.7-0.8c0.3-0.2,0.7-0.4,1-0.5c0.3-0.1,0.7-0.2,1.3-0.2c1.2-0.1,2-0.3,2.6-0.5v-0.4
					c0-0.6-0.1-1-0.4-1.2c-0.4-0.3-0.9-0.5-1.6-0.5c-0.7,0-1.2,0.1-1.5,0.3c-0.3,0.2-0.6,0.7-0.7,1.2l-1.4-0.2
					c0.1-0.6,0.3-1.1,0.6-1.4s0.7-0.7,1.3-0.8s1.2-0.3,1.9-0.3s1.3,0.1,1.8,0.2s0.8,0.4,1,0.6c0.2,0.3,0.4,0.6,0.5,1
					c0,0.2,0.1,0.7,0.1,1.3v1.9c0,1.3,0,2.2,0.1,2.5s0.2,0.7,0.4,1h-1.5C501.6,1300,501.5,1299.6,501.4,1299.3L501.4,1299.3
					L501.4,1299.3z M501.3,1296.1c-0.5,0.2-1.3,0.4-2.3,0.5c-0.6,0.1-1,0.2-1.2,0.3s-0.4,0.3-0.6,0.5c-0.1,0.2-0.2,0.4-0.2,0.7
					c0,0.4,0.1,0.7,0.4,1c0.3,0.2,0.7,0.4,1.3,0.4s1-0.1,1.5-0.4s0.8-0.6,1-1c0.2-0.3,0.2-0.8,0.2-1.4L501.3,1296.1L501.3,1296.1z"
					/>
				<path d="M504.4,1297.8l1.4-0.2c0.1,0.6,0.3,1,0.7,1.3c0.4,0.3,0.9,0.4,1.5,0.4s1.2-0.1,1.5-0.4s0.5-0.6,0.5-0.9
					c0-0.3-0.1-0.6-0.4-0.8c-0.2-0.1-0.7-0.3-1.5-0.5c-1-0.3-1.8-0.5-2.2-0.7s-0.7-0.5-0.9-0.8s-0.3-0.7-0.3-1.1
					c0-0.4,0.1-0.7,0.3-1.1c0.2-0.3,0.4-0.6,0.7-0.8c0.2-0.2,0.5-0.3,0.9-0.4s0.8-0.2,1.2-0.2c0.7,0,1.2,0.1,1.8,0.3
					c0.5,0.2,0.9,0.4,1.1,0.8c0.2,0.3,0.4,0.8,0.5,1.3l-1.4,0.2c-0.1-0.4-0.2-0.8-0.5-1s-0.7-0.4-1.3-0.4c-0.7,0-1.1,0.1-1.4,0.3
					s-0.4,0.5-0.4,0.8c0,0.2,0.1,0.3,0.2,0.5s0.3,0.3,0.5,0.4c0.1,0.1,0.6,0.2,1.3,0.4c1,0.3,1.7,0.5,2.1,0.7
					c0.4,0.2,0.7,0.4,0.9,0.8s0.3,0.7,0.3,1.2s-0.1,0.9-0.4,1.3c-0.3,0.4-0.7,0.8-1.2,1s-1.1,0.3-1.8,0.3c-1.1,0-1.9-0.2-2.5-0.7
					S504.6,1298.7,504.4,1297.8L504.4,1297.8L504.4,1297.8z"/>
				<path d="M518.7,1300.3v-1.2c-0.7,1-1.5,1.4-2.7,1.4c-0.5,0-1-0.1-1.4-0.3s-0.8-0.4-1-0.7c-0.2-0.3-0.4-0.6-0.4-1.1
					c-0.1-0.3-0.1-0.7-0.1-1.3v-5.2h1.4v4.7c0,0.8,0,1.2,0.1,1.5c0.1,0.4,0.3,0.7,0.6,0.9c0.3,0.2,0.7,0.3,1.1,0.3s0.8-0.1,1.2-0.3
					s0.6-0.5,0.8-0.9s0.2-0.9,0.2-1.7v-4.5h1.4v8.5L518.7,1300.3L518.7,1300.3L518.7,1300.3z"/>
				<path d="M522.2,1300.3v-8.5h1.3v1.3c0.3-0.6,0.6-1,0.9-1.2s0.6-0.3,0.9-0.3c0.5,0,1,0.2,1.5,0.5l-0.5,1.3
					c-0.3-0.2-0.7-0.3-1-0.3c-0.3,0-0.6,0.1-0.8,0.3c-0.2,0.2-0.4,0.4-0.5,0.8c-0.2,0.5-0.2,1.1-0.2,1.7v4.4L522.2,1300.3
					L522.2,1300.3L522.2,1300.3z"/>
				<path d="M533.5,1297.6l1.5,0.2c-0.2,0.9-0.7,1.5-1.3,2c-0.6,0.5-1.4,0.7-2.4,0.7c-1.2,0-2.2-0.4-2.9-1.1s-1.1-1.8-1.1-3.2
					s0.4-2.5,1.1-3.3c0.7-0.8,1.7-1.2,2.8-1.2c1.2,0,2.1,0.4,2.8,1.2c0.7,0.8,1.1,1.8,1.1,3.2v0.4h-6.3c0,0.9,0.3,1.6,0.8,2.1
					c0.5,0.5,1.1,0.7,1.8,0.7c0.5,0,1-0.1,1.3-0.4S533.3,1298.2,533.5,1297.6L533.5,1297.6L533.5,1297.6z M528.8,1295.3h4.7
					c-0.1-0.7-0.2-1.2-0.5-1.6c-0.5-0.6-1-0.8-1.8-0.8c-0.7,0-1.2,0.2-1.7,0.7C529.1,1293.9,528.8,1294.5,528.8,1295.3L528.8,1295.3
					L528.8,1295.3z"/>
				<path d="M536.2,1297.8l1.4-0.2c0.1,0.6,0.3,1,0.7,1.3c0.4,0.3,0.9,0.4,1.5,0.4c0.7,0,1.1-0.1,1.5-0.4s0.5-0.6,0.5-0.9
					c0-0.3-0.1-0.6-0.4-0.8c-0.2-0.1-0.7-0.3-1.5-0.5c-1-0.3-1.8-0.5-2.2-0.7c-0.4-0.2-0.7-0.5-0.9-0.8s-0.3-0.7-0.3-1.1
					c0-0.4,0.1-0.7,0.3-1.1c0.2-0.3,0.4-0.6,0.7-0.8c0.2-0.2,0.5-0.3,0.9-0.4s0.8-0.2,1.2-0.2c0.7,0,1.2,0.1,1.8,0.3
					c0.5,0.2,0.9,0.4,1.1,0.8c0.2,0.3,0.4,0.8,0.5,1.3l-1.4,0.2c-0.1-0.4-0.2-0.8-0.5-1s-0.7-0.4-1.3-0.4c-0.7,0-1.1,0.1-1.4,0.3
					c-0.3,0.2-0.4,0.5-0.4,0.8c0,0.2,0.1,0.3,0.2,0.5s0.3,0.3,0.5,0.4c0.1,0.1,0.6,0.2,1.3,0.4c1,0.3,1.7,0.5,2.1,0.7
					c0.4,0.2,0.7,0.4,0.9,0.8c0.2,0.3,0.3,0.7,0.3,1.2s-0.1,0.9-0.4,1.3c-0.3,0.4-0.7,0.8-1.2,1c-0.5,0.2-1.1,0.3-1.8,0.3
					c-1.1,0-1.9-0.2-2.5-0.7S536.4,1298.7,536.2,1297.8L536.2,1297.8L536.2,1297.8z"/>
			</g>
			<g>
				<g>
					<path d="M666.1,1290.5l4.5-11.7h1.7l4.8,11.7h-1.8l-1.4-3.5H669l-1.3,3.5H666.1L666.1,1290.5L666.1,1290.5z M669.5,1285.7h4
						l-1.2-3.2c-0.4-1-0.7-1.8-0.8-2.4c-0.1,0.8-0.4,1.5-0.6,2.2L669.5,1285.7z"/>
					<path d="M678.1,1290.5v-11.7h1.4v11.7H678.1z"/>
					<path d="M687.5,1287.8l1.5,0.2c-0.2,0.9-0.7,1.5-1.3,2c-0.6,0.5-1.4,0.7-2.4,0.7c-1.2,0-2.2-0.4-3-1.1
						c-0.7-0.8-1.1-1.8-1.1-3.2s0.4-2.5,1.1-3.3c0.7-0.8,1.7-1.2,2.9-1.2c1.2,0,2.1,0.4,2.8,1.2c0.7,0.8,1.1,1.8,1.1,3.2v0.4h-6.3
						c0,0.9,0.3,1.6,0.8,2.1c0.5,0.5,1.1,0.7,1.8,0.7c0.5,0,1-0.1,1.3-0.4S687.3,1288.4,687.5,1287.8L687.5,1287.8L687.5,1287.8z
						 M682.8,1285.5h4.7c-0.1-0.7-0.2-1.2-0.5-1.6c-0.5-0.6-1-0.8-1.8-0.8c-0.7,0-1.2,0.2-1.7,0.7
						C683.1,1284.1,682.9,1284.7,682.8,1285.5L682.8,1285.5L682.8,1285.5z"/>
					<path d="M689.9,1290.5l3.1-4.4l-2.9-4.1h1.8l1.3,2c0.2,0.4,0.4,0.7,0.6,0.9c0.2-0.3,0.5-0.7,0.6-0.9l1.4-2h1.7l-2.9,4l3.2,4.5
						H696l-1.7-2.6l-0.5-0.7l-2.2,3.3L689.9,1290.5L689.9,1290.5L689.9,1290.5z"/>
					<path d="M703.2,1286.8l1.5-0.1c0.1,0.6,0.2,1.1,0.5,1.4c0.2,0.4,0.6,0.7,1.2,0.9c0.5,0.2,1.1,0.3,1.8,0.3
						c0.6,0,1.1-0.1,1.6-0.3s0.8-0.4,1-0.7c0.2-0.3,0.3-0.6,0.3-1s-0.1-0.7-0.3-1c-0.2-0.3-0.6-0.5-1-0.7c-0.3-0.1-1-0.3-2.1-0.6
						c-1.1-0.3-1.8-0.5-2.3-0.7c-0.6-0.3-1-0.7-1.2-1.1c-0.3-0.4-0.4-0.9-0.4-1.4c0-0.6,0.2-1.1,0.5-1.7c0.3-0.5,0.8-0.9,1.5-1.2
						c0.6-0.3,1.4-0.4,2.1-0.4c0.9,0,1.6,0.1,2.3,0.4c0.7,0.3,1.2,0.7,1.5,1.2s0.5,1.2,0.6,1.8l-1.5,0.1c-0.1-0.7-0.3-1.3-0.8-1.7
						c-0.5-0.4-1.1-0.6-2-0.6c-0.9,0-1.6,0.2-2,0.5c-0.4,0.3-0.6,0.8-0.6,1.2c0,0.4,0.2,0.8,0.5,1c0.3,0.3,1.1,0.6,2.3,0.8
						c1.3,0.3,2.1,0.5,2.6,0.8c0.7,0.3,1.2,0.7,1.5,1.2c0.3,0.5,0.5,1,0.5,1.7s-0.2,1.2-0.5,1.8c-0.4,0.6-0.9,1-1.5,1.3
						c-0.7,0.3-1.4,0.5-2.2,0.5c-1.1,0-1.9-0.2-2.7-0.5c-0.7-0.3-1.3-0.8-1.7-1.4C703.4,1288.3,703.2,1287.6,703.2,1286.8
						L703.2,1286.8L703.2,1286.8z"/>
					<path d="M714.4,1280.5v-1.7h1.4v1.7H714.4z M714.4,1290.5v-8.5h1.4v8.5H714.4z"/>
					<path d="M718,1290.5v-8.5h1.3v1.2c0.6-0.9,1.5-1.4,2.7-1.4c0.5,0,1,0.1,1.4,0.3c0.4,0.2,0.8,0.4,1,0.7c0.2,0.3,0.4,0.7,0.5,1.1
						c0,0.3,0.1,0.7,0.1,1.4v5.2h-1.4v-5.2c0-0.6-0.1-1-0.2-1.3c-0.1-0.3-0.3-0.5-0.6-0.7c-0.3-0.2-0.6-0.3-1-0.3
						c-0.6,0-1.1,0.2-1.6,0.6c-0.4,0.4-0.7,1.1-0.7,2.2v4.6L718,1290.5L718,1290.5L718,1290.5z"/>
					<path d="M726.8,1291.2l1.4,0.2c0.1,0.4,0.2,0.7,0.5,0.9c0.4,0.3,0.8,0.4,1.5,0.4c0.7,0,1.2-0.1,1.5-0.4
						c0.4-0.3,0.6-0.6,0.7-1.1c0.1-0.3,0.1-0.9,0.1-1.8c-0.6,0.7-1.4,1.1-2.3,1.1c-1.2,0-2.1-0.4-2.7-1.3s-1-1.8-1-3
						c0-0.8,0.1-1.6,0.4-2.2c0.3-0.7,0.7-1.2,1.3-1.6c0.6-0.4,1.2-0.6,2-0.6c1,0,1.8,0.4,2.5,1.2v-1h1.3v7.3c0,1.3-0.1,2.2-0.4,2.8
						c-0.3,0.6-0.7,1-1.3,1.3c-0.6,0.3-1.3,0.5-2.1,0.5c-1,0-1.8-0.2-2.5-0.7C727.1,1292.8,726.8,1292.1,726.8,1291.2L726.8,1291.2
						L726.8,1291.2z M728,1286.1c0,1.1,0.2,1.9,0.7,2.4s1,0.8,1.7,0.8c0.7,0,1.2-0.2,1.7-0.8s0.7-1.3,0.7-2.4s-0.2-1.8-0.7-2.3
						c-0.5-0.5-1-0.8-1.7-0.8c-0.7,0-1.2,0.3-1.6,0.8S728,1285.1,728,1286.1L728,1286.1L728,1286.1z"/>
					<path d="M736.2,1290.5v-11.7h1.4v4.2c0.7-0.8,1.5-1.2,2.5-1.2c0.6,0,1.2,0.1,1.6,0.4c0.5,0.2,0.8,0.6,1,1
						c0.2,0.4,0.3,1.1,0.3,1.9v5.4h-1.4v-5.4c0-0.7-0.2-1.2-0.5-1.6s-0.8-0.5-1.3-0.5c-0.4,0-0.8,0.1-1.2,0.3
						c-0.4,0.2-0.6,0.5-0.8,0.9s-0.2,0.9-0.2,1.6v4.6H736.2L736.2,1290.5L736.2,1290.5z"/>
				</g>
				<g>
					<path d="M668.8,1310.1l-2.6-8.5h1.5l1.3,4.9l0.5,1.8c0-0.1,0.2-0.7,0.4-1.8l1.4-5h1.5l1.3,4.9l0.4,1.6l0.5-1.6l1.5-4.9h1.4
						l-2.6,8.5h-1.5l-1.4-5.1l-0.3-1.4l-1.7,6.5L668.8,1310.1L668.8,1310.1L668.8,1310.1z"/>
					<path d="M679,1300.1v-1.7h1.4v1.7H679z M679,1310.1v-8.5h1.4v8.5H679z"/>
					<path d="M685.8,1308.8l0.2,1.3c-0.4,0.1-0.8,0.1-1.1,0.1c-0.5,0-0.9-0.1-1.2-0.2s-0.5-0.4-0.6-0.7s-0.2-0.8-0.2-1.7v-4.9h-1
						v-1.1h1v-2.1l1.4-0.9v3h1.4v1.1h-1.4v4.9c0,0.4,0,0.7,0.1,0.8s0.1,0.2,0.2,0.3c0.1,0.1,0.3,0.1,0.5,0.1
						C685.3,1308.9,685.5,1308.9,685.8,1308.8L685.8,1308.8L685.8,1308.8z"/>
					<path d="M687.2,1310.1v-11.7h1.4v4.2c0.7-0.8,1.5-1.2,2.5-1.2c0.6,0,1.2,0.1,1.6,0.4c0.5,0.2,0.8,0.6,1,1
						c0.2,0.4,0.3,1.1,0.3,1.9v5.4h-1.4v-5.4c0-0.7-0.2-1.2-0.5-1.6s-0.8-0.5-1.3-0.5c-0.4,0-0.8,0.1-1.2,0.3s-0.6,0.5-0.8,0.9
						c-0.2,0.4-0.2,0.9-0.2,1.6v4.6H687.2L687.2,1310.1L687.2,1310.1z"/>
					<path d="M698.8,1310.1l4.5-11.7h1.7l4.8,11.7H708l-1.4-3.5h-4.9l-1.3,3.5H698.8L698.8,1310.1L698.8,1310.1z M702.1,1305.3h4
						l-1.2-3.2c-0.4-1-0.6-1.8-0.8-2.4c-0.2,0.8-0.4,1.5-0.6,2.2L702.1,1305.3z"/>
					<path d="M710.8,1310.1v-8.5h1.3v1.3c0.3-0.6,0.6-1,0.9-1.2c0.3-0.2,0.6-0.3,0.9-0.3c0.5,0,1,0.2,1.5,0.5l-0.5,1.3
						c-0.4-0.2-0.7-0.3-1-0.3c-0.3,0-0.6,0.1-0.8,0.3c-0.2,0.2-0.4,0.4-0.5,0.8c-0.2,0.5-0.2,1.1-0.2,1.7v4.4L710.8,1310.1
						L710.8,1310.1L710.8,1310.1z"/>
					<path d="M722,1307.4l1.5,0.2c-0.2,0.9-0.7,1.5-1.3,2c-0.6,0.5-1.4,0.7-2.4,0.7c-1.2,0-2.2-0.4-3-1.1c-0.7-0.8-1.1-1.8-1.1-3.2
						s0.4-2.5,1.1-3.3c0.7-0.8,1.7-1.2,2.8-1.2c1.2,0,2.1,0.4,2.8,1.2c0.7,0.8,1.1,1.8,1.1,3.2v0.4h-6.3c0,0.9,0.3,1.6,0.8,2.1
						c0.5,0.5,1.1,0.7,1.8,0.7c0.5,0,1-0.1,1.4-0.4S721.8,1308,722,1307.4L722,1307.4L722,1307.4z M717.3,1305.1h4.7
						c-0.1-0.7-0.2-1.2-0.5-1.6c-0.5-0.6-1-0.8-1.8-0.8c-0.7,0-1.2,0.2-1.7,0.7C717.6,1303.7,717.3,1304.3,717.3,1305.1
						L717.3,1305.1L717.3,1305.1z"/>
					<path d="M725.7,1310.1v-1.6h1.6v1.6H725.7z"/>
					<path d="M729.8,1310.1v-8.5h1.3v1.2c0.6-0.9,1.5-1.4,2.7-1.4c0.5,0,1,0.1,1.4,0.3s0.8,0.4,1,0.7c0.2,0.3,0.4,0.7,0.5,1.1
						c0,0.3,0.1,0.7,0.1,1.4v5.2h-1.4v-5.2c0-0.6-0.1-1-0.2-1.3c-0.1-0.3-0.3-0.5-0.6-0.7c-0.3-0.2-0.6-0.3-1-0.3
						c-0.6,0-1.1,0.2-1.6,0.6c-0.4,0.4-0.7,1.1-0.7,2.2v4.6L729.8,1310.1L729.8,1310.1L729.8,1310.1z"/>
					<path d="M744.4,1309.1c-0.5,0.4-1,0.8-1.5,1s-1,0.3-1.6,0.3c-0.9,0-1.6-0.2-2.1-0.7c-0.5-0.4-0.8-1-0.8-1.7
						c0-0.4,0.1-0.8,0.3-1.1c0.2-0.3,0.4-0.6,0.7-0.8c0.3-0.2,0.6-0.4,1-0.5c0.3-0.1,0.7-0.2,1.3-0.2c1.2-0.1,2-0.3,2.6-0.5v-0.4
						c0-0.6-0.1-1-0.4-1.2c-0.4-0.3-0.9-0.5-1.6-0.5c-0.7,0-1.2,0.1-1.5,0.3c-0.3,0.2-0.6,0.7-0.7,1.2l-1.4-0.2
						c0.1-0.6,0.3-1.1,0.6-1.4c0.3-0.4,0.7-0.7,1.3-0.8s1.2-0.3,1.9-0.3c0.7,0,1.3,0.1,1.8,0.2s0.8,0.4,1,0.6c0.2,0.3,0.4,0.6,0.5,1
						c0,0.2,0.1,0.7,0.1,1.3v1.9c0,1.3,0,2.2,0.1,2.5s0.2,0.7,0.4,1h-1.5C744.6,1309.8,744.5,1309.4,744.4,1309.1L744.4,1309.1
						L744.4,1309.1z M744.3,1305.9c-0.5,0.2-1.3,0.4-2.3,0.5c-0.6,0.1-1,0.2-1.2,0.3s-0.4,0.3-0.6,0.5c-0.1,0.2-0.2,0.4-0.2,0.7
						c0,0.4,0.1,0.7,0.4,1c0.3,0.2,0.7,0.4,1.3,0.4s1-0.1,1.5-0.4s0.8-0.6,1-1c0.1-0.3,0.2-0.8,0.2-1.4L744.3,1305.9L744.3,1305.9z"
						/>
				</g>
			</g>
		</g>
	</g>
	<g>
		<path class="st1" d="M777.3,601.5c0-36.4,0-77.2,0-113.5"/>
		<path class="st1" d="M891.5,487V117.2"/>
		<path class="st1" d="M263.8,1v111.4c0,161.6,0,323.1,0,484.7"/>
		<path class="st1" d="M149.6,486.6V117.2"/>
		<path class="st1" d="M777.3,487.3V1"/>
		<path class="st1" d="M263.7,597.1c0,161.6,0,327.9,0,489.6h513.5V973.1"/>
		<path class="st1" d="M777.3,601.5v149.6c-27.1,1.3-35.5,21.4-35.1,36.4c0.4,16.9,8.8,33.5,35,36v149.2H264.4"/>
		<path class="st1" d="M968.8,140.8v321.7c0,13.8-11.2,25-25,25H97.2c-13.8,0-25-11.2-25-25V140.8c0-13.8,11.2-25,25-25h846.6
			C957.6,115.8,968.8,127,968.8,140.8z"/>
		<path class="st1" d="M185.4,115.8V36.2c0-19.3,15.7-35,35-35h601.3c19.3,0,35,15.7,35,35v79.6"/>
		<path class="st1" d="M185.4,487.7v79.6c0,19.3,15.7,35,35,35h601.3c19.3,0,35-15.7,35-35v-79.6"/>
	</g>
	<g>
		<g>
			<g>
				<path d="M515.4,182.6l11.7,4.5v1.7l-11.7,4.8v-1.8l3.5-1.4v-4.9l-3.5-1.3V182.6L515.4,182.6z M520.2,186v4l3.2-1.2
					c1-0.4,1.8-0.6,2.4-0.8c-0.8-0.1-1.5-0.4-2.2-0.6L520.2,186z"/>
				<path d="M519.4,206.8l-0.4,1.6c-1.3-0.3-2.2-0.9-2.9-1.8c-0.7-0.8-1-1.9-1-3.1s0.3-2.3,0.8-3.1s1.2-1.4,2.2-1.8s2-0.6,3.1-0.6
					c1.2,0,2.3,0.2,3.2,0.7s1.6,1.1,2.1,2c0.5,0.9,0.7,1.8,0.7,2.8c0,1.2-0.3,2.1-0.9,2.9s-1.4,1.4-2.5,1.7l-0.4-1.5
					c0.8-0.3,1.5-0.7,1.9-1.2c0.4-0.5,0.6-1.2,0.6-1.9c0-0.9-0.2-1.6-0.7-2.2s-1-1-1.7-1.3s-1.5-0.4-2.2-0.4c-1,0-1.9,0.1-2.6,0.4
					s-1.3,0.7-1.7,1.4s-0.5,1.3-0.5,2c0,0.9,0.2,1.6,0.8,2.2C517.7,206.2,518.5,206.6,519.4,206.8L519.4,206.8L519.4,206.8z"/>
				<path d="M516.4,215.6c-0.5-0.5-0.8-1-1-1.5s-0.3-1-0.3-1.6c0-0.9,0.2-1.6,0.7-2.1s1-0.8,1.7-0.8c0.4,0,0.8,0.1,1.1,0.3
					c0.3,0.2,0.6,0.4,0.8,0.7c0.2,0.3,0.4,0.6,0.5,1c0.1,0.3,0.2,0.7,0.2,1.3c0.1,1.2,0.3,2,0.5,2.6h0.4c0.6,0,1-0.1,1.2-0.4
					c0.3-0.4,0.5-0.9,0.5-1.6c0-0.7-0.1-1.2-0.3-1.5c-0.2-0.3-0.7-0.6-1.3-0.7l0.2-1.4c0.6,0.1,1.1,0.3,1.5,0.6
					c0.4,0.3,0.7,0.7,0.8,1.3s0.3,1.2,0.3,1.9s-0.1,1.3-0.2,1.8s-0.4,0.8-0.6,1c-0.3,0.2-0.6,0.4-1,0.4c-0.2,0.1-0.7,0.1-1.3,0.1
					h-1.9c-1.3,0-2.2,0-2.5,0.1s-0.7,0.2-1,0.4v-1.5C515.6,215.7,516,215.6,516.4,215.6L516.4,215.6L516.4,215.6z M519.6,215.4
					c-0.2-0.5-0.4-1.3-0.5-2.3c-0.1-0.6-0.2-1-0.3-1.2s-0.3-0.4-0.5-0.6c-0.2-0.1-0.4-0.2-0.7-0.2c-0.4,0-0.7,0.1-1,0.4
					c-0.2,0.3-0.4,0.7-0.4,1.3s0.1,1,0.4,1.5c0.2,0.4,0.6,0.8,1,0.9c0.3,0.1,0.8,0.2,1.4,0.2L519.6,215.4L519.6,215.4L519.6,215.4z"
					/>
				<path d="M516.6,222.3l-1.3,0.2c-0.1-0.4-0.1-0.8-0.1-1.1c0-0.5,0.1-0.9,0.2-1.2s0.4-0.5,0.7-0.6s0.8-0.2,1.7-0.2h4.9v-1h1.1v1
					h2.1l0.9,1.4h-3v1.4h-1.1v-1.4h-5c-0.4,0-0.7,0-0.8,0.1s-0.2,0.1-0.3,0.2s-0.1,0.3-0.1,0.5C516.6,221.8,516.6,222,516.6,222.3
					L516.6,222.3L516.6,222.3z"/>
				<path d="M516.4,229.2c-0.5-0.5-0.8-1-1-1.5s-0.3-1-0.3-1.6c0-0.9,0.2-1.6,0.7-2.1s1-0.8,1.7-0.8c0.4,0,0.8,0.1,1.1,0.3
					c0.3,0.2,0.6,0.4,0.8,0.7c0.2,0.3,0.4,0.6,0.5,1c0.1,0.3,0.2,0.7,0.2,1.3c0.1,1.2,0.3,2,0.5,2.6h0.4c0.6,0,1-0.1,1.2-0.4
					c0.3-0.4,0.5-0.9,0.5-1.6c0-0.7-0.1-1.2-0.3-1.5c-0.2-0.3-0.7-0.6-1.3-0.7l0.2-1.4c0.6,0.1,1.1,0.3,1.5,0.6
					c0.4,0.3,0.7,0.7,0.8,1.3s0.3,1.2,0.3,1.9s-0.1,1.3-0.2,1.8s-0.4,0.8-0.6,1c-0.3,0.2-0.6,0.4-1,0.5c-0.2,0-0.7,0.1-1.3,0.1h-1.9
					c-1.3,0-2.2,0-2.5,0.1s-0.7,0.2-1,0.4v-1.5C515.6,229.3,516,229.2,516.4,229.2L516.4,229.2L516.4,229.2z M519.6,229.1
					c-0.2-0.5-0.4-1.3-0.5-2.3c-0.1-0.6-0.2-1-0.3-1.2s-0.3-0.4-0.5-0.6c-0.2-0.1-0.4-0.2-0.7-0.2c-0.4,0-0.7,0.1-1,0.4
					c-0.2,0.3-0.4,0.7-0.4,1.3s0.1,1,0.4,1.5s0.6,0.8,1,1c0.3,0.1,0.8,0.2,1.4,0.2L519.6,229.1L519.6,229.1L519.6,229.1z"/>
				<path d="M515.4,232.7H527v1.4h-11.7V232.7z"/>
				<path d="M519.6,235.8c1.6,0,2.7,0.4,3.5,1.3c0.6,0.7,0.9,1.6,0.9,2.7c0,1.2-0.4,2.1-1.1,2.9s-1.8,1.1-3.2,1.1
					c-1.1,0-2-0.2-2.6-0.5s-1.1-0.8-1.5-1.4s-0.5-1.3-0.5-2c0-1.2,0.4-2.1,1.1-2.9S518.1,235.8,519.6,235.8L519.6,235.8z
					 M519.6,237.3c-1.1,0-1.9,0.2-2.4,0.7c-0.5,0.5-0.8,1.1-0.8,1.8s0.3,1.3,0.8,1.8c0.5,0.5,1.4,0.7,2.5,0.7c1,0,1.8-0.2,2.4-0.7
					c0.5-0.5,0.8-1.1,0.8-1.8s-0.3-1.3-0.8-1.8C521.5,237.6,520.7,237.3,519.6,237.3L519.6,237.3L519.6,237.3z"/>
				<path d="M514.7,245.2l-0.2,1.4c-0.4,0.1-0.7,0.2-0.9,0.5c-0.3,0.4-0.4,0.8-0.4,1.5c0,0.7,0.1,1.2,0.4,1.5s0.6,0.6,1.1,0.7
					c0.3,0.1,0.9,0.1,1.8,0.1c-0.7-0.6-1.1-1.4-1.1-2.3c0-1.2,0.4-2.1,1.3-2.7s1.8-1,3-1c0.8,0,1.5,0.1,2.2,0.4
					c0.7,0.3,1.2,0.7,1.6,1.3c0.4,0.6,0.6,1.2,0.6,2c0,1-0.4,1.8-1.2,2.5h1v1.3h-7.3c-1.3,0-2.2-0.1-2.8-0.4s-1-0.7-1.3-1.3
					c-0.3-0.6-0.5-1.3-0.5-2.1c0-1,0.2-1.8,0.7-2.5C513.1,245.5,513.7,245.2,514.7,245.2L514.7,245.2L514.7,245.2z M519.7,246.4
					c-1.1,0-1.9,0.2-2.4,0.7s-0.8,1-0.8,1.7s0.2,1.2,0.8,1.7s1.3,0.7,2.4,0.7s1.8-0.2,2.3-0.7c0.5-0.5,0.8-1,0.8-1.7
					s-0.3-1.2-0.8-1.6S520.7,246.4,519.7,246.4L519.7,246.4L519.7,246.4z"/>
				<path d="M515.4,260.1h1.2c-1-0.7-1.4-1.5-1.4-2.7c0-0.5,0.1-1,0.3-1.4c0.2-0.4,0.4-0.8,0.7-1s0.6-0.4,1.1-0.4
					c0.3-0.1,0.7-0.1,1.3-0.1h5.2v1.4h-4.7c-0.8,0-1.2,0-1.5,0.1c-0.4,0.1-0.7,0.3-0.9,0.6c-0.2,0.3-0.3,0.6-0.3,1.1
					s0.1,0.8,0.3,1.2s0.5,0.6,0.9,0.8s0.9,0.2,1.7,0.2h4.5v1.4h-8.5L515.4,260.1L515.4,260.1L515.4,260.1z"/>
				<path d="M518.1,269.4l-0.2,1.5c-0.9-0.2-1.5-0.7-2-1.3s-0.7-1.4-0.7-2.4c0-1.2,0.4-2.2,1.1-3s1.8-1.1,3.2-1.1s2.5,0.4,3.3,1.1
					s1.2,1.7,1.2,2.9s-0.4,2.1-1.2,2.8s-1.8,1.1-3.2,1.1h-0.4v-6.3c-0.9,0-1.6,0.3-2.1,0.8c-0.5,0.5-0.7,1.1-0.7,1.8
					c0,0.5,0.1,1,0.4,1.4S517.5,269.2,518.1,269.4L518.1,269.4L518.1,269.4z M520.4,264.7v4.7c0.7-0.1,1.2-0.2,1.6-0.5
					c0.5-0.5,0.8-1,0.8-1.8c0-0.7-0.2-1.2-0.7-1.7S521.1,264.7,520.4,264.7z"/>
				<path d="M519.6,276.7c1.6,0,2.7,0.4,3.5,1.3c0.6,0.7,0.9,1.6,0.9,2.7c0,1.2-0.4,2.1-1.1,2.9c-0.8,0.7-1.8,1.1-3.2,1.1
					c-1.1,0-2-0.2-2.6-0.5s-1.1-0.8-1.5-1.4s-0.5-1.3-0.5-2c0-1.2,0.4-2.1,1.1-2.9C517.1,277.1,518.1,276.7,519.6,276.7z
					 M519.6,278.2c-1.1,0-1.9,0.2-2.4,0.7c-0.5,0.5-0.8,1.1-0.8,1.8s0.3,1.3,0.8,1.8c0.5,0.5,1.4,0.7,2.5,0.7c1,0,1.8-0.2,2.4-0.7
					c0.5-0.5,0.8-1.1,0.8-1.8s-0.3-1.3-0.8-1.8C521.5,278.4,520.7,278.2,519.6,278.2L519.6,278.2z"/>
				<path d="M515.4,286.6h7.3v-1.3h1.1v1.3h0.9c0.6,0,1,0,1.3,0.1c0.4,0.1,0.7,0.4,0.9,0.7c0.2,0.4,0.3,0.8,0.3,1.5
					c0,0.4,0,0.9-0.1,1.3l-1.2-0.2c0-0.3,0.1-0.6,0.1-0.8c0-0.4-0.1-0.7-0.3-0.9s-0.5-0.3-1-0.3h-0.8v1.6h-1.1v-1.6h-7.3
					L515.4,286.6L515.4,286.6z"/>
				<path d="M519.1,295l0.1,1.5c-0.6,0.1-1.1,0.2-1.4,0.5s-0.7,0.6-0.9,1.2c-0.2,0.5-0.3,1.1-0.3,1.8c0,0.6,0.1,1.1,0.3,1.6
					s0.4,0.8,0.7,1c0.3,0.2,0.6,0.3,1,0.3s0.7-0.1,1-0.3c0.3-0.2,0.5-0.6,0.7-1c0.1-0.3,0.3-1,0.6-2.1c0.3-1.1,0.5-1.8,0.7-2.3
					c0.3-0.6,0.7-1,1.1-1.2c0.4-0.3,0.9-0.4,1.5-0.4c0.6,0,1.1,0.2,1.7,0.5s0.9,0.8,1.2,1.5c0.3,0.6,0.4,1.4,0.4,2.1
					c0,0.9-0.1,1.6-0.4,2.3s-0.7,1.2-1.2,1.5s-1.2,0.5-1.8,0.6l-0.1-1.5c0.7-0.1,1.3-0.4,1.7-0.8c0.4-0.5,0.6-1.1,0.6-2
					s-0.2-1.6-0.5-2s-0.8-0.6-1.2-0.6c-0.4,0-0.8,0.1-1,0.5c-0.3,0.3-0.5,1.1-0.8,2.3c-0.3,1.3-0.5,2.1-0.8,2.6
					c-0.3,0.7-0.7,1.2-1.2,1.5c-0.5,0.3-1,0.5-1.7,0.5s-1.2-0.2-1.8-0.5c-0.5-0.4-1-0.9-1.3-1.5c-0.3-0.7-0.5-1.4-0.5-2.2
					c0-1.1,0.2-1.9,0.5-2.7c0.3-0.7,0.8-1.3,1.4-1.7C517.6,295.3,518.3,295.1,519.1,295L519.1,295L519.1,295z"/>
				<path d="M525.4,306.3h1.7v1.4h-1.7V306.3z M515.3,306.3h8.5v1.4h-8.5V306.3z"/>
				<path d="M515.4,309.9h8.5v1.3h-1.2c0.4,0.3,0.8,0.6,1,1.1s0.4,0.9,0.4,1.5c0,0.6-0.1,1.1-0.4,1.5s-0.6,0.7-1.1,0.9
					c1,0.7,1.5,1.5,1.5,2.6c0,0.8-0.2,1.5-0.7,1.9s-1.2,0.7-2.2,0.7h-5.8v-1.4h5.3c0.6,0,1,0,1.2-0.1c0.2-0.1,0.5-0.3,0.6-0.5
					s0.2-0.5,0.2-0.9c0-0.6-0.2-1.1-0.6-1.5c-0.4-0.4-1-0.6-1.9-0.6h-4.9v-1.4h5.5c0.6,0,1.1-0.1,1.4-0.4c0.3-0.2,0.5-0.6,0.5-1.1
					c0-0.4-0.1-0.8-0.3-1.1s-0.5-0.6-0.9-0.8c-0.4-0.1-1-0.2-1.8-0.2h-4.4L515.4,309.9L515.4,309.9z"/>
				<path d="M512.1,323.5h11.7v1.3h-1.1c0.4,0.3,0.8,0.7,1,1c0.2,0.4,0.3,0.9,0.3,1.4c0,0.7-0.2,1.4-0.6,1.9c-0.4,0.5-0.9,1-1.6,1.2
					c-0.7,0.3-1.4,0.4-2.2,0.4c-0.9,0-1.7-0.2-2.3-0.5s-1.2-0.8-1.6-1.4s-0.5-1.2-0.5-1.9c0-0.5,0.1-0.9,0.3-1.3s0.5-0.7,0.8-0.9
					h-4.1V323.5L512.1,323.5L512.1,323.5z M519.5,324.8c-1.1,0-1.9,0.2-2.4,0.7s-0.8,1-0.8,1.6s0.3,1.2,0.8,1.6
					c0.5,0.5,1.4,0.7,2.5,0.7s1.9-0.2,2.4-0.7c0.5-0.4,0.8-1,0.8-1.6s-0.3-1.1-0.9-1.6S520.6,324.8,519.5,324.8L519.5,324.8
					L519.5,324.8z"/>
				<path d="M515.4,332.5H527v1.4h-11.7V332.5z"/>
				<path d="M518.1,342l-0.2,1.5c-0.9-0.2-1.5-0.7-2-1.3s-0.7-1.4-0.7-2.4c0-1.2,0.4-2.2,1.1-3s1.8-1.1,3.2-1.1s2.5,0.4,3.3,1.1
					s1.2,1.7,1.2,2.9s-0.4,2.1-1.2,2.8s-1.8,1.1-3.2,1.1h-0.4v-6.3c-0.9,0-1.6,0.3-2.1,0.8c-0.5,0.5-0.7,1.1-0.7,1.8
					c0,0.5,0.1,1,0.4,1.4S517.5,341.8,518.1,342L518.1,342L518.1,342z M520.4,337.3v4.7c0.7-0.1,1.2-0.2,1.6-0.5
					c0.5-0.5,0.8-1,0.8-1.8c0-0.7-0.2-1.2-0.7-1.7S521.1,337.3,520.4,337.3z"/>
				<path d="M515.4,350H527v4.4c0,0.8,0,1.4-0.1,1.8c-0.1,0.6-0.3,1-0.5,1.4s-0.6,0.7-1.1,0.9c-0.5,0.2-1,0.4-1.6,0.4
					c-1,0-1.8-0.3-2.5-1s-1-1.8-1-3.4v-3h-4.8L515.4,350L515.4,350L515.4,350z M521.5,351.5v3c0,1,0.2,1.7,0.6,2.1s0.9,0.6,1.6,0.6
					c0.5,0,0.9-0.1,1.2-0.4c0.3-0.2,0.6-0.6,0.7-1c0.1-0.3,0.1-0.7,0.1-1.4v-3H521.5L521.5,351.5L521.5,351.5z"/>
				<path d="M515.4,360.7H527v1.4h-11.7V360.7z"/>
				<path d="M518.1,370.1l-0.2,1.5c-0.9-0.2-1.5-0.7-2-1.3s-0.7-1.4-0.7-2.4c0-1.2,0.4-2.2,1.1-3s1.8-1.1,3.2-1.1s2.5,0.4,3.3,1.1
					s1.2,1.7,1.2,2.9s-0.4,2.1-1.2,2.8s-1.8,1.1-3.2,1.1h-0.4v-6.3c-0.9,0-1.6,0.3-2.1,0.8c-0.5,0.5-0.7,1.1-0.7,1.8
					c0,0.5,0.1,1,0.4,1.4S517.5,369.9,518.1,370.1L518.1,370.1L518.1,370.1z M520.4,365.4v4.7c0.7-0.1,1.2-0.2,1.6-0.5
					c0.5-0.5,0.8-1,0.8-1.8c0-0.7-0.2-1.2-0.7-1.7S521.1,365.4,520.4,365.4z"/>
				<path d="M516.4,378.9c-0.5-0.5-0.8-1-1-1.5s-0.3-1-0.3-1.6c0-0.9,0.2-1.6,0.7-2.1s1-0.8,1.7-0.8c0.4,0,0.8,0.1,1.1,0.3
					c0.3,0.2,0.6,0.4,0.8,0.7c0.2,0.3,0.4,0.6,0.5,1c0.1,0.3,0.2,0.7,0.2,1.3c0.1,1.2,0.3,2,0.5,2.6h0.4c0.6,0,1-0.1,1.2-0.4
					c0.3-0.4,0.5-0.9,0.5-1.6c0-0.7-0.1-1.2-0.3-1.5c-0.2-0.3-0.7-0.6-1.3-0.7l0.2-1.4c0.6,0.1,1.1,0.3,1.5,0.6
					c0.4,0.3,0.7,0.7,0.8,1.3s0.3,1.2,0.3,1.9s-0.1,1.3-0.2,1.8s-0.4,0.8-0.6,1c-0.3,0.2-0.6,0.4-1,0.5c-0.2,0-0.7,0.1-1.3,0.1h-1.9
					c-1.3,0-2.2,0-2.5,0.1s-0.7,0.2-1,0.4v-1.5C515.6,379.1,516,379,516.4,378.9L516.4,378.9L516.4,378.9z M519.6,378.8
					c-0.2-0.5-0.4-1.3-0.5-2.3c-0.1-0.6-0.2-1-0.3-1.2s-0.3-0.4-0.5-0.6c-0.2-0.1-0.4-0.2-0.7-0.2c-0.4,0-0.7,0.1-1,0.4
					c-0.2,0.3-0.4,0.7-0.4,1.3s0.1,1,0.4,1.5s0.6,0.8,1,1c0.3,0.1,0.8,0.2,1.4,0.2L519.6,378.8L519.6,378.8L519.6,378.8z"/>
				<path d="M517.9,381.9l0.2,1.4c-0.6,0.1-1,0.3-1.3,0.7c-0.3,0.4-0.5,0.9-0.5,1.5s0.1,1.1,0.4,1.5s0.6,0.5,1,0.5
					c0.3,0,0.6-0.1,0.8-0.4c0.1-0.2,0.3-0.7,0.5-1.5c0.3-1,0.5-1.8,0.7-2.2s0.5-0.7,0.8-0.9s0.7-0.3,1.1-0.3c0.4,0,0.7,0.1,1,0.3
					s0.6,0.4,0.8,0.7c0.2,0.2,0.3,0.5,0.4,0.9s0.2,0.8,0.2,1.2c0,0.7-0.1,1.2-0.3,1.8s-0.5,0.9-0.8,1.1s-0.8,0.4-1.3,0.5l-0.2-1.4
					c0.4-0.1,0.8-0.2,1-0.5c0.2-0.3,0.4-0.7,0.4-1.3c0-0.7-0.1-1.1-0.3-1.4s-0.5-0.4-0.8-0.4c-0.2,0-0.3,0.1-0.5,0.2
					s-0.3,0.3-0.4,0.5c0,0.1-0.2,0.6-0.4,1.3c-0.3,1-0.5,1.7-0.7,2.1c-0.2,0.4-0.4,0.7-0.8,0.9c-0.3,0.2-0.7,0.3-1.2,0.3
					s-0.9-0.1-1.3-0.4s-0.8-0.7-1-1.2s-0.3-1.1-0.3-1.8c0-1.1,0.2-1.9,0.7-2.5S517,382.1,517.9,381.9L517.9,381.9L517.9,381.9z"/>
				<path d="M515.4,396.2h1.2c-1-0.7-1.4-1.5-1.4-2.7c0-0.5,0.1-1,0.3-1.4s0.4-0.8,0.7-1s0.6-0.4,1.1-0.4c0.3-0.1,0.7-0.1,1.3-0.1
					h5.2v1.4h-4.7c-0.8,0-1.2,0-1.5,0.1c-0.4,0.1-0.7,0.3-0.9,0.6c-0.2,0.3-0.3,0.6-0.3,1.1s0.1,0.8,0.3,1.2s0.5,0.6,0.9,0.8
					s0.9,0.2,1.7,0.2h4.5v1.4h-8.5L515.4,396.2L515.4,396.2L515.4,396.2z"/>
				<path d="M515.4,399.7h8.5v1.3h-1.3c0.6,0.3,1,0.6,1.2,0.9s0.3,0.6,0.3,0.9c0,0.5-0.2,1-0.5,1.5l-1.3-0.5c0.2-0.4,0.3-0.7,0.3-1
					c0-0.3-0.1-0.6-0.3-0.8c-0.2-0.2-0.5-0.4-0.8-0.5c-0.5-0.2-1.1-0.2-1.7-0.2h-4.4L515.4,399.7L515.4,399.7z"/>
				<path d="M518.1,410.9l-0.2,1.5c-0.9-0.2-1.5-0.7-2-1.3s-0.7-1.4-0.7-2.4c0-1.2,0.4-2.2,1.1-3s1.8-1.1,3.2-1.1s2.5,0.4,3.3,1.1
					s1.2,1.7,1.2,2.9s-0.4,2.1-1.2,2.8s-1.8,1.1-3.2,1.1h-0.4v-6.3c-0.9,0-1.6,0.3-2.1,0.8c-0.5,0.5-0.7,1.1-0.7,1.8
					c0,0.5,0.1,1,0.4,1.4S517.5,410.7,518.1,410.9L518.1,410.9L518.1,410.9z M520.4,406.2v4.7c0.7-0.1,1.2-0.2,1.6-0.5
					c0.5-0.5,0.8-1,0.8-1.8c0-0.7-0.2-1.2-0.7-1.7S521.1,406.3,520.4,406.2z"/>
				<path d="M517.9,413.6l0.2,1.4c-0.6,0.1-1,0.3-1.3,0.7c-0.3,0.4-0.5,0.9-0.5,1.5s0.1,1.1,0.4,1.5s0.6,0.5,1,0.5
					c0.3,0,0.6-0.1,0.8-0.4c0.1-0.2,0.3-0.7,0.5-1.5c0.3-1,0.5-1.8,0.7-2.2s0.5-0.7,0.8-0.9s0.7-0.3,1.1-0.3c0.4,0,0.7,0.1,1,0.3
					s0.6,0.4,0.8,0.7c0.2,0.2,0.3,0.5,0.4,0.9s0.2,0.8,0.2,1.2c0,0.7-0.1,1.2-0.3,1.8s-0.5,0.9-0.8,1.1s-0.8,0.4-1.3,0.5l-0.2-1.4
					c0.4-0.1,0.8-0.2,1-0.5c0.2-0.3,0.4-0.7,0.4-1.3c0-0.7-0.1-1.1-0.3-1.4s-0.5-0.4-0.8-0.4c-0.2,0-0.3,0.1-0.5,0.2
					s-0.3,0.3-0.4,0.5c0,0.1-0.2,0.6-0.4,1.3c-0.3,1-0.5,1.7-0.7,2.1c-0.2,0.4-0.4,0.7-0.8,0.9c-0.3,0.2-0.7,0.3-1.2,0.3
					s-0.9-0.1-1.3-0.4s-0.8-0.7-1-1.2s-0.3-1.1-0.3-1.8c0-1.1,0.2-1.9,0.7-2.5S517,413.8,517.9,413.6L517.9,413.6L517.9,413.6z"/>
			</g>
			<g>
				<path d="M320.5,262.9l11.7,4.5v1.7l-11.7,4.8v-1.8l3.5-1.4v-4.9l-3.5-1.3V262.9z M325.3,266.3v4l3.2-1.2c1-0.4,1.8-0.6,2.4-0.8
					c-0.8-0.1-1.5-0.4-2.2-0.6L325.3,266.3z"/>
				<path d="M320.5,274.9h11.7v1.4h-11.7V274.9z"/>
				<path d="M323.2,284.3l-0.2,1.5c-0.9-0.2-1.5-0.7-2-1.3s-0.7-1.4-0.7-2.4c0-1.2,0.4-2.2,1.1-3s1.8-1.1,3.2-1.1s2.5,0.4,3.3,1.1
					s1.2,1.7,1.2,2.9s-0.4,2.1-1.2,2.8s-1.8,1.1-3.2,1.1h-0.4v-6.3c-0.9,0-1.6,0.3-2.1,0.8c-0.5,0.5-0.7,1.1-0.7,1.8
					c0,0.5,0.1,1,0.4,1.4S322.6,284.1,323.2,284.3L323.2,284.3L323.2,284.3z M325.6,279.6v4.7c0.7-0.1,1.2-0.2,1.6-0.5
					c0.5-0.5,0.8-1,0.8-1.8c0-0.7-0.2-1.2-0.7-1.7S326.3,279.7,325.6,279.6z"/>
				<path d="M320.5,286.7l4.4,3.1l4.1-2.9v1.8l-2,1.3c-0.4,0.2-0.7,0.4-1,0.6c0.3,0.2,0.7,0.5,0.9,0.6l2,1.4v1.7l-4-2.9l-4.5,3.1
					v-1.8l2.6-1.7l0.7-0.5l-3.3-2.2L320.5,286.7L320.5,286.7z"/>
				<path d="M324.3,300l0.1,1.5c-0.6,0.1-1.1,0.2-1.4,0.5s-0.7,0.6-0.9,1.2c-0.2,0.5-0.3,1.1-0.3,1.8c0,0.6,0.1,1.1,0.3,1.6
					s0.4,0.8,0.7,1c0.3,0.2,0.6,0.3,1,0.3s0.7-0.1,1-0.3c0.3-0.2,0.5-0.6,0.7-1c0.1-0.3,0.3-1,0.6-2.1c0.3-1.1,0.5-1.8,0.7-2.3
					c0.3-0.6,0.7-1,1.1-1.2c0.4-0.3,0.9-0.4,1.5-0.4c0.6,0,1.1,0.2,1.7,0.5s0.9,0.8,1.2,1.5c0.3,0.6,0.4,1.4,0.4,2.1
					c0,0.9-0.1,1.6-0.4,2.3s-0.7,1.2-1.2,1.5s-1.2,0.5-1.8,0.6l-0.1-1.5c0.7-0.1,1.3-0.4,1.7-0.8c0.4-0.5,0.6-1.1,0.6-2
					s-0.2-1.6-0.5-2s-0.8-0.6-1.2-0.6c-0.4,0-0.8,0.1-1,0.5c-0.3,0.3-0.5,1.1-0.8,2.3c-0.3,1.3-0.5,2.1-0.8,2.6
					c-0.3,0.7-0.7,1.2-1.2,1.5c-0.5,0.3-1,0.5-1.7,0.5s-1.2-0.2-1.8-0.5c-0.5-0.4-1-0.9-1.3-1.5c-0.3-0.7-0.5-1.4-0.5-2.2
					c0-1.1,0.2-1.9,0.5-2.7c0.3-0.7,0.8-1.3,1.4-1.7C322.8,300.2,323.5,300,324.3,300L324.3,300L324.3,300z"/>
				<path d="M330.5,311.2h1.7v1.4h-1.7V311.2z M320.5,311.2h8.5v1.4h-8.5V311.2z"/>
				<path d="M320.5,314.8h8.5v1.3h-1.2c0.9,0.6,1.4,1.5,1.4,2.7c0,0.5-0.1,1-0.3,1.4c-0.2,0.4-0.4,0.8-0.7,1s-0.7,0.4-1.1,0.5
					c-0.3,0-0.7,0.1-1.4,0.1h-5.2v-1.4h5.2c0.6,0,1-0.1,1.3-0.2c0.3-0.1,0.5-0.3,0.7-0.6s0.3-0.6,0.3-1c0-0.6-0.2-1.1-0.6-1.6
					c-0.4-0.4-1.1-0.7-2.2-0.7h-4.6L320.5,314.8L320.5,314.8z"/>
				<path d="M319.8,323.7l-0.2,1.4c-0.4,0.1-0.7,0.2-0.9,0.5c-0.3,0.4-0.4,0.8-0.4,1.5c0,0.7,0.1,1.2,0.4,1.5s0.6,0.6,1.1,0.7
					c0.3,0.1,0.9,0.1,1.8,0.1c-0.7-0.6-1.1-1.4-1.1-2.3c0-1.2,0.4-2.1,1.3-2.7s1.8-1,3-1c0.8,0,1.5,0.1,2.2,0.4
					c0.7,0.3,1.2,0.7,1.6,1.3c0.4,0.6,0.6,1.2,0.6,2c0,1-0.4,1.8-1.2,2.5h1v1.3h-7.3c-1.3,0-2.2-0.1-2.8-0.4s-1-0.7-1.3-1.3
					c-0.3-0.6-0.5-1.3-0.5-2.1c0-1,0.2-1.8,0.7-2.5C318.2,323.9,318.9,323.6,319.8,323.7L319.8,323.7L319.8,323.7z M324.9,324.8
					c-1.1,0-1.9,0.2-2.4,0.7s-0.8,1-0.8,1.7s0.2,1.2,0.8,1.7s1.3,0.7,2.4,0.7s1.8-0.2,2.3-0.7c0.5-0.5,0.8-1,0.8-1.7
					s-0.3-1.2-0.8-1.6S325.9,324.8,324.9,324.8L324.9,324.8L324.9,324.8z"/>
				<path d="M320.5,333h11.7v1.4H328c0.8,0.7,1.2,1.5,1.2,2.5c0,0.6-0.1,1.2-0.4,1.6s-0.6,0.8-1,1c-0.4,0.2-1.1,0.3-1.9,0.3h-5.4
					v-1.4h5.4c0.7,0,1.2-0.2,1.6-0.5s0.5-0.8,0.5-1.3c0-0.4-0.1-0.8-0.3-1.2s-0.5-0.6-0.9-0.8c-0.4-0.2-0.9-0.2-1.6-0.2h-4.6
					L320.5,333L320.5,333L320.5,333z"/>
			</g>
			<g>
				<path d="M300.9,264.2l8.5-2.6v1.5l-4.9,1.4l-1.8,0.5c0.1,0,0.7,0.2,1.8,0.4l5,1.4v1.5l-4.9,1.3l-1.6,0.4l1.6,0.5l4.9,1.5v1.4
					l-8.5-2.6v-1.5l5.1-1.4l1.4-0.3l-6.5-1.7L300.9,264.2L300.9,264.2L300.9,264.2z"/>
				<path d="M311,274.5h1.7v1.4H311V274.5z M300.9,274.5h8.5v1.4h-8.5V274.5z"/>
				<path d="M302.2,281.2l-1.3,0.2c-0.1-0.4-0.1-0.8-0.1-1.1c0-0.5,0.1-0.9,0.2-1.2c0.2-0.3,0.4-0.5,0.7-0.6s0.8-0.2,1.7-0.2h4.9v-1
					h1.1v1h2.1l0.9,1.4h-3v1.4h-1.1v-1.4h-5c-0.4,0-0.7,0-0.8,0.1s-0.2,0.1-0.3,0.2c-0.1,0.1-0.1,0.3-0.1,0.5
					C302.1,280.8,302.2,281,302.2,281.2L302.2,281.2L302.2,281.2z"/>
				<path d="M300.9,282.6h11.7v1.4h-4.2c0.8,0.7,1.2,1.5,1.2,2.5c0,0.6-0.1,1.2-0.4,1.6s-0.6,0.8-1,1s-1.1,0.3-1.9,0.3h-5.4v-1.4
					h5.4c0.7,0,1.2-0.2,1.6-0.5s0.5-0.8,0.5-1.3c0-0.4-0.1-0.8-0.3-1.2c-0.2-0.4-0.5-0.6-0.9-0.8c-0.4-0.2-0.9-0.2-1.6-0.2h-4.6
					L300.9,282.6L300.9,282.6L300.9,282.6z"/>
				<path d="M300.9,294.3l11.7,4.5v1.7l-11.7,4.8v-1.8l3.5-1.4v-4.9l-3.5-1.3V294.3z M305.7,297.6v4l3.2-1.2c1-0.4,1.8-0.6,2.4-0.8
					c-0.8-0.1-1.5-0.4-2.2-0.6L305.7,297.6z"/>
				<path d="M300.9,306.2h8.5v1.3h-1.3c0.6,0.3,1,0.6,1.2,0.9s0.3,0.6,0.3,0.9c0,0.5-0.2,1-0.5,1.5l-1.3-0.5c0.2-0.4,0.3-0.7,0.3-1
					c0-0.3-0.1-0.6-0.3-0.8c-0.2-0.2-0.5-0.4-0.8-0.5c-0.5-0.2-1.1-0.2-1.7-0.2h-4.4L300.9,306.2L300.9,306.2z"/>
				<path d="M303.7,317.5l-0.2,1.5c-0.9-0.2-1.5-0.7-2-1.3c-0.5-0.6-0.7-1.4-0.7-2.4c0-1.2,0.4-2.2,1.1-3s1.8-1.1,3.2-1.1
					s2.5,0.4,3.3,1.1s1.2,1.7,1.2,2.9s-0.4,2.1-1.2,2.8s-1.8,1.1-3.2,1.1h-0.4v-6.3c-0.9,0-1.6,0.3-2.1,0.8
					c-0.5,0.5-0.7,1.1-0.7,1.8c0,0.5,0.1,1,0.4,1.4S303,317.3,303.7,317.5L303.7,317.5L303.7,317.5z M306,312.8v4.7
					c0.7-0.1,1.2-0.2,1.6-0.5c0.5-0.5,0.8-1,0.8-1.8c0-0.7-0.2-1.2-0.7-1.7S306.7,312.8,306,312.8z"/>
				<path d="M300.9,321.2h1.6v1.6h-1.6V321.2z"/>
				<path d="M300.9,325.3h8.5v1.3h-1.2c0.9,0.6,1.4,1.5,1.4,2.7c0,0.5-0.1,1-0.3,1.4s-0.4,0.8-0.7,1s-0.7,0.4-1.1,0.5
					c-0.3,0-0.7,0.1-1.4,0.1h-5.2v-1.4h5.2c0.6,0,1-0.1,1.3-0.2c0.3-0.1,0.5-0.3,0.7-0.6s0.3-0.6,0.3-1c0-0.6-0.2-1.1-0.6-1.6
					c-0.4-0.4-1.1-0.7-2.2-0.7h-4.6V325.3z"/>
				<path d="M302,339.9c-0.5-0.5-0.8-1-1-1.5s-0.3-1-0.3-1.6c0-0.9,0.2-1.6,0.7-2.1s1-0.8,1.7-0.8c0.4,0,0.8,0.1,1.1,0.3
					c0.3,0.2,0.6,0.4,0.8,0.7c0.2,0.3,0.4,0.6,0.5,1c0.1,0.3,0.2,0.7,0.2,1.3c0.1,1.2,0.3,2,0.5,2.6h0.4c0.6,0,1-0.1,1.2-0.4
					c0.3-0.4,0.5-0.9,0.5-1.6c0-0.7-0.1-1.2-0.3-1.5c-0.2-0.3-0.7-0.6-1.2-0.7l0.2-1.4c0.6,0.1,1.1,0.3,1.5,0.6s0.7,0.7,0.8,1.3
					s0.3,1.2,0.3,1.9s-0.1,1.3-0.2,1.8s-0.4,0.8-0.6,1c-0.3,0.2-0.6,0.4-1,0.5c-0.2,0-0.7,0.1-1.3,0.1h-1.9c-1.3,0-2.2,0-2.5,0.1
					c-0.3,0.1-0.7,0.2-1,0.4v-1.5C301.2,340.1,301.6,340,302,339.9L302,339.9L302,339.9z M305.2,339.8c-0.2-0.5-0.4-1.3-0.5-2.3
					c-0.1-0.6-0.2-1-0.3-1.2s-0.3-0.4-0.5-0.6c-0.2-0.1-0.4-0.2-0.7-0.2c-0.4,0-0.7,0.1-1,0.4c-0.2,0.3-0.4,0.7-0.4,1.3
					s0.1,1,0.4,1.5s0.6,0.8,1,1c0.3,0.1,0.8,0.2,1.4,0.2L305.2,339.8L305.2,339.8L305.2,339.8z"/>
			</g>
		</g>
		<g>
			<g>
				<path d="M304.9,550.8l4.5-11.7h1.7l4.8,11.7h-1.8l-1.4-3.5h-4.9l-1.3,3.5H304.9L304.9,550.8L304.9,550.8z M308.3,546h4l-1.2-3.2
					c-0.4-1-0.7-1.8-0.8-2.4c-0.2,0.8-0.4,1.5-0.6,2.2L308.3,546z"/>
				<path d="M329,546.7l1.5,0.4c-0.3,1.3-0.9,2.2-1.8,2.9s-1.9,1-3.1,1s-2.3-0.3-3.1-0.8s-1.4-1.3-1.8-2.2s-0.6-2-0.6-3.1
					c0-1.2,0.2-2.3,0.7-3.2c0.5-0.9,1.1-1.6,2-2.1c0.9-0.5,1.8-0.7,2.8-0.7c1.2,0,2.2,0.3,3,0.9c0.8,0.6,1.3,1.4,1.7,2.5l-1.5,0.4
					c-0.3-0.8-0.7-1.5-1.2-1.9s-1.2-0.6-1.9-0.6c-0.9,0-1.7,0.2-2.2,0.7s-1,1-1.3,1.7c-0.2,0.7-0.4,1.5-0.4,2.2c0,1,0.1,1.9,0.4,2.6
					s0.7,1.3,1.3,1.7s1.3,0.5,2,0.5c0.9,0,1.6-0.2,2.2-0.8C328.4,548.4,328.8,547.7,329,546.7L329,546.7L329,546.7z"/>
				<path d="M337.8,549.8c-0.5,0.5-1,0.8-1.5,1c-0.5,0.2-1,0.3-1.6,0.3c-0.9,0-1.6-0.2-2.1-0.7s-0.8-1-0.8-1.7
					c0-0.4,0.1-0.8,0.3-1.1c0.2-0.3,0.4-0.6,0.7-0.8c0.3-0.2,0.7-0.4,1-0.5c0.3-0.1,0.7-0.2,1.3-0.2c1.2-0.1,2-0.3,2.6-0.5v-0.4
					c0-0.6-0.1-1-0.4-1.2c-0.4-0.3-0.9-0.5-1.6-0.5c-0.7,0-1.2,0.1-1.5,0.3c-0.3,0.2-0.6,0.7-0.7,1.2l-1.4-0.2
					c0.1-0.6,0.3-1.1,0.6-1.5s0.7-0.7,1.3-0.8s1.2-0.3,1.9-0.3s1.3,0.1,1.8,0.2s0.8,0.4,1,0.6c0.2,0.3,0.4,0.6,0.5,1
					c0,0.2,0.1,0.7,0.1,1.3v1.9c0,1.3,0,2.2,0.1,2.5c0.1,0.3,0.2,0.7,0.4,1h-1.5C338,550.5,337.9,550.1,337.8,549.8L337.8,549.8
					L337.8,549.8z M337.7,546.6c-0.5,0.2-1.3,0.4-2.3,0.5c-0.6,0.1-1,0.2-1.2,0.3s-0.4,0.3-0.6,0.5c-0.1,0.2-0.2,0.4-0.2,0.7
					c0,0.4,0.1,0.7,0.4,1c0.3,0.2,0.7,0.4,1.3,0.4s1-0.1,1.5-0.4s0.8-0.6,1-1c0.2-0.3,0.2-0.8,0.2-1.4L337.7,546.6L337.7,546.6z"/>
				<path d="M344.5,549.5l0.2,1.3c-0.4,0.1-0.8,0.1-1.1,0.1c-0.5,0-0.9-0.1-1.2-0.2c-0.3-0.2-0.5-0.4-0.6-0.7s-0.2-0.8-0.2-1.7v-4.9
					h-1v-1.1h1v-2.1l1.4-0.9v3h1.4v1.1h-1.4v5c0,0.4,0,0.7,0.1,0.8s0.1,0.2,0.2,0.3c0.1,0.1,0.3,0.1,0.5,0.1
					C344.1,549.6,344.3,549.6,344.5,549.5L344.5,549.5L344.5,549.5z"/>
				<path d="M351.5,549.8c-0.5,0.5-1,0.8-1.5,1c-0.5,0.2-1,0.3-1.6,0.3c-0.9,0-1.6-0.2-2.1-0.7s-0.8-1-0.8-1.7
					c0-0.4,0.1-0.8,0.3-1.1c0.2-0.3,0.4-0.6,0.7-0.8c0.3-0.2,0.7-0.4,1-0.5c0.3-0.1,0.7-0.2,1.3-0.2c1.2-0.1,2-0.3,2.6-0.5v-0.4
					c0-0.6-0.1-1-0.4-1.2c-0.4-0.3-0.9-0.5-1.6-0.5c-0.7,0-1.2,0.1-1.5,0.3c-0.3,0.2-0.6,0.7-0.7,1.2l-1.4-0.2
					c0.1-0.6,0.3-1.1,0.6-1.5s0.7-0.7,1.3-0.8s1.2-0.3,1.9-0.3s1.3,0.1,1.8,0.2s0.8,0.4,1,0.6c0.2,0.3,0.4,0.6,0.5,1
					c0,0.2,0.1,0.7,0.1,1.3v1.9c0,1.3,0,2.2,0.1,2.5c0.1,0.3,0.2,0.7,0.4,1h-1.5C351.6,550.5,351.5,550.1,351.5,549.8L351.5,549.8
					L351.5,549.8z M351.3,546.6c-0.5,0.2-1.3,0.4-2.3,0.5c-0.6,0.1-1,0.2-1.2,0.3s-0.4,0.3-0.6,0.5c-0.1,0.2-0.2,0.4-0.2,0.7
					c0,0.4,0.1,0.7,0.4,1c0.3,0.2,0.7,0.4,1.3,0.4s1-0.1,1.5-0.4s0.8-0.6,1-1c0.2-0.3,0.2-0.8,0.2-1.4L351.3,546.6L351.3,546.6z"/>
				<path d="M355,550.8v-11.7h1.4v11.7H355z"/>
				<path d="M358.1,546.6c0-1.6,0.4-2.7,1.3-3.5c0.7-0.6,1.6-0.9,2.7-0.9c1.2,0,2.1,0.4,2.8,1.1s1.1,1.8,1.1,3.2
					c0,1.1-0.2,2-0.5,2.6s-0.8,1.1-1.4,1.5c-0.6,0.3-1.3,0.5-2,0.5c-1.2,0-2.1-0.4-2.9-1.1S358.1,548,358.1,546.6L358.1,546.6z
					 M359.6,546.6c0,1.1,0.2,1.9,0.7,2.4c0.5,0.5,1.1,0.8,1.8,0.8s1.3-0.3,1.8-0.8c0.5-0.5,0.7-1.4,0.7-2.5c0-1-0.2-1.8-0.7-2.4
					s-1.1-0.8-1.8-0.8s-1.3,0.3-1.8,0.8C359.8,544.7,359.6,545.5,359.6,546.6L359.6,546.6L359.6,546.6z"/>
				<path d="M367.5,551.5l1.4,0.2c0.1,0.4,0.2,0.7,0.5,0.9c0.4,0.3,0.8,0.4,1.5,0.4c0.7,0,1.2-0.1,1.5-0.4s0.6-0.6,0.7-1.1
					c0.1-0.3,0.1-0.9,0.1-1.8c-0.6,0.7-1.4,1.1-2.3,1.1c-1.2,0-2.1-0.4-2.7-1.3s-1-1.8-1-3c0-0.8,0.2-1.5,0.4-2.2
					c0.3-0.7,0.7-1.2,1.3-1.6c0.6-0.4,1.2-0.6,2-0.6c1,0,1.8,0.4,2.5,1.2v-1h1.3v7.3c0,1.3-0.1,2.2-0.4,2.8s-0.7,1-1.3,1.3
					c-0.6,0.3-1.3,0.5-2.2,0.5c-1,0-1.8-0.2-2.5-0.7S367.4,552.4,367.5,551.5L367.5,551.5L367.5,551.5z M368.6,546.4
					c0,1.1,0.2,1.9,0.7,2.4s1,0.8,1.7,0.8s1.2-0.2,1.7-0.8c0.5-0.5,0.7-1.3,0.7-2.4s-0.2-1.8-0.7-2.3c-0.5-0.5-1-0.8-1.7-0.8
					s-1.2,0.3-1.6,0.8S368.6,545.4,368.6,546.4L368.6,546.4L368.6,546.4z"/>
				<path d="M382.3,550.8v-1.2c-0.7,1-1.5,1.4-2.7,1.4c-0.5,0-1-0.1-1.4-0.3s-0.8-0.4-1-0.7s-0.4-0.6-0.4-1.1
					c-0.1-0.3-0.1-0.7-0.1-1.3v-5.2h1.4v4.7c0,0.8,0,1.2,0.1,1.5c0.1,0.4,0.3,0.7,0.6,0.9c0.3,0.2,0.7,0.3,1.1,0.3s0.8-0.1,1.2-0.3
					c0.4-0.2,0.6-0.5,0.8-0.9s0.2-0.9,0.2-1.7v-4.5h1.4v8.5L382.3,550.8L382.3,550.8L382.3,550.8z"/>
				<path d="M391.7,548.1l1.5,0.2c-0.2,0.9-0.7,1.5-1.3,2c-0.6,0.5-1.4,0.7-2.4,0.7c-1.2,0-2.2-0.4-3-1.1c-0.7-0.8-1.1-1.8-1.1-3.2
					s0.4-2.5,1.1-3.3s1.7-1.2,2.8-1.2s2.1,0.4,2.8,1.2s1.1,1.8,1.1,3.2v0.4h-6.3c0,0.9,0.3,1.6,0.8,2.1c0.5,0.5,1.1,0.7,1.8,0.7
					c0.5,0,1-0.1,1.3-0.4S391.4,548.7,391.7,548.1L391.7,548.1L391.7,548.1z M387,545.8h4.7c-0.1-0.7-0.2-1.2-0.5-1.6
					c-0.5-0.5-1-0.8-1.8-0.8c-0.7,0-1.2,0.2-1.7,0.7C387.2,544.4,387,545,387,545.8z"/>
				<path d="M399,546.6c0-1.6,0.4-2.7,1.3-3.5c0.7-0.6,1.6-0.9,2.7-0.9c1.2,0,2.1,0.4,2.8,1.1s1.1,1.8,1.1,3.2c0,1.1-0.2,2-0.5,2.6
					s-0.8,1.1-1.4,1.5c-0.6,0.3-1.3,0.5-2,0.5c-1.2,0-2.1-0.4-2.9-1.1S399,548,399,546.6L399,546.6z M400.4,546.6
					c0,1.1,0.2,1.9,0.7,2.4c0.5,0.5,1.1,0.8,1.8,0.8s1.3-0.3,1.8-0.8c0.5-0.5,0.7-1.4,0.7-2.5c0-1-0.2-1.8-0.7-2.4s-1.1-0.8-1.8-0.8
					s-1.3,0.3-1.8,0.8C400.7,544.7,400.4,545.5,400.4,546.6L400.4,546.6L400.4,546.6z"/>
				<path d="M408.9,550.8v-7.3h-1.3v-1.1h1.3v-0.9c0-0.6,0-1,0.2-1.3c0.1-0.4,0.4-0.7,0.7-0.9s0.8-0.3,1.5-0.3c0.4,0,0.8,0,1.3,0.1
					l-0.2,1.2c-0.3,0-0.6-0.1-0.8-0.1c-0.4,0-0.7,0.1-0.9,0.3s-0.3,0.5-0.3,1v0.8h1.7v1.1h-1.7v7.3L408.9,550.8L408.9,550.8
					L408.9,550.8z"/>
				<path d="M417.3,547l1.5-0.1c0.1,0.6,0.2,1.1,0.5,1.4c0.2,0.4,0.6,0.7,1.2,0.9s1.1,0.3,1.8,0.3c0.6,0,1.1-0.1,1.6-0.3
					c0.5-0.2,0.8-0.4,1-0.7c0.2-0.3,0.3-0.6,0.3-1s-0.1-0.7-0.3-1s-0.6-0.5-1-0.7c-0.3-0.1-1-0.3-2.1-0.6s-1.8-0.5-2.3-0.7
					c-0.6-0.3-1-0.7-1.2-1.1c-0.3-0.4-0.4-0.9-0.4-1.5c0-0.6,0.2-1.1,0.5-1.7s0.8-0.9,1.5-1.2c0.6-0.3,1.4-0.4,2.1-0.4
					c0.9,0,1.6,0.1,2.3,0.4c0.7,0.3,1.2,0.7,1.5,1.2s0.5,1.2,0.6,1.8l-1.5,0.1c-0.1-0.7-0.3-1.3-0.8-1.7c-0.5-0.4-1.1-0.6-2-0.6
					s-1.6,0.2-2,0.5s-0.6,0.8-0.6,1.2c0,0.4,0.2,0.8,0.5,1c0.3,0.3,1.1,0.5,2.3,0.8s2.1,0.5,2.6,0.8c0.7,0.3,1.2,0.7,1.5,1.2
					c0.3,0.5,0.5,1,0.5,1.7s-0.2,1.2-0.5,1.8c-0.4,0.5-0.9,1-1.5,1.3c-0.7,0.3-1.4,0.5-2.2,0.5c-1.1,0-1.9-0.2-2.7-0.5
					c-0.7-0.3-1.3-0.8-1.7-1.4C417.5,548.5,417.3,547.8,417.3,547L417.3,547L417.3,547z"/>
				<path d="M428.5,540.8v-1.7h1.4v1.7H428.5z M428.5,550.8v-8.5h1.4v8.5H428.5z"/>
				<path d="M432.1,550.8v-8.5h1.3v1.2c0.3-0.4,0.6-0.8,1.1-1s0.9-0.4,1.5-0.4c0.6,0,1.1,0.1,1.5,0.4c0.4,0.3,0.7,0.6,0.8,1.1
					c0.7-1,1.5-1.5,2.6-1.5c0.8,0,1.5,0.2,1.9,0.7s0.7,1.2,0.7,2.2v5.8h-1.4v-5.3c0-0.6,0-1-0.1-1.2s-0.3-0.5-0.5-0.6
					c-0.2-0.2-0.5-0.2-0.9-0.2c-0.6,0-1.1,0.2-1.5,0.6s-0.6,1-0.6,1.9v4.9h-1.4v-5.5c0-0.6-0.1-1.1-0.3-1.4
					c-0.2-0.3-0.6-0.5-1.2-0.5c-0.4,0-0.8,0.1-1.1,0.3c-0.3,0.2-0.6,0.5-0.8,0.9c-0.2,0.4-0.2,1-0.2,1.8v4.4L432.1,550.8
					L432.1,550.8L432.1,550.8z"/>
				<path d="M445.7,554v-11.7h1.3v1.1c0.3-0.4,0.7-0.8,1-1s0.9-0.3,1.4-0.3c0.7,0,1.4,0.2,1.9,0.6s1,0.9,1.2,1.6
					c0.3,0.7,0.4,1.4,0.4,2.2c0,0.9-0.2,1.7-0.5,2.3s-0.8,1.2-1.3,1.6c-0.6,0.4-1.2,0.5-1.9,0.5c-0.5,0-0.9-0.1-1.3-0.3
					s-0.7-0.5-0.9-0.8v4.1L445.7,554L445.7,554L445.7,554z M447,546.6c0,1.1,0.2,1.9,0.7,2.4c0.4,0.5,1,0.8,1.6,0.8s1.2-0.3,1.6-0.8
					c0.5-0.5,0.7-1.4,0.7-2.5s-0.2-1.9-0.7-2.4c-0.4-0.5-1-0.8-1.6-0.8s-1.2,0.3-1.6,0.9S447,545.5,447,546.6L447,546.6L447,546.6z"
					/>
				<path d="M454.8,550.8v-11.7h1.4v11.7H454.8z"/>
				<path d="M464.2,548.1l1.5,0.2c-0.2,0.9-0.7,1.5-1.3,2c-0.6,0.5-1.4,0.7-2.4,0.7c-1.2,0-2.2-0.4-3-1.1s-1.1-1.8-1.1-3.2
					s0.4-2.5,1.1-3.3s1.7-1.2,2.8-1.2s2.1,0.4,2.8,1.2s1.1,1.8,1.1,3.2v0.4h-6.3c0,0.9,0.3,1.6,0.8,2.1c0.5,0.5,1.1,0.7,1.8,0.7
					c0.5,0,1-0.1,1.3-0.4S464,548.7,464.2,548.1L464.2,548.1L464.2,548.1z M459.5,545.8h4.7c-0.1-0.7-0.2-1.2-0.5-1.6
					c-0.5-0.5-1-0.8-1.8-0.8c-0.7,0-1.2,0.2-1.7,0.7S459.6,545,459.5,545.8z"/>
				<path d="M472.2,550.8v-11.7h4.4c0.8,0,1.4,0,1.8,0.1c0.6,0.1,1,0.3,1.4,0.5c0.4,0.3,0.7,0.6,0.9,1.1c0.2,0.5,0.3,1,0.3,1.6
					c0,1-0.3,1.8-1,2.5s-1.8,1-3.4,1h-3v4.8L472.2,550.8L472.2,550.8L472.2,550.8z M473.8,544.7h3c1,0,1.7-0.2,2.1-0.6
					s0.6-0.9,0.6-1.6c0-0.5-0.1-0.9-0.4-1.3c-0.2-0.3-0.6-0.6-1-0.7c-0.3-0.1-0.7-0.1-1.4-0.1h-3L473.8,544.7L473.8,544.7z"/>
				<path d="M482.9,550.8v-11.7h1.4v11.7H482.9z"/>
				<path d="M492.4,548.1l1.5,0.2c-0.2,0.9-0.7,1.5-1.3,2c-0.6,0.5-1.4,0.7-2.4,0.7c-1.2,0-2.2-0.4-3-1.1s-1.1-1.8-1.1-3.2
					s0.4-2.5,1.1-3.3s1.7-1.2,2.8-1.2s2.1,0.4,2.8,1.2s1.1,1.8,1.1,3.2v0.4h-6.3c0,0.9,0.3,1.6,0.8,2.1c0.5,0.5,1.1,0.7,1.8,0.7
					c0.5,0,1-0.1,1.3-0.4S492.2,548.7,492.4,548.1L492.4,548.1L492.4,548.1z M487.7,545.8h4.7c-0.1-0.7-0.2-1.2-0.5-1.6
					c-0.5-0.5-1-0.8-1.8-0.8c-0.7,0-1.2,0.2-1.7,0.7S487.7,545,487.7,545.8z"/>
				<path d="M501.2,549.8c-0.5,0.5-1,0.8-1.5,1s-1,0.3-1.6,0.3c-0.9,0-1.6-0.2-2.1-0.7s-0.8-1-0.8-1.7c0-0.4,0.1-0.8,0.3-1.1
					c0.2-0.3,0.4-0.6,0.7-0.8c0.3-0.2,0.7-0.4,1-0.5c0.3-0.1,0.7-0.2,1.3-0.2c1.2-0.1,2-0.3,2.6-0.5v-0.4c0-0.6-0.1-1-0.4-1.2
					c-0.4-0.3-0.9-0.5-1.6-0.5c-0.7,0-1.2,0.1-1.5,0.3c-0.3,0.2-0.6,0.7-0.7,1.2l-1.4-0.2c0.1-0.6,0.3-1.1,0.6-1.5s0.7-0.7,1.3-0.8
					s1.2-0.3,1.9-0.3s1.3,0.1,1.8,0.2s0.8,0.4,1,0.6c0.2,0.3,0.4,0.6,0.5,1c0,0.2,0.1,0.7,0.1,1.3v1.9c0,1.3,0,2.2,0.1,2.5
					c0.1,0.3,0.2,0.7,0.4,1h-1.5C501.3,550.5,501.2,550.1,501.2,549.8L501.2,549.8L501.2,549.8z M501.1,546.6
					c-0.5,0.2-1.3,0.4-2.3,0.5c-0.6,0.1-1,0.2-1.2,0.3s-0.4,0.3-0.6,0.5c-0.1,0.2-0.2,0.4-0.2,0.7c0,0.4,0.1,0.7,0.4,1
					c0.3,0.2,0.7,0.4,1.3,0.4s1-0.1,1.5-0.4s0.8-0.6,1-1c0.2-0.3,0.2-0.8,0.2-1.4L501.1,546.6L501.1,546.6z"/>
				<path d="M504.2,548.3l1.4-0.2c0.1,0.6,0.3,1,0.7,1.3c0.4,0.3,0.9,0.5,1.5,0.5s1.2-0.1,1.5-0.4s0.5-0.6,0.5-0.9
					c0-0.3-0.1-0.6-0.4-0.8c-0.2-0.1-0.7-0.3-1.5-0.5c-1-0.3-1.8-0.5-2.2-0.7s-0.7-0.5-0.9-0.8s-0.3-0.7-0.3-1.1
					c0-0.4,0.1-0.7,0.3-1s0.4-0.6,0.7-0.8c0.2-0.2,0.5-0.3,0.9-0.4s0.8-0.2,1.2-0.2c0.7,0,1.2,0.1,1.8,0.3s0.9,0.5,1.1,0.8
					s0.4,0.8,0.5,1.3l-1.4,0.2c-0.1-0.4-0.2-0.8-0.5-1s-0.7-0.4-1.3-0.4c-0.7,0-1.1,0.1-1.4,0.3c-0.3,0.2-0.4,0.5-0.4,0.8
					c0,0.2,0.1,0.3,0.2,0.5s0.3,0.3,0.5,0.4c0.1,0,0.6,0.2,1.3,0.4c1,0.3,1.7,0.5,2.1,0.7c0.4,0.2,0.7,0.4,0.9,0.8s0.3,0.7,0.3,1.2
					s-0.1,0.9-0.4,1.3s-0.7,0.8-1.2,1s-1.1,0.3-1.8,0.3c-1.1,0-1.9-0.2-2.5-0.7S504.4,549.2,504.2,548.3L504.2,548.3L504.2,548.3z"
					/>
				<path d="M518.4,550.8v-1.2c-0.7,1-1.5,1.4-2.7,1.4c-0.5,0-1-0.1-1.4-0.3s-0.8-0.4-1-0.7s-0.4-0.6-0.4-1.1
					c-0.1-0.3-0.1-0.7-0.1-1.3v-5.2h1.4v4.7c0,0.8,0,1.2,0.1,1.5c0.1,0.4,0.3,0.7,0.6,0.9c0.3,0.2,0.7,0.3,1.1,0.3s0.8-0.1,1.2-0.3
					c0.4-0.2,0.6-0.5,0.8-0.9s0.2-0.9,0.2-1.7v-4.5h1.4v8.5L518.4,550.8L518.4,550.8L518.4,550.8z"/>
				<path d="M522,550.8v-8.5h1.3v1.3c0.3-0.6,0.6-1,0.9-1.2s0.6-0.3,0.9-0.3c0.5,0,1,0.2,1.5,0.5l-0.5,1.3c-0.3-0.2-0.7-0.3-1-0.3
					c-0.3,0-0.6,0.1-0.8,0.3c-0.2,0.2-0.4,0.5-0.5,0.8c-0.2,0.5-0.2,1.1-0.2,1.7v4.4L522,550.8L522,550.8L522,550.8z"/>
				<path d="M533.2,548.1l1.5,0.2c-0.2,0.9-0.7,1.5-1.3,2c-0.6,0.5-1.4,0.7-2.4,0.7c-1.2,0-2.2-0.4-3-1.1s-1.1-1.8-1.1-3.2
					s0.4-2.5,1.1-3.3s1.7-1.2,2.8-1.2c1.2,0,2.1,0.4,2.8,1.2c0.7,0.8,1.1,1.8,1.1,3.2v0.4h-6.3c0,0.9,0.3,1.6,0.8,2.1
					c0.5,0.5,1.1,0.7,1.8,0.7c0.5,0,1-0.1,1.3-0.4S533,548.7,533.2,548.1L533.2,548.1L533.2,548.1z M528.5,545.8h4.7
					c-0.1-0.7-0.2-1.2-0.5-1.6c-0.5-0.5-1-0.8-1.8-0.8c-0.7,0-1.2,0.2-1.7,0.7S528.5,545,528.5,545.8z"/>
				<path d="M535.9,548.3l1.4-0.2c0.1,0.6,0.3,1,0.7,1.3c0.4,0.3,0.9,0.5,1.5,0.5c0.7,0,1.1-0.1,1.5-0.4s0.5-0.6,0.5-0.9
					c0-0.3-0.1-0.6-0.4-0.8c-0.2-0.1-0.7-0.3-1.5-0.5c-1-0.3-1.8-0.5-2.2-0.7c-0.4-0.2-0.7-0.5-0.9-0.8s-0.3-0.7-0.3-1.1
					c0-0.4,0.1-0.7,0.3-1c0.2-0.3,0.4-0.6,0.7-0.8c0.2-0.2,0.5-0.3,0.9-0.4s0.8-0.2,1.2-0.2c0.7,0,1.2,0.1,1.8,0.3s0.9,0.5,1.1,0.8
					s0.4,0.8,0.5,1.3l-1.4,0.2c-0.1-0.4-0.2-0.8-0.5-1s-0.7-0.4-1.3-0.4c-0.7,0-1.1,0.1-1.4,0.3c-0.3,0.2-0.4,0.5-0.4,0.8
					c0,0.2,0.1,0.3,0.2,0.5s0.3,0.3,0.5,0.4c0.1,0,0.6,0.2,1.3,0.4c1,0.3,1.7,0.5,2.1,0.7c0.4,0.2,0.7,0.4,0.9,0.8
					c0.2,0.3,0.3,0.7,0.3,1.2s-0.1,0.9-0.4,1.3c-0.3,0.4-0.7,0.8-1.2,1c-0.5,0.2-1.1,0.3-1.8,0.3c-1.1,0-1.9-0.2-2.5-0.7
					S536.1,549.2,535.9,548.3L535.9,548.3L535.9,548.3z"/>
			</g>
			<g>
				<g>
					<path d="M665.9,541l4.5-11.7h1.7l4.8,11.7H675l-1.4-3.5h-4.9l-1.3,3.5H665.9L665.9,541L665.9,541z M669.2,536.2h4L672,533
						c-0.4-1-0.6-1.8-0.8-2.4c-0.2,0.8-0.4,1.5-0.6,2.2L669.2,536.2z"/>
					<path d="M677.8,541v-11.7h1.4V541H677.8z"/>
					<path d="M687.3,538.3l1.5,0.2c-0.2,0.9-0.7,1.5-1.3,2c-0.6,0.5-1.4,0.7-2.4,0.7c-1.2,0-2.2-0.4-3-1.1c-0.7-0.8-1.1-1.8-1.1-3.2
						s0.4-2.5,1.1-3.3c0.7-0.8,1.7-1.2,2.8-1.2c1.2,0,2.1,0.4,2.8,1.2c0.7,0.8,1.1,1.8,1.1,3.2v0.4h-6.3c0,0.9,0.3,1.6,0.8,2.1
						c0.5,0.5,1.1,0.7,1.8,0.7c0.5,0,1-0.1,1.4-0.4S687.1,538.9,687.3,538.3L687.3,538.3L687.3,538.3z M682.6,536h4.7
						c-0.1-0.7-0.2-1.2-0.5-1.6c-0.5-0.5-1-0.8-1.8-0.8c-0.7,0-1.2,0.2-1.7,0.7S682.6,535.2,682.6,536z"/>
					<path d="M689.6,541l3.1-4.4l-2.9-4.1h1.8l1.3,2c0.2,0.4,0.4,0.7,0.6,1c0.2-0.3,0.5-0.7,0.6-0.9l1.4-2h1.7l-2.9,4l3.2,4.5h-1.8
						l-1.7-2.6l-0.5-0.7l-2.2,3.3L689.6,541L689.6,541L689.6,541z"/>
					<path d="M702.9,537.2l1.5-0.1c0.1,0.6,0.2,1.1,0.5,1.4s0.6,0.7,1.2,0.9c0.5,0.2,1.1,0.3,1.8,0.3c0.6,0,1.1-0.1,1.6-0.3
						s0.8-0.4,1-0.7c0.2-0.3,0.3-0.6,0.3-1s-0.1-0.7-0.3-1s-0.6-0.5-1-0.7c-0.3-0.1-1-0.3-2.1-0.6s-1.8-0.5-2.3-0.7
						c-0.6-0.3-1-0.7-1.2-1.1c-0.3-0.4-0.4-0.9-0.4-1.5c0-0.6,0.2-1.1,0.5-1.7c0.3-0.5,0.8-0.9,1.5-1.2c0.6-0.3,1.4-0.4,2.1-0.4
						c0.9,0,1.6,0.1,2.3,0.4c0.7,0.3,1.2,0.7,1.5,1.2s0.5,1.2,0.6,1.8l-1.5,0.1c-0.1-0.7-0.4-1.3-0.8-1.7c-0.5-0.4-1.1-0.6-2-0.6
						c-0.9,0-1.6,0.2-2,0.5c-0.4,0.3-0.6,0.8-0.6,1.2c0,0.4,0.1,0.8,0.5,1c0.3,0.3,1.1,0.5,2.3,0.8c1.3,0.3,2.1,0.5,2.6,0.8
						c0.7,0.3,1.2,0.7,1.5,1.2c0.3,0.5,0.5,1,0.5,1.7s-0.2,1.2-0.5,1.8c-0.4,0.5-0.9,1-1.5,1.3c-0.7,0.3-1.4,0.5-2.2,0.5
						c-1.1,0-1.9-0.2-2.7-0.5c-0.7-0.3-1.3-0.8-1.7-1.4C703.1,538.7,702.9,538,702.9,537.2L702.9,537.2L702.9,537.2z"/>
					<path d="M714.1,531v-1.7h1.4v1.7H714.1z M714.1,541v-8.5h1.4v8.5H714.1z"/>
					<path d="M717.8,541v-8.5h1.3v1.2c0.6-0.9,1.5-1.4,2.7-1.4c0.5,0,1,0.1,1.4,0.3c0.4,0.2,0.8,0.4,1,0.7c0.2,0.3,0.4,0.7,0.5,1.1
						c0,0.3,0.1,0.7,0.1,1.4v5.2h-1.4v-5.2c0-0.6-0.1-1-0.2-1.3c-0.1-0.3-0.3-0.5-0.6-0.7c-0.3-0.2-0.6-0.3-1-0.3
						c-0.6,0-1.1,0.2-1.6,0.6c-0.4,0.4-0.7,1.1-0.7,2.2v4.6L717.8,541L717.8,541L717.8,541z"/>
					<path d="M726.6,541.7l1.4,0.2c0.1,0.4,0.2,0.7,0.5,0.9c0.4,0.3,0.8,0.4,1.5,0.4c0.7,0,1.2-0.1,1.5-0.4c0.4-0.3,0.6-0.6,0.7-1.1
						c0.1-0.3,0.1-0.9,0.1-1.8c-0.6,0.7-1.4,1.1-2.3,1.1c-1.2,0-2.1-0.4-2.7-1.3s-1-1.8-1-3c0-0.8,0.2-1.5,0.4-2.2
						c0.3-0.7,0.7-1.2,1.3-1.6c0.6-0.4,1.2-0.6,2-0.6c1,0,1.8,0.4,2.5,1.2v-1h1.3v7.3c0,1.3-0.1,2.2-0.4,2.8c-0.3,0.5-0.7,1-1.3,1.3
						c-0.6,0.3-1.3,0.5-2.2,0.5c-1,0-1.8-0.2-2.5-0.7C726.9,543.3,726.6,542.6,726.6,541.7L726.6,541.7L726.6,541.7z M727.8,536.6
						c0,1.1,0.2,1.9,0.7,2.4s1,0.8,1.7,0.8c0.7,0,1.2-0.2,1.7-0.8s0.7-1.3,0.7-2.4s-0.2-1.8-0.7-2.3c-0.5-0.5-1-0.8-1.7-0.8
						c-0.6,0-1.2,0.3-1.6,0.8S727.8,535.6,727.8,536.6L727.8,536.6z"/>
					<path d="M735.9,541v-11.7h1.4v4.2c0.7-0.8,1.5-1.2,2.5-1.2c0.6,0,1.2,0.1,1.6,0.4c0.5,0.2,0.8,0.6,1,1c0.2,0.4,0.3,1.1,0.3,1.9
						v5.4h-1.4v-5.4c0-0.7-0.2-1.2-0.5-1.6s-0.8-0.5-1.3-0.5c-0.4,0-0.8,0.1-1.2,0.3c-0.4,0.2-0.6,0.5-0.8,0.9s-0.2,0.9-0.2,1.6v4.6
						L735.9,541L735.9,541L735.9,541z"/>
				</g>
				<g>
					<path d="M668.5,560.6l-2.6-8.5h1.5l1.4,4.9l0.5,1.8c0-0.1,0.2-0.7,0.4-1.8l1.3-5h1.5l1.3,4.9l0.4,1.6l0.5-1.6l1.5-4.9h1.4
						l-2.7,8.5h-1.5l-1.3-5.1l-0.3-1.4l-1.7,6.5L668.5,560.6L668.5,560.6L668.5,560.6z"/>
					<path d="M678.7,550.6v-1.7h1.4v1.7H678.7z M678.7,560.6v-8.5h1.4v8.5H678.7z"/>
					<path d="M685.5,559.3l0.2,1.3c-0.4,0.1-0.8,0.1-1.1,0.1c-0.5,0-0.9-0.1-1.2-0.2c-0.3-0.2-0.5-0.4-0.6-0.7s-0.2-0.8-0.2-1.7
						v-4.9h-1v-1.1h1V550l1.4-0.9v3h1.4v1.1H684v5c0,0.4,0,0.7,0.1,0.8s0.1,0.2,0.2,0.3c0.1,0.1,0.3,0.1,0.5,0.1
						C685,559.4,685.2,559.4,685.5,559.3L685.5,559.3L685.5,559.3z"/>
					<path d="M686.9,560.6v-11.7h1.4v4.2c0.7-0.8,1.5-1.2,2.5-1.2c0.6,0,1.2,0.1,1.6,0.4c0.5,0.2,0.8,0.6,1,1
						c0.2,0.4,0.3,1.1,0.3,1.9v5.4h-1.4v-5.4c0-0.7-0.2-1.2-0.5-1.6s-0.8-0.5-1.3-0.5c-0.4,0-0.8,0.1-1.2,0.3
						c-0.4,0.2-0.6,0.5-0.8,0.9c-0.2,0.4-0.2,0.9-0.2,1.6v4.6L686.9,560.6L686.9,560.6L686.9,560.6z"/>
					<path d="M698.5,560.6l4.5-11.7h1.7l4.8,11.7h-1.8l-1.4-3.5h-4.9l-1.3,3.5H698.5L698.5,560.6L698.5,560.6z M701.9,555.8h4
						l-1.2-3.2c-0.4-1-0.7-1.8-0.8-2.4c-0.1,0.8-0.4,1.5-0.6,2.2L701.9,555.8z"/>
					<path d="M710.5,560.6v-8.5h1.3v1.3c0.3-0.6,0.6-1,0.9-1.2c0.3-0.2,0.6-0.3,0.9-0.3c0.5,0,1,0.2,1.5,0.5l-0.5,1.3
						c-0.3-0.2-0.7-0.3-1-0.3c-0.3,0-0.6,0.1-0.8,0.3c-0.2,0.2-0.4,0.5-0.5,0.8c-0.2,0.5-0.2,1.1-0.2,1.7v4.4L710.5,560.6
						L710.5,560.6L710.5,560.6z"/>
					<path d="M721.7,557.9l1.5,0.2c-0.2,0.9-0.7,1.5-1.3,2c-0.6,0.5-1.4,0.7-2.4,0.7c-1.2,0-2.2-0.4-3-1.1c-0.7-0.8-1.1-1.8-1.1-3.2
						s0.4-2.5,1.1-3.3c0.7-0.8,1.7-1.2,2.9-1.2c1.2,0,2.1,0.4,2.8,1.2c0.7,0.8,1.1,1.8,1.1,3.2v0.4h-6.3c0,0.9,0.3,1.6,0.8,2.1
						c0.5,0.5,1.1,0.7,1.8,0.7c0.5,0,1-0.1,1.3-0.4S721.5,558.5,721.7,557.9L721.7,557.9L721.7,557.9z M717,555.5h4.7
						c-0.1-0.7-0.2-1.2-0.5-1.6c-0.5-0.5-1-0.8-1.8-0.8c-0.7,0-1.2,0.2-1.7,0.7S717.1,554.8,717,555.5z"/>
					<path d="M725.4,560.6V559h1.6v1.6H725.4z"/>
					<path d="M729.5,560.6v-8.5h1.3v1.2c0.6-0.9,1.5-1.4,2.7-1.4c0.5,0,1,0.1,1.4,0.3s0.8,0.4,1,0.7c0.2,0.3,0.4,0.7,0.5,1.1
						c0,0.3,0.1,0.7,0.1,1.4v5.2H735v-5.2c0-0.6-0.1-1-0.2-1.3c-0.1-0.3-0.3-0.5-0.6-0.7c-0.3-0.2-0.6-0.3-1-0.3
						c-0.6,0-1.1,0.2-1.6,0.6c-0.4,0.4-0.7,1.1-0.7,2.2v4.6H729.5L729.5,560.6L729.5,560.6z"/>
					<path d="M744.2,559.5c-0.5,0.5-1,0.8-1.5,1s-1,0.3-1.6,0.3c-0.9,0-1.6-0.2-2.1-0.7s-0.8-1-0.8-1.7c0-0.4,0.1-0.8,0.3-1.1
						c0.2-0.3,0.4-0.6,0.7-0.8c0.3-0.2,0.7-0.4,1-0.5c0.3-0.1,0.7-0.2,1.3-0.2c1.2-0.1,2-0.3,2.6-0.5v-0.4c0-0.6-0.1-1-0.4-1.2
						c-0.4-0.3-0.9-0.5-1.6-0.5c-0.7,0-1.2,0.1-1.5,0.3c-0.3,0.2-0.6,0.7-0.7,1.2l-1.4-0.2c0.1-0.6,0.3-1.1,0.6-1.5
						c0.3-0.4,0.7-0.7,1.3-0.8s1.2-0.3,1.9-0.3c0.7,0,1.3,0.1,1.8,0.2s0.8,0.4,1,0.6c0.2,0.3,0.4,0.6,0.5,1c0,0.2,0.1,0.7,0.1,1.3
						v1.9c0,1.3,0,2.2,0.1,2.5c0.1,0.3,0.2,0.7,0.4,1h-1.5C744.3,560.3,744.2,559.9,744.2,559.5L744.2,559.5L744.2,559.5z
						 M744,556.3c-0.5,0.2-1.3,0.4-2.3,0.5c-0.6,0.1-1,0.2-1.2,0.3s-0.4,0.3-0.6,0.5c-0.1,0.2-0.2,0.4-0.2,0.7c0,0.4,0.1,0.7,0.4,1
						c0.3,0.2,0.7,0.4,1.3,0.4s1-0.1,1.5-0.4s0.8-0.6,1-1c0.2-0.3,0.2-0.8,0.2-1.4L744,556.3L744,556.3z"/>
				</g>
			</g>
		</g>
		<g>
			<g>
				<path d="M304.9,64.4l4.5-11.7h1.7l4.8,11.7h-1.8l-1.4-3.5h-4.9l-1.3,3.5H304.9L304.9,64.4L304.9,64.4z M308.3,59.6h4l-1.2-3.2
					c-0.4-1-0.7-1.8-0.8-2.4c-0.2,0.8-0.4,1.5-0.6,2.2C309.6,56.1,308.3,59.6,308.3,59.6z"/>
				<path d="M329,60.3l1.5,0.4c-0.3,1.3-0.9,2.2-1.8,2.9c-0.8,0.7-1.9,1-3.1,1s-2.3-0.3-3.1-0.8c-0.8-0.5-1.4-1.3-1.8-2.2
					s-0.6-2-0.6-3.1c0-1.2,0.2-2.3,0.7-3.2c0.5-0.9,1.1-1.6,2-2.1c0.9-0.5,1.8-0.7,2.8-0.7c1.2,0,2.2,0.3,3,0.9
					c0.8,0.6,1.3,1.4,1.7,2.5l-1.5,0.4c-0.3-0.8-0.7-1.5-1.2-1.9s-1.2-0.6-1.9-0.6c-0.9,0-1.7,0.2-2.2,0.7s-1,1-1.3,1.7
					c-0.2,0.7-0.4,1.5-0.4,2.2c0,1,0.1,1.9,0.4,2.6s0.7,1.3,1.3,1.7s1.3,0.6,2,0.6c0.9,0,1.6-0.2,2.2-0.8
					C328.4,62,328.8,61.2,329,60.3L329,60.3L329,60.3z"/>
				<path d="M337.8,63.3c-0.5,0.4-1,0.8-1.5,1c-0.5,0.2-1,0.3-1.6,0.3c-0.9,0-1.6-0.2-2.1-0.7c-0.5-0.4-0.8-1-0.8-1.7
					c0-0.4,0.1-0.8,0.3-1.1c0.2-0.3,0.4-0.6,0.7-0.8c0.3-0.2,0.7-0.4,1-0.5c0.3-0.1,0.7-0.2,1.3-0.2c1.2-0.1,2-0.3,2.6-0.5v-0.4
					c0-0.6-0.1-1-0.4-1.2c-0.4-0.3-0.9-0.5-1.6-0.5c-0.7,0-1.2,0.1-1.5,0.3c-0.3,0.2-0.6,0.7-0.7,1.2l-1.4-0.2
					c0.1-0.6,0.3-1.1,0.6-1.4s0.7-0.7,1.3-0.8s1.2-0.3,1.9-0.3s1.3,0.1,1.8,0.2s0.8,0.4,1,0.6c0.2,0.3,0.4,0.6,0.5,1
					c0,0.2,0.1,0.7,0.1,1.3v1.9c0,1.3,0,2.2,0.1,2.5s0.2,0.7,0.4,1h-1.5C338,64,337.9,63.7,337.8,63.3L337.8,63.3L337.8,63.3z
					 M337.7,60.1c-0.5,0.2-1.3,0.4-2.3,0.5c-0.6,0.1-1,0.2-1.2,0.3s-0.4,0.3-0.6,0.5c-0.1,0.2-0.2,0.4-0.2,0.7c0,0.4,0.1,0.7,0.4,1
					c0.3,0.2,0.7,0.4,1.3,0.4s1-0.1,1.5-0.4s0.8-0.6,1-1c0.2-0.3,0.2-0.8,0.2-1.4L337.7,60.1L337.7,60.1z"/>
				<path d="M344.5,63.1l0.2,1.3c-0.4,0.1-0.8,0.1-1.1,0.1c-0.5,0-0.9-0.1-1.2-0.2c-0.3-0.2-0.5-0.4-0.6-0.7s-0.2-0.8-0.2-1.7V57h-1
					v-1.1h1v-2.1l1.4-0.9v3h1.4V57h-1.4V62c0,0.4,0,0.7,0.1,0.8s0.1,0.2,0.2,0.3c0.1,0.1,0.3,0.1,0.5,0.1
					C344.1,63.1,344.3,63.1,344.5,63.1L344.5,63.1L344.5,63.1z"/>
				<path d="M351.5,63.3c-0.5,0.4-1,0.8-1.5,1c-0.5,0.2-1,0.3-1.6,0.3c-0.9,0-1.6-0.2-2.1-0.7c-0.5-0.4-0.8-1-0.8-1.7
					c0-0.4,0.1-0.8,0.3-1.1c0.2-0.3,0.4-0.6,0.7-0.8c0.3-0.2,0.7-0.4,1-0.5c0.3-0.1,0.7-0.2,1.3-0.2c1.2-0.1,2-0.3,2.6-0.5v-0.4
					c0-0.6-0.1-1-0.4-1.2c-0.4-0.3-0.9-0.5-1.6-0.5c-0.7,0-1.2,0.1-1.5,0.3c-0.3,0.2-0.6,0.7-0.7,1.2l-1.4-0.2
					c0.1-0.6,0.3-1.1,0.6-1.4s0.7-0.7,1.3-0.8s1.2-0.3,1.9-0.3s1.3,0.1,1.8,0.2s0.8,0.4,1,0.6c0.2,0.3,0.4,0.6,0.5,1
					c0,0.2,0.1,0.7,0.1,1.3v1.9c0,1.3,0,2.2,0.1,2.5s0.2,0.7,0.4,1h-1.5C351.6,64,351.5,63.7,351.5,63.3L351.5,63.3L351.5,63.3z
					 M351.3,60.1c-0.5,0.2-1.3,0.4-2.3,0.5c-0.6,0.1-1,0.2-1.2,0.3s-0.4,0.3-0.6,0.5c-0.1,0.2-0.2,0.4-0.2,0.7c0,0.4,0.1,0.7,0.4,1
					c0.3,0.2,0.7,0.4,1.3,0.4s1-0.1,1.5-0.4s0.8-0.6,1-1c0.2-0.3,0.2-0.8,0.2-1.4L351.3,60.1L351.3,60.1z"/>
				<path d="M355,64.4V52.7h1.4v11.7H355z"/>
				<path d="M358.1,60.1c0-1.6,0.4-2.7,1.3-3.5c0.7-0.6,1.6-0.9,2.7-0.9c1.2,0,2.1,0.4,2.8,1.1s1.1,1.8,1.1,3.2
					c0,1.1-0.2,1.9-0.5,2.6s-0.8,1.1-1.4,1.5c-0.6,0.3-1.3,0.5-2,0.5c-1.2,0-2.1-0.4-2.9-1.1C358.5,62.7,358.1,61.6,358.1,60.1
					C358.1,60.1,358.1,60.1,358.1,60.1z M359.6,60.1c0,1.1,0.2,1.9,0.7,2.4c0.5,0.5,1.1,0.8,1.8,0.8s1.3-0.3,1.8-0.8
					c0.5-0.5,0.7-1.4,0.7-2.5c0-1.1-0.2-1.8-0.7-2.4s-1.1-0.8-1.8-0.8s-1.3,0.3-1.8,0.8C359.8,58.2,359.6,59.1,359.6,60.1
					L359.6,60.1L359.6,60.1z"/>
				<path d="M367.5,65.1l1.4,0.2c0.1,0.4,0.2,0.7,0.5,0.9c0.4,0.3,0.8,0.4,1.5,0.4c0.7,0,1.2-0.1,1.5-0.4s0.6-0.6,0.7-1.1
					c0.1-0.3,0.1-0.9,0.1-1.8c-0.6,0.7-1.4,1.1-2.3,1.1c-1.2,0-2.1-0.4-2.7-1.3s-1-1.8-1-3c0-0.8,0.2-1.6,0.4-2.2
					c0.3-0.7,0.7-1.2,1.3-1.6c0.6-0.4,1.2-0.6,2-0.6c1,0,1.8,0.4,2.5,1.2v-1h1.3v7.3c0,1.3-0.1,2.2-0.4,2.8s-0.7,1-1.3,1.3
					c-0.6,0.3-1.3,0.5-2.2,0.5c-1,0-1.8-0.2-2.5-0.7S367.4,66,367.5,65.1L367.5,65.1L367.5,65.1z M368.6,60c0,1.1,0.2,1.9,0.7,2.4
					s1,0.8,1.7,0.8s1.2-0.2,1.7-0.8c0.5-0.5,0.7-1.3,0.7-2.4s-0.2-1.8-0.7-2.3c-0.5-0.5-1-0.8-1.7-0.8s-1.2,0.3-1.6,0.8
					S368.6,59,368.6,60L368.6,60L368.6,60z"/>
				<path d="M382.3,64.4v-1.2c-0.7,1-1.5,1.4-2.7,1.4c-0.5,0-1-0.1-1.4-0.3s-0.8-0.4-1-0.7s-0.4-0.6-0.4-1.1
					c-0.1-0.3-0.1-0.7-0.1-1.3v-5.2h1.4v4.7c0,0.8,0,1.2,0.1,1.5c0.1,0.4,0.3,0.7,0.6,0.9c0.3,0.2,0.7,0.3,1.1,0.3s0.8-0.1,1.2-0.3
					s0.6-0.5,0.8-0.9s0.2-0.9,0.2-1.7v-4.5h1.4v8.5L382.3,64.4L382.3,64.4L382.3,64.4z"/>
				<path d="M391.7,61.6l1.5,0.2c-0.2,0.9-0.7,1.5-1.3,2c-0.6,0.5-1.4,0.7-2.4,0.7c-1.2,0-2.2-0.4-3-1.1c-0.7-0.8-1.1-1.8-1.1-3.2
					s0.4-2.5,1.1-3.3s1.7-1.2,2.8-1.2s2.1,0.4,2.8,1.2s1.1,1.8,1.1,3.2v0.4h-6.3c0,0.9,0.3,1.6,0.8,2.1c0.5,0.5,1.1,0.7,1.8,0.7
					c0.5,0,1-0.1,1.3-0.4S391.4,62.2,391.7,61.6L391.7,61.6L391.7,61.6z M387,59.3h4.7c-0.1-0.7-0.2-1.2-0.5-1.6
					c-0.5-0.6-1-0.8-1.8-0.8c-0.7,0-1.2,0.2-1.7,0.7C387.2,58,387,58.6,387,59.3z"/>
				<path d="M399,60.1c0-1.6,0.4-2.7,1.3-3.5c0.7-0.6,1.6-0.9,2.7-0.9c1.2,0,2.1,0.4,2.8,1.1s1.1,1.8,1.1,3.2c0,1.1-0.2,1.9-0.5,2.6
					s-0.8,1.1-1.4,1.5c-0.6,0.3-1.3,0.5-2,0.5c-1.2,0-2.1-0.4-2.9-1.1C399.3,62.7,399,61.6,399,60.1C399,60.1,399,60.1,399,60.1z
					 M400.4,60.1c0,1.1,0.2,1.9,0.7,2.4c0.5,0.5,1.1,0.8,1.8,0.8s1.3-0.3,1.8-0.8c0.5-0.5,0.7-1.4,0.7-2.5c0-1.1-0.2-1.8-0.7-2.4
					s-1.1-0.8-1.8-0.8s-1.3,0.3-1.8,0.8C400.7,58.2,400.4,59.1,400.4,60.1L400.4,60.1L400.4,60.1z"/>
				<path d="M408.9,64.4V57h-1.3v-1.1h1.3V55c0-0.6,0-1,0.2-1.3c0.1-0.4,0.4-0.7,0.7-0.9s0.8-0.3,1.5-0.3c0.4,0,0.8,0.1,1.3,0.1
					l-0.2,1.2c-0.3-0.1-0.6-0.1-0.8-0.1c-0.4,0-0.7,0.1-0.9,0.3s-0.3,0.5-0.3,1v0.8h1.7V57h-1.7v7.3L408.9,64.4L408.9,64.4
					L408.9,64.4z"/>
				<path d="M417.3,60.6l1.5-0.1c0.1,0.6,0.2,1.1,0.5,1.4c0.2,0.4,0.6,0.7,1.2,0.9s1.1,0.3,1.8,0.3c0.6,0,1.1-0.1,1.6-0.3
					c0.5-0.2,0.8-0.4,1-0.7c0.2-0.3,0.3-0.6,0.3-1s-0.1-0.7-0.3-1s-0.6-0.5-1-0.7c-0.3-0.1-1-0.3-2.1-0.6s-1.8-0.5-2.3-0.7
					c-0.6-0.3-1-0.7-1.2-1.1c-0.3-0.4-0.4-0.9-0.4-1.5c0-0.6,0.2-1.1,0.5-1.7s0.8-0.9,1.5-1.2c0.6-0.3,1.4-0.4,2.1-0.4
					c0.9,0,1.6,0.1,2.3,0.4s1.2,0.7,1.5,1.2s0.5,1.2,0.6,1.8l-1.5,0.1c-0.1-0.7-0.3-1.3-0.8-1.7c-0.5-0.4-1.1-0.6-2-0.6
					s-1.6,0.2-2,0.5s-0.6,0.8-0.6,1.2c0,0.4,0.2,0.8,0.5,1s1.1,0.6,2.3,0.8s2.1,0.5,2.6,0.8c0.7,0.3,1.2,0.7,1.5,1.2
					c0.3,0.5,0.5,1,0.5,1.7s-0.2,1.2-0.5,1.8c-0.4,0.6-0.9,1-1.5,1.3c-0.7,0.3-1.4,0.5-2.2,0.5c-1.1,0-1.9-0.1-2.7-0.5
					c-0.7-0.3-1.3-0.8-1.7-1.4C417.5,62.1,417.3,61.4,417.3,60.6L417.3,60.6L417.3,60.6z"/>
				<path d="M428.5,54.3v-1.7h1.4v1.7H428.5z M428.5,64.3v-8.5h1.4v8.5H428.5z"/>
				<path d="M432.1,64.4v-8.5h1.3v1.2c0.3-0.4,0.6-0.8,1.1-1s0.9-0.4,1.5-0.4c0.6,0,1.1,0.1,1.5,0.4c0.4,0.3,0.7,0.6,0.8,1.1
					c0.7-1,1.5-1.5,2.6-1.5c0.8,0,1.5,0.2,1.9,0.7s0.7,1.2,0.7,2.2v5.8h-1.4V59c0-0.6,0-1-0.1-1.2s-0.3-0.5-0.5-0.6
					c-0.2-0.2-0.5-0.2-0.9-0.2c-0.6,0-1.1,0.2-1.5,0.6s-0.6,1-0.6,1.9v4.9h-1.4v-5.5c0-0.6-0.1-1.1-0.3-1.4
					c-0.2-0.3-0.6-0.5-1.2-0.5c-0.4,0-0.8,0.1-1.1,0.3c-0.3,0.2-0.6,0.5-0.8,0.9c-0.2,0.4-0.2,1-0.2,1.8v4.4L432.1,64.4L432.1,64.4
					L432.1,64.4z"/>
				<path d="M445.7,67.6V55.9h1.3V57c0.3-0.4,0.7-0.8,1-1s0.9-0.3,1.4-0.3c0.7,0,1.4,0.2,1.9,0.6s1,0.9,1.2,1.6
					c0.3,0.7,0.4,1.4,0.4,2.2c0,0.9-0.2,1.7-0.5,2.3s-0.8,1.2-1.3,1.6c-0.6,0.4-1.2,0.6-1.9,0.6c-0.5,0-0.9-0.1-1.3-0.3
					c-0.4-0.2-0.7-0.5-0.9-0.8v4.1L445.7,67.6L445.7,67.6L445.7,67.6z M447,60.2c0,1.1,0.2,1.9,0.7,2.4c0.4,0.5,1,0.8,1.6,0.8
					s1.2-0.3,1.6-0.8c0.5-0.5,0.7-1.4,0.7-2.5s-0.2-1.9-0.7-2.4c-0.4-0.5-1-0.8-1.6-0.8s-1.2,0.3-1.6,0.9S447,59.1,447,60.2
					L447,60.2L447,60.2z"/>
				<path d="M454.8,64.4V52.7h1.4v11.7H454.8z"/>
				<path d="M464.2,61.6l1.5,0.2c-0.2,0.9-0.7,1.5-1.3,2c-0.6,0.5-1.4,0.7-2.4,0.7c-1.2,0-2.2-0.4-3-1.1c-0.7-0.8-1.1-1.8-1.1-3.2
					s0.4-2.5,1.1-3.3s1.7-1.2,2.8-1.2s2.1,0.4,2.8,1.2s1.1,1.8,1.1,3.2v0.4h-6.3c0,0.9,0.3,1.6,0.8,2.1c0.5,0.5,1.1,0.7,1.8,0.7
					c0.5,0,1-0.1,1.3-0.4S464,62.2,464.2,61.6L464.2,61.6L464.2,61.6z M459.5,59.3h4.7c-0.1-0.7-0.2-1.2-0.5-1.6
					c-0.5-0.6-1-0.8-1.8-0.8c-0.7,0-1.2,0.2-1.7,0.7S459.6,58.6,459.5,59.3z"/>
				<path d="M472.2,64.4V52.7h4.4c0.8,0,1.4,0,1.8,0.1c0.6,0.1,1,0.3,1.4,0.6s0.7,0.6,0.9,1.1c0.2,0.5,0.3,1,0.3,1.6
					c0,1-0.3,1.8-1,2.5s-1.8,1-3.4,1h-3v4.7L472.2,64.4L472.2,64.4L472.2,64.4z M473.8,58.2h3c1,0,1.7-0.2,2.1-0.6
					c0.4-0.4,0.6-0.9,0.6-1.6c0-0.5-0.1-0.9-0.4-1.3s-0.6-0.6-1-0.7c-0.3-0.1-0.7-0.1-1.4-0.1h-3L473.8,58.2L473.8,58.2z"/>
				<path d="M482.9,64.4V52.7h1.4v11.7H482.9z"/>
				<path d="M492.4,61.6l1.5,0.2c-0.2,0.9-0.7,1.5-1.3,2c-0.6,0.5-1.4,0.7-2.4,0.7c-1.2,0-2.2-0.4-3-1.1c-0.7-0.8-1.1-1.8-1.1-3.2
					s0.4-2.5,1.1-3.3s1.7-1.2,2.8-1.2s2.1,0.4,2.8,1.2s1.1,1.8,1.1,3.2v0.4h-6.3c0,0.9,0.3,1.6,0.8,2.1c0.5,0.5,1.1,0.7,1.8,0.7
					c0.5,0,1-0.1,1.3-0.4S492.2,62.2,492.4,61.6L492.4,61.6L492.4,61.6z M487.7,59.3h4.7c-0.1-0.7-0.2-1.2-0.5-1.6
					c-0.5-0.6-1-0.8-1.8-0.8c-0.7,0-1.2,0.2-1.7,0.7S487.7,58.6,487.7,59.3z"/>
				<path d="M501.2,63.3c-0.5,0.4-1,0.8-1.5,1s-1,0.3-1.6,0.3c-0.9,0-1.6-0.2-2.1-0.7c-0.5-0.4-0.8-1-0.8-1.7c0-0.4,0.1-0.8,0.3-1.1
					c0.2-0.3,0.4-0.6,0.7-0.8c0.3-0.2,0.7-0.4,1-0.5c0.3-0.1,0.7-0.2,1.3-0.2c1.2-0.1,2-0.3,2.6-0.5v-0.4c0-0.6-0.1-1-0.4-1.2
					c-0.4-0.3-0.9-0.5-1.6-0.5c-0.7,0-1.2,0.1-1.5,0.3c-0.3,0.2-0.6,0.7-0.7,1.2l-1.4-0.2c0.1-0.6,0.3-1.1,0.6-1.4s0.7-0.7,1.3-0.8
					s1.2-0.3,1.9-0.3s1.3,0.1,1.8,0.2s0.8,0.4,1,0.6c0.2,0.3,0.4,0.6,0.5,1c0,0.2,0.1,0.7,0.1,1.3v1.9c0,1.3,0,2.2,0.1,2.5
					s0.2,0.7,0.4,1h-1.5C501.3,64,501.2,63.7,501.2,63.3L501.2,63.3L501.2,63.3z M501.1,60.1c-0.5,0.2-1.3,0.4-2.3,0.5
					c-0.6,0.1-1,0.2-1.2,0.3s-0.4,0.3-0.6,0.5c-0.1,0.2-0.2,0.4-0.2,0.7c0,0.4,0.1,0.7,0.4,1c0.3,0.2,0.7,0.4,1.3,0.4s1-0.1,1.5-0.4
					s0.8-0.6,1-1c0.2-0.3,0.2-0.8,0.2-1.4L501.1,60.1L501.1,60.1z"/>
				<path d="M504.2,61.8l1.4-0.2c0.1,0.6,0.3,1,0.7,1.3c0.4,0.3,0.9,0.4,1.5,0.4s1.2-0.1,1.5-0.4s0.5-0.6,0.5-0.9
					c0-0.3-0.1-0.6-0.4-0.8c-0.2-0.1-0.7-0.3-1.5-0.5c-1-0.3-1.8-0.5-2.2-0.7s-0.7-0.5-0.9-0.8s-0.3-0.7-0.3-1.1
					c0-0.4,0.1-0.7,0.3-1.1s0.4-0.6,0.7-0.8c0.2-0.2,0.5-0.3,0.9-0.4s0.8-0.2,1.2-0.2c0.7,0,1.2,0.1,1.8,0.3s0.9,0.4,1.1,0.8
					s0.4,0.8,0.5,1.3l-1.4,0.2c-0.1-0.4-0.2-0.8-0.5-1s-0.7-0.4-1.3-0.4c-0.7,0-1.1,0.1-1.4,0.3s-0.4,0.5-0.4,0.8
					c0,0.2,0.1,0.3,0.2,0.5s0.3,0.3,0.5,0.4c0.1,0.1,0.6,0.2,1.3,0.4c1,0.3,1.7,0.5,2.1,0.7c0.4,0.2,0.7,0.4,0.9,0.8
					s0.3,0.7,0.3,1.2s-0.1,0.9-0.4,1.3s-0.7,0.8-1.2,1c-0.5,0.2-1.1,0.3-1.8,0.3c-1.1,0-1.9-0.2-2.5-0.7
					C504.7,63.4,504.4,62.7,504.2,61.8L504.2,61.8L504.2,61.8z"/>
				<path d="M518.4,64.4v-1.2c-0.7,1-1.5,1.4-2.7,1.4c-0.5,0-1-0.1-1.4-0.3s-0.8-0.4-1-0.7s-0.4-0.6-0.4-1.1
					c-0.1-0.3-0.1-0.7-0.1-1.3v-5.2h1.4v4.7c0,0.8,0,1.2,0.1,1.5c0.1,0.4,0.3,0.7,0.6,0.9c0.3,0.2,0.7,0.3,1.1,0.3s0.8-0.1,1.2-0.3
					s0.6-0.5,0.8-0.9s0.2-0.9,0.2-1.7v-4.5h1.4v8.5L518.4,64.4L518.4,64.4L518.4,64.4z"/>
				<path d="M522,64.4v-8.5h1.3v1.3c0.3-0.6,0.6-1,0.9-1.2s0.6-0.3,0.9-0.3c0.5,0,1,0.2,1.5,0.5l-0.5,1.3c-0.3-0.2-0.7-0.3-1-0.3
					c-0.3,0-0.6,0.1-0.8,0.3c-0.2,0.2-0.4,0.4-0.5,0.8c-0.2,0.5-0.2,1.1-0.2,1.7v4.4L522,64.4L522,64.4L522,64.4z"/>
				<path d="M533.2,61.6l1.5,0.2c-0.2,0.9-0.7,1.5-1.3,2c-0.6,0.5-1.4,0.7-2.4,0.7c-1.2,0-2.2-0.4-3-1.1c-0.7-0.8-1.1-1.8-1.1-3.2
					s0.4-2.5,1.1-3.3s1.7-1.2,2.8-1.2c1.2,0,2.1,0.4,2.8,1.2c0.7,0.8,1.1,1.8,1.1,3.2v0.4h-6.3c0,0.9,0.3,1.6,0.8,2.1
					c0.5,0.5,1.1,0.7,1.8,0.7c0.5,0,1-0.1,1.3-0.4S533,62.2,533.2,61.6L533.2,61.6L533.2,61.6z M528.5,59.3h4.7
					c-0.1-0.7-0.2-1.2-0.5-1.6c-0.5-0.6-1-0.8-1.8-0.8c-0.7,0-1.2,0.2-1.7,0.7S528.5,58.6,528.5,59.3z"/>
				<path d="M535.9,61.8l1.4-0.2c0.1,0.6,0.3,1,0.7,1.3c0.4,0.3,0.9,0.4,1.5,0.4c0.7,0,1.1-0.1,1.5-0.4s0.5-0.6,0.5-0.9
					c0-0.3-0.1-0.6-0.4-0.8c-0.2-0.1-0.7-0.3-1.5-0.5c-1-0.3-1.8-0.5-2.2-0.7c-0.4-0.2-0.7-0.5-0.9-0.8s-0.3-0.7-0.3-1.1
					c0-0.4,0.1-0.7,0.3-1.1c0.2-0.3,0.4-0.6,0.7-0.8c0.2-0.2,0.5-0.3,0.9-0.4s0.8-0.2,1.2-0.2c0.7,0,1.2,0.1,1.8,0.3
					s0.9,0.4,1.1,0.8s0.4,0.8,0.5,1.3l-1.4,0.2c-0.1-0.4-0.2-0.8-0.5-1s-0.7-0.4-1.3-0.4c-0.7,0-1.1,0.1-1.4,0.3
					c-0.3,0.2-0.4,0.5-0.4,0.8c0,0.2,0.1,0.3,0.2,0.5s0.3,0.3,0.5,0.4c0.1,0.1,0.6,0.2,1.3,0.4c1,0.3,1.7,0.5,2.1,0.7
					c0.4,0.2,0.7,0.4,0.9,0.8c0.2,0.3,0.3,0.7,0.3,1.2s-0.1,0.9-0.4,1.3c-0.3,0.4-0.7,0.8-1.2,1c-0.5,0.2-1.1,0.3-1.8,0.3
					c-1.1,0-1.9-0.2-2.5-0.7C536.5,63.4,536.1,62.7,535.9,61.8L535.9,61.8L535.9,61.8z"/>
			</g>
			<g>
				<g>
					<path d="M665.9,54.6l4.5-11.7h1.7l4.8,11.7H675l-1.4-3.5h-4.9l-1.3,3.5H665.9L665.9,54.6L665.9,54.6z M669.2,49.8h4l-1.2-3.2
						c-0.4-1-0.6-1.8-0.8-2.4c-0.2,0.8-0.4,1.5-0.6,2.2C670.5,46.3,669.2,49.8,669.2,49.8z"/>
					<path d="M677.8,54.6V42.9h1.4v11.7H677.8z"/>
					<path d="M687.3,51.8l1.5,0.2c-0.2,0.9-0.7,1.5-1.3,2c-0.6,0.5-1.4,0.7-2.4,0.7c-1.2,0-2.2-0.4-3-1.1c-0.7-0.8-1.1-1.8-1.1-3.2
						s0.4-2.5,1.1-3.3c0.7-0.8,1.7-1.2,2.8-1.2c1.2,0,2.1,0.4,2.8,1.2c0.7,0.8,1.1,1.8,1.1,3.2v0.4h-6.3c0,0.9,0.3,1.6,0.8,2.1
						c0.5,0.5,1.1,0.7,1.8,0.7c0.5,0,1-0.1,1.4-0.4S687.1,52.4,687.3,51.8z M682.6,49.5h4.7c-0.1-0.7-0.2-1.2-0.5-1.6
						c-0.5-0.6-1-0.8-1.8-0.8c-0.7,0-1.2,0.2-1.7,0.7S682.6,48.8,682.6,49.5z"/>
					<path d="M689.6,54.6l3.1-4.4l-2.9-4.1h1.8l1.3,2c0.2,0.4,0.4,0.7,0.6,0.9c0.2-0.3,0.5-0.7,0.6-0.9l1.4-2h1.7l-2.9,4l3.2,4.5
						h-1.8L694,52l-0.5-0.7l-2.2,3.3L689.6,54.6L689.6,54.6L689.6,54.6z"/>
					<path d="M702.9,50.8l1.5-0.1c0.1,0.6,0.2,1.1,0.5,1.4c0.2,0.4,0.6,0.7,1.2,0.9c0.5,0.2,1.1,0.3,1.8,0.3c0.6,0,1.1-0.1,1.6-0.3
						s0.8-0.4,1-0.7c0.2-0.3,0.3-0.6,0.3-1s-0.1-0.7-0.3-1s-0.6-0.5-1-0.7c-0.3-0.1-1-0.3-2.1-0.6s-1.8-0.5-2.3-0.7
						c-0.6-0.3-1-0.7-1.2-1.1c-0.3-0.4-0.4-0.9-0.4-1.4c0-0.6,0.2-1.1,0.5-1.7c0.3-0.5,0.8-0.9,1.5-1.2c0.6-0.3,1.4-0.4,2.1-0.4
						c0.9,0,1.6,0.1,2.3,0.4c0.7,0.3,1.2,0.7,1.5,1.2s0.5,1.2,0.6,1.8l-1.5,0.1c-0.1-0.7-0.4-1.3-0.8-1.7c-0.5-0.4-1.1-0.6-2-0.6
						c-0.9,0-1.6,0.2-2,0.5c-0.4,0.3-0.6,0.8-0.6,1.2c0,0.4,0.1,0.8,0.5,1c0.3,0.3,1.1,0.6,2.3,0.8c1.3,0.3,2.1,0.5,2.6,0.8
						c0.7,0.3,1.2,0.7,1.5,1.2c0.3,0.5,0.5,1,0.5,1.7s-0.2,1.2-0.5,1.8c-0.4,0.6-0.9,1-1.5,1.3c-0.7,0.3-1.4,0.5-2.2,0.5
						c-1.1,0-1.9-0.2-2.7-0.5c-0.7-0.3-1.3-0.8-1.7-1.4C703.1,52.3,702.9,51.6,702.9,50.8L702.9,50.8L702.9,50.8z"/>
					<path d="M714.1,44.5v-1.7h1.4v1.7H714.1z M714.1,54.6v-8.5h1.4v8.5H714.1z"/>
					<path d="M717.8,54.6v-8.5h1.3v1.2c0.6-0.9,1.5-1.4,2.7-1.4c0.5,0,1,0.1,1.4,0.3c0.4,0.2,0.8,0.4,1,0.7c0.2,0.3,0.4,0.7,0.5,1.1
						c0,0.3,0.1,0.7,0.1,1.4v5.2h-1.4v-5.2c0-0.6-0.1-1-0.2-1.3c-0.1-0.3-0.3-0.5-0.6-0.7c-0.3-0.2-0.6-0.3-1-0.3
						c-0.6,0-1.1,0.2-1.6,0.6s-0.7,1.1-0.7,2.2v4.6L717.8,54.6L717.8,54.6L717.8,54.6z"/>
					<path d="M726.6,55.3l1.4,0.2c0.1,0.4,0.2,0.7,0.5,0.9c0.4,0.3,0.8,0.4,1.5,0.4c0.7,0,1.2-0.1,1.5-0.4c0.4-0.3,0.6-0.6,0.7-1.1
						c0.1-0.3,0.1-0.9,0.1-1.8c-0.6,0.7-1.4,1.1-2.3,1.1c-1.2,0-2.1-0.4-2.7-1.3s-1-1.8-1-3c0-0.8,0.2-1.6,0.4-2.2
						c0.3-0.7,0.7-1.2,1.3-1.6c0.6-0.4,1.2-0.6,2-0.6c1,0,1.8,0.4,2.5,1.2v-1h1.3v7.3c0,1.3-0.1,2.2-0.4,2.8c-0.3,0.6-0.7,1-1.3,1.3
						c-0.6,0.3-1.3,0.5-2.2,0.5c-1,0-1.8-0.2-2.5-0.7C726.9,56.9,726.6,56.2,726.6,55.3L726.6,55.3L726.6,55.3z M727.8,50.2
						c0,1.1,0.2,1.9,0.7,2.4s1,0.8,1.7,0.8c0.7,0,1.2-0.2,1.7-0.8s0.7-1.3,0.7-2.4s-0.2-1.8-0.7-2.3c-0.5-0.5-1-0.8-1.7-0.8
						c-0.6,0-1.2,0.3-1.6,0.8S727.8,49.2,727.8,50.2C727.8,50.2,727.8,50.2,727.8,50.2z"/>
					<path d="M735.9,54.6V42.9h1.4v4.2c0.7-0.8,1.5-1.2,2.5-1.2c0.6,0,1.2,0.1,1.6,0.4c0.5,0.2,0.8,0.6,1,1c0.2,0.4,0.3,1.1,0.3,1.9
						v5.4h-1.4v-5.4c0-0.7-0.2-1.2-0.5-1.6s-0.8-0.5-1.3-0.5c-0.4,0-0.8,0.1-1.2,0.3c-0.4,0.2-0.6,0.5-0.8,0.9s-0.2,0.9-0.2,1.6v4.6
						H735.9L735.9,54.6L735.9,54.6z"/>
				</g>
				<g>
					<path d="M668.5,74.1l-2.6-8.5h1.5l1.4,4.9l0.5,1.8c0-0.1,0.2-0.7,0.4-1.8l1.3-5h1.5l1.3,4.9l0.4,1.6l0.5-1.6l1.5-4.9h1.4
						l-2.7,8.5h-1.5l-1.3-5.1l-0.3-1.4l-1.7,6.5L668.5,74.1L668.5,74.1L668.5,74.1z"/>
					<path d="M678.7,64.1v-1.6h1.4v1.6H678.7z M678.7,74.1v-8.5h1.4v8.5H678.7z"/>
					<path d="M685.5,72.9l0.2,1.3c-0.4,0.1-0.8,0.1-1.1,0.1c-0.5,0-0.9-0.1-1.2-0.2c-0.3-0.2-0.5-0.4-0.6-0.6s-0.2-0.8-0.2-1.7v-4.9
						h-1v-1.1h1v-2.1l1.4-0.9v3h1.4v1.1H684v4.9c0,0.4,0,0.7,0.1,0.8c0,0.1,0.1,0.2,0.2,0.3c0.1,0.1,0.3,0.1,0.5,0.1
						C685,72.9,685.2,72.9,685.5,72.9L685.5,72.9L685.5,72.9z"/>
					<path d="M686.9,74.1V62.5h1.4v4.2c0.7-0.8,1.5-1.2,2.5-1.2c0.6,0,1.2,0.1,1.6,0.4c0.5,0.2,0.8,0.6,1,1c0.2,0.4,0.3,1.1,0.3,1.9
						v5.4h-1.4v-5.4c0-0.7-0.2-1.2-0.5-1.6s-0.8-0.5-1.3-0.5c-0.4,0-0.8,0.1-1.2,0.3s-0.6,0.5-0.8,0.9c-0.2,0.4-0.2,0.9-0.2,1.6v4.6
						H686.9L686.9,74.1L686.9,74.1z"/>
					<path d="M698.5,74.1l4.5-11.7h1.7l4.8,11.7h-1.8l-1.4-3.5h-4.9l-1.3,3.5H698.5L698.5,74.1L698.5,74.1z M701.9,69.3h4l-1.2-3.2
						c-0.4-1-0.7-1.8-0.8-2.4c-0.1,0.8-0.4,1.5-0.6,2.2C703.2,65.9,701.9,69.4,701.9,69.3z"/>
					<path d="M710.5,74.1v-8.5h1.3V67c0.3-0.6,0.6-1,0.9-1.2c0.3-0.2,0.6-0.3,0.9-0.3c0.5,0,1,0.2,1.5,0.5l-0.5,1.3
						c-0.3-0.2-0.7-0.3-1-0.3c-0.3,0-0.6,0.1-0.8,0.3c-0.2,0.2-0.4,0.4-0.5,0.8c-0.2,0.5-0.2,1.1-0.2,1.7v4.4L710.5,74.1L710.5,74.1
						L710.5,74.1z"/>
					<path d="M721.7,71.4l1.5,0.2c-0.2,0.9-0.7,1.5-1.3,2c-0.6,0.5-1.4,0.7-2.4,0.7c-1.2,0-2.2-0.4-3-1.1c-0.7-0.8-1.1-1.8-1.1-3.2
						c0-1.4,0.4-2.5,1.1-3.3c0.7-0.8,1.7-1.2,2.9-1.2c1.2,0,2.1,0.4,2.8,1.2c0.7,0.8,1.1,1.8,1.1,3.2v0.4h-6.3
						c0,0.9,0.3,1.6,0.8,2.1c0.5,0.5,1.1,0.7,1.8,0.7c0.5,0,1-0.1,1.3-0.4S721.5,72,721.7,71.4L721.7,71.4L721.7,71.4z M717,69.1
						h4.7c-0.1-0.7-0.2-1.2-0.5-1.6c-0.5-0.6-1-0.8-1.8-0.8c-0.7,0-1.2,0.2-1.7,0.7S717.1,68.4,717,69.1z"/>
					<path d="M725.4,74.1v-1.6h1.6v1.6H725.4z"/>
					<path d="M729.5,74.1v-8.5h1.3v1.2c0.6-0.9,1.5-1.4,2.7-1.4c0.5,0,1,0.1,1.4,0.3c0.4,0.2,0.8,0.4,1,0.7c0.2,0.3,0.4,0.7,0.5,1.1
						c0,0.3,0.1,0.7,0.1,1.4v5.2H735V69c0-0.6-0.1-1-0.2-1.3c-0.1-0.3-0.3-0.5-0.6-0.7c-0.3-0.2-0.6-0.3-1-0.3
						c-0.6,0-1.1,0.2-1.6,0.6c-0.4,0.4-0.7,1.1-0.7,2.2v4.6H729.5L729.5,74.1L729.5,74.1z"/>
					<path d="M744.2,73.1c-0.5,0.4-1,0.8-1.5,1s-1,0.3-1.6,0.3c-0.9,0-1.6-0.2-2.1-0.7s-0.8-1-0.8-1.7c0-0.4,0.1-0.8,0.3-1.1
						c0.2-0.3,0.4-0.6,0.7-0.8c0.3-0.2,0.7-0.4,1-0.5c0.3-0.1,0.7-0.1,1.3-0.2c1.2-0.1,2-0.3,2.6-0.5v-0.4c0-0.6-0.1-1-0.4-1.2
						c-0.4-0.3-0.9-0.5-1.6-0.5c-0.7,0-1.2,0.1-1.5,0.4c-0.3,0.2-0.6,0.7-0.7,1.2l-1.4-0.2c0.1-0.6,0.3-1.1,0.6-1.4
						c0.3-0.4,0.7-0.7,1.3-0.9s1.2-0.3,1.9-0.3c0.7,0,1.3,0.1,1.8,0.2s0.8,0.4,1,0.6c0.2,0.3,0.4,0.6,0.5,1c0,0.2,0.1,0.7,0.1,1.3
						v1.9c0,1.3,0,2.2,0.1,2.5c0.1,0.4,0.2,0.7,0.4,1h-1.5C744.3,73.8,744.2,73.5,744.2,73.1L744.2,73.1L744.2,73.1z M744,69.9
						c-0.5,0.2-1.3,0.4-2.3,0.5c-0.6,0.1-1,0.2-1.2,0.3s-0.4,0.3-0.6,0.5c-0.1,0.2-0.2,0.4-0.2,0.7c0,0.4,0.1,0.7,0.4,1
						c0.3,0.2,0.7,0.4,1.3,0.4s1-0.1,1.5-0.4c0.4-0.2,0.8-0.6,1-1c0.2-0.3,0.2-0.8,0.2-1.4L744,69.9L744,69.9z"/>
				</g>
			</g>
		</g>
		<g>
			<path d="M209.9,215.9h-1.7v-1.5h1.3c0.7,0,1.2,0.1,1.5,0.2c0.4,0.2,0.8,0.6,1,1.1l-0.6,0.4c-0.1-0.3-0.3-0.5-0.5-0.6
				c-0.2-0.1-0.6-0.2-1.1-0.2L209.9,215.9L209.9,215.9L209.9,215.9z M209.9,218.3h-1.7v-1.5h1.3c0.7,0,1.2,0.1,1.5,0.2
				c0.4,0.2,0.8,0.6,1,1.1l-0.6,0.4c-0.1-0.3-0.3-0.5-0.5-0.6c-0.2-0.1-0.6-0.2-1.1-0.2L209.9,218.3L209.9,218.3L209.9,218.3z"/>
			<path d="M200.2,219.4h11.7v4.4c0,0.9-0.1,1.6-0.3,2.1c-0.2,0.5-0.6,1-1.1,1.3c-0.5,0.3-1,0.5-1.5,0.5c-0.5,0-1-0.1-1.4-0.4
				s-0.8-0.7-1.1-1.2c-0.2,0.7-0.6,1.2-1.1,1.6s-1.1,0.6-1.8,0.6c-0.5,0-1.1-0.1-1.5-0.4c-0.5-0.2-0.8-0.5-1.1-0.9
				c-0.2-0.3-0.5-0.8-0.6-1.3s-0.2-1.1-0.2-1.9L200.2,219.4L200.2,219.4L200.2,219.4z M207,221v2.5c0,0.7,0,1.2,0.1,1.5
				c0.1,0.4,0.3,0.7,0.6,0.9s0.6,0.3,1,0.3s0.7-0.1,1-0.3s0.5-0.5,0.6-0.8s0.2-0.9,0.2-1.8V221L207,221L207,221L207,221z M201.6,221
				v2.9c0,0.5,0,0.9,0.1,1c0.1,0.4,0.2,0.6,0.3,0.9s0.4,0.4,0.7,0.6s0.6,0.2,1,0.2c0.4,0,0.8-0.1,1.1-0.3c0.3-0.2,0.5-0.5,0.7-0.9
				s0.2-1,0.2-1.7V221L201.6,221L201.6,221L201.6,221z"/>
			<path d="M201.2,234.8c-0.5-0.5-0.8-1-1-1.5s-0.3-1-0.3-1.6c0-0.9,0.2-1.6,0.7-2.1s1-0.8,1.7-0.8c0.4,0,0.8,0.1,1.1,0.3
				s0.6,0.4,0.8,0.7c0.2,0.3,0.4,0.6,0.5,1c0.1,0.3,0.2,0.7,0.2,1.3c0.1,1.2,0.3,2,0.5,2.6h0.4c0.6,0,1-0.1,1.2-0.4
				c0.3-0.4,0.5-0.9,0.5-1.6c0-0.7-0.1-1.2-0.3-1.5c-0.2-0.3-0.7-0.6-1.3-0.7l0.2-1.4c0.6,0.1,1.1,0.3,1.5,0.6s0.7,0.7,0.8,1.3
				s0.3,1.2,0.3,1.9s-0.1,1.3-0.2,1.8s-0.4,0.8-0.6,1c-0.3,0.2-0.6,0.4-1,0.5c-0.2,0-0.7,0.1-1.3,0.1h-1.9c-1.3,0-2.2,0-2.5,0.1
				s-0.7,0.2-1,0.4v-1.5C200.5,234.9,200.8,234.9,201.2,234.8L201.2,234.8L201.2,234.8z M204.4,234.7c-0.2-0.5-0.4-1.3-0.5-2.3
				c-0.1-0.6-0.2-1-0.3-1.2c-0.1-0.2-0.3-0.4-0.5-0.6s-0.4-0.2-0.7-0.2c-0.4,0-0.7,0.1-1,0.4c-0.2,0.3-0.4,0.7-0.4,1.3
				s0.1,1,0.4,1.5s0.6,0.8,1,1c0.3,0.1,0.8,0.2,1.4,0.2L204.4,234.7L204.4,234.7L204.4,234.7z"/>
			<path d="M203.3,243l-0.2,1.4c-1-0.1-1.7-0.5-2.3-1.2c-0.5-0.6-0.8-1.4-0.8-2.3c0-1.2,0.4-2.1,1.1-2.8s1.8-1.1,3.3-1.1
				c0.9,0,1.7,0.1,2.4,0.5s1.2,0.8,1.5,1.4c0.3,0.6,0.5,1.3,0.5,2c0,0.9-0.2,1.7-0.7,2.3c-0.5,0.6-1.1,1-2,1.1l-0.2-1.4
				c0.6-0.1,1-0.4,1.3-0.7c0.3-0.3,0.4-0.8,0.4-1.2c0-0.7-0.3-1.3-0.8-1.8s-1.3-0.7-2.5-0.7s-2,0.2-2.5,0.6c-0.5,0.4-0.8,1-0.8,1.7
				c0,0.6,0.2,1,0.5,1.4C202.1,242.7,202.6,242.9,203.3,243L203.3,243L203.3,243z"/>
			<path d="M200.2,244.7h11.7v1.4h-6.7l3.4,3.4v1.9l-3.1-3.2l-5.3,3.6V250l4.3-2.8l-1-1h-3.4L200.2,244.7L200.2,244.7L200.2,244.7z"
				/>
			<path d="M201.5,258.8l-1.3,0.2c-0.1-0.4-0.1-0.8-0.1-1.1c0-0.5,0.1-0.9,0.2-1.2c0.2-0.3,0.4-0.5,0.7-0.6c0.3-0.1,0.8-0.2,1.7-0.2
				h4.9v-1h1.1v1h2.1l0.9,1.4h-3v1.4h-1.1v-1.4h-5c-0.4,0-0.7,0-0.8,0.1s-0.2,0.1-0.3,0.2c-0.1,0.1-0.1,0.3-0.1,0.5
				C201.4,258.3,201.4,258.5,201.5,258.8L201.5,258.8L201.5,258.8z"/>
			<path d="M204.4,258.7c1.6,0,2.7,0.4,3.5,1.3c0.6,0.7,0.9,1.6,0.9,2.7c0,1.2-0.4,2.1-1.1,2.9c-0.8,0.7-1.8,1.1-3.2,1.1
				c-1.1,0-2-0.2-2.6-0.5s-1.1-0.8-1.5-1.4c-0.3-0.6-0.5-1.3-0.5-2c0-1.2,0.4-2.1,1.1-2.9C201.9,259.1,203,258.7,204.4,258.7z
				 M204.4,260.2c-1.1,0-1.9,0.2-2.4,0.7s-0.8,1.1-0.8,1.8s0.3,1.3,0.8,1.8s1.4,0.7,2.5,0.7c1,0,1.8-0.2,2.4-0.7
				c0.5-0.5,0.8-1.1,0.8-1.8s-0.3-1.3-0.8-1.8C206.3,260.5,205.5,260.2,204.4,260.2L204.4,260.2L204.4,260.2z"/>
			<path d="M200.2,271.1h11.7v1.4h-11.7V271.1z"/>
			<path d="M210.2,273.8h1.7v1.4h-1.7V273.8z M200.2,273.8h8.5v1.4h-8.5V273.8z"/>
			<path d="M200.2,276.9h7.3v-1.3h1.1v1.3h0.9c0.6,0,1,0,1.3,0.1c0.4,0.1,0.7,0.4,0.9,0.7c0.2,0.4,0.3,0.8,0.3,1.5
				c0,0.4,0,0.9-0.1,1.3l-1.2-0.2c0-0.3,0.1-0.6,0.1-0.8c0-0.4-0.1-0.7-0.3-0.9c-0.2-0.2-0.5-0.3-1-0.3h-0.8v1.6h-1.1v-1.6h-7.3
				L200.2,276.9L200.2,276.9z"/>
			<path d="M202.9,286l-0.2,1.5c-0.9-0.2-1.5-0.7-2-1.3c-0.5-0.6-0.7-1.4-0.7-2.4c0-1.2,0.4-2.2,1.1-3s1.8-1.1,3.2-1.1
				s2.5,0.4,3.3,1.1s1.2,1.7,1.2,2.9s-0.4,2.1-1.2,2.8c-0.8,0.7-1.8,1.1-3.2,1.1h-0.4v-6.3c-0.9,0-1.6,0.3-2.1,0.8s-0.7,1.1-0.7,1.8
				c0,0.5,0.1,1,0.4,1.4S202.3,285.8,202.9,286L202.9,286L202.9,286z M205.3,281.3v4.7c0.7-0.1,1.2-0.2,1.6-0.5
				c0.5-0.5,0.8-1,0.8-1.8c0-0.7-0.2-1.2-0.7-1.7S206,281.3,205.3,281.3z"/>
			<path d="M200,290.9l12.1,3.4v1.1l-12.1-3.4V290.9z"/>
			<path d="M200.2,300.6v-1.3h11.7v1.4h-4.2c0.8,0.6,1.1,1.4,1.1,2.3c0,0.5-0.1,1-0.3,1.5c-0.2,0.5-0.5,0.9-0.9,1.1
				s-0.8,0.5-1.4,0.7s-1.1,0.2-1.7,0.2c-1.5,0-2.6-0.4-3.4-1.1S200,304,200,303s0.4-1.8,1.2-2.4L200.2,300.6L200.2,300.6
				L200.2,300.6z M204.5,300.6c-1,0-1.8,0.1-2.2,0.4c-0.7,0.5-1.1,1.1-1.1,1.8c0,0.6,0.3,1.2,0.8,1.6c0.5,0.5,1.4,0.7,2.4,0.7
				s1.9-0.2,2.5-0.7s0.8-1,0.8-1.6s-0.3-1.2-0.8-1.6C206.3,300.8,205.5,300.6,204.5,300.6L204.5,300.6L204.5,300.6z"/>
			<path d="M201.2,313c-0.5-0.5-0.8-1-1-1.5s-0.3-1-0.3-1.6c0-0.9,0.2-1.6,0.7-2.1s1-0.8,1.7-0.8c0.4,0,0.8,0.1,1.1,0.3
				c0.3,0.2,0.6,0.4,0.8,0.7c0.2,0.3,0.4,0.6,0.5,1c0.1,0.3,0.2,0.7,0.2,1.3c0.1,1.2,0.3,2,0.5,2.6h0.4c0.6,0,1-0.1,1.2-0.4
				c0.3-0.4,0.5-0.9,0.5-1.6c0-0.7-0.1-1.2-0.3-1.5c-0.2-0.3-0.7-0.6-1.3-0.7l0.2-1.4c0.6,0.1,1.1,0.3,1.5,0.6s0.7,0.7,0.8,1.3
				s0.3,1.2,0.3,1.9s-0.1,1.3-0.2,1.8s-0.4,0.8-0.6,1s-0.6,0.4-1,0.5c-0.2,0-0.7,0.1-1.3,0.1h-1.9c-1.3,0-2.2,0-2.5,0.1
				c-0.3,0.1-0.7,0.2-1,0.4v-1.5C200.5,313.1,200.8,313,201.2,313L201.2,313L201.2,313z M204.4,312.9c-0.2-0.5-0.4-1.3-0.5-2.3
				c-0.1-0.6-0.2-1-0.3-1.2s-0.3-0.4-0.5-0.6s-0.4-0.2-0.7-0.2c-0.4,0-0.7,0.1-1,0.4c-0.2,0.3-0.4,0.7-0.4,1.3s0.1,1,0.4,1.5
				s0.6,0.8,1,1c0.3,0.1,0.8,0.2,1.4,0.2L204.4,312.9L204.4,312.9L204.4,312.9z"/>
			<path d="M203.3,321.2l-0.2,1.4c-1-0.1-1.7-0.5-2.3-1.2c-0.5-0.6-0.8-1.4-0.8-2.3c0-1.2,0.4-2.1,1.1-2.8s1.8-1.1,3.3-1.1
				c0.9,0,1.7,0.1,2.4,0.5s1.2,0.8,1.5,1.4c0.3,0.6,0.5,1.3,0.5,2c0,0.9-0.2,1.7-0.7,2.3c-0.5,0.6-1.1,1-2,1.1L206,321
				c0.6-0.1,1-0.4,1.3-0.7c0.3-0.3,0.4-0.8,0.4-1.2c0-0.7-0.3-1.3-0.8-1.8s-1.3-0.7-2.5-0.7s-2,0.2-2.5,0.6c-0.5,0.4-0.8,1-0.8,1.7
				c0,0.6,0.2,1,0.5,1.4S202.6,321.1,203.3,321.2L203.3,321.2L203.3,321.2z"/>
			<path d="M200.2,322.9h11.7v1.4h-6.7l3.4,3.4v1.9l-3.1-3.2l-5.3,3.6v-1.8l4.3-2.8l-1-1h-3.4L200.2,322.9L200.2,322.9z"/>
			<path d="M201.5,336.9l-1.3,0.2c-0.1-0.4-0.1-0.8-0.1-1.1c0-0.5,0.1-0.9,0.2-1.2c0.2-0.3,0.4-0.5,0.7-0.6s0.8-0.2,1.7-0.2h4.9v-1
				h1.1v1h2.1l0.9,1.4h-3v1.4h-1.1v-1.4h-5c-0.4,0-0.7,0-0.8,0.1s-0.2,0.1-0.3,0.2c-0.1,0.1-0.1,0.3-0.1,0.5
				C201.4,336.5,201.4,336.7,201.5,336.9L201.5,336.9L201.5,336.9z"/>
			<path d="M204.4,336.9c1.6,0,2.7,0.4,3.5,1.3c0.6,0.7,0.9,1.6,0.9,2.7c0,1.2-0.4,2.1-1.1,2.9c-0.8,0.7-1.8,1.1-3.2,1.1
				c-1.1,0-2-0.2-2.6-0.5s-1.1-0.8-1.5-1.4c-0.3-0.6-0.5-1.3-0.5-2c0-1.2,0.4-2.1,1.1-2.9C201.9,337.3,203,336.9,204.4,336.9z
				 M204.4,338.4c-1.1,0-1.9,0.2-2.4,0.7s-0.8,1.1-0.8,1.8s0.3,1.3,0.8,1.8c0.5,0.5,1.4,0.7,2.5,0.7c1,0,1.8-0.2,2.4-0.7
				c0.5-0.5,0.8-1.1,0.8-1.8s-0.3-1.3-0.8-1.8S205.5,338.4,204.4,338.4L204.4,338.4L204.4,338.4z"/>
			<path d="M200.2,349.2h8.5v1.3h-1.3c0.6,0.3,1,0.6,1.2,0.9s0.3,0.6,0.3,0.9c0,0.5-0.2,1-0.5,1.5l-1.3-0.5c0.2-0.4,0.3-0.7,0.3-1
				c0-0.3-0.1-0.6-0.3-0.8c-0.2-0.2-0.5-0.4-0.8-0.5c-0.5-0.2-1.1-0.2-1.7-0.2h-4.4L200.2,349.2L200.2,349.2z"/>
			<path d="M202.9,359.6l-0.2,1.5c-0.9-0.2-1.5-0.7-2-1.3c-0.5-0.6-0.7-1.4-0.7-2.4c0-1.2,0.4-2.2,1.1-3c0.8-0.7,1.8-1.1,3.2-1.1
				s2.5,0.4,3.3,1.1s1.2,1.7,1.2,2.9s-0.4,2.1-1.2,2.8c-0.8,0.7-1.8,1.1-3.2,1.1h-0.4v-6.3c-0.9,0-1.6,0.3-2.1,0.8
				c-0.5,0.5-0.7,1.1-0.7,1.8c0,0.5,0.1,1,0.4,1.4S202.3,359.4,202.9,359.6L202.9,359.6L202.9,359.6z M205.3,354.9v4.7
				c0.7-0.1,1.2-0.2,1.6-0.5c0.5-0.5,0.8-1,0.8-1.8c0-0.7-0.2-1.2-0.7-1.7S206,354.9,205.3,354.9z"/>
			<path d="M201.2,367.5c-0.5-0.5-0.8-1-1-1.5s-0.3-1-0.3-1.6c0-0.9,0.2-1.6,0.7-2.1s1-0.8,1.7-0.8c0.4,0,0.8,0.1,1.1,0.3
				s0.6,0.4,0.8,0.7c0.2,0.3,0.4,0.6,0.5,1c0.1,0.3,0.2,0.7,0.2,1.3c0.1,1.2,0.3,2,0.5,2.6h0.4c0.6,0,1-0.1,1.2-0.4
				c0.3-0.4,0.5-0.9,0.5-1.6c0-0.7-0.1-1.2-0.3-1.5c-0.2-0.3-0.7-0.6-1.3-0.7l0.2-1.4c0.6,0.1,1.1,0.3,1.5,0.6s0.7,0.7,0.8,1.3
				s0.3,1.2,0.3,1.9s-0.1,1.3-0.2,1.8s-0.4,0.8-0.6,1c-0.3,0.2-0.6,0.4-1,0.5c-0.2,0-0.7,0.1-1.3,0.1h-1.9c-1.3,0-2.2,0-2.5,0.1
				s-0.7,0.2-1,0.4v-1.5C200.5,367.6,200.8,367.6,201.2,367.5L201.2,367.5L201.2,367.5z M204.4,367.4c-0.2-0.5-0.4-1.3-0.5-2.3
				c-0.1-0.6-0.2-1-0.3-1.2c-0.1-0.2-0.3-0.4-0.5-0.6s-0.4-0.2-0.7-0.2c-0.4,0-0.7,0.1-1,0.4c-0.2,0.3-0.4,0.7-0.4,1.3
				s0.1,1,0.4,1.5s0.6,0.8,1,1c0.3,0.1,0.8,0.2,1.4,0.2L204.4,367.4L204.4,367.4L204.4,367.4z"/>
			<path d="M200.2,370.1h11.7v1.4h-11.7V370.1z"/>
			<path d="M210.2,372.9h1.7v1.4h-1.7V372.9z M200.2,372.9h8.5v1.4h-8.5V372.9z"/>
			<path d="M201.5,378.8l-1.3,0.2c-0.1-0.4-0.1-0.8-0.1-1.1c0-0.5,0.1-0.9,0.2-1.2c0.2-0.3,0.4-0.5,0.7-0.6s0.8-0.2,1.7-0.2h4.9v-1
				h1.1v1h2.1l0.9,1.4h-3v1.4h-1.1v-1.4h-5c-0.4,0-0.7,0-0.8,0.1s-0.2,0.1-0.3,0.2c-0.1,0.1-0.1,0.3-0.1,0.5
				C201.4,378.3,201.4,378.5,201.5,378.8L201.5,378.8L201.5,378.8z"/>
			<path d="M196.9,379.2l1.3-0.2c-0.1,0.3-0.1,0.6-0.1,0.8c0,0.3,0,0.6,0.2,0.8c0.1,0.2,0.2,0.4,0.5,0.5c0.1,0.1,0.5,0.2,1.1,0.4
				c0.1,0,0.2,0.1,0.3,0.1l8.5-3.2v1.5l-4.9,1.8c-0.6,0.2-1.3,0.4-2,0.6c0.7,0.2,1.3,0.4,1.9,0.6l4.9,1.8v1.4l-8.6-3.2
				c-0.9-0.4-1.6-0.6-1.9-0.8c-0.5-0.2-0.8-0.5-1-0.9c-0.2-0.3-0.3-0.7-0.3-1.2C196.8,379.8,196.8,379.5,196.9,379.2L196.9,379.2
				L196.9,379.2z"/>
			<path d="M210.4,386.1h1.7v1.5h-1.3c-0.7,0-1.2-0.1-1.5-0.2c-0.4-0.2-0.8-0.6-1-1.1l0.6-0.4c0.1,0.3,0.3,0.5,0.5,0.6
				s0.6,0.2,1,0.2L210.4,386.1L210.4,386.1z M210.4,388.6h1.7v1.5h-1.3c-0.7,0-1.2-0.1-1.5-0.2c-0.4-0.2-0.8-0.6-1-1.1l0.6-0.4
				c0.1,0.3,0.3,0.5,0.5,0.6s0.6,0.2,1,0.2L210.4,388.6L210.4,388.6z"/>
		</g>
		<path d="M923.1,321.3l4.2-5.3c0.3-0.3,0.7-0.3,0.9,0l4.2,5.3c0.3,0.3,0.7,0.5,1,0.3c0.3-0.2,0.4-0.6,0.2-1l-2.5-6.4
			c-0.2-0.4,0.1-0.8,0.5-0.8l6.8-1c0.4-0.1,0.8-0.4,0.8-0.7s-0.3-0.6-0.8-0.7l-6.8-1c-0.4-0.1-0.6-0.4-0.5-0.8l2.5-6.2
			c0.1-0.4,0.1-1,0-1.4l-2.5-6.2c-0.2-0.4,0.1-0.8,0.5-0.8l6.8-1c0.4-0.1,0.8-0.4,0.8-0.7s-0.3-0.6-0.8-0.7l-6.8-1
			c-0.4-0.1-0.6-0.4-0.5-0.8l2.5-6.4c0.2-0.4,0.1-0.8-0.2-1c-0.3-0.2-0.7,0-1,0.3l-4.2,5.3c-0.3,0.3-0.7,0.3-0.9,0l-4.2-5.3
			c-0.3-0.3-0.7-0.5-1-0.3s-0.4,0.6-0.3,1l2.5,6.3c0.2,0.4-0.1,0.8-0.5,0.8l-6.8,0.9c-0.4,0-0.8,0.4-0.8,0.8s0.3,0.7,0.8,0.8
			l6.8,0.9c0.4,0,0.6,0.4,0.5,0.8l-2.5,6.2c-0.1,0.4-0.1,1,0,1.4l2.5,6.2c0.1,0.4-0.1,0.8-0.5,0.8L917,311c-0.4,0-0.8,0.4-0.8,0.8
			s0.3,0.7,0.8,0.8l6.8,0.9c0.4,0,0.6,0.4,0.5,0.8l-2.5,6.3c-0.1,0.4,0,0.8,0.3,1S922.8,321.6,923.1,321.3L923.1,321.3L923.1,321.3z
			 M927.2,307.7l-3.6-4.7c-0.2-0.3-0.2-0.9,0-1.2l3.6-4.7c0.2-0.3,0.7-0.3,0.9,0l3.7,4.7c0.3,0.3,0.3,0.9,0,1.2l-3.7,4.7
			C927.9,308,927.5,308,927.2,307.7L927.2,307.7L927.2,307.7z"/>
	</g>
</g>
</svg>
