<?xml version="1.0" encoding="UTF-8"?>
<svg id="Layer_2" data-name="Layer 2" xmlns="http://www.w3.org/2000/svg" viewBox="0 0 1430.28 1041.02">
  <defs>
    <style>
      .cls-1 {
        fill: none;
        stroke-linecap: round;
        stroke-linejoin: round;
        stroke-width: .75px;
      }

      .cls-1, .cls-2 {
        stroke: #000;
      }

      .cls-2 {
        fill: #fff;
        stroke-miterlimit: 10;
        stroke-width: .5px;
      }

      .cls-3 {
        stroke-width: 0px;
      }
    </style>
  </defs>
  <g id="TEXT">
    <g>
      <rect class="cls-2" x="1274.98" y="264.09" width="115.94" height="512.83"/>
      <g>
        <g>
          <path class="cls-3" d="m1338.8,735.84l-11.68-4.49v-1.67l11.68-4.78v1.76l-3.54,1.36v4.89l3.54,1.28v1.64h0Zm-4.8-3.37v-3.96l-3.24,1.22c-.98.37-1.79.65-2.42.83.75.15,1.49.36,2.23.63l3.43,1.28Z"/>
          <path class="cls-3" d="m1334.7,711.7l.39-1.55c1.27.32,2.24.91,2.91,1.75s1,1.87,1,3.09-.26,2.28-.77,3.07-1.26,1.39-2.23,1.8-2.02.62-3.13.62c-1.22,0-2.28-.23-3.18-.7-.91-.46-1.59-1.13-2.06-1.98-.47-.86-.71-1.8-.71-2.83,0-1.17.3-2.15.89-2.95.6-.8,1.43-1.35,2.51-1.67l.36,1.52c-.85.27-1.47.66-1.86,1.18s-.58,1.16-.58,1.94c0,.9.21,1.65.65,2.25s1.01,1.03,1.73,1.27c.73.24,1.47.37,2.24.37.99,0,1.86-.14,2.6-.43s1.29-.74,1.66-1.35.55-1.27.55-1.98c0-.87-.25-1.6-.75-2.2-.5-.6-1.24-1.01-2.22-1.22h0Z"/>
          <path class="cls-3" d="m1337.75,702.91c.45.53.77,1.04.96,1.53.19.49.28,1.02.28,1.58,0,.93-.23,1.64-.68,2.14-.45.5-1.03.75-1.74.75-.41,0-.79-.09-1.14-.28-.34-.19-.62-.44-.83-.74-.21-.31-.36-.65-.47-1.03-.08-.28-.15-.71-.22-1.28-.14-1.16-.3-2.01-.49-2.56h-.37c-.58,0-1,.14-1.24.41-.32.37-.49.91-.49,1.63,0,.68.12,1.17.35,1.49.24.32.66.56,1.25.71l-.19,1.4c-.6-.13-1.08-.34-1.45-.63s-.65-.71-.85-1.27-.3-1.19-.3-1.92.08-1.31.25-1.76.38-.78.64-1c.26-.21.58-.36.98-.45.24-.05.69-.07,1.32-.07h1.91c1.33,0,2.18-.03,2.53-.09s.69-.18,1.02-.36v1.5c-.3.15-.65.24-1.04.29h0Zm-3.2.12c.21.52.39,1.3.54,2.34.08.59.18,1.01.29,1.25s.26.43.47.57c.21.13.43.2.68.2.38,0,.7-.14.96-.43.25-.29.38-.71.38-1.27s-.12-1.04-.36-1.47-.57-.75-.99-.95c-.32-.15-.8-.23-1.43-.23h-.54Z"/>
          <path class="cls-3" d="m1337.51,696.22l1.27-.21c.08.4.13.77.13,1.08,0,.52-.08.92-.25,1.21-.17.29-.38.49-.65.61s-.83.18-1.69.18h-4.87v1.05h-1.12v-1.05h-2.1l-.86-1.43h2.96v-1.44h1.12v1.44h4.95c.41,0,.67-.03.79-.08s.21-.13.28-.25c.07-.11.1-.28.1-.49,0-.16-.02-.37-.06-.63h0Z"/>
          <path class="cls-3" d="m1337.75,689.29c.45.53.77,1.04.96,1.53.19.49.28,1.02.28,1.58,0,.93-.23,1.64-.68,2.14-.45.5-1.03.75-1.74.75-.41,0-.79-.09-1.14-.28-.34-.19-.62-.44-.83-.74-.21-.31-.36-.65-.47-1.03-.08-.28-.15-.71-.22-1.28-.14-1.16-.3-2.01-.49-2.56h-.37c-.58,0-1,.14-1.24.41-.32.37-.49.91-.49,1.63,0,.68.12,1.17.35,1.49.24.32.66.56,1.25.71l-.19,1.4c-.6-.13-1.08-.34-1.45-.63s-.65-.71-.85-1.27-.3-1.19-.3-1.92.08-1.31.25-1.76.38-.78.64-1c.26-.21.58-.36.98-.45.24-.05.69-.07,1.32-.07h1.91c1.33,0,2.18-.03,2.53-.09s.69-.18,1.02-.36v1.5c-.3.15-.65.24-1.04.29h0Zm-3.2.12c.21.52.39,1.3.54,2.34.08.59.18,1.01.29,1.25s.26.43.47.57c.21.13.43.2.68.2.38,0,.7-.14.96-.43.25-.29.38-.71.38-1.27s-.12-1.04-.36-1.47-.57-.75-.99-.95c-.32-.15-.8-.23-1.43-.23h-.54Z"/>
          <path class="cls-3" d="m1338.8,685.77h-11.68v-1.44h11.68v1.44Z"/>
          <path class="cls-3" d="m1334.56,682.65c-1.57,0-2.73-.44-3.48-1.31-.63-.73-.94-1.62-.94-2.66,0-1.16.38-2.11,1.14-2.85s1.82-1.11,3.16-1.11c1.09,0,1.95.16,2.57.49s1.11.8,1.46,1.43c.34.62.52,1.31.52,2.04,0,1.19-.38,2.14-1.14,2.87s-1.85,1.1-3.28,1.1h-.01Zm0-1.47c1.08,0,1.9-.24,2.44-.71.54-.47.81-1.07.81-1.79s-.27-1.3-.81-1.78c-.54-.47-1.37-.71-2.48-.71-1.05,0-1.84.24-2.38.71s-.81,1.07-.81,1.77.27,1.31.8,1.79c.54.47,1.35.71,2.43.71h0Z"/>
          <path class="cls-3" d="m1339.5,673.3l.21-1.4c.43-.06.74-.22.94-.49.27-.36.4-.84.4-1.46,0-.66-.13-1.18-.4-1.54s-.64-.61-1.12-.73c-.29-.07-.91-.11-1.84-.1.74.63,1.11,1.41,1.11,2.34,0,1.16-.42,2.06-1.26,2.7s-1.85.96-3.02.96c-.81,0-1.55-.15-2.24-.44-.68-.29-1.21-.72-1.58-1.27-.37-.56-.56-1.21-.56-1.96,0-1,.4-1.82,1.21-2.47h-1.02v-1.32h7.32c1.32,0,2.25.13,2.8.4s.98.69,1.3,1.28c.32.58.48,1.3.48,2.15,0,1.01-.23,1.83-.68,2.45-.45.62-1.14.92-2.05.9h0Zm-5.08-1.19c1.11,0,1.92-.22,2.43-.66s.76-.99.76-1.66-.25-1.21-.76-1.66c-.51-.45-1.3-.67-2.39-.67s-1.82.23-2.34.69c-.53.46-.79,1.01-.79,1.66s.26,1.18.78,1.63,1.29.67,2.31.67h0Z"/>
          <path class="cls-3" d="m1338.8,658.41h-1.24c.96.66,1.43,1.55,1.43,2.69,0,.5-.1.97-.29,1.4s-.43.75-.72.96c-.29.21-.64.36-1.06.44-.28.06-.73.09-1.34.09h-5.25v-1.44h4.7c.75,0,1.25-.03,1.51-.09.38-.09.67-.28.89-.57.21-.29.32-.65.32-1.08s-.11-.83-.33-1.21-.52-.64-.9-.8-.93-.24-1.65-.24h-4.54v-1.43h8.46v1.28h.01Z"/>
          <path class="cls-3" d="m1336.07,649.08l.18-1.48c.87.23,1.54.67,2.02,1.3s.72,1.44.72,2.42c0,1.24-.38,2.22-1.14,2.95-.76.73-1.83,1.09-3.21,1.09s-2.53-.37-3.32-1.1c-.79-.73-1.18-1.68-1.18-2.85s.38-2.06,1.16-2.77,1.85-1.08,3.25-1.08h.38v6.31c.93-.05,1.64-.32,2.14-.79.49-.47.74-1.06.74-1.77,0-.53-.14-.98-.41-1.35s-.72-.67-1.32-.88h-.01Zm-2.32,4.71v-4.73c-.71.06-1.25.24-1.6.54-.55.46-.83,1.05-.83,1.78,0,.66.22,1.21.66,1.66.44.45,1.03.7,1.77.75h0Z"/>
          <path class="cls-3" d="m1334.56,641.8c-1.57,0-2.73-.44-3.48-1.31-.63-.73-.94-1.62-.94-2.66,0-1.16.38-2.11,1.14-2.85s1.82-1.11,3.16-1.11c1.09,0,1.95.16,2.57.49s1.11.8,1.46,1.43c.34.62.52,1.31.52,2.04,0,1.19-.38,2.14-1.14,2.87s-1.85,1.1-3.28,1.1h-.01Zm0-1.47c1.08,0,1.9-.24,2.44-.71.54-.47.81-1.07.81-1.79s-.27-1.3-.81-1.78c-.54-.47-1.37-.71-2.48-.71-1.05,0-1.84.24-2.38.71s-.81,1.07-.81,1.77.27,1.31.8,1.79c.54.47,1.35.71,2.43.71h0Z"/>
          <path class="cls-3" d="m1338.8,631.84h-7.35v1.27h-1.12v-1.27h-.9c-.57,0-.99-.05-1.27-.15-.37-.14-.67-.38-.9-.73s-.35-.84-.35-1.46c0-.4.05-.85.14-1.34l1.25.22c-.05.3-.08.58-.08.84,0,.44.09.74.28.92.19.18.53.27,1.04.27h.78v-1.65h1.12v1.65h7.35v1.43h0Z"/>
          <path class="cls-3" d="m1335.04,623.46l-.13-1.46c.58-.07,1.06-.23,1.44-.48.37-.25.68-.64.91-1.18s.35-1.13.35-1.79c0-.59-.09-1.11-.26-1.56-.18-.45-.42-.79-.72-1.01-.31-.22-.64-.33-1-.33s-.69.11-.96.32-.5.56-.69,1.05c-.12.31-.31,1.01-.57,2.08-.26,1.07-.5,1.83-.73,2.26-.29.56-.66.97-1.09,1.25-.43.27-.92.41-1.46.41-.59,0-1.14-.17-1.65-.5s-.9-.82-1.17-1.47c-.27-.64-.4-1.36-.4-2.14,0-.87.14-1.63.42-2.29s.69-1.17,1.23-1.53,1.16-.55,1.84-.57l.11,1.48c-.74.08-1.3.35-1.67.81-.38.46-.57,1.14-.57,2.04s.17,1.62.51,2.04.76.64,1.24.64c.42,0,.77-.15,1.04-.45s.55-1.07.83-2.33c.28-1.26.53-2.12.75-2.59.31-.68.71-1.18,1.19-1.51.48-.32,1.03-.49,1.66-.49s1.21.18,1.76.53c.55.36.98.87,1.28,1.53.31.67.46,1.42.46,2.25,0,1.06-.15,1.94-.46,2.66-.31.71-.77,1.28-1.39,1.68-.62.41-1.32.62-2.1.64h0Z"/>
          <path class="cls-3" d="m1328.76,612.22h-1.65v-1.43h1.65v1.43Zm10.03,0h-8.46v-1.43h8.46v1.43Z"/>
          <path class="cls-3" d="m1338.8,608.6h-8.46v-1.28h1.19c-.42-.27-.75-.62-1-1.06s-.38-.94-.38-1.51c0-.63.13-1.14.39-1.54.26-.4.62-.68,1.09-.85-.99-.67-1.48-1.54-1.48-2.61,0-.84.23-1.49.7-1.94s1.18-.68,2.15-.68h5.81v1.43h-5.33c-.57,0-.99.05-1.24.14s-.46.26-.61.51c-.15.24-.23.53-.23.86,0,.6.2,1.09.59,1.48s1.03.59,1.9.59h4.92v1.43h-5.5c-.64,0-1.12.12-1.43.35-.32.23-.48.62-.48,1.15,0,.4.11.78.32,1.12.21.34.52.59.93.75.41.15,1,.23,1.77.23h4.39v1.43h-.01Z"/>
          <path class="cls-3" d="m1342.04,595h-11.71v-1.31h1.1c-.43-.31-.75-.66-.97-1.04s-.32-.86-.32-1.41c0-.72.19-1.36.56-1.91s.9-.97,1.57-1.25c.68-.28,1.42-.42,2.23-.42.87,0,1.65.16,2.34.47s1.22.76,1.59,1.35c.37.59.55,1.22.55,1.87,0,.48-.1.91-.3,1.29s-.46.69-.77.94h4.12v1.43h.01Zm-7.43-1.3c1.09,0,1.89-.22,2.42-.66.52-.44.78-.98.78-1.6s-.27-1.18-.81-1.64c-.54-.45-1.38-.68-2.51-.68s-1.89.22-2.42.67c-.54.44-.81.97-.81,1.59s.29,1.15.86,1.62,1.4.71,2.49.71h0Z"/>
          <path class="cls-3" d="m1338.8,585.96h-11.68v-1.44h11.68v1.44Z"/>
          <path class="cls-3" d="m1336.07,576.5l.18-1.48c.87.23,1.54.67,2.02,1.3.48.63.72,1.44.72,2.42,0,1.24-.38,2.22-1.14,2.95s-1.83,1.09-3.21,1.09-2.53-.37-3.32-1.1c-.79-.73-1.18-1.68-1.18-2.85s.38-2.06,1.16-2.77,1.85-1.08,3.25-1.08h.38v6.31c.93-.05,1.64-.32,2.14-.79.49-.47.74-1.06.74-1.77,0-.53-.14-.98-.41-1.35s-.72-.67-1.32-.88h-.01Zm-2.32,4.71v-4.73c-.71.06-1.25.24-1.6.54-.55.46-.83,1.05-.83,1.78,0,.66.22,1.21.66,1.66.44.45,1.03.7,1.77.75h0Z"/>
          <path class="cls-3" d="m1338.8,568.5h-11.68v-4.41c0-.78.04-1.37.11-1.78.1-.57.28-1.05.55-1.44s.64-.7,1.13-.94c.48-.24,1.02-.35,1.59-.35.99,0,1.83.32,2.52.95.69.63,1.03,1.77,1.03,3.43v3h4.75v1.55h0Zm-6.13-1.55v-3.02c0-1-.19-1.71-.56-2.13-.37-.42-.9-.63-1.57-.63-.49,0-.91.12-1.26.37s-.58.57-.69.98c-.07.26-.1.74-.1,1.44v2.99h4.18,0Z"/>
          <path class="cls-3" d="m1338.8,557.83h-11.68v-1.44h11.68v1.44Z"/>
          <path class="cls-3" d="m1336.07,548.38l.18-1.48c.87.23,1.54.67,2.02,1.3.48.63.72,1.44.72,2.42,0,1.24-.38,2.22-1.14,2.95s-1.83,1.09-3.21,1.09-2.53-.37-3.32-1.1c-.79-.73-1.18-1.68-1.18-2.85s.38-2.06,1.16-2.77,1.85-1.08,3.25-1.08h.38v6.31c.93-.05,1.64-.32,2.14-.79.49-.47.74-1.06.74-1.77,0-.53-.14-.98-.41-1.35s-.72-.67-1.32-.88h-.01Zm-2.32,4.71v-4.73c-.71.06-1.25.24-1.6.54-.55.46-.83,1.05-.83,1.78,0,.66.22,1.21.66,1.66.44.45,1.03.7,1.77.75h0Z"/>
          <path class="cls-3" d="m1337.75,539.57c.45.53.77,1.04.96,1.53s.28,1.02.28,1.58c0,.93-.23,1.64-.68,2.14-.45.5-1.03.75-1.74.75-.41,0-.79-.09-1.14-.28-.34-.19-.62-.44-.83-.74-.21-.31-.36-.65-.47-1.03-.08-.28-.15-.71-.22-1.28-.14-1.16-.3-2.01-.49-2.56h-.37c-.58,0-1,.14-1.24.41-.32.37-.49.91-.49,1.63,0,.68.12,1.17.35,1.49.24.32.66.56,1.25.71l-.19,1.4c-.6-.13-1.08-.34-1.45-.63s-.65-.71-.85-1.27-.3-1.19-.3-1.92.08-1.31.25-1.76.38-.78.64-1c.26-.21.58-.36.98-.45.24-.05.69-.07,1.32-.07h1.91c1.33,0,2.18-.03,2.53-.09s.69-.18,1.02-.36v1.5c-.3.15-.65.24-1.04.29h0Zm-3.2.12c.21.52.39,1.3.54,2.34.08.59.18,1.01.29,1.25s.26.43.47.57c.21.13.43.2.68.2.38,0,.7-.14.96-.43.25-.29.38-.71.38-1.27s-.12-1.04-.36-1.47-.57-.75-.99-.95c-.32-.15-.8-.23-1.43-.23h-.54Z"/>
          <path class="cls-3" d="m1336.27,536.59l-.22-1.42c.57-.08,1-.3,1.31-.67.3-.36.45-.87.45-1.53s-.13-1.15-.4-1.47-.58-.48-.94-.48c-.32,0-.58.14-.77.42-.13.2-.29.69-.49,1.47-.27,1.05-.5,1.78-.69,2.19s-.46.71-.8.92-.72.31-1.14.31c-.38,0-.73-.09-1.05-.26-.32-.17-.59-.41-.8-.71-.17-.22-.3-.53-.42-.91s-.17-.8-.17-1.24c0-.66.1-1.25.29-1.75.19-.5.45-.87.78-1.11.33-.24.76-.4,1.31-.49l.19,1.4c-.44.06-.78.25-1.02.55s-.37.74-.37,1.29c0,.66.11,1.13.33,1.41s.47.42.77.42c.19,0,.35-.06.5-.18s.28-.3.38-.55c.05-.14.17-.57.37-1.27.27-1.02.49-1.72.67-2.12.17-.4.42-.72.75-.94s.74-.34,1.23-.34.93.14,1.35.42c.42.28.75.68.98,1.21s.35,1.12.35,1.79c0,1.1-.23,1.94-.69,2.51s-1.13.94-2.03,1.1v.03Z"/>
          <path class="cls-3" d="m1338.8,522.3h-1.24c.96.66,1.43,1.55,1.43,2.69,0,.5-.1.97-.29,1.4s-.43.75-.72.96c-.29.21-.64.36-1.06.44-.28.06-.73.09-1.34.09h-5.25v-1.44h4.7c.75,0,1.25-.03,1.51-.09.38-.09.67-.28.89-.57.21-.29.32-.65.32-1.08s-.11-.83-.33-1.21-.52-.64-.9-.8-.93-.24-1.65-.24h-4.54v-1.43h8.46v1.28h.01Z"/>
          <path class="cls-3" d="m1338.8,518.79h-8.46v-1.29h1.28c-.6-.33-1-.63-1.19-.91s-.29-.59-.29-.92c0-.48.15-.98.46-1.47l1.33.49c-.21.35-.31.7-.31,1.05,0,.31.09.6.28.84.19.25.45.43.79.53.51.16,1.07.24,1.67.24h4.43v1.43h0Z"/>
          <path class="cls-3" d="m1336.07,507.54l.18-1.48c.87.23,1.54.67,2.02,1.3.48.63.72,1.44.72,2.42,0,1.24-.38,2.22-1.14,2.95s-1.83,1.09-3.21,1.09-2.53-.37-3.32-1.1c-.79-.73-1.18-1.68-1.18-2.85s.38-2.06,1.16-2.77,1.85-1.08,3.25-1.08h.38v6.31c.93-.05,1.64-.32,2.14-.79.49-.47.74-1.06.74-1.77,0-.53-.14-.98-.41-1.35s-.72-.67-1.32-.88h-.01Zm-2.32,4.71v-4.73c-.71.06-1.25.24-1.6.54-.55.46-.83,1.05-.83,1.78,0,.66.22,1.21.66,1.66.44.45,1.03.7,1.77.75h0Z"/>
          <path class="cls-3" d="m1336.27,504.83l-.22-1.42c.57-.08,1-.3,1.31-.67.3-.36.45-.87.45-1.53s-.13-1.15-.4-1.47-.58-.48-.94-.48c-.32,0-.58.14-.77.42-.13.2-.29.69-.49,1.47-.27,1.05-.5,1.78-.69,2.19s-.46.71-.8.92-.72.31-1.14.31c-.38,0-.73-.09-1.05-.26-.32-.17-.59-.41-.8-.71-.17-.22-.3-.53-.42-.91s-.17-.8-.17-1.24c0-.66.1-1.25.29-1.75.19-.5.45-.87.78-1.11.33-.24.76-.4,1.31-.49l.19,1.4c-.44.06-.78.25-1.02.55s-.37.74-.37,1.29c0,.66.11,1.13.33,1.41s.47.42.77.42c.19,0,.35-.06.5-.18s.28-.3.38-.55c.05-.14.17-.57.37-1.27.27-1.02.49-1.72.67-2.12.17-.4.42-.72.75-.94s.74-.34,1.23-.34.93.14,1.35.42c.42.28.75.68.98,1.21s.35,1.12.35,1.79c0,1.1-.23,1.94-.69,2.51s-1.13.94-2.03,1.1v.03Z"/>
        </g>
        <g>
          <g>
            <path class="cls-3" d="m1329,374.89l-11.68-4.49v-1.67l11.68-4.78v1.76l-3.54,1.36v4.89l3.54,1.28v1.64h0Zm-4.8-3.37v-3.96l-3.24,1.22c-.98.37-1.79.65-2.42.83.75.15,1.49.36,2.23.63l3.43,1.28Z"/>
            <path class="cls-3" d="m1329,362.93h-11.68v-1.44h11.68v1.44Z"/>
            <path class="cls-3" d="m1326.28,353.48l.18-1.48c.87.23,1.54.67,2.02,1.3s.72,1.44.72,2.42c0,1.24-.38,2.22-1.14,2.95s-1.83,1.09-3.21,1.09-2.53-.37-3.32-1.1-1.18-1.68-1.18-2.85.39-2.06,1.16-2.77,1.85-1.08,3.25-1.08h.38v6.31c.93-.05,1.64-.32,2.14-.79.49-.47.74-1.06.74-1.77,0-.53-.14-.98-.42-1.35s-.72-.67-1.32-.88h0Zm-2.32,4.71v-4.73c-.71.06-1.25.24-1.6.54-.55.46-.83,1.05-.83,1.78,0,.66.22,1.21.66,1.66.44.45,1.03.7,1.77.75h0Z"/>
            <path class="cls-3" d="m1329,351.15l-4.4-3.09-4.06,2.86v-1.79l1.98-1.3c.38-.24.69-.44.95-.59-.35-.23-.66-.45-.93-.65l-2-1.43v-1.71l3.99,2.92,4.48-3.15v1.76l-2.63,1.74-.71.46,3.34,2.22v1.74h0Z"/>
            <path class="cls-3" d="m1325.25,337.84l-.13-1.46c.58-.07,1.06-.23,1.44-.48.38-.25.68-.64.91-1.18.23-.53.35-1.13.35-1.79,0-.59-.09-1.11-.26-1.56s-.42-.79-.72-1.01c-.31-.22-.64-.33-1-.33s-.69.11-.96.32c-.27.21-.5.56-.69,1.05-.12.31-.31,1.01-.57,2.08-.26,1.07-.5,1.83-.73,2.26-.29.56-.66.97-1.09,1.25-.43.27-.92.41-1.45.41-.59,0-1.14-.17-1.65-.5s-.9-.82-1.17-1.47c-.27-.64-.4-1.36-.4-2.14,0-.87.14-1.63.42-2.29s.69-1.17,1.23-1.53,1.16-.55,1.84-.57l.11,1.48c-.74.08-1.3.35-1.67.81-.38.46-.57,1.14-.57,2.04s.17,1.62.51,2.04.76.64,1.24.64c.42,0,.76-.15,1.04-.45.27-.3.55-1.07.83-2.33.28-1.26.53-2.12.75-2.59.31-.68.71-1.18,1.19-1.51.48-.32,1.04-.49,1.66-.49s1.21.18,1.76.53c.55.36.98.87,1.28,1.53.31.67.46,1.42.46,2.25,0,1.06-.15,1.94-.46,2.66-.31.71-.77,1.28-1.39,1.68-.62.41-1.32.62-2.1.64h-.01Z"/>
            <path class="cls-3" d="m1318.97,326.6h-1.65v-1.43h1.65v1.43Zm10.04,0h-8.46v-1.43h8.46v1.43Z"/>
            <path class="cls-3" d="m1329,322.98h-8.46v-1.29h1.2c-.93-.62-1.39-1.52-1.39-2.69,0-.51.09-.98.28-1.41.18-.43.42-.75.72-.96.3-.21.65-.36,1.06-.45.27-.05.73-.08,1.39-.08h5.21v1.43h-5.15c-.58,0-1.02.06-1.31.17s-.52.31-.69.59c-.17.28-.26.62-.26,1,0,.61.19,1.14.58,1.58s1.12.67,2.21.67h4.62v1.43h0Z"/>
            <path class="cls-3" d="m1329.7,314.17l.21-1.4c.43-.06.74-.22.94-.49.27-.36.4-.84.4-1.46,0-.66-.13-1.18-.4-1.54s-.64-.61-1.12-.73c-.29-.07-.91-.11-1.84-.1.74.63,1.11,1.41,1.11,2.34,0,1.16-.42,2.06-1.26,2.7s-1.85.96-3.02.96c-.81,0-1.55-.15-2.24-.44-.68-.29-1.21-.72-1.58-1.27-.37-.56-.56-1.21-.56-1.96,0-1,.4-1.82,1.21-2.47h-1.02v-1.32h7.32c1.32,0,2.25.13,2.8.4.55.27.98.69,1.3,1.28.32.58.48,1.3.48,2.15,0,1.01-.23,1.83-.68,2.45-.46.62-1.14.92-2.05.9h0Zm-5.08-1.19c1.11,0,1.92-.22,2.43-.66s.77-.99.77-1.66-.25-1.21-.76-1.66-1.3-.67-2.39-.67-1.82.23-2.34.69c-.53.46-.79,1.01-.79,1.66s.26,1.18.78,1.63c.52.45,1.29.67,2.31.67h-.01Z"/>
            <path class="cls-3" d="m1329,304.83h-11.68v-1.43h4.19c-.78-.67-1.16-1.51-1.16-2.53,0-.63.12-1.17.37-1.63s.59-.79,1.02-.99c.44-.2,1.07-.3,1.9-.3h5.36v1.44h-5.36c-.72,0-1.24.16-1.57.47s-.49.75-.49,1.32c0,.43.11.83.33,1.2s.52.64.9.8.9.24,1.56.24h4.63v1.43-.02Z"/>
          </g>
          <g>
            <path class="cls-3" d="m1348.59,372.25l-8.46,2.59v-1.48l4.89-1.35,1.82-.5c-.09-.02-.67-.17-1.75-.44l-4.96-1.35v-1.47l4.91-1.27,1.62-.42-1.63-.49-4.89-1.45v-1.39l8.46,2.65v1.49l-5.07,1.35-1.44.33,6.51,1.71v1.5h-.01Z"/>
            <path class="cls-3" d="m1338.56,362.02h-1.65v-1.43h1.65v1.43Zm10.03,0h-8.46v-1.43h8.46v1.43Z"/>
            <path class="cls-3" d="m1347.31,355.26l1.27-.21c.08.4.13.77.13,1.08,0,.52-.08.92-.25,1.21-.17.29-.38.49-.65.61s-.83.18-1.69.18h-4.87v1.05h-1.12v-1.05h-2.1l-.86-1.43h2.96v-1.44h1.12v1.44h4.95c.41,0,.67-.03.79-.08s.21-.13.28-.25c.07-.11.1-.28.1-.49,0-.16-.02-.37-.06-.63h0Z"/>
            <path class="cls-3" d="m1348.59,353.86h-11.68v-1.43h4.19c-.78-.67-1.16-1.51-1.16-2.53,0-.63.12-1.17.37-1.63s.59-.79,1.02-.99,1.07-.3,1.9-.3h5.36v1.44h-5.36c-.72,0-1.24.16-1.57.47s-.49.75-.49,1.32c0,.43.11.83.33,1.2.22.37.52.64.9.8.38.16.9.24,1.56.24h4.63v1.43-.02Z"/>
            <path class="cls-3" d="m1348.59,342.23l-11.68-4.49v-1.67l11.68-4.78v1.76l-3.54,1.36v4.89l3.54,1.28v1.64h0Zm-4.8-3.37v-3.96l-3.24,1.22c-.98.37-1.79.65-2.42.83.75.15,1.49.36,2.23.63l3.43,1.28Z"/>
            <path class="cls-3" d="m1348.59,330.26h-8.46v-1.29h1.28c-.6-.33-1-.63-1.19-.91s-.29-.59-.29-.92c0-.48.15-.98.46-1.47l1.33.49c-.21.35-.31.7-.31,1.05,0,.31.09.6.28.84.19.25.45.43.79.53.51.16,1.07.24,1.67.24h4.43v1.43h0Z"/>
            <path class="cls-3" d="m1345.86,319.01l.18-1.48c.87.23,1.54.67,2.02,1.3s.72,1.44.72,2.42c0,1.24-.38,2.22-1.14,2.95s-1.83,1.09-3.21,1.09-2.53-.37-3.32-1.1c-.79-.73-1.18-1.68-1.18-2.85s.38-2.06,1.16-2.77,1.85-1.08,3.25-1.08h.38v6.31c.93-.05,1.64-.32,2.14-.79.49-.47.74-1.06.74-1.77,0-.53-.14-.98-.41-1.35s-.72-.67-1.32-.88h-.01Zm-2.32,4.71v-4.73c-.71.06-1.25.24-1.6.54-.55.46-.83,1.05-.83,1.78,0,.66.22,1.21.66,1.66.44.45,1.03.7,1.77.75h0Z"/>
            <path class="cls-3" d="m1348.59,315.32h-1.63v-1.63h1.63v1.63Z"/>
            <path class="cls-3" d="m1348.59,311.19h-8.46v-1.29h1.2c-.93-.62-1.39-1.52-1.39-2.69,0-.51.09-.98.27-1.41.18-.43.42-.75.72-.96.3-.21.65-.36,1.06-.45.27-.05.73-.08,1.4-.08h5.2v1.43h-5.15c-.58,0-1.02.06-1.31.17s-.52.31-.69.59c-.17.28-.26.62-.26,1,0,.61.19,1.14.58,1.58s1.12.67,2.21.67h4.62v1.43h0Z"/>
            <path class="cls-3" d="m1347.55,296.59c.45.53.77,1.04.96,1.53s.28,1.02.28,1.58c0,.93-.23,1.64-.68,2.14-.45.5-1.03.75-1.74.75-.41,0-.79-.09-1.14-.28-.34-.19-.62-.44-.83-.74-.21-.31-.36-.65-.47-1.03-.08-.28-.15-.71-.22-1.28-.14-1.16-.3-2.01-.49-2.56h-.37c-.58,0-1,.14-1.24.41-.32.37-.49.91-.49,1.63,0,.68.12,1.17.35,1.49.24.32.66.56,1.25.71l-.19,1.4c-.6-.13-1.08-.34-1.45-.63-.37-.29-.65-.71-.85-1.27s-.3-1.19-.3-1.92.08-1.31.25-1.76.38-.78.64-1c.26-.21.58-.36.98-.45.24-.05.69-.07,1.32-.07h1.91c1.33,0,2.18-.03,2.53-.09s.69-.18,1.02-.36v1.5c-.3.15-.65.24-1.04.29h0Zm-3.2.12c.21.52.39,1.3.54,2.34.08.59.18,1.01.29,1.25s.26.43.47.57c.21.13.43.2.68.2.38,0,.7-.14.96-.43.25-.29.38-.71.38-1.27s-.12-1.04-.36-1.47c-.24-.43-.57-.75-.99-.95-.32-.15-.8-.23-1.43-.23h-.54Z"/>
          </g>
        </g>
      </g>
    </g>
    <g>
      <path class="cls-1" d="m640.02,263.75c-36.37,0-77.16,0-113.53,0"/>
      <path class="cls-1" d="m525.47,149.56H155.65"/>
      <path class="cls-1" d="m39.5,777.26h111.4c161.57,0,323.14,0,484.71.01"/>
      <path class="cls-1" d="m525.13,891.45H155.65"/>
      <path class="cls-1" d="m525.81,263.75H39.49"/>
      <path class="cls-1" d="m635.61,777.27c161.57,0,327.9-.01,489.64-.01V263.75h-113.7"/>
      <path class="cls-1" d="m640.02,263.75h149.56c1.33,27.12,21.44,35.46,36.37,35.14,16.93-.36,33.5-8.76,36.05-34.97h149.2v512.66"/>
      <rect class="cls-1" x="154.29" y="72.21" width="371.7" height="896.6" rx="25" ry="25"/>
      <path class="cls-1" d="m154.29,855.59h-79.58c-19.33,0-35-15.67-35-35V219.28c0-19.33,15.67-35,35-35h79.58"/>
      <path class="cls-1" d="m526.15,855.59h79.58c19.33,0,35-15.67,35-35V219.28c0-19.33-15.67-35-35-35h-79.58"/>
    </g>
    <g>
      <g>
        <g>
          <path class="cls-3" d="m221.12,525.66l4.49-11.68h1.67l4.78,11.68h-1.76l-1.36-3.54h-4.89l-1.28,3.54h-1.65Zm3.37-4.8h3.96l-1.22-3.24c-.37-.98-.65-1.79-.83-2.42-.15.75-.36,1.49-.63,2.23l-1.28,3.43Z"/>
          <path class="cls-3" d="m245.27,521.57l1.55.39c-.32,1.27-.91,2.24-1.75,2.9-.84.67-1.87,1-3.09,1s-2.28-.26-3.07-.77-1.39-1.25-1.8-2.23-.62-2.02-.62-3.13c0-1.22.23-2.28.7-3.18s1.13-1.59,1.98-2.06c.86-.47,1.8-.71,2.83-.71,1.17,0,2.15.3,2.95.89.8.59,1.35,1.43,1.67,2.51l-1.52.36c-.27-.85-.66-1.47-1.18-1.86-.52-.39-1.16-.58-1.94-.58-.9,0-1.65.22-2.25.65s-1.03,1.01-1.27,1.73-.37,1.47-.37,2.24c0,.99.14,1.86.43,2.6s.74,1.29,1.35,1.66,1.27.55,1.98.55c.87,0,1.6-.25,2.2-.75.6-.5,1.01-1.24,1.22-2.22h0Z"/>
          <path class="cls-3" d="m254.06,524.62c-.53.45-1.04.77-1.53.96s-1.02.28-1.58.28c-.93,0-1.64-.23-2.14-.68s-.75-1.04-.75-1.74c0-.41.09-.79.28-1.14.19-.34.44-.62.74-.82.31-.21.65-.36,1.03-.47.28-.07.71-.15,1.28-.21,1.16-.14,2.01-.3,2.56-.49v-.38c0-.58-.14-1-.41-1.24-.37-.32-.91-.49-1.63-.49-.68,0-1.17.12-1.49.35-.32.24-.56.66-.71,1.26l-1.4-.19c.13-.6.34-1.08.63-1.46.29-.37.71-.65,1.27-.85s1.19-.3,1.92-.3,1.31.08,1.76.25.78.38,1,.64c.21.26.36.58.45.98.05.24.07.69.07,1.32v1.91c0,1.33.03,2.18.09,2.53s.18.69.36,1.02h-1.5c-.15-.3-.24-.65-.29-1.04h0Zm-.12-3.2c-.52.21-1.3.39-2.34.54-.59.08-1.01.18-1.25.29-.24.11-.43.26-.57.47-.13.2-.2.43-.2.68,0,.38.14.7.43.96.29.25.71.38,1.27.38s1.04-.12,1.47-.36c.43-.24.75-.57.95-.99.15-.32.23-.8.23-1.43v-.53h.01Z"/>
          <path class="cls-3" d="m260.75,524.38l.21,1.27c-.4.08-.77.13-1.08.13-.52,0-.92-.08-1.21-.25s-.49-.38-.61-.65-.18-.83-.18-1.69v-4.87h-1.05v-1.12h1.05v-2.1l1.43-.86v2.96h1.44v1.12h-1.44v4.95c0,.41.03.67.08.79s.13.21.25.28.28.1.49.1c.16,0,.37-.02.63-.06h-.01Z"/>
          <path class="cls-3" d="m267.67,524.62c-.53.45-1.04.77-1.53.96s-1.02.28-1.58.28c-.93,0-1.64-.23-2.14-.68s-.75-1.04-.75-1.74c0-.41.09-.79.28-1.14.19-.34.44-.62.74-.82.31-.21.65-.36,1.03-.47.28-.07.71-.15,1.28-.21,1.16-.14,2.01-.3,2.56-.49v-.38c0-.58-.14-1-.41-1.24-.37-.32-.91-.49-1.63-.49-.68,0-1.17.12-1.49.35-.32.24-.56.66-.71,1.26l-1.4-.19c.13-.6.34-1.08.63-1.46.29-.37.71-.65,1.27-.85s1.19-.3,1.92-.3,1.31.08,1.76.25.78.38,1,.64c.21.26.36.58.45.98.05.24.07.69.07,1.32v1.91c0,1.33.03,2.18.09,2.53s.18.69.36,1.02h-1.5c-.15-.3-.24-.65-.29-1.04h0Zm-.12-3.2c-.52.21-1.3.39-2.34.54-.59.08-1.01.18-1.25.29-.24.11-.43.26-.57.47-.13.2-.2.43-.2.68,0,.38.14.7.43.96.29.25.71.38,1.27.38s1.04-.12,1.47-.36c.43-.24.75-.57.95-.99.15-.32.23-.8.23-1.43v-.53h.01Z"/>
          <path class="cls-3" d="m271.2,525.66v-11.68h1.44v11.68h-1.44Z"/>
          <path class="cls-3" d="m274.32,521.43c0-1.57.44-2.73,1.31-3.48.73-.63,1.62-.94,2.66-.94,1.16,0,2.11.38,2.85,1.14s1.11,1.82,1.11,3.16c0,1.09-.16,1.95-.49,2.57s-.8,1.11-1.43,1.45-1.31.52-2.04.52c-1.19,0-2.14-.38-2.87-1.14s-1.1-1.85-1.1-3.28h0Zm1.47,0c0,1.08.24,1.9.71,2.43.47.54,1.07.81,1.79.81s1.3-.27,1.78-.81c.47-.54.71-1.37.71-2.48,0-1.05-.24-1.84-.71-2.38-.48-.54-1.07-.81-1.77-.81s-1.31.27-1.79.81c-.47.54-.71,1.35-.71,2.43h0Z"/>
          <path class="cls-3" d="m283.67,526.36l1.4.21c.06.43.22.74.49.94.36.27.84.4,1.46.4.66,0,1.18-.13,1.54-.4s.61-.64.73-1.12c.07-.29.11-.91.1-1.84-.63.74-1.41,1.11-2.34,1.11-1.16,0-2.06-.42-2.7-1.26s-.96-1.85-.96-3.02c0-.81.15-1.55.44-2.24.29-.68.72-1.21,1.27-1.58.56-.37,1.21-.56,1.96-.56,1,0,1.82.4,2.47,1.21v-1.02h1.32v7.32c0,1.32-.13,2.25-.4,2.8-.27.55-.69.98-1.28,1.3-.58.32-1.3.48-2.15.48-1.01,0-1.83-.23-2.45-.68-.62-.46-.92-1.14-.9-2.05h0Zm1.19-5.08c0,1.11.22,1.92.66,2.43s.99.77,1.66.77,1.21-.25,1.66-.76.67-1.3.67-2.39-.23-1.82-.69-2.34c-.46-.53-1.01-.79-1.66-.79s-1.18.26-1.63.78c-.45.52-.67,1.29-.67,2.31h0Z"/>
          <path class="cls-3" d="m298.56,525.66v-1.24c-.66.96-1.55,1.43-2.69,1.43-.5,0-.97-.1-1.4-.29s-.75-.43-.96-.72-.36-.64-.44-1.06c-.06-.28-.09-.73-.09-1.34v-5.24h1.44v4.69c0,.75.03,1.25.09,1.51.09.38.28.67.57.89.29.21.65.32,1.08.32s.83-.11,1.21-.33.64-.52.8-.9.24-.93.24-1.65v-4.54h1.43v8.46h-1.28,0Z"/>
          <path class="cls-3" d="m307.88,522.94l1.48.18c-.23.87-.67,1.54-1.3,2.02s-1.44.72-2.42.72c-1.24,0-2.22-.38-2.95-1.14s-1.09-1.83-1.09-3.21.37-2.53,1.1-3.32,1.68-1.18,2.85-1.18,2.06.39,2.77,1.16,1.08,1.85,1.08,3.25v.38h-6.31c.05.93.32,1.64.79,2.14.47.49,1.06.74,1.77.74.53,0,.98-.14,1.35-.42s.67-.72.88-1.32h0Zm-4.71-2.32h4.73c-.06-.71-.24-1.25-.54-1.6-.46-.55-1.05-.83-1.78-.83-.66,0-1.21.22-1.66.66s-.7,1.03-.75,1.77Z"/>
          <path class="cls-3" d="m315.17,521.43c0-1.57.44-2.73,1.31-3.48.73-.63,1.62-.94,2.66-.94,1.16,0,2.11.38,2.85,1.14.74.76,1.11,1.82,1.11,3.16,0,1.09-.16,1.95-.49,2.57s-.8,1.11-1.43,1.45-1.31.52-2.04.52c-1.19,0-2.14-.38-2.87-1.14-.73-.76-1.1-1.85-1.1-3.28Zm1.47,0c0,1.08.24,1.9.71,2.43.47.54,1.07.81,1.79.81s1.3-.27,1.78-.81c.47-.54.71-1.37.71-2.48,0-1.05-.24-1.84-.71-2.38-.48-.54-1.07-.81-1.77-.81s-1.31.27-1.79.81c-.47.54-.71,1.35-.71,2.43h-.01Z"/>
          <path class="cls-3" d="m325.12,525.66v-7.35h-1.27v-1.12h1.27v-.9c0-.57.05-.99.15-1.27.14-.37.38-.67.73-.9.35-.23.84-.35,1.46-.35.4,0,.85.05,1.34.14l-.22,1.25c-.3-.05-.58-.08-.84-.08-.44,0-.74.09-.92.28s-.27.53-.27,1.04v.78h1.65v1.12h-1.65v7.35h-1.43Z"/>
          <path class="cls-3" d="m333.51,521.91l1.46-.13c.07.58.23,1.06.48,1.44s.64.68,1.18.91c.53.23,1.13.35,1.79.35.59,0,1.11-.09,1.56-.26s.79-.42,1.01-.72c.22-.31.33-.64.33-1s-.11-.69-.32-.96c-.21-.27-.56-.5-1.05-.69-.31-.12-1.01-.31-2.08-.57-1.07-.26-1.83-.5-2.26-.73-.56-.29-.97-.66-1.25-1.09-.27-.43-.41-.92-.41-1.45,0-.59.17-1.14.5-1.65.33-.51.82-.9,1.47-1.17.64-.27,1.36-.4,2.14-.4.87,0,1.63.14,2.29.42s1.17.69,1.53,1.23.55,1.16.57,1.84l-1.48.11c-.08-.74-.35-1.3-.81-1.67-.46-.38-1.14-.57-2.04-.57s-1.62.17-2.04.51-.64.76-.64,1.24c0,.42.15.76.45,1.04.3.27,1.07.55,2.33.83,1.26.28,2.12.53,2.59.75.68.31,1.18.71,1.51,1.19.32.48.49,1.04.49,1.66s-.18,1.21-.53,1.76c-.36.55-.87.98-1.53,1.28-.67.31-1.42.46-2.25.46-1.06,0-1.94-.15-2.66-.46-.71-.31-1.28-.77-1.68-1.39-.41-.62-.62-1.32-.64-2.1h0Z"/>
          <path class="cls-3" d="m344.75,515.63v-1.65h1.43v1.65h-1.43Zm0,10.04v-8.46h1.43v8.46h-1.43Z"/>
          <path class="cls-3" d="m348.37,525.66v-8.46h1.28v1.19c.27-.41.62-.75,1.06-1s.94-.38,1.51-.38c.63,0,1.14.13,1.54.39s.68.62.85,1.09c.67-.99,1.54-1.48,2.61-1.48.84,0,1.49.23,1.94.7s.68,1.18.68,2.15v5.81h-1.43v-5.33c0-.57-.05-.99-.14-1.24-.09-.25-.26-.46-.51-.61s-.53-.23-.86-.23c-.6,0-1.09.2-1.48.59-.39.4-.59,1.03-.59,1.9v4.92h-1.43v-5.5c0-.64-.12-1.12-.35-1.43-.23-.32-.62-.48-1.15-.48-.4,0-.78.11-1.12.32-.34.21-.59.52-.75.93-.15.41-.23,1-.23,1.77v4.39h-1.43Z"/>
          <path class="cls-3" d="m361.96,528.91v-11.71h1.31v1.1c.31-.43.66-.75,1.04-.97.39-.22.86-.32,1.41-.32.72,0,1.36.19,1.91.56.55.37.97.9,1.25,1.57.28.68.42,1.42.42,2.23,0,.87-.16,1.65-.47,2.34s-.76,1.22-1.35,1.59-1.22.55-1.87.55c-.48,0-.91-.1-1.29-.3-.38-.2-.69-.46-.94-.76v4.12h-1.43,0Zm1.3-7.43c0,1.09.22,1.89.66,2.42s.98.78,1.6.78,1.18-.27,1.64-.81c.45-.54.68-1.38.68-2.51s-.22-1.89-.67-2.42c-.44-.54-.97-.8-1.59-.8s-1.15.29-1.62.86-.71,1.4-.71,2.49h0Z"/>
          <path class="cls-3" d="m371.01,525.66v-11.68h1.44v11.68h-1.44Z"/>
          <path class="cls-3" d="m380.46,522.94l1.48.18c-.23.87-.67,1.54-1.3,2.02s-1.44.72-2.42.72c-1.24,0-2.22-.38-2.95-1.14s-1.09-1.83-1.09-3.21.37-2.53,1.1-3.32,1.68-1.18,2.85-1.18,2.06.39,2.77,1.16,1.08,1.85,1.08,3.25v.38h-6.31c.05.93.32,1.64.79,2.14.47.49,1.06.74,1.77.74.53,0,.98-.14,1.35-.42s.67-.72.88-1.32h0Zm-4.71-2.32h4.73c-.06-.71-.24-1.25-.54-1.6-.46-.55-1.05-.83-1.78-.83-.66,0-1.21.22-1.66.66s-.7,1.03-.75,1.77Z"/>
          <path class="cls-3" d="m388.47,525.66v-11.68h4.41c.78,0,1.37.04,1.78.11.57.1,1.05.28,1.44.55s.7.64.94,1.13c.24.48.35,1.01.35,1.59,0,.99-.32,1.83-.95,2.52s-1.77,1.03-3.43,1.03h-3v4.75h-1.55,0Zm1.55-6.13h3.02c1,0,1.71-.19,2.13-.56s.63-.9.63-1.57c0-.49-.12-.91-.37-1.25-.25-.35-.57-.58-.98-.69-.26-.07-.74-.1-1.44-.1h-2.99v4.18h0Z"/>
          <path class="cls-3" d="m399.14,525.66v-11.68h1.44v11.68h-1.44Z"/>
          <path class="cls-3" d="m408.59,522.94l1.48.18c-.23.87-.67,1.54-1.3,2.02s-1.44.72-2.42.72c-1.24,0-2.22-.38-2.95-1.14s-1.09-1.83-1.09-3.21.37-2.53,1.1-3.32,1.68-1.18,2.85-1.18,2.06.39,2.77,1.16,1.08,1.85,1.08,3.25v.38h-6.31c.05.93.32,1.64.79,2.14.47.49,1.06.74,1.77.74.53,0,.98-.14,1.35-.42s.67-.72.88-1.32h0Zm-4.71-2.32h4.73c-.06-.71-.24-1.25-.54-1.6-.46-.55-1.05-.83-1.78-.83-.66,0-1.21.22-1.66.66s-.7,1.03-.75,1.77Z"/>
          <path class="cls-3" d="m417.4,524.62c-.53.45-1.04.77-1.53.96s-1.02.28-1.58.28c-.93,0-1.64-.23-2.14-.68s-.75-1.04-.75-1.74c0-.41.09-.79.28-1.14.19-.34.44-.62.74-.82.31-.21.65-.36,1.03-.47.28-.07.71-.15,1.28-.21,1.16-.14,2.01-.3,2.56-.49v-.38c0-.58-.14-1-.41-1.24-.37-.32-.91-.49-1.63-.49-.68,0-1.17.12-1.49.35-.32.24-.56.66-.71,1.26l-1.4-.19c.13-.6.34-1.08.63-1.46.29-.37.71-.65,1.27-.85s1.19-.3,1.92-.3,1.31.08,1.76.25.78.38,1,.64c.21.26.36.58.45.98.05.24.07.69.07,1.32v1.91c0,1.33.03,2.18.09,2.53s.18.69.36,1.02h-1.5c-.15-.3-.24-.65-.29-1.04h-.01Zm-.12-3.2c-.52.21-1.3.39-2.34.54-.59.08-1.01.18-1.25.29-.24.11-.43.26-.57.47-.13.2-.2.43-.2.68,0,.38.14.7.43.96.29.25.71.38,1.27.38s1.04-.12,1.47-.36.75-.57.95-.99c.15-.32.23-.8.23-1.43v-.53h.01Z"/>
          <path class="cls-3" d="m420.38,523.14l1.42-.22c.08.57.3,1,.67,1.31.36.3.87.46,1.53.46s1.15-.13,1.47-.4.48-.58.48-.95c0-.32-.14-.58-.42-.76-.2-.13-.69-.29-1.47-.49-1.05-.27-1.78-.5-2.19-.69s-.71-.46-.92-.8-.31-.72-.31-1.14c0-.38.09-.73.26-1.05.17-.32.41-.59.71-.8.22-.17.53-.3.91-.42s.8-.17,1.24-.17c.66,0,1.25.1,1.75.29s.87.45,1.11.78.4.76.49,1.31l-1.4.19c-.06-.44-.25-.78-.55-1.02-.31-.24-.74-.37-1.29-.37-.66,0-1.13.11-1.41.33s-.42.47-.42.76c0,.19.06.35.18.5s.3.28.55.38c.14.05.57.18,1.27.37,1.02.27,1.72.49,2.12.67.4.17.72.42.94.75.23.33.34.74.34,1.23s-.14.93-.42,1.35-.68.75-1.21.98-1.12.35-1.79.35c-1.1,0-1.94-.23-2.51-.69s-.94-1.13-1.1-2.03h-.03Z"/>
          <path class="cls-3" d="m434.66,525.66v-1.24c-.66.96-1.55,1.43-2.69,1.43-.5,0-.97-.1-1.4-.29s-.75-.43-.96-.72-.36-.64-.44-1.06c-.06-.28-.09-.73-.09-1.34v-5.24h1.44v4.69c0,.75.03,1.25.09,1.51.09.38.28.67.57.89.29.21.65.32,1.08.32s.83-.11,1.21-.33.64-.52.8-.9.24-.93.24-1.65v-4.54h1.43v8.46h-1.28,0Z"/>
          <path class="cls-3" d="m438.18,525.66v-8.46h1.29v1.28c.33-.6.63-1,.91-1.19s.59-.29.92-.29c.48,0,.98.15,1.47.46l-.49,1.33c-.35-.21-.7-.31-1.05-.31-.31,0-.6.09-.84.28-.25.19-.43.45-.53.79-.16.51-.24,1.07-.24,1.67v4.43h-1.44Z"/>
          <path class="cls-3" d="m449.42,522.94l1.48.18c-.23.87-.67,1.54-1.3,2.02s-1.44.72-2.42.72c-1.24,0-2.22-.38-2.95-1.14s-1.09-1.83-1.09-3.21.37-2.53,1.1-3.32,1.68-1.18,2.85-1.18,2.06.39,2.77,1.16,1.08,1.85,1.08,3.25v.38h-6.31c.05.93.32,1.64.79,2.14.47.49,1.06.74,1.77.74.53,0,.98-.14,1.35-.42s.67-.72.88-1.32h0Zm-4.71-2.32h4.73c-.06-.71-.24-1.25-.54-1.6-.46-.55-1.05-.83-1.78-.83-.66,0-1.21.22-1.66.66s-.7,1.03-.75,1.77Z"/>
          <path class="cls-3" d="m452.13,523.14l1.42-.22c.08.57.3,1,.67,1.31.36.3.87.46,1.53.46s1.15-.13,1.47-.4.48-.58.48-.95c0-.32-.14-.58-.42-.76-.2-.13-.69-.29-1.47-.49-1.05-.27-1.78-.5-2.19-.69s-.71-.46-.92-.8-.31-.72-.31-1.14c0-.38.09-.73.26-1.05.17-.32.41-.59.71-.8.22-.17.53-.3.91-.42s.8-.17,1.24-.17c.66,0,1.25.1,1.75.29s.87.45,1.11.78.4.76.49,1.31l-1.4.19c-.06-.44-.25-.78-.55-1.02-.31-.24-.74-.37-1.29-.37-.66,0-1.13.11-1.41.33s-.42.47-.42.76c0,.19.06.35.18.5s.3.28.55.38c.14.05.57.18,1.27.37,1.02.27,1.72.49,2.12.67.4.17.72.42.94.75.23.33.34.74.34,1.23s-.14.93-.42,1.35-.68.75-1.21.98-1.12.35-1.79.35c-1.1,0-1.94-.23-2.51-.69s-.94-1.13-1.1-2.03h-.03Z"/>
        </g>
        <g>
          <path class="cls-3" d="m301.42,720.5l4.49-11.68h1.67l4.78,11.68h-1.76l-1.36-3.54h-4.89l-1.28,3.54h-1.65Zm3.37-4.8h3.96l-1.22-3.24c-.37-.98-.65-1.79-.83-2.42-.15.75-.36,1.49-.63,2.23l-1.28,3.43Z"/>
          <path class="cls-3" d="m313.37,720.5v-11.68h1.44v11.68h-1.44Z"/>
          <path class="cls-3" d="m322.83,717.77l1.48.18c-.23.87-.67,1.54-1.3,2.02s-1.44.72-2.42.72c-1.24,0-2.22-.38-2.95-1.14s-1.09-1.83-1.09-3.21.37-2.53,1.1-3.32,1.68-1.18,2.85-1.18,2.06.39,2.77,1.16,1.08,1.85,1.08,3.25v.38h-6.31c.05.93.32,1.64.79,2.14.47.49,1.06.74,1.77.74.53,0,.98-.14,1.35-.42s.67-.72.88-1.32h0Zm-4.71-2.32h4.73c-.06-.71-.24-1.25-.54-1.6-.46-.55-1.05-.83-1.78-.83-.66,0-1.21.22-1.66.66s-.7,1.03-.75,1.77Z"/>
          <path class="cls-3" d="m325.16,720.5l3.09-4.4-2.86-4.06h1.79l1.3,1.98c.24.38.44.69.59.95.23-.35.45-.66.65-.93l1.43-2h1.71l-2.92,3.99,3.15,4.48h-1.76l-1.74-2.63-.46-.71-2.22,3.34h-1.75Z"/>
          <path class="cls-3" d="m338.47,716.75l1.46-.13c.07.58.23,1.06.48,1.44s.64.68,1.18.91c.53.23,1.13.35,1.79.35.59,0,1.11-.09,1.56-.26s.79-.42,1.01-.72c.22-.31.33-.64.33-1s-.11-.69-.32-.96c-.21-.27-.56-.5-1.05-.69-.31-.12-1.01-.31-2.08-.57-1.07-.26-1.83-.5-2.26-.73-.56-.29-.97-.66-1.25-1.09-.27-.43-.41-.92-.41-1.45,0-.59.17-1.14.5-1.65s.82-.9,1.47-1.17c.64-.27,1.36-.4,2.14-.4.87,0,1.63.14,2.29.42s1.17.69,1.53,1.23.55,1.16.57,1.84l-1.48.11c-.08-.74-.35-1.3-.81-1.67-.46-.38-1.14-.57-2.04-.57s-1.62.17-2.04.51-.64.76-.64,1.24c0,.42.15.76.45,1.04.3.27,1.07.55,2.33.83,1.26.28,2.12.53,2.59.75.68.31,1.18.71,1.51,1.19.32.48.49,1.04.49,1.66s-.18,1.21-.53,1.76c-.36.55-.87.98-1.53,1.28-.67.31-1.42.46-2.25.46-1.06,0-1.94-.15-2.66-.46-.71-.31-1.28-.77-1.68-1.39-.41-.62-.62-1.32-.64-2.1h0Z"/>
          <path class="cls-3" d="m349.7,710.47v-1.65h1.43v1.65h-1.43Zm0,10.04v-8.46h1.43v8.46h-1.43Z"/>
          <path class="cls-3" d="m353.32,720.5v-8.46h1.29v1.2c.62-.93,1.52-1.39,2.69-1.39.51,0,.98.09,1.41.28.43.18.75.42.96.72s.36.65.45,1.06c.05.27.08.73.08,1.39v5.21h-1.43v-5.15c0-.58-.06-1.02-.17-1.31-.11-.29-.31-.52-.59-.69s-.62-.26-1-.26c-.61,0-1.14.19-1.58.58-.44.39-.67,1.12-.67,2.21v4.62h-1.44Z"/>
          <path class="cls-3" d="m362.14,721.2l1.4.21c.06.43.22.74.49.94.36.27.84.4,1.46.4.66,0,1.18-.13,1.54-.4s.61-.64.73-1.12c.07-.29.11-.91.1-1.84-.63.74-1.41,1.11-2.34,1.11-1.16,0-2.06-.42-2.7-1.26s-.96-1.85-.96-3.02c0-.81.15-1.55.44-2.24.29-.68.72-1.21,1.27-1.58.56-.37,1.21-.56,1.96-.56,1,0,1.82.4,2.47,1.21v-1.02h1.32v7.32c0,1.32-.13,2.25-.4,2.8s-.69.98-1.28,1.3c-.58.32-1.3.48-2.15.48-1.01,0-1.83-.23-2.45-.68-.62-.46-.92-1.14-.9-2.05h0Zm1.19-5.08c0,1.11.22,1.92.66,2.43s.99.77,1.66.77,1.21-.25,1.66-.76.67-1.3.67-2.39-.23-1.82-.69-2.34c-.46-.53-1.01-.79-1.66-.79s-1.18.26-1.63.78-.67,1.29-.67,2.31h0Z"/>
          <path class="cls-3" d="m371.48,720.5v-11.68h1.43v4.19c.67-.78,1.51-1.16,2.53-1.16.63,0,1.17.12,1.63.37s.79.59.99,1.02c.2.44.3,1.07.3,1.9v5.36h-1.44v-5.36c0-.72-.16-1.24-.47-1.57s-.75-.49-1.32-.49c-.43,0-.83.11-1.2.33s-.64.52-.8.9c-.16.38-.24.9-.24,1.56v4.63h-1.43.02Z"/>
        </g>
        <g>
          <path class="cls-3" d="m302.73,740.09l-2.59-8.46h1.48l1.35,4.89.5,1.82c.02-.09.17-.67.44-1.75l1.35-4.96h1.47l1.27,4.91.42,1.62.49-1.63,1.45-4.89h1.39l-2.65,8.46h-1.49l-1.35-5.07-.33-1.44-1.71,6.51h-1.5,0Z"/>
          <path class="cls-3" d="m312.96,730.05v-1.65h1.43v1.65h-1.43Zm0,10.03v-8.46h1.43v8.46h-1.43Z"/>
          <path class="cls-3" d="m319.71,738.8l.21,1.27c-.4.08-.77.13-1.08.13-.52,0-.92-.08-1.21-.25-.29-.17-.49-.38-.61-.65s-.18-.83-.18-1.69v-4.87h-1.05v-1.12h1.05v-2.1l1.43-.86v2.96h1.44v1.12h-1.44v4.95c0,.41.03.67.08.79s.13.21.25.28c.11.07.28.1.49.1.16,0,.37-.02.63-.06h-.01Z"/>
          <path class="cls-3" d="m321.11,740.09v-11.68h1.43v4.19c.67-.78,1.51-1.16,2.53-1.16.63,0,1.17.12,1.63.37s.79.59.99,1.02.3,1.07.3,1.9v5.36h-1.44v-5.36c0-.72-.16-1.24-.47-1.57s-.75-.49-1.32-.49c-.43,0-.83.11-1.2.33-.37.22-.64.52-.8.9-.16.38-.24.9-.24,1.56v4.63h-1.43.02Z"/>
          <path class="cls-3" d="m332.75,740.09l4.49-11.68h1.67l4.78,11.68h-1.76l-1.36-3.54h-4.89l-1.28,3.54h-1.65Zm3.37-4.8h3.96l-1.22-3.24c-.37-.98-.65-1.79-.83-2.42-.15.75-.36,1.49-.63,2.23l-1.28,3.43Z"/>
          <path class="cls-3" d="m344.72,740.09v-8.46h1.29v1.28c.33-.6.63-1,.91-1.19s.59-.29.92-.29c.48,0,.98.15,1.47.46l-.49,1.33c-.35-.21-.7-.31-1.05-.31-.31,0-.6.09-.84.28-.25.19-.43.45-.53.79-.16.51-.24,1.07-.24,1.67v4.43h-1.44Z"/>
          <path class="cls-3" d="m355.96,737.36l1.48.18c-.23.87-.67,1.54-1.3,2.02-.63.48-1.44.72-2.42.72-1.24,0-2.22-.38-2.95-1.14s-1.09-1.83-1.09-3.21.37-2.53,1.1-3.32,1.68-1.18,2.85-1.18,2.06.38,2.77,1.16,1.08,1.85,1.08,3.25v.38h-6.31c.05.93.32,1.64.79,2.14.47.49,1.06.74,1.77.74.53,0,.98-.14,1.35-.41s.67-.72.88-1.32h0Zm-4.71-2.32h4.73c-.06-.71-.24-1.25-.54-1.6-.46-.55-1.05-.83-1.78-.83-.66,0-1.21.22-1.66.66s-.7,1.03-.75,1.77Z"/>
          <path class="cls-3" d="m359.65,740.09v-1.63h1.63v1.63h-1.63Z"/>
          <path class="cls-3" d="m363.78,740.09v-8.46h1.29v1.2c.62-.93,1.52-1.39,2.69-1.39.51,0,.98.09,1.41.27s.75.42.96.72.36.65.45,1.06c.05.27.08.73.08,1.4v5.2h-1.43v-5.15c0-.58-.06-1.02-.17-1.31-.11-.29-.31-.52-.59-.69s-.62-.26-1-.26c-.61,0-1.14.19-1.58.58-.44.39-.67,1.12-.67,2.21v4.62h-1.44Z"/>
          <path class="cls-3" d="m378.39,739.04c-.53.45-1.04.77-1.53.96s-1.02.28-1.58.28c-.93,0-1.64-.23-2.14-.68s-.75-1.03-.75-1.74c0-.41.09-.79.28-1.14.19-.34.44-.62.74-.83.31-.21.65-.36,1.03-.47.28-.08.71-.15,1.28-.22,1.16-.14,2.01-.3,2.56-.49v-.37c0-.58-.14-1-.41-1.24-.37-.32-.91-.49-1.63-.49-.68,0-1.17.12-1.49.35-.32.24-.56.66-.71,1.25l-1.4-.19c.13-.6.34-1.08.63-1.45s.71-.65,1.27-.85,1.19-.3,1.92-.3,1.31.08,1.76.25.78.38,1,.64c.21.26.36.58.45.98.05.24.07.69.07,1.32v1.91c0,1.33.03,2.18.09,2.53.06.35.18.69.36,1.02h-1.5c-.15-.3-.24-.65-.29-1.04h-.01Zm-.12-3.2c-.52.21-1.3.39-2.34.54-.59.08-1.01.18-1.25.29s-.43.26-.57.47c-.13.21-.2.43-.2.68,0,.38.14.7.43.96.29.25.71.38,1.27.38s1.04-.12,1.47-.36.75-.57.95-.99c.15-.32.23-.8.23-1.43v-.53h.01Z"/>
        </g>
      </g>
      <g>
        <g>
          <path class="cls-3" d="m589.29,736.11l-11.68-4.49v-1.67l11.68-4.78v1.76l-3.54,1.36v4.89l3.54,1.28v1.64h0Zm-4.8-3.37v-3.96l-3.24,1.22c-.98.37-1.79.65-2.42.83.75.15,1.49.36,2.23.63l3.43,1.28Z"/>
          <path class="cls-3" d="m585.19,711.96l.39-1.55c1.27.32,2.24.91,2.91,1.75s1,1.87,1,3.09-.26,2.28-.77,3.07-1.26,1.39-2.23,1.8-2.02.62-3.13.62c-1.22,0-2.28-.23-3.18-.7-.91-.46-1.59-1.13-2.06-1.98-.47-.86-.71-1.8-.71-2.83,0-1.17.3-2.15.89-2.95.6-.8,1.43-1.35,2.51-1.67l.36,1.52c-.85.27-1.47.66-1.86,1.18s-.58,1.16-.58,1.94c0,.9.21,1.65.65,2.25s1.01,1.03,1.73,1.27c.73.24,1.47.37,2.24.37.99,0,1.86-.14,2.6-.43s1.29-.74,1.66-1.35.55-1.27.55-1.98c0-.87-.25-1.6-.75-2.2-.5-.6-1.24-1.01-2.22-1.22h0Z"/>
          <path class="cls-3" d="m588.25,703.17c.45.53.77,1.04.96,1.53.19.49.28,1.02.28,1.58,0,.93-.23,1.64-.68,2.14s-1.03.75-1.74.75c-.41,0-.79-.09-1.14-.28-.34-.19-.62-.44-.83-.74-.21-.31-.36-.65-.47-1.03-.08-.28-.15-.71-.22-1.28-.14-1.16-.3-2.01-.49-2.56h-.37c-.58,0-1,.14-1.24.41-.32.37-.49.91-.49,1.63,0,.68.12,1.17.35,1.49.24.32.66.56,1.25.71l-.19,1.4c-.6-.13-1.08-.34-1.45-.63s-.65-.71-.85-1.27-.3-1.19-.3-1.92.08-1.31.25-1.76.38-.78.64-1c.26-.21.58-.36.98-.45.24-.05.69-.07,1.32-.07h1.91c1.33,0,2.18-.03,2.53-.09.35-.06.69-.18,1.02-.36v1.5c-.3.15-.65.24-1.04.29h0Zm-3.2.12c.21.52.39,1.3.54,2.34.08.59.18,1.01.29,1.25s.26.43.47.57c.21.13.43.2.68.2.38,0,.7-.14.96-.43.25-.29.38-.71.38-1.27s-.12-1.04-.36-1.47-.57-.75-.99-.95c-.32-.15-.8-.23-1.43-.23h-.54Z"/>
          <path class="cls-3" d="m588.01,696.49l1.27-.21c.08.4.13.77.13,1.08,0,.52-.08.92-.25,1.21-.17.29-.38.49-.65.61s-.83.18-1.69.18h-4.87v1.05h-1.12v-1.05h-2.1l-.86-1.43h2.96v-1.44h1.12v1.44h4.95c.41,0,.67-.03.79-.08s.21-.13.28-.25c.07-.11.1-.28.1-.49,0-.16-.02-.37-.06-.63h0Z"/>
          <path class="cls-3" d="m588.25,689.56c.45.53.77,1.04.96,1.53.19.49.28,1.02.28,1.58,0,.93-.23,1.64-.68,2.14s-1.03.75-1.74.75c-.41,0-.79-.09-1.14-.28-.34-.19-.62-.44-.83-.74-.21-.31-.36-.65-.47-1.03-.08-.28-.15-.71-.22-1.28-.14-1.16-.3-2.01-.49-2.56h-.37c-.58,0-1,.14-1.24.41-.32.37-.49.91-.49,1.63,0,.68.12,1.17.35,1.49.24.32.66.56,1.25.71l-.19,1.4c-.6-.13-1.08-.34-1.45-.63s-.65-.71-.85-1.27-.3-1.19-.3-1.92.08-1.31.25-1.76.38-.78.64-1c.26-.21.58-.36.98-.45.24-.05.69-.07,1.32-.07h1.91c1.33,0,2.18-.03,2.53-.09.35-.06.69-.18,1.02-.36v1.5c-.3.15-.65.24-1.04.29h0Zm-3.2.12c.21.52.39,1.3.54,2.34.08.59.18,1.01.29,1.25s.26.43.47.57c.21.13.43.2.68.2.38,0,.7-.14.96-.43.25-.29.38-.71.38-1.27s-.12-1.04-.36-1.47-.57-.75-.99-.95c-.32-.15-.8-.23-1.43-.23h-.54Z"/>
          <path class="cls-3" d="m589.29,686.04h-11.68v-1.44h11.68v1.44Z"/>
          <path class="cls-3" d="m585.06,682.91c-1.57,0-2.73-.44-3.48-1.31-.63-.73-.94-1.62-.94-2.66,0-1.16.38-2.11,1.14-2.85s1.82-1.11,3.16-1.11c1.09,0,1.95.16,2.57.49s1.11.8,1.46,1.43c.34.62.52,1.31.52,2.04,0,1.19-.38,2.14-1.14,2.87s-1.85,1.1-3.28,1.1h-.01Zm0-1.47c1.08,0,1.9-.24,2.44-.71.54-.47.81-1.07.81-1.79s-.27-1.3-.81-1.78c-.54-.47-1.37-.71-2.48-.71-1.05,0-1.84.24-2.38.71s-.81,1.07-.81,1.77.27,1.31.8,1.79c.54.47,1.35.71,2.43.71h0Z"/>
          <path class="cls-3" d="m589.99,673.56l.21-1.4c.43-.06.74-.22.94-.49.27-.36.4-.84.4-1.46,0-.66-.13-1.18-.4-1.54s-.64-.61-1.12-.73c-.29-.07-.91-.11-1.84-.1.74.63,1.11,1.41,1.11,2.34,0,1.16-.42,2.06-1.26,2.7s-1.85.96-3.02.96c-.81,0-1.55-.15-2.24-.44-.68-.29-1.21-.72-1.58-1.27-.37-.56-.56-1.21-.56-1.96,0-1,.4-1.82,1.21-2.47h-1.02v-1.32h7.32c1.32,0,2.25.13,2.8.4s.98.69,1.3,1.28c.32.58.48,1.3.48,2.15,0,1.01-.23,1.83-.68,2.45s-1.14.92-2.05.9h0Zm-5.08-1.19c1.11,0,1.92-.22,2.43-.66s.76-.99.76-1.66-.25-1.21-.76-1.66c-.51-.45-1.3-.67-2.39-.67s-1.82.23-2.34.69c-.53.46-.79,1.01-.79,1.66s.26,1.18.78,1.63,1.29.67,2.31.67h0Z"/>
          <path class="cls-3" d="m589.29,658.67h-1.24c.96.66,1.43,1.55,1.43,2.69,0,.5-.1.97-.29,1.4s-.43.75-.72.96-.64.36-1.06.44c-.28.06-.73.09-1.34.09h-5.25v-1.44h4.7c.75,0,1.25-.03,1.51-.09.38-.09.67-.28.89-.57.21-.29.32-.65.32-1.08s-.11-.83-.33-1.21c-.22-.38-.52-.64-.9-.8s-.93-.24-1.65-.24h-4.54v-1.43h8.46v1.28h0Z"/>
          <path class="cls-3" d="m586.56,649.35l.18-1.48c.87.23,1.54.67,2.02,1.3.48.63.72,1.44.72,2.42,0,1.24-.38,2.22-1.14,2.95-.76.73-1.83,1.09-3.21,1.09s-2.53-.37-3.32-1.1-1.18-1.68-1.18-2.85.38-2.06,1.16-2.77,1.85-1.08,3.25-1.08h.38v6.31c.93-.05,1.64-.32,2.14-.79.49-.47.74-1.06.74-1.77,0-.53-.14-.98-.41-1.35s-.72-.67-1.32-.88h0Zm-2.32,4.71v-4.73c-.71.06-1.25.24-1.6.54-.55.46-.83,1.05-.83,1.78,0,.66.22,1.21.66,1.66.44.45,1.03.7,1.77.75Z"/>
          <path class="cls-3" d="m585.06,642.06c-1.57,0-2.73-.44-3.48-1.31-.63-.73-.94-1.62-.94-2.66,0-1.16.38-2.11,1.14-2.85s1.82-1.11,3.16-1.11c1.09,0,1.95.16,2.57.49s1.11.8,1.46,1.43c.34.62.52,1.31.52,2.04,0,1.19-.38,2.14-1.14,2.87s-1.85,1.1-3.28,1.1h-.01Zm0-1.47c1.08,0,1.9-.24,2.44-.71.54-.47.81-1.07.81-1.79s-.27-1.3-.81-1.78c-.54-.47-1.37-.71-2.48-.71-1.05,0-1.84.24-2.38.71s-.81,1.07-.81,1.77.27,1.31.8,1.79c.54.47,1.35.71,2.43.71h0Z"/>
          <path class="cls-3" d="m589.29,632.11h-7.35v1.27h-1.12v-1.27h-.9c-.57,0-.99-.05-1.27-.15-.37-.14-.67-.38-.9-.73s-.35-.84-.35-1.46c0-.4.05-.85.14-1.34l1.25.22c-.05.3-.08.58-.08.84,0,.44.09.74.28.92s.53.27,1.04.27h.78v-1.65h1.12v1.65h7.35v1.43h.01Z"/>
          <path class="cls-3" d="m585.54,623.72l-.13-1.46c.58-.07,1.06-.23,1.44-.48.37-.25.68-.64.91-1.18s.35-1.13.35-1.79c0-.59-.09-1.11-.26-1.56-.18-.45-.42-.79-.72-1.01-.31-.22-.64-.33-1-.33s-.69.11-.96.32-.5.56-.69,1.05c-.12.31-.31,1.01-.57,2.08s-.5,1.83-.73,2.26c-.29.56-.66.97-1.09,1.25-.43.27-.92.41-1.46.41-.59,0-1.14-.17-1.65-.5s-.9-.82-1.17-1.47c-.27-.64-.4-1.36-.4-2.14,0-.87.14-1.63.42-2.29.28-.66.69-1.17,1.23-1.53s1.16-.55,1.84-.57l.11,1.48c-.74.08-1.3.35-1.67.81-.38.46-.57,1.14-.57,2.04s.17,1.62.51,2.04.76.64,1.24.64c.42,0,.77-.15,1.04-.45.27-.3.55-1.07.83-2.33s.53-2.12.75-2.59c.31-.68.71-1.18,1.19-1.51.48-.32,1.03-.49,1.66-.49s1.21.18,1.76.53c.55.36.98.87,1.28,1.53.31.67.46,1.42.46,2.25,0,1.06-.15,1.94-.46,2.66-.31.71-.77,1.28-1.39,1.68-.62.41-1.32.62-2.1.64h0Z"/>
          <path class="cls-3" d="m579.26,612.49h-1.65v-1.43h1.65v1.43Zm10.03,0h-8.46v-1.43h8.46v1.43Z"/>
          <path class="cls-3" d="m589.29,608.87h-8.46v-1.28h1.19c-.42-.27-.75-.62-1-1.06s-.38-.94-.38-1.51c0-.63.13-1.14.39-1.54.26-.4.62-.68,1.09-.85-.99-.67-1.48-1.54-1.48-2.61,0-.84.23-1.49.7-1.94s1.18-.68,2.15-.68h5.81v1.43h-5.33c-.57,0-.99.05-1.24.14s-.46.26-.61.51c-.15.24-.23.53-.23.86,0,.6.2,1.09.59,1.48s1.03.59,1.9.59h4.92v1.43h-5.5c-.64,0-1.12.12-1.43.35-.32.23-.48.62-.48,1.15,0,.4.11.78.32,1.12.21.34.52.59.93.75.41.15,1,.23,1.77.23h4.39v1.43h-.01Z"/>
          <path class="cls-3" d="m592.53,595.27h-11.71v-1.31h1.1c-.43-.31-.75-.66-.97-1.04s-.32-.86-.32-1.41c0-.72.19-1.36.56-1.91s.9-.97,1.57-1.25c.68-.28,1.42-.42,2.23-.42.87,0,1.65.16,2.34.47s1.22.76,1.59,1.35c.37.59.55,1.22.55,1.87,0,.48-.1.91-.3,1.29s-.46.69-.77.94h4.12v1.43h.01Zm-7.43-1.3c1.09,0,1.89-.22,2.42-.66.52-.44.78-.98.78-1.6s-.27-1.18-.81-1.64c-.54-.45-1.38-.68-2.51-.68s-1.89.22-2.42.67c-.54.44-.81.97-.81,1.59s.29,1.15.86,1.62,1.4.71,2.49.71h0Z"/>
          <path class="cls-3" d="m589.29,586.22h-11.68v-1.44h11.68v1.44Z"/>
          <path class="cls-3" d="m586.56,576.77l.18-1.48c.87.23,1.54.67,2.02,1.3.48.63.72,1.44.72,2.42,0,1.24-.38,2.22-1.14,2.95s-1.83,1.09-3.21,1.09-2.53-.37-3.32-1.1-1.18-1.68-1.18-2.85.38-2.06,1.16-2.77,1.85-1.08,3.25-1.08h.38v6.31c.93-.05,1.64-.32,2.14-.79.49-.47.74-1.06.74-1.77,0-.53-.14-.98-.41-1.35s-.72-.67-1.32-.88h0Zm-2.32,4.71v-4.73c-.71.06-1.25.24-1.6.54-.55.46-.83,1.05-.83,1.78,0,.66.22,1.21.66,1.66s1.03.7,1.77.75Z"/>
          <path class="cls-3" d="m589.29,568.77h-11.68v-4.41c0-.78.04-1.37.11-1.78.1-.57.28-1.05.55-1.44.27-.39.64-.7,1.13-.94.48-.24,1.02-.35,1.59-.35.99,0,1.83.32,2.52.95s1.03,1.77,1.03,3.43v3h4.75v1.55h0Zm-6.13-1.55v-3.02c0-1-.19-1.71-.56-2.13s-.9-.63-1.57-.63c-.49,0-.91.12-1.26.37-.35.25-.58.57-.69.98-.07.26-.1.74-.1,1.44v2.99h4.18Z"/>
          <path class="cls-3" d="m589.29,558.1h-11.68v-1.44h11.68v1.44Z"/>
          <path class="cls-3" d="m586.56,548.64l.18-1.48c.87.23,1.54.67,2.02,1.3.48.63.72,1.44.72,2.42,0,1.24-.38,2.22-1.14,2.95s-1.83,1.09-3.21,1.09-2.53-.37-3.32-1.1-1.18-1.68-1.18-2.85.38-2.06,1.16-2.77,1.85-1.08,3.25-1.08h.38v6.31c.93-.05,1.64-.32,2.14-.79.49-.47.74-1.06.74-1.77,0-.53-.14-.98-.41-1.35s-.72-.67-1.32-.88h0Zm-2.32,4.71v-4.73c-.71.06-1.25.24-1.6.54-.55.46-.83,1.05-.83,1.78,0,.66.22,1.21.66,1.66s1.03.7,1.77.75Z"/>
          <path class="cls-3" d="m588.25,539.83c.45.53.77,1.04.96,1.53s.28,1.02.28,1.58c0,.93-.23,1.64-.68,2.14s-1.03.75-1.74.75c-.41,0-.79-.09-1.14-.28-.34-.19-.62-.44-.83-.74-.21-.31-.36-.65-.47-1.03-.08-.28-.15-.71-.22-1.28-.14-1.16-.3-2.01-.49-2.56h-.37c-.58,0-1,.14-1.24.41-.32.37-.49.91-.49,1.63,0,.68.12,1.17.35,1.49.24.32.66.56,1.25.71l-.19,1.4c-.6-.13-1.08-.34-1.45-.63s-.65-.71-.85-1.27-.3-1.19-.3-1.92.08-1.31.25-1.76.38-.78.64-1c.26-.21.58-.36.98-.45.24-.05.69-.07,1.32-.07h1.91c1.33,0,2.18-.03,2.53-.09.35-.06.69-.18,1.02-.36v1.5c-.3.15-.65.24-1.04.29h0Zm-3.2.12c.21.52.39,1.3.54,2.34.08.59.18,1.01.29,1.25s.26.43.47.57c.21.13.43.2.68.2.38,0,.7-.14.96-.43.25-.29.38-.71.38-1.27s-.12-1.04-.36-1.47-.57-.75-.99-.95c-.32-.15-.8-.23-1.43-.23h-.54Z"/>
          <path class="cls-3" d="m586.76,536.85l-.22-1.42c.57-.08,1-.3,1.31-.67.3-.36.45-.87.45-1.53s-.13-1.15-.4-1.47-.58-.48-.94-.48c-.32,0-.58.14-.77.42-.13.2-.29.69-.49,1.47-.27,1.05-.5,1.78-.69,2.19s-.46.71-.8.92-.72.31-1.14.31c-.38,0-.73-.09-1.05-.26s-.59-.41-.8-.71c-.17-.22-.3-.53-.42-.91s-.17-.8-.17-1.24c0-.66.1-1.25.29-1.75s.45-.87.78-1.11.76-.4,1.31-.49l.19,1.4c-.44.06-.78.25-1.02.55s-.37.74-.37,1.29c0,.66.11,1.13.33,1.41.22.28.47.42.77.42.19,0,.35-.06.5-.18s.28-.3.38-.55c.05-.14.17-.57.37-1.27.27-1.02.49-1.72.67-2.12.17-.4.42-.72.75-.94s.74-.34,1.23-.34.93.14,1.35.42.75.68.98,1.21.35,1.12.35,1.79c0,1.1-.23,1.94-.69,2.51s-1.13.94-2.03,1.1v.03Z"/>
          <path class="cls-3" d="m589.29,522.57h-1.24c.96.66,1.43,1.55,1.43,2.69,0,.5-.1.97-.29,1.4s-.43.75-.72.96-.64.36-1.06.44c-.28.06-.73.09-1.34.09h-5.25v-1.44h4.7c.75,0,1.25-.03,1.51-.09.38-.09.67-.28.89-.57.21-.29.32-.65.32-1.08s-.11-.83-.33-1.21c-.22-.38-.52-.64-.9-.8s-.93-.24-1.65-.24h-4.54v-1.43h8.46v1.28h0Z"/>
          <path class="cls-3" d="m589.29,519.06h-8.46v-1.29h1.28c-.6-.33-1-.63-1.19-.91s-.29-.59-.29-.92c0-.48.15-.98.46-1.47l1.33.49c-.21.35-.31.7-.31,1.05,0,.31.09.6.28.84.19.25.45.43.79.53.51.16,1.07.24,1.67.24h4.43v1.43h0Z"/>
          <path class="cls-3" d="m586.56,507.81l.18-1.48c.87.23,1.54.67,2.02,1.3.48.63.72,1.44.72,2.42,0,1.24-.38,2.22-1.14,2.95s-1.83,1.09-3.21,1.09-2.53-.37-3.32-1.1-1.18-1.68-1.18-2.85.38-2.06,1.16-2.77,1.85-1.08,3.25-1.08h.38v6.31c.93-.05,1.64-.32,2.14-.79.49-.47.74-1.06.74-1.77,0-.53-.14-.98-.41-1.35s-.72-.67-1.32-.88h0Zm-2.32,4.71v-4.73c-.71.06-1.25.24-1.6.54-.55.46-.83,1.05-.83,1.78,0,.66.22,1.21.66,1.66s1.03.7,1.77.75Z"/>
          <path class="cls-3" d="m586.76,505.1l-.22-1.42c.57-.08,1-.3,1.31-.67.3-.36.45-.87.45-1.53s-.13-1.15-.4-1.47-.58-.48-.94-.48c-.32,0-.58.14-.77.42-.13.2-.29.69-.49,1.47-.27,1.05-.5,1.78-.69,2.19s-.46.71-.8.92-.72.31-1.14.31c-.38,0-.73-.09-1.05-.26s-.59-.41-.8-.71c-.17-.22-.3-.53-.42-.91s-.17-.8-.17-1.24c0-.66.1-1.25.29-1.75s.45-.87.78-1.11.76-.4,1.31-.49l.19,1.4c-.44.06-.78.25-1.02.55s-.37.74-.37,1.29c0,.66.11,1.13.33,1.41.22.28.47.42.77.42.19,0,.35-.06.5-.18s.28-.3.38-.55c.05-.14.17-.57.37-1.27.27-1.02.49-1.72.67-2.12.17-.4.42-.72.75-.94s.74-.34,1.23-.34.93.14,1.35.42.75.68.98,1.21.35,1.12.35,1.79c0,1.1-.23,1.94-.69,2.51s-1.13.94-2.03,1.1v.03Z"/>
        </g>
        <g>
          <g>
            <path class="cls-3" d="m579.5,375.15l-11.68-4.49v-1.67l11.68-4.78v1.76l-3.54,1.36v4.89l3.54,1.28v1.64h0Zm-4.8-3.37v-3.96l-3.24,1.22c-.98.37-1.79.65-2.42.83.75.15,1.49.36,2.23.63l3.43,1.28Z"/>
            <path class="cls-3" d="m579.5,363.2h-11.68v-1.44h11.68v1.44Z"/>
            <path class="cls-3" d="m576.77,353.74l.18-1.48c.87.23,1.54.67,2.02,1.3s.72,1.44.72,2.42c0,1.24-.38,2.22-1.14,2.95s-1.83,1.09-3.21,1.09-2.53-.37-3.32-1.1-1.18-1.68-1.18-2.85.39-2.06,1.16-2.77,1.85-1.08,3.25-1.08h.38v6.31c.93-.05,1.64-.32,2.14-.79.49-.47.74-1.06.74-1.77,0-.53-.14-.98-.42-1.35s-.72-.67-1.32-.88h0Zm-2.32,4.71v-4.73c-.71.06-1.25.24-1.6.54-.55.46-.83,1.05-.83,1.78,0,.66.22,1.21.66,1.66s1.03.7,1.77.75Z"/>
            <path class="cls-3" d="m579.5,351.42l-4.4-3.09-4.06,2.86v-1.79l1.98-1.3c.38-.24.69-.44.95-.59-.35-.23-.66-.45-.93-.65l-2-1.43v-1.71l3.99,2.92,4.48-3.15v1.76l-2.63,1.74-.71.46,3.34,2.22v1.74h0Z"/>
            <path class="cls-3" d="m575.74,338.11l-.13-1.46c.58-.07,1.06-.23,1.44-.48s.68-.64.91-1.18c.23-.53.35-1.13.35-1.79,0-.59-.09-1.11-.26-1.56s-.42-.79-.72-1.01c-.31-.22-.64-.33-1-.33s-.69.11-.96.32c-.27.21-.5.56-.69,1.05-.12.31-.31,1.01-.57,2.08-.26,1.07-.5,1.83-.73,2.26-.29.56-.66.97-1.09,1.25-.43.27-.92.41-1.45.41-.59,0-1.14-.17-1.65-.5s-.9-.82-1.17-1.47c-.27-.64-.4-1.36-.4-2.14,0-.87.14-1.63.42-2.29s.69-1.17,1.23-1.53,1.16-.55,1.84-.57l.11,1.48c-.74.08-1.3.35-1.67.81-.38.46-.57,1.14-.57,2.04s.17,1.62.51,2.04.76.64,1.24.64c.42,0,.76-.15,1.04-.45.27-.3.55-1.07.83-2.33.28-1.26.53-2.12.75-2.59.31-.68.71-1.18,1.19-1.51.48-.32,1.04-.49,1.66-.49s1.21.18,1.76.53c.55.36.98.87,1.28,1.53.31.67.46,1.42.46,2.25,0,1.06-.15,1.94-.46,2.66-.31.71-.77,1.28-1.39,1.68-.62.41-1.32.62-2.1.64h0Z"/>
            <path class="cls-3" d="m569.46,326.87h-1.65v-1.43h1.65v1.43Zm10.04,0h-8.46v-1.43h8.46v1.43Z"/>
            <path class="cls-3" d="m579.5,323.25h-8.46v-1.29h1.2c-.93-.62-1.39-1.52-1.39-2.69,0-.51.09-.98.28-1.41.18-.43.42-.75.72-.96s.65-.36,1.06-.45c.27-.05.73-.08,1.39-.08h5.21v1.43h-5.15c-.58,0-1.02.06-1.31.17s-.52.31-.69.59-.26.62-.26,1c0,.61.19,1.14.58,1.58s1.12.67,2.21.67h4.62v1.43h-.01Z"/>
            <path class="cls-3" d="m580.2,314.43l.21-1.4c.43-.06.74-.22.94-.49.27-.36.4-.84.4-1.46,0-.66-.13-1.18-.4-1.54s-.64-.61-1.12-.73c-.29-.07-.91-.11-1.84-.1.74.63,1.11,1.41,1.11,2.34,0,1.16-.42,2.06-1.26,2.7s-1.85.96-3.02.96c-.81,0-1.55-.15-2.24-.44-.68-.29-1.21-.72-1.58-1.27-.37-.56-.56-1.21-.56-1.96,0-1,.4-1.82,1.21-2.47h-1.02v-1.32h7.32c1.32,0,2.25.13,2.8.4.55.27.98.69,1.3,1.28.32.58.48,1.3.48,2.15,0,1.01-.23,1.83-.68,2.45-.46.62-1.14.92-2.05.9h0Zm-5.08-1.19c1.11,0,1.92-.22,2.43-.66s.77-.99.77-1.66-.25-1.21-.76-1.66-1.3-.67-2.39-.67-1.82.23-2.34.69c-.53.46-.79,1.01-.79,1.66s.26,1.18.78,1.63c.52.45,1.29.67,2.31.67h-.01Z"/>
            <path class="cls-3" d="m579.5,305.09h-11.68v-1.43h4.19c-.78-.67-1.16-1.51-1.16-2.53,0-.63.12-1.17.37-1.63s.59-.79,1.02-.99c.44-.2,1.07-.3,1.9-.3h5.36v1.44h-5.36c-.72,0-1.24.16-1.57.47s-.49.75-.49,1.32c0,.43.11.83.33,1.2s.52.64.9.8.9.24,1.56.24h4.63v1.43-.02Z"/>
          </g>
          <g>
            <path class="cls-3" d="m599.08,372.52l-8.46,2.59v-1.48l4.89-1.35,1.82-.5c-.09-.02-.67-.17-1.75-.44l-4.96-1.35v-1.47l4.91-1.27,1.62-.42-1.63-.49-4.89-1.45v-1.39l8.46,2.65v1.49l-5.07,1.35-1.44.33,6.51,1.71v1.5h0Z"/>
            <path class="cls-3" d="m589.05,362.28h-1.65v-1.43h1.65v1.43Zm10.03,0h-8.46v-1.43h8.46v1.43Z"/>
            <path class="cls-3" d="m597.8,355.53l1.27-.21c.08.4.13.77.13,1.08,0,.52-.08.92-.25,1.21-.17.29-.38.49-.65.61s-.83.18-1.69.18h-4.87v1.05h-1.12v-1.05h-2.1l-.86-1.43h2.96v-1.44h1.12v1.44h4.95c.41,0,.67-.03.79-.08s.21-.13.28-.25c.07-.11.1-.28.1-.49,0-.16-.02-.37-.06-.63h0Z"/>
            <path class="cls-3" d="m599.08,354.13h-11.68v-1.43h4.19c-.78-.67-1.16-1.51-1.16-2.53,0-.63.12-1.17.37-1.63s.59-.79,1.02-.99,1.07-.3,1.9-.3h5.36v1.44h-5.36c-.72,0-1.24.16-1.57.47s-.49.75-.49,1.32c0,.43.11.83.33,1.2.22.37.52.64.9.8.38.16.9.24,1.56.24h4.63v1.43-.02Z"/>
            <path class="cls-3" d="m599.08,342.5l-11.68-4.49v-1.67l11.68-4.78v1.76l-3.54,1.36v4.89l3.54,1.28v1.64h0Zm-4.8-3.37v-3.96l-3.24,1.22c-.98.37-1.79.65-2.42.83.75.15,1.49.36,2.23.63l3.43,1.28Z"/>
            <path class="cls-3" d="m599.08,330.52h-8.46v-1.29h1.28c-.6-.33-1-.63-1.19-.91s-.29-.59-.29-.92c0-.48.15-.98.46-1.47l1.33.49c-.21.35-.31.7-.31,1.05,0,.31.09.6.28.84.19.25.45.43.79.53.51.16,1.07.24,1.67.24h4.43v1.43h0Z"/>
            <path class="cls-3" d="m596.36,319.28l.18-1.48c.87.23,1.54.67,2.02,1.3.48.63.72,1.44.72,2.42,0,1.24-.38,2.22-1.14,2.95s-1.83,1.09-3.21,1.09-2.53-.37-3.32-1.1c-.79-.73-1.18-1.68-1.18-2.85s.38-2.06,1.16-2.77,1.85-1.08,3.25-1.08h.38v6.31c.93-.05,1.64-.32,2.14-.79.49-.47.74-1.06.74-1.77,0-.53-.14-.98-.41-1.35s-.72-.67-1.32-.88h0Zm-2.32,4.71v-4.73c-.71.06-1.25.24-1.6.54-.55.46-.83,1.05-.83,1.78,0,.66.22,1.21.66,1.66s1.03.7,1.77.75Z"/>
            <path class="cls-3" d="m599.08,315.59h-1.63v-1.63h1.63v1.63Z"/>
            <path class="cls-3" d="m599.08,311.46h-8.46v-1.29h1.2c-.93-.62-1.39-1.52-1.39-2.69,0-.51.09-.98.27-1.41.18-.43.42-.75.72-.96s.65-.36,1.06-.45c.27-.05.73-.08,1.4-.08h5.2v1.43h-5.15c-.58,0-1.02.06-1.31.17s-.52.31-.69.59-.26.62-.26,1c0,.61.19,1.14.58,1.58s1.12.67,2.21.67h4.62v1.43h0Z"/>
            <path class="cls-3" d="m598.04,296.86c.45.53.77,1.04.96,1.53s.28,1.02.28,1.58c0,.93-.23,1.64-.68,2.14s-1.03.75-1.74.75c-.41,0-.79-.09-1.14-.28-.34-.19-.62-.44-.83-.74-.21-.31-.36-.65-.47-1.03-.08-.28-.15-.71-.22-1.28-.14-1.16-.3-2.01-.49-2.56h-.37c-.58,0-1,.14-1.24.41-.32.37-.49.91-.49,1.63,0,.68.12,1.17.35,1.49.24.32.66.56,1.25.71l-.19,1.4c-.6-.13-1.08-.34-1.45-.63-.37-.29-.65-.71-.85-1.27s-.3-1.19-.3-1.92.08-1.31.25-1.76.38-.78.64-1c.26-.21.58-.36.98-.45.24-.05.69-.07,1.32-.07h1.91c1.33,0,2.18-.03,2.53-.09.35-.06.69-.18,1.02-.36v1.5c-.3.15-.65.24-1.04.29h0Zm-3.2.12c.21.52.39,1.3.54,2.34.08.59.18,1.01.29,1.25s.26.43.47.57c.21.13.43.2.68.2.38,0,.7-.14.96-.43.25-.29.38-.71.38-1.27s-.12-1.04-.36-1.47c-.24-.43-.57-.75-.99-.95-.32-.15-.8-.23-1.43-.23h-.54Z"/>
          </g>
        </g>
      </g>
      <g>
        <g>
          <path class="cls-3" d="m102.85,736.11l-11.68-4.49v-1.67l11.68-4.78v1.76l-3.54,1.36v4.89l3.54,1.28v1.64h0Zm-4.8-3.37v-3.96l-3.24,1.22c-.98.37-1.79.65-2.42.83.75.15,1.49.36,2.23.63,0,0,3.43,1.28,3.43,1.28Z"/>
          <path class="cls-3" d="m98.75,711.96l.39-1.55c1.27.32,2.24.91,2.91,1.75s1,1.87,1,3.09-.26,2.28-.77,3.07-1.26,1.39-2.23,1.8-2.02.62-3.13.62c-1.22,0-2.28-.23-3.18-.7-.91-.46-1.59-1.13-2.06-1.98-.47-.86-.71-1.8-.71-2.83,0-1.17.3-2.15.89-2.95.6-.8,1.43-1.35,2.51-1.67l.36,1.52c-.85.27-1.47.66-1.86,1.18s-.58,1.16-.58,1.94c0,.9.21,1.65.65,2.25s1.01,1.03,1.73,1.27c.73.24,1.47.37,2.24.37.99,0,1.86-.14,2.6-.43s1.29-.74,1.66-1.35.55-1.27.55-1.98c0-.87-.25-1.6-.75-2.2-.5-.6-1.24-1.01-2.22-1.22h0Z"/>
          <path class="cls-3" d="m101.8,703.17c.45.53.77,1.04.96,1.53.19.49.28,1.02.28,1.58,0,.93-.23,1.64-.68,2.14s-1.03.75-1.74.75c-.41,0-.79-.09-1.14-.28-.34-.19-.62-.44-.83-.74-.21-.31-.36-.65-.47-1.03-.08-.28-.15-.71-.22-1.28-.14-1.16-.3-2.01-.49-2.56h-.37c-.58,0-1,.14-1.24.41-.32.37-.49.91-.49,1.63,0,.68.12,1.17.35,1.49.24.32.66.56,1.25.71l-.19,1.4c-.6-.13-1.08-.34-1.45-.63s-.65-.71-.85-1.27-.3-1.19-.3-1.92.08-1.31.25-1.76.38-.78.64-1c.26-.21.58-.36.98-.45.24-.05.69-.07,1.32-.07h1.91c1.33,0,2.18-.03,2.53-.09s.69-.18,1.02-.36v1.5c-.3.15-.65.24-1.04.29h.01Zm-3.2.12c.21.52.39,1.3.54,2.34.08.59.18,1.01.29,1.25s.26.43.47.57c.21.13.43.2.68.2.38,0,.7-.14.96-.43.25-.29.38-.71.38-1.27s-.12-1.04-.36-1.47-.57-.75-.99-.95c-.32-.15-.8-.23-1.43-.23h-.54Z"/>
          <path class="cls-3" d="m101.57,696.49l1.27-.21c.08.4.13.77.13,1.08,0,.52-.08.92-.25,1.21-.17.29-.38.49-.65.61s-.83.18-1.69.18h-4.87v1.05h-1.12v-1.05h-2.1l-.86-1.43h2.96v-1.44h1.12v1.44h4.95c.41,0,.67-.03.79-.08.12-.05.21-.13.28-.25.07-.11.1-.28.1-.49,0-.16-.02-.37-.06-.63h0Z"/>
          <path class="cls-3" d="m101.8,689.56c.45.53.77,1.04.96,1.53.19.49.28,1.02.28,1.58,0,.93-.23,1.64-.68,2.14s-1.03.75-1.74.75c-.41,0-.79-.09-1.14-.28-.34-.19-.62-.44-.83-.74-.21-.31-.36-.65-.47-1.03-.08-.28-.15-.71-.22-1.28-.14-1.16-.3-2.01-.49-2.56h-.37c-.58,0-1,.14-1.24.41-.32.37-.49.91-.49,1.63,0,.68.12,1.17.35,1.49.24.32.66.56,1.25.71l-.19,1.4c-.6-.13-1.08-.34-1.45-.63s-.65-.71-.85-1.27-.3-1.19-.3-1.92.08-1.31.25-1.76.38-.78.64-1c.26-.21.58-.36.98-.45.24-.05.69-.07,1.32-.07h1.91c1.33,0,2.18-.03,2.53-.09s.69-.18,1.02-.36v1.5c-.3.15-.65.24-1.04.29h.01Zm-3.2.12c.21.52.39,1.3.54,2.34.08.59.18,1.01.29,1.25s.26.43.47.57c.21.13.43.2.68.2.38,0,.7-.14.96-.43.25-.29.38-.71.38-1.27s-.12-1.04-.36-1.47-.57-.75-.99-.95c-.32-.15-.8-.23-1.43-.23h-.54Z"/>
          <path class="cls-3" d="m102.85,686.04h-11.68v-1.44h11.68v1.44Z"/>
          <path class="cls-3" d="m98.62,682.91c-1.57,0-2.73-.44-3.48-1.31-.63-.73-.94-1.62-.94-2.66,0-1.16.38-2.11,1.14-2.85s1.82-1.11,3.16-1.11c1.09,0,1.95.16,2.57.49s1.11.8,1.46,1.43c.34.62.52,1.31.52,2.04,0,1.19-.38,2.14-1.14,2.87s-1.85,1.1-3.28,1.1h-.01Zm0-1.47c1.08,0,1.9-.24,2.44-.71.54-.47.81-1.07.81-1.79s-.27-1.3-.81-1.78c-.54-.47-1.37-.71-2.48-.71-1.05,0-1.84.24-2.38.71s-.81,1.07-.81,1.77.27,1.31.8,1.79c.54.47,1.35.71,2.43.71h0Z"/>
          <path class="cls-3" d="m103.55,673.56l.21-1.4c.43-.06.74-.22.94-.49.27-.36.4-.84.4-1.46,0-.66-.13-1.18-.4-1.54s-.64-.61-1.12-.73c-.29-.07-.91-.11-1.84-.1.74.63,1.11,1.41,1.11,2.34,0,1.16-.42,2.06-1.26,2.7s-1.85.96-3.02.96c-.81,0-1.55-.15-2.24-.44-.68-.29-1.21-.72-1.58-1.27-.37-.56-.56-1.21-.56-1.96,0-1,.4-1.82,1.21-2.47h-1.02v-1.32h7.32c1.32,0,2.25.13,2.8.4s.98.69,1.3,1.28c.32.58.48,1.3.48,2.15,0,1.01-.23,1.83-.68,2.45s-1.14.92-2.05.9h0Zm-5.08-1.19c1.11,0,1.92-.22,2.43-.66.51-.44.76-.99.76-1.66s-.25-1.21-.76-1.66c-.51-.45-1.3-.67-2.39-.67s-1.82.23-2.34.69c-.53.46-.79,1.01-.79,1.66s.26,1.18.78,1.63,1.29.67,2.31.67h0Z"/>
          <path class="cls-3" d="m102.85,658.67h-1.24c.96.66,1.43,1.55,1.43,2.69,0,.5-.1.97-.29,1.4s-.43.75-.72.96-.64.36-1.06.44c-.28.06-.73.09-1.34.09h-5.25v-1.44h4.7c.75,0,1.25-.03,1.51-.09.38-.09.67-.28.89-.57.21-.29.32-.65.32-1.08s-.11-.83-.33-1.21-.52-.64-.9-.8-.93-.24-1.65-.24h-4.54v-1.43h8.46v1.28h.01Z"/>
          <path class="cls-3" d="m100.12,649.35l.18-1.48c.87.23,1.54.67,2.02,1.3s.72,1.44.72,2.42c0,1.24-.38,2.22-1.14,2.95-.76.73-1.83,1.09-3.21,1.09s-2.53-.37-3.32-1.1-1.18-1.68-1.18-2.85.38-2.06,1.16-2.77,1.85-1.08,3.25-1.08h.38v6.31c.93-.05,1.64-.32,2.14-.79.49-.47.74-1.06.74-1.77,0-.53-.14-.98-.41-1.35s-.72-.67-1.32-.88h-.01Zm-2.32,4.71v-4.73c-.71.06-1.25.24-1.6.54-.55.46-.83,1.05-.83,1.78,0,.66.22,1.21.66,1.66.44.45,1.03.7,1.77.75Z"/>
          <path class="cls-3" d="m98.62,642.06c-1.57,0-2.73-.44-3.48-1.31-.63-.73-.94-1.62-.94-2.66,0-1.16.38-2.11,1.14-2.85s1.82-1.11,3.16-1.11c1.09,0,1.95.16,2.57.49s1.11.8,1.46,1.43c.34.62.52,1.31.52,2.04,0,1.19-.38,2.14-1.14,2.87s-1.85,1.1-3.28,1.1h-.01Zm0-1.47c1.08,0,1.9-.24,2.44-.71.54-.47.81-1.07.81-1.79s-.27-1.3-.81-1.78c-.54-.47-1.37-.71-2.48-.71-1.05,0-1.84.24-2.38.71s-.81,1.07-.81,1.77.27,1.31.8,1.79c.54.47,1.35.71,2.43.71h0Z"/>
          <path class="cls-3" d="m102.85,632.11h-7.35v1.27h-1.12v-1.27h-.9c-.57,0-.99-.05-1.27-.15-.37-.14-.67-.38-.9-.73s-.35-.84-.35-1.46c0-.4.05-.85.14-1.34l1.25.22c-.05.3-.08.58-.08.84,0,.44.09.74.28.92s.53.27,1.04.27h.78v-1.65h1.12v1.65h7.35v1.43h.01Z"/>
          <path class="cls-3" d="m99.09,623.72l-.13-1.46c.58-.07,1.06-.23,1.44-.48.37-.25.68-.64.91-1.18s.35-1.13.35-1.79c0-.59-.09-1.11-.26-1.56-.18-.45-.42-.79-.72-1.01-.31-.22-.64-.33-1-.33s-.69.11-.96.32-.5.56-.69,1.05c-.12.31-.31,1.01-.57,2.08s-.5,1.83-.73,2.26c-.29.56-.66.97-1.09,1.25-.43.27-.92.41-1.46.41-.59,0-1.14-.17-1.65-.5-.51-.33-.9-.82-1.17-1.47-.27-.64-.4-1.36-.4-2.14,0-.87.14-1.63.42-2.29s.69-1.17,1.23-1.53,1.16-.55,1.84-.57l.11,1.48c-.74.08-1.3.35-1.67.81-.38.46-.57,1.14-.57,2.04s.17,1.62.51,2.04.76.64,1.24.64c.42,0,.77-.15,1.04-.45s.55-1.07.83-2.33c.28-1.26.53-2.12.75-2.59.31-.68.71-1.18,1.19-1.51.48-.32,1.03-.49,1.66-.49s1.21.18,1.76.53c.55.36.98.87,1.28,1.53.31.67.46,1.42.46,2.25,0,1.06-.15,1.94-.46,2.66-.31.71-.77,1.28-1.39,1.68-.62.41-1.32.62-2.1.64h0Z"/>
          <path class="cls-3" d="m92.81,612.49h-1.65v-1.43h1.65v1.43Zm10.03,0h-8.46v-1.43h8.46v1.43Z"/>
          <path class="cls-3" d="m102.85,608.87h-8.46v-1.28h1.19c-.42-.27-.75-.62-1-1.06s-.38-.94-.38-1.51c0-.63.13-1.14.39-1.54.26-.4.62-.68,1.09-.85-.99-.67-1.48-1.54-1.48-2.61,0-.84.23-1.49.7-1.94s1.18-.68,2.15-.68h5.81v1.43h-5.33c-.57,0-.99.05-1.24.14s-.46.26-.61.51c-.15.24-.23.53-.23.86,0,.6.2,1.09.59,1.48s1.03.59,1.9.59h4.92v1.43h-5.5c-.64,0-1.12.12-1.43.35-.32.23-.48.62-.48,1.15,0,.4.11.78.32,1.12.21.34.52.59.93.75.41.15,1,.23,1.77.23h4.39v1.43h-.01Z"/>
          <path class="cls-3" d="m106.09,595.27h-11.71v-1.31h1.1c-.43-.31-.75-.66-.97-1.04s-.32-.86-.32-1.41c0-.72.19-1.36.56-1.91s.9-.97,1.57-1.25c.68-.28,1.42-.42,2.23-.42.87,0,1.65.16,2.34.47s1.22.76,1.59,1.35c.37.59.55,1.22.55,1.87,0,.48-.1.91-.3,1.29s-.46.69-.77.94h4.12v1.43h.01Zm-7.43-1.3c1.09,0,1.89-.22,2.42-.66.52-.44.78-.98.78-1.6s-.27-1.18-.81-1.64c-.54-.45-1.38-.68-2.51-.68s-1.89.22-2.42.67c-.54.44-.81.97-.81,1.59s.29,1.15.86,1.62,1.4.71,2.49.71h0Z"/>
          <path class="cls-3" d="m102.85,586.22h-11.68v-1.44h11.68v1.44Z"/>
          <path class="cls-3" d="m100.12,576.77l.18-1.48c.87.23,1.54.67,2.02,1.3.48.63.72,1.44.72,2.42,0,1.24-.38,2.22-1.14,2.95s-1.83,1.09-3.21,1.09-2.53-.37-3.32-1.1-1.18-1.68-1.18-2.85.38-2.06,1.16-2.77,1.85-1.08,3.25-1.08h.38v6.31c.93-.05,1.64-.32,2.14-.79.49-.47.74-1.06.74-1.77,0-.53-.14-.98-.41-1.35s-.72-.67-1.32-.88h-.01Zm-2.32,4.71v-4.73c-.71.06-1.25.24-1.6.54-.55.46-.83,1.05-.83,1.78,0,.66.22,1.21.66,1.66s1.03.7,1.77.75Z"/>
          <path class="cls-3" d="m102.85,568.77h-11.68v-4.41c0-.78.04-1.37.11-1.78.1-.57.28-1.05.55-1.44s.64-.7,1.13-.94c.48-.24,1.02-.35,1.59-.35.99,0,1.83.32,2.52.95s1.03,1.77,1.03,3.43v3h4.75v1.55h0Zm-6.13-1.55v-3.02c0-1-.19-1.71-.56-2.13-.37-.42-.9-.63-1.57-.63-.49,0-.91.12-1.26.37s-.58.57-.69.98c-.07.26-.1.74-.1,1.44v2.99s4.18,0,4.18,0Z"/>
          <path class="cls-3" d="m102.85,558.1h-11.68v-1.44h11.68v1.44Z"/>
          <path class="cls-3" d="m100.12,548.64l.18-1.48c.87.23,1.54.67,2.02,1.3.48.63.72,1.44.72,2.42,0,1.24-.38,2.22-1.14,2.95s-1.83,1.09-3.21,1.09-2.53-.37-3.32-1.1-1.18-1.68-1.18-2.85.38-2.06,1.16-2.77,1.85-1.08,3.25-1.08h.38v6.31c.93-.05,1.64-.32,2.14-.79.49-.47.74-1.06.74-1.77,0-.53-.14-.98-.41-1.35s-.72-.67-1.32-.88h-.01Zm-2.32,4.71v-4.73c-.71.06-1.25.24-1.6.54-.55.46-.83,1.05-.83,1.78,0,.66.22,1.21.66,1.66s1.03.7,1.77.75Z"/>
          <path class="cls-3" d="m101.8,539.83c.45.53.77,1.04.96,1.53s.28,1.02.28,1.58c0,.93-.23,1.64-.68,2.14s-1.03.75-1.74.75c-.41,0-.79-.09-1.14-.28-.34-.19-.62-.44-.83-.74-.21-.31-.36-.65-.47-1.03-.08-.28-.15-.71-.22-1.28-.14-1.16-.3-2.01-.49-2.56h-.37c-.58,0-1,.14-1.24.41-.32.37-.49.91-.49,1.63,0,.68.12,1.17.35,1.49.24.32.66.56,1.25.71l-.19,1.4c-.6-.13-1.08-.34-1.45-.63s-.65-.71-.85-1.27-.3-1.19-.3-1.92.08-1.31.25-1.76.38-.78.64-1c.26-.21.58-.36.98-.45.24-.05.69-.07,1.32-.07h1.91c1.33,0,2.18-.03,2.53-.09s.69-.18,1.02-.36v1.5c-.3.15-.65.24-1.04.29h.01Zm-3.2.12c.21.52.39,1.3.54,2.34.08.59.18,1.01.29,1.25s.26.43.47.57c.21.13.43.2.68.2.38,0,.7-.14.96-.43.25-.29.38-.71.38-1.27s-.12-1.04-.36-1.47-.57-.75-.99-.95c-.32-.15-.8-.23-1.43-.23h-.54Z"/>
          <path class="cls-3" d="m100.32,536.85l-.22-1.42c.57-.08,1-.3,1.31-.67.3-.36.45-.87.45-1.53s-.13-1.15-.4-1.47-.58-.48-.94-.48c-.32,0-.58.14-.77.42-.13.2-.29.69-.49,1.47-.27,1.05-.5,1.78-.69,2.19s-.46.71-.8.92-.72.31-1.14.31c-.38,0-.73-.09-1.05-.26s-.59-.41-.8-.71c-.17-.22-.3-.53-.42-.91s-.17-.8-.17-1.24c0-.66.1-1.25.29-1.75.19-.5.45-.87.78-1.11.33-.24.76-.4,1.31-.49l.19,1.4c-.44.06-.78.25-1.02.55s-.37.74-.37,1.29c0,.66.11,1.13.33,1.41s.47.42.77.42c.19,0,.35-.06.5-.18s.28-.3.38-.55c.05-.14.17-.57.37-1.27.27-1.02.49-1.72.67-2.12.17-.4.42-.72.75-.94s.74-.34,1.23-.34.93.14,1.35.42.75.68.98,1.21.35,1.12.35,1.79c0,1.1-.23,1.94-.69,2.51s-1.13.94-2.03,1.1v.03Z"/>
          <path class="cls-3" d="m102.85,522.57h-1.24c.96.66,1.43,1.55,1.43,2.69,0,.5-.1.97-.29,1.4s-.43.75-.72.96-.64.36-1.06.44c-.28.06-.73.09-1.34.09h-5.25v-1.44h4.7c.75,0,1.25-.03,1.51-.09.38-.09.67-.28.89-.57.21-.29.32-.65.32-1.08s-.11-.83-.33-1.21-.52-.64-.9-.8-.93-.24-1.65-.24h-4.54v-1.43h8.46v1.28h.01Z"/>
          <path class="cls-3" d="m102.85,519.06h-8.46v-1.29h1.28c-.6-.33-1-.63-1.19-.91s-.29-.59-.29-.92c0-.48.15-.98.46-1.47l1.33.49c-.21.35-.31.7-.31,1.05,0,.31.09.6.28.84.19.25.45.43.79.53.51.16,1.07.24,1.67.24h4.43v1.43h.01Z"/>
          <path class="cls-3" d="m100.12,507.81l.18-1.48c.87.23,1.54.67,2.02,1.3.48.63.72,1.44.72,2.42,0,1.24-.38,2.22-1.14,2.95s-1.83,1.09-3.21,1.09-2.53-.37-3.32-1.1-1.18-1.68-1.18-2.85.38-2.06,1.16-2.77,1.85-1.08,3.25-1.08h.38v6.31c.93-.05,1.64-.32,2.14-.79.49-.47.74-1.06.74-1.77,0-.53-.14-.98-.41-1.35s-.72-.67-1.32-.88h-.01Zm-2.32,4.71v-4.73c-.71.06-1.25.24-1.6.54-.55.46-.83,1.05-.83,1.78,0,.66.22,1.21.66,1.66s1.03.7,1.77.75Z"/>
          <path class="cls-3" d="m100.32,505.1l-.22-1.42c.57-.08,1-.3,1.31-.67.3-.36.45-.87.45-1.53s-.13-1.15-.4-1.47-.58-.48-.94-.48c-.32,0-.58.14-.77.42-.13.2-.29.69-.49,1.47-.27,1.05-.5,1.78-.69,2.19s-.46.71-.8.92-.72.31-1.14.31c-.38,0-.73-.09-1.05-.26s-.59-.41-.8-.71c-.17-.22-.3-.53-.42-.91s-.17-.8-.17-1.24c0-.66.1-1.25.29-1.75.19-.5.45-.87.78-1.11.33-.24.76-.4,1.31-.49l.19,1.4c-.44.06-.78.25-1.02.55s-.37.74-.37,1.29c0,.66.11,1.13.33,1.41s.47.42.77.42c.19,0,.35-.06.5-.18s.28-.3.38-.55c.05-.14.17-.57.37-1.27.27-1.02.49-1.72.67-2.12.17-.4.42-.72.75-.94s.74-.34,1.23-.34.93.14,1.35.42.75.68.98,1.21.35,1.12.35,1.79c0,1.1-.23,1.94-.69,2.51s-1.13.94-2.03,1.1v.03Z"/>
        </g>
        <g>
          <g>
            <path class="cls-3" d="m93.06,375.15l-11.68-4.49v-1.67l11.68-4.78v1.76l-3.54,1.36v4.89l3.54,1.28v1.64h0Zm-4.8-3.37v-3.96l-3.24,1.22c-.98.37-1.79.65-2.42.83.75.15,1.49.36,2.23.63,0,0,3.43,1.28,3.43,1.28Z"/>
            <path class="cls-3" d="m93.06,363.2h-11.68v-1.44h11.68v1.44Z"/>
            <path class="cls-3" d="m90.33,353.74l.18-1.48c.87.23,1.54.67,2.02,1.3s.72,1.44.72,2.42c0,1.24-.38,2.22-1.14,2.95s-1.83,1.09-3.21,1.09-2.53-.37-3.32-1.1-1.18-1.68-1.18-2.85.39-2.06,1.16-2.77,1.85-1.08,3.25-1.08h.38v6.31c.93-.05,1.64-.32,2.14-.79.49-.47.74-1.06.74-1.77,0-.53-.14-.98-.42-1.35s-.72-.67-1.32-.88Zm-2.32,4.71v-4.73c-.71.06-1.25.24-1.6.54-.55.46-.83,1.05-.83,1.78,0,.66.22,1.21.66,1.66s1.03.7,1.77.75Z"/>
            <path class="cls-3" d="m93.06,351.42l-4.4-3.09-4.06,2.86v-1.79l1.98-1.3c.38-.24.69-.44.95-.59-.35-.23-.66-.45-.93-.65l-2-1.43v-1.71l3.99,2.92,4.48-3.15v1.76l-2.63,1.74-.71.46,3.34,2.22v1.74h0Z"/>
            <path class="cls-3" d="m89.3,338.11l-.13-1.46c.58-.07,1.06-.23,1.44-.48.38-.25.68-.64.91-1.18.23-.53.35-1.13.35-1.79,0-.59-.09-1.11-.26-1.56s-.42-.79-.72-1.01c-.31-.22-.64-.33-1-.33s-.69.11-.96.32c-.27.21-.5.56-.69,1.05-.12.31-.31,1.01-.57,2.08-.26,1.07-.5,1.83-.73,2.26-.29.56-.66.97-1.09,1.25-.43.27-.92.41-1.45.41-.59,0-1.14-.17-1.65-.5-.51-.33-.9-.82-1.17-1.47-.27-.64-.4-1.36-.4-2.14,0-.87.14-1.63.42-2.29s.69-1.17,1.23-1.53,1.16-.55,1.84-.57l.11,1.48c-.74.08-1.3.35-1.67.81-.38.46-.57,1.14-.57,2.04s.17,1.62.51,2.04.76.64,1.24.64c.42,0,.76-.15,1.04-.45.27-.3.55-1.07.83-2.33.28-1.26.53-2.12.75-2.59.31-.68.71-1.18,1.19-1.51.48-.32,1.04-.49,1.66-.49s1.21.18,1.76.53c.55.36.98.87,1.28,1.53.31.67.46,1.42.46,2.25,0,1.06-.15,1.94-.46,2.66-.31.71-.77,1.28-1.39,1.68-.62.41-1.32.62-2.1.64h0Z"/>
            <path class="cls-3" d="m83.02,326.87h-1.65v-1.43h1.65v1.43Zm10.04,0h-8.46v-1.43h8.46v1.43Z"/>
            <path class="cls-3" d="m93.06,323.25h-8.46v-1.29h1.2c-.93-.62-1.39-1.52-1.39-2.69,0-.51.09-.98.28-1.41.18-.43.42-.75.72-.96.3-.21.65-.36,1.06-.45.27-.05.73-.08,1.39-.08h5.21v1.43h-5.15c-.58,0-1.02.06-1.31.17s-.52.31-.69.59-.26.62-.26,1c0,.61.19,1.14.58,1.58.39.44,1.12.67,2.21.67h4.62v1.43h-.01Z"/>
            <path class="cls-3" d="m93.76,314.43l.21-1.4c.43-.06.74-.22.94-.49.27-.36.4-.84.4-1.46,0-.66-.13-1.18-.4-1.54s-.64-.61-1.12-.73c-.29-.07-.91-.11-1.84-.1.74.63,1.11,1.41,1.11,2.34,0,1.16-.42,2.06-1.26,2.7s-1.85.96-3.02.96c-.81,0-1.55-.15-2.24-.44-.68-.29-1.21-.72-1.58-1.27-.37-.56-.56-1.21-.56-1.96,0-1,.4-1.82,1.21-2.47h-1.02v-1.32h7.32c1.32,0,2.25.13,2.8.4.55.27.98.69,1.3,1.28.32.58.48,1.3.48,2.15,0,1.01-.23,1.83-.68,2.45-.46.62-1.14.92-2.05.9h0Zm-5.08-1.19c1.11,0,1.92-.22,2.43-.66s.77-.99.77-1.66-.25-1.21-.76-1.66-1.3-.67-2.39-.67-1.82.23-2.34.69c-.53.46-.79,1.01-.79,1.66s.26,1.18.78,1.63c.52.45,1.29.67,2.31.67h-.01Z"/>
            <path class="cls-3" d="m93.06,305.09h-11.68v-1.43h4.19c-.78-.67-1.16-1.51-1.16-2.53,0-.63.12-1.17.37-1.63s.59-.79,1.02-.99c.44-.2,1.07-.3,1.9-.3h5.36v1.44h-5.36c-.72,0-1.24.16-1.57.47-.33.31-.49.75-.49,1.32,0,.43.11.83.33,1.2s.52.64.9.8.9.24,1.56.24h4.63v1.43-.02Z"/>
          </g>
          <g>
            <path class="cls-3" d="m112.64,372.52l-8.46,2.59v-1.48l4.89-1.35,1.82-.5c-.09-.02-.67-.17-1.75-.44l-4.96-1.35v-1.47l4.91-1.27,1.62-.42-1.63-.49-4.89-1.45v-1.39l8.46,2.65v1.49l-5.07,1.35-1.44.33,6.51,1.71v1.5h-.01Z"/>
            <path class="cls-3" d="m102.61,362.28h-1.65v-1.43h1.65v1.43Zm10.03,0h-8.46v-1.43h8.46v1.43Z"/>
            <path class="cls-3" d="m111.36,355.53l1.27-.21c.08.4.13.77.13,1.08,0,.52-.08.92-.25,1.21-.17.29-.38.49-.65.61-.27.12-.83.18-1.69.18h-4.87v1.05h-1.12v-1.05h-2.1l-.86-1.43h2.96v-1.44h1.12v1.44h4.95c.41,0,.67-.03.79-.08s.21-.13.28-.25c.07-.11.1-.28.1-.49,0-.16-.02-.37-.06-.63h0Z"/>
            <path class="cls-3" d="m112.64,354.13h-11.68v-1.43h4.19c-.78-.67-1.16-1.51-1.16-2.53,0-.63.12-1.17.37-1.63s.59-.79,1.02-.99,1.07-.3,1.9-.3h5.36v1.44h-5.36c-.72,0-1.24.16-1.57.47s-.49.75-.49,1.32c0,.43.11.83.33,1.2.22.37.52.64.9.8.38.16.9.24,1.56.24h4.63v1.43-.02Z"/>
            <path class="cls-3" d="m112.64,342.5l-11.68-4.49v-1.67l11.68-4.78v1.76l-3.54,1.36v4.89l3.54,1.28v1.64h0Zm-4.8-3.37v-3.96l-3.24,1.22c-.98.37-1.79.65-2.42.83.75.15,1.49.36,2.23.63,0,0,3.43,1.28,3.43,1.28Z"/>
            <path class="cls-3" d="m112.64,330.52h-8.46v-1.29h1.28c-.6-.33-1-.63-1.19-.91s-.29-.59-.29-.92c0-.48.15-.98.46-1.47l1.33.49c-.21.35-.31.7-.31,1.05,0,.31.09.6.28.84.19.25.45.43.79.53.51.16,1.07.24,1.67.24h4.43v1.43h.01Z"/>
            <path class="cls-3" d="m109.92,319.28l.18-1.48c.87.23,1.54.67,2.02,1.3.48.63.72,1.44.72,2.42,0,1.24-.38,2.22-1.14,2.95s-1.83,1.09-3.21,1.09-2.53-.37-3.32-1.1c-.79-.73-1.18-1.68-1.18-2.85s.38-2.06,1.16-2.77,1.85-1.08,3.25-1.08h.38v6.31c.93-.05,1.64-.32,2.14-.79.49-.47.74-1.06.74-1.77,0-.53-.14-.98-.41-1.35s-.72-.67-1.32-.88h0Zm-2.32,4.71v-4.73c-.71.06-1.25.24-1.6.54-.55.46-.83,1.05-.83,1.78,0,.66.22,1.21.66,1.66s1.03.7,1.77.75Z"/>
            <path class="cls-3" d="m112.64,315.59h-1.63v-1.63h1.63v1.63Z"/>
            <path class="cls-3" d="m112.64,311.46h-8.46v-1.29h1.2c-.93-.62-1.39-1.52-1.39-2.69,0-.51.09-.98.27-1.41.18-.43.42-.75.72-.96s.65-.36,1.06-.45c.27-.05.73-.08,1.4-.08h5.2v1.43h-5.15c-.58,0-1.02.06-1.31.17s-.52.31-.69.59c-.17.28-.26.62-.26,1,0,.61.19,1.14.58,1.58s1.12.67,2.21.67h4.62v1.43h0Z"/>
            <path class="cls-3" d="m111.6,296.86c.45.53.77,1.04.96,1.53s.28,1.02.28,1.58c0,.93-.23,1.64-.68,2.14s-1.03.75-1.74.75c-.41,0-.79-.09-1.14-.28-.34-.19-.62-.44-.83-.74-.21-.31-.36-.65-.47-1.03-.08-.28-.15-.71-.22-1.28-.14-1.16-.3-2.01-.49-2.56h-.37c-.58,0-1,.14-1.24.41-.32.37-.49.91-.49,1.63,0,.68.12,1.17.35,1.49.24.32.66.56,1.25.71l-.19,1.4c-.6-.13-1.08-.34-1.45-.63-.37-.29-.65-.71-.85-1.27s-.3-1.19-.3-1.92.08-1.31.25-1.76.38-.78.64-1c.26-.21.58-.36.98-.45.24-.05.69-.07,1.32-.07h1.91c1.33,0,2.18-.03,2.53-.09s.69-.18,1.02-.36v1.5c-.3.15-.65.24-1.04.29h.01Zm-3.2.12c.21.52.39,1.3.54,2.34.08.59.18,1.01.29,1.25s.26.43.47.57c.21.13.43.2.68.2.38,0,.7-.14.96-.43.25-.29.38-.71.38-1.27s-.12-1.04-.36-1.47c-.24-.43-.57-.75-.99-.95-.32-.15-.8-.23-1.43-.23h-.54Z"/>
          </g>
        </g>
      </g>
      <g>
        <path class="cls-3" d="m254.37,831.08v1.67h-1.54v-1.31c0-.71.08-1.23.25-1.55.22-.43.58-.75,1.06-.96l.35.56c-.29.12-.51.3-.65.55-.14.24-.21.59-.23,1.06h.75v-.02Zm2.47,0v1.67h-1.54v-1.31c0-.71.08-1.23.25-1.55.22-.43.58-.75,1.06-.96l.35.56c-.29.12-.51.3-.65.55-.14.24-.21.59-.23,1.06h.75v-.02Z"/>
        <path class="cls-3" d="m257.91,840.8v-11.68h4.38c.89,0,1.61.12,2.15.35.54.24.96.6,1.27,1.09.31.49.46,1.01.46,1.54,0,.5-.14.97-.41,1.41s-.68.8-1.23,1.07c.71.21,1.25.56,1.63,1.06s.57,1.09.57,1.77c0,.55-.12,1.06-.35,1.53-.23.47-.52.83-.86,1.09-.34.25-.77.45-1.28.58s-1.14.2-1.89.2h-4.46.02Zm1.55-6.77h2.53c.69,0,1.18-.04,1.47-.14.39-.12.69-.31.89-.58s.3-.61.3-1.02-.09-.73-.28-1.02-.45-.5-.8-.61-.94-.16-1.78-.16h-2.34v3.53h0Zm0,5.4h2.91c.5,0,.85-.02,1.05-.06.36-.06.65-.17.89-.32s.44-.37.59-.65.23-.61.23-.98c0-.44-.11-.81-.33-1.14-.22-.32-.53-.55-.93-.68s-.97-.2-1.71-.2h-2.7v4.02h0Z"/>
        <path class="cls-3" d="m273.3,839.76c-.53.45-1.04.77-1.53.96s-1.02.28-1.58.28c-.93,0-1.64-.23-2.14-.68s-.75-1.03-.75-1.74c0-.41.09-.79.28-1.14s.44-.62.74-.82c.31-.21.65-.36,1.03-.47.28-.07.71-.15,1.28-.22,1.16-.14,2.01-.3,2.56-.49v-.37c0-.58-.14-1-.41-1.24-.37-.32-.91-.49-1.63-.49-.68,0-1.17.12-1.5.35-.32.24-.56.66-.71,1.26l-1.4-.19c.13-.6.34-1.08.63-1.45.29-.37.71-.65,1.27-.85s1.19-.3,1.92-.3,1.31.08,1.76.25.78.38,1,.64c.21.26.36.58.45.98.05.24.07.69.07,1.32v1.91c0,1.33.03,2.18.09,2.53s.18.69.36,1.02h-1.5c-.15-.3-.24-.65-.29-1.04h0Zm-.12-3.2c-.52.21-1.3.39-2.34.54-.59.08-1.01.18-1.25.29-.25.11-.43.26-.57.47s-.2.43-.2.68c0,.38.14.7.43.96.29.25.71.38,1.27.38s1.04-.12,1.47-.36c.43-.24.75-.57.95-.99.15-.32.23-.8.23-1.43v-.53h.01Z"/>
        <path class="cls-3" d="m281.48,837.7l1.41.18c-.15.97-.55,1.73-1.18,2.28-.63.55-1.42.83-2.34.83-1.16,0-2.09-.38-2.79-1.14s-1.06-1.84-1.06-3.26c0-.91.15-1.71.45-2.4s.76-1.2,1.38-1.54c.62-.34,1.29-.51,2.02-.51.92,0,1.67.23,2.26.7.58.46.96,1.12,1.12,1.98l-1.39.22c-.13-.57-.37-1-.71-1.28-.34-.29-.75-.43-1.22-.43-.72,0-1.31.26-1.76.78s-.68,1.34-.68,2.46.22,1.96.65,2.48c.44.52,1,.77,1.71.77.56,0,1.03-.17,1.41-.52.38-.35.62-.88.72-1.59h0Z"/>
        <path class="cls-3" d="m283.23,840.8v-11.68h1.43v6.66l3.4-3.44h1.86l-3.24,3.14,3.56,5.32h-1.77l-2.8-4.33-1.01.97v3.36h-1.43,0Z"/>
        <path class="cls-3" d="m297.25,839.52l.21,1.27c-.4.08-.76.13-1.08.13-.52,0-.92-.08-1.21-.25-.29-.17-.49-.38-.61-.65s-.17-.83-.17-1.69v-4.87h-1.05v-1.12h1.05v-2.1l1.43-.86v2.96h1.44v1.12h-1.44v4.95c0,.41.03.67.08.79s.13.21.25.28c.11.07.28.1.49.1.16,0,.37-.02.63-.06h-.02Z"/>
        <path class="cls-3" d="m297.23,836.57c0-1.57.44-2.73,1.31-3.48.73-.63,1.62-.94,2.66-.94,1.16,0,2.11.38,2.85,1.14.74.76,1.11,1.82,1.11,3.16,0,1.09-.16,1.95-.49,2.57s-.8,1.11-1.43,1.45c-.62.35-1.31.52-2.04.52-1.19,0-2.14-.38-2.87-1.14-.73-.76-1.1-1.85-1.1-3.28Zm1.47,0c0,1.08.24,1.9.71,2.44s1.07.81,1.79.81,1.3-.27,1.78-.81.71-1.37.71-2.48c0-1.05-.24-1.84-.71-2.38-.48-.54-1.07-.81-1.77-.81s-1.31.27-1.79.81c-.47.54-.71,1.35-.71,2.43h-.01Z"/>
        <path class="cls-3" d="m309.55,840.8v-11.68h1.43v11.68h-1.43Z"/>
        <path class="cls-3" d="m312.31,830.77v-1.65h1.43v1.65h-1.43Zm0,10.03v-8.46h1.43v8.46h-1.43Z"/>
        <path class="cls-3" d="m315.38,840.8v-7.35h-1.27v-1.12h1.27v-.9c0-.57.05-.99.15-1.27.14-.37.38-.67.73-.9.35-.23.83-.35,1.46-.35.4,0,.85.05,1.34.14l-.22,1.25c-.3-.05-.58-.08-.84-.08-.44,0-.74.09-.92.28-.18.19-.27.53-.27,1.04v.78h1.65v1.12h-1.65v7.35h-1.43Z"/>
        <path class="cls-3" d="m324.47,838.07l1.48.18c-.23.87-.67,1.54-1.3,2.02-.63.48-1.44.72-2.42.72-1.24,0-2.22-.38-2.95-1.14s-1.09-1.83-1.09-3.21.37-2.53,1.1-3.32,1.68-1.18,2.85-1.18,2.06.39,2.77,1.16c.72.77,1.08,1.85,1.08,3.25v.38h-6.31c.05.93.32,1.64.79,2.14s1.06.74,1.77.74c.53,0,.97-.14,1.35-.41s.67-.72.88-1.32h0Zm-4.71-2.32h4.73c-.06-.71-.25-1.25-.54-1.6-.46-.55-1.05-.83-1.78-.83-.66,0-1.21.22-1.66.66s-.7,1.03-.75,1.77Z"/>
        <path class="cls-3" d="m329.41,841l3.39-12.08h1.15l-3.38,12.08h-1.16Z"/>
        <path class="cls-3" d="m339.09,840.8h-1.33v-11.68h1.44v4.17c.61-.76,1.38-1.14,2.32-1.14.52,0,1.01.1,1.48.31.46.21.85.5,1.15.88s.54.84.71,1.38.25,1.11.25,1.72c0,1.45-.36,2.57-1.08,3.36s-1.58,1.19-2.58,1.19-1.78-.42-2.35-1.25v1.06h-.01Zm-.02-4.3c0,1.01.14,1.75.42,2.2.45.74,1.06,1.11,1.83,1.11.63,0,1.17-.27,1.63-.82.46-.54.69-1.36.69-2.44s-.22-1.92-.66-2.45-.97-.79-1.59-.79-1.17.27-1.63.82c-.46.54-.69,1.33-.69,2.36h0Z"/>
        <path class="cls-3" d="m351.47,839.76c-.53.45-1.04.77-1.53.96s-1.02.28-1.58.28c-.93,0-1.64-.23-2.14-.68s-.75-1.03-.75-1.74c0-.41.09-.79.28-1.14.19-.34.44-.62.74-.82.3-.21.65-.36,1.03-.47.28-.07.71-.15,1.28-.22,1.16-.14,2.01-.3,2.56-.49v-.37c0-.58-.13-1-.41-1.24-.37-.32-.91-.49-1.63-.49-.67,0-1.17.12-1.49.35-.32.24-.56.66-.71,1.26l-1.4-.19c.13-.6.34-1.08.63-1.45s.71-.65,1.27-.85,1.19-.3,1.92-.3,1.31.08,1.76.25.78.38,1,.64.36.58.45.98c.05.24.07.69.07,1.32v1.91c0,1.33.03,2.18.09,2.53.06.35.18.69.36,1.02h-1.5c-.15-.3-.25-.65-.29-1.04h-.01Zm-.12-3.2c-.52.21-1.3.39-2.34.54-.59.08-1.01.18-1.25.29s-.43.26-.57.47-.2.43-.2.68c0,.38.14.7.43.96.29.25.71.38,1.27.38s1.04-.12,1.47-.36.75-.57.95-.99c.15-.32.23-.8.23-1.43v-.53h.01Z"/>
        <path class="cls-3" d="m359.65,837.7l1.41.18c-.15.97-.55,1.73-1.18,2.28-.63.55-1.41.83-2.34.83-1.16,0-2.09-.38-2.79-1.14s-1.06-1.84-1.06-3.26c0-.91.15-1.71.45-2.4s.76-1.2,1.38-1.54c.62-.34,1.29-.51,2.02-.51.92,0,1.67.23,2.26.7.58.46.96,1.12,1.12,1.98l-1.4.22c-.13-.57-.37-1-.71-1.28-.34-.29-.75-.43-1.22-.43-.72,0-1.31.26-1.76.78s-.68,1.34-.68,2.46.22,1.96.65,2.48c.44.52,1,.77,1.71.77.56,0,1.03-.17,1.41-.52s.62-.88.72-1.59h0Z"/>
        <path class="cls-3" d="m361.4,840.8v-11.68h1.43v6.66l3.4-3.44h1.86l-3.24,3.14,3.56,5.32h-1.77l-2.8-4.33-1.01.97v3.36h-1.43Z"/>
        <path class="cls-3" d="m375.42,839.52l.21,1.27c-.4.08-.77.13-1.08.13-.52,0-.92-.08-1.21-.25-.29-.17-.49-.38-.61-.65s-.18-.83-.18-1.69v-4.87h-1.05v-1.12h1.05v-2.1l1.43-.86v2.96h1.44v1.12h-1.44v4.95c0,.41.03.67.08.79s.13.21.25.28c.11.07.28.1.49.1.16,0,.37-.02.63-.06h-.01Z"/>
        <path class="cls-3" d="m375.4,836.57c0-1.57.44-2.73,1.31-3.48.73-.63,1.62-.94,2.66-.94,1.16,0,2.12.38,2.85,1.14.74.76,1.11,1.82,1.11,3.16,0,1.09-.16,1.95-.49,2.57s-.8,1.11-1.43,1.45c-.62.35-1.31.52-2.04.52-1.18,0-2.14-.38-2.87-1.14-.73-.76-1.1-1.85-1.1-3.28Zm1.47,0c0,1.08.24,1.9.71,2.44s1.07.81,1.79.81,1.3-.27,1.78-.81c.47-.54.71-1.37.71-2.48,0-1.05-.24-1.84-.71-2.38-.48-.54-1.07-.81-1.77-.81s-1.31.27-1.79.81-.71,1.35-.71,2.43h-.01Z"/>
        <path class="cls-3" d="m387.73,840.8v-8.46h1.29v1.28c.33-.6.63-1,.91-1.19s.59-.29.92-.29c.48,0,.98.15,1.47.46l-.49,1.33c-.35-.21-.7-.31-1.05-.31-.31,0-.6.09-.84.28-.25.19-.43.45-.53.79-.16.51-.24,1.07-.24,1.67v4.43h-1.44Z"/>
        <path class="cls-3" d="m398.08,838.07l1.48.18c-.23.87-.67,1.54-1.3,2.02-.63.48-1.44.72-2.42.72-1.24,0-2.22-.38-2.95-1.14-.72-.76-1.09-1.83-1.09-3.21s.37-2.53,1.1-3.32,1.68-1.18,2.85-1.18,2.06.39,2.77,1.16c.72.77,1.08,1.85,1.08,3.25v.38h-6.31c.05.93.32,1.64.79,2.14.47.49,1.06.74,1.77.74.53,0,.98-.14,1.35-.41s.67-.72.88-1.32h0Zm-4.71-2.32h4.73c-.06-.71-.24-1.25-.54-1.6-.46-.55-1.05-.83-1.78-.83-.66,0-1.21.22-1.66.66s-.7,1.03-.75,1.77Z"/>
        <path class="cls-3" d="m405.99,839.76c-.53.45-1.04.77-1.53.96s-1.02.28-1.58.28c-.93,0-1.64-.23-2.14-.68s-.75-1.03-.75-1.74c0-.41.09-.79.28-1.14s.44-.62.74-.82c.31-.21.65-.36,1.03-.47.28-.07.71-.15,1.28-.22,1.16-.14,2.01-.3,2.56-.49v-.37c0-.58-.14-1-.41-1.24-.37-.32-.91-.49-1.63-.49-.68,0-1.17.12-1.5.35-.32.24-.56.66-.71,1.26l-1.4-.19c.13-.6.34-1.08.63-1.45s.71-.65,1.27-.85,1.19-.3,1.92-.3,1.31.08,1.76.25.78.38,1,.64c.21.26.36.58.45.98.05.24.07.69.07,1.32v1.91c0,1.33.03,2.18.09,2.53s.18.69.36,1.02h-1.5c-.15-.3-.24-.65-.29-1.04h0Zm-.12-3.2c-.52.21-1.3.39-2.34.54-.59.08-1.01.18-1.25.29-.25.11-.43.26-.57.47s-.2.43-.2.68c0,.38.14.7.43.96.29.25.71.38,1.27.38s1.04-.12,1.47-.36.75-.57.95-.99c.15-.32.23-.8.23-1.43v-.53h.01Z"/>
        <path class="cls-3" d="m408.61,840.8v-11.68h1.44v11.68h-1.44Z"/>
        <path class="cls-3" d="m411.38,830.77v-1.65h1.43v1.65h-1.43Zm0,10.03v-8.46h1.43v8.46h-1.43Z"/>
        <path class="cls-3" d="m417.24,839.52l.21,1.27c-.4.08-.76.13-1.08.13-.52,0-.92-.08-1.21-.25-.29-.17-.49-.38-.61-.65s-.17-.83-.17-1.69v-4.87h-1.05v-1.12h1.05v-2.1l1.43-.86v2.96h1.44v1.12h-1.44v4.95c0,.41.03.67.08.79s.13.21.25.28c.11.07.28.1.49.1.16,0,.37-.02.63-.06h-.02Z"/>
        <path class="cls-3" d="m417.68,844.06l-.16-1.35c.31.08.59.13.82.13.32,0,.57-.05.77-.16.19-.11.35-.25.47-.45.09-.14.24-.5.44-1.07.03-.08.07-.2.13-.35l-3.21-8.48h1.55l1.76,4.9c.23.62.43,1.28.61,1.96.17-.66.36-1.3.59-1.93l1.81-4.93h1.43l-3.22,8.61c-.35.93-.61,1.57-.81,1.92-.25.47-.55.82-.88,1.04-.33.22-.72.33-1.18.33-.28,0-.58-.06-.92-.18h0Z"/>
        <path class="cls-3" d="m424.62,830.66v-1.67h1.54v1.31c0,.71-.08,1.23-.25,1.54-.23.43-.58.75-1.07.97l-.35-.57c.29-.12.5-.3.64-.55s.22-.6.24-1.04h-.75Zm2.47,0v-1.67h1.54v1.31c0,.71-.08,1.23-.25,1.54-.23.43-.58.75-1.07.97l-.35-.57c.29-.12.5-.3.64-.55s.22-.6.24-1.04h-.75Z"/>
      </g>
      <path class="cls-3" d="m359.78,117.93l-5.34-4.19c-.33-.26-.33-.68,0-.93l5.34-4.19c.33-.26.46-.69.3-.96s-.61-.37-.99-.21l-6.35,2.53c-.39.15-.75-.06-.81-.47l-.95-6.78c-.06-.41-.37-.75-.69-.75s-.63.34-.69.75l-.95,6.78c-.06.41-.42.62-.81.47l-6.24-2.49c-.39-.15-1.02-.15-1.4,0l-6.24,2.49c-.39.15-.75-.06-.81-.47l-.95-6.78c-.06-.41-.37-.75-.69-.75s-.63.34-.69.75l-.95,6.78c-.06.41-.42.62-.81.47l-6.35-2.53c-.39-.15-.83-.06-.99.21s-.02.71.3.96l5.34,4.19c.33.26.33.68,0,.93l-5.34,4.19c-.33.26-.46.72-.3,1.02s.61.43.99.27l6.29-2.53c.39-.15.75.06.8.47l.91,6.84c.05.41.41.75.8.75s.74-.34.8-.75l.91-6.84c.05-.41.41-.62.8-.47l6.19,2.48c.39.15,1.02.15,1.4,0l6.19-2.48c.39-.15.75.06.8.47l.91,6.84c.05.41.41.75.8.75s.74-.34.8-.75l.91-6.84c.05-.41.41-.62.8-.47l6.29,2.53c.38.15.83.03.99-.27s.02-.76-.3-1.02h-.02Zm-13.58-4.14l-4.7,3.62c-.33.25-.87.25-1.2,0l-4.7-3.62c-.33-.25-.33-.67,0-.93l4.71-3.71c.33-.26.86-.26,1.19,0l4.71,3.71c.33.26.32.67,0,.93h0Z"/>
    </g>
  </g>
</svg>