<?xml version="1.0" encoding="UTF-8"?>
<svg id="Layer_2" data-name="Layer 2" xmlns="http://www.w3.org/2000/svg" viewBox="0 0 2379.45 1731.86">
  <defs>
    <style>
      .cls-1 {
        fill: none;
        stroke-linecap: round;
        stroke-linejoin: round;
        stroke-width: 1.28px;
      }

      .cls-1, .cls-2 {
        stroke: #000;
      }

      .cls-2 {
        fill: #fff;
        stroke-miterlimit: 10;
        stroke-width: .85px;
      }

      .cls-3 {
        stroke-width: 0px;
      }
    </style>
  </defs>
  <g id="TEXT">
    <g>
      <rect class="cls-2" x="2144.59" y="399.52" width="197.77" height="874.78"/>
      <g>
        <g>
          <path class="cls-3" d="m2253.45,1204.23l-19.92-7.66v-2.85l19.92-8.15v3l-6.04,2.32v8.34l6.04,2.18v2.81Zm-8.19-5.75v-6.75l-5.53,2.08c-1.67.63-3.05,1.11-4.13,1.42,1.28.26,2.54.61,3.8,1.07l5.85,2.18Z"/>
          <path class="cls-3" d="m2246.46,1163.05l.67-2.64c2.17.55,3.82,1.55,4.96,2.99s1.71,3.19,1.71,5.27-.44,3.89-1.31,5.24-2.15,2.37-3.8,3.07-3.45,1.06-5.34,1.06c-2.08,0-3.89-.39-5.42-1.19-1.55-.78-2.71-1.93-3.51-3.38-.8-1.47-1.21-3.07-1.21-4.83,0-2,.51-3.67,1.52-5.03,1.02-1.36,2.44-2.3,4.28-2.85l.61,2.59c-1.45.46-2.51,1.13-3.17,2.01s-.99,1.98-.99,3.31c0,1.54.36,2.81,1.11,3.84s1.72,1.76,2.95,2.17c1.25.41,2.51.63,3.82.63,1.69,0,3.17-.24,4.44-.73s2.2-1.26,2.83-2.3.94-2.17.94-3.38c0-1.48-.43-2.73-1.28-3.75-.85-1.02-2.12-1.72-3.79-2.08h0Z"/>
          <path class="cls-3" d="m2251.66,1148.06c.77.9,1.31,1.77,1.64,2.61.32.84.48,1.74.48,2.7,0,1.59-.39,2.8-1.16,3.65-.77.85-1.76,1.28-2.97,1.28-.7,0-1.35-.15-1.94-.48-.58-.32-1.06-.75-1.42-1.26-.36-.53-.61-1.11-.8-1.76-.14-.48-.26-1.21-.38-2.18-.24-1.98-.51-3.43-.84-4.37h-.63c-.99,0-1.71.24-2.12.7-.55.63-.84,1.55-.84,2.78,0,1.16.2,2,.6,2.54.41.55,1.13.96,2.13,1.21l-.32,2.39c-1.02-.22-1.84-.58-2.47-1.07s-1.11-1.21-1.45-2.17-.51-2.03-.51-3.28.14-2.23.43-3,.65-1.33,1.09-1.71c.44-.36.99-.61,1.67-.77.41-.09,1.18-.12,2.25-.12h3.26c2.27,0,3.72-.05,4.32-.15s1.18-.31,1.74-.61v2.56c-.51.26-1.11.41-1.77.49l.02.02Zm-5.46.2c.36.89.67,2.22.92,3.99.14,1.01.31,1.72.49,2.13s.44.73.8.97c.36.22.73.34,1.16.34.65,0,1.19-.24,1.64-.73.43-.49.65-1.21.65-2.17s-.2-1.77-.61-2.51-.97-1.28-1.69-1.62c-.55-.26-1.36-.39-2.44-.39h-.9l-.02-.02Z"/>
          <path class="cls-3" d="m2251.25,1136.65l2.17-.36c.14.68.22,1.31.22,1.84,0,.89-.14,1.57-.43,2.06-.29.49-.65.84-1.11,1.04s-1.42.31-2.88.31h-8.31v1.79h-1.91v-1.79h-3.58l-1.47-2.44h5.05v-2.46h1.91v2.46h8.44c.7,0,1.14-.05,1.35-.14s.36-.22.48-.43c.12-.19.17-.48.17-.84,0-.27-.03-.63-.1-1.07v.02Z"/>
          <path class="cls-3" d="m2251.66,1124.83c.77.9,1.31,1.77,1.64,2.61.32.84.48,1.74.48,2.7,0,1.59-.39,2.8-1.16,3.65-.77.85-1.76,1.28-2.97,1.28-.7,0-1.35-.15-1.94-.48-.58-.32-1.06-.75-1.42-1.26-.36-.53-.61-1.11-.8-1.76-.14-.48-.26-1.21-.38-2.18-.24-1.98-.51-3.43-.84-4.37h-.63c-.99,0-1.71.24-2.12.7-.55.63-.84,1.55-.84,2.78,0,1.16.2,2,.6,2.54.41.55,1.13.96,2.13,1.21l-.32,2.39c-1.02-.22-1.84-.58-2.47-1.07s-1.11-1.21-1.45-2.17-.51-2.03-.51-3.28.14-2.23.43-3,.65-1.33,1.09-1.71c.44-.36.99-.61,1.67-.77.41-.09,1.18-.12,2.25-.12h3.26c2.27,0,3.72-.05,4.32-.15s1.18-.31,1.74-.61v2.56c-.51.26-1.11.41-1.77.49l.02.02Zm-5.46.2c.36.89.67,2.22.92,3.99.14,1.01.31,1.72.49,2.13s.44.73.8.97c.36.22.73.34,1.16.34.65,0,1.19-.24,1.64-.73.43-.49.65-1.21.65-2.17s-.2-1.77-.61-2.51-.97-1.28-1.69-1.62c-.55-.26-1.36-.39-2.44-.39h-.9l-.02-.02Z"/>
          <path class="cls-3" d="m2253.45,1118.82h-19.92v-2.46h19.92v2.46Z"/>
          <path class="cls-3" d="m2246.22,1113.5c-2.68,0-4.66-.75-5.94-2.23-1.07-1.25-1.6-2.76-1.6-4.54,0-1.98.65-3.6,1.94-4.86s3.1-1.89,5.39-1.89c1.86,0,3.33.27,4.38.84s1.89,1.36,2.49,2.44c.58,1.06.89,2.23.89,3.48,0,2.03-.65,3.65-1.94,4.9s-3.16,1.88-5.6,1.88h-.02Zm0-2.51c1.84,0,3.24-.41,4.16-1.21.92-.8,1.38-1.83,1.38-3.05s-.46-2.22-1.38-3.04c-.92-.8-2.34-1.21-4.23-1.21-1.79,0-3.14.41-4.06,1.21s-1.38,1.83-1.38,3.02.46,2.23,1.36,3.05c.92.8,2.3,1.21,4.15,1.21v.02Z"/>
          <path class="cls-3" d="m2254.64,1097.55l.36-2.39c.73-.1,1.26-.38,1.6-.84.46-.61.68-1.43.68-2.49,0-1.13-.22-2.01-.68-2.63s-1.09-1.04-1.91-1.25c-.49-.12-1.55-.19-3.14-.17,1.26,1.07,1.89,2.41,1.89,3.99,0,1.98-.72,3.51-2.15,4.61s-3.16,1.64-5.15,1.64c-1.38,0-2.64-.26-3.82-.75-1.16-.49-2.06-1.23-2.7-2.17-.63-.96-.96-2.06-.96-3.34,0-1.71.68-3.1,2.06-4.21h-1.74v-2.25h12.49c2.25,0,3.84.22,4.78.68s1.67,1.18,2.22,2.18c.55.99.82,2.22.82,3.67,0,1.72-.39,3.12-1.16,4.18-.77,1.06-1.94,1.57-3.5,1.54h0Zm-8.67-2.03c1.89,0,3.28-.38,4.15-1.13s1.3-1.69,1.3-2.83-.43-2.06-1.3-2.83c-.87-.77-2.22-1.14-4.08-1.14s-3.1.39-3.99,1.18c-.9.78-1.35,1.72-1.35,2.83s.44,2.01,1.33,2.78,2.2,1.14,3.94,1.14h0Z"/>
          <path class="cls-3" d="m2253.45,1072.15h-2.12c1.64,1.13,2.44,2.64,2.44,4.59,0,.85-.17,1.65-.49,2.39s-.73,1.28-1.23,1.64c-.49.36-1.09.61-1.81.75-.48.1-1.25.15-2.29.15h-8.96v-2.46h8.02c1.28,0,2.13-.05,2.58-.15.65-.15,1.14-.48,1.52-.97.36-.49.55-1.11.55-1.84s-.19-1.42-.56-2.06-.89-1.09-1.54-1.36-1.59-.41-2.81-.41h-7.74v-2.44h14.43v2.18h.02Z"/>
          <path class="cls-3" d="m2248.79,1056.24l.31-2.52c1.48.39,2.63,1.14,3.45,2.22s1.23,2.46,1.23,4.13c0,2.12-.65,3.79-1.94,5.03-1.3,1.25-3.12,1.86-5.48,1.86s-4.32-.63-5.66-1.88c-1.35-1.25-2.01-2.87-2.01-4.86s.65-3.51,1.98-4.73,3.16-1.84,5.54-1.84h.65v10.76c1.59-.09,2.8-.55,3.65-1.35.84-.8,1.26-1.81,1.26-3.02,0-.9-.24-1.67-.7-2.3s-1.23-1.14-2.25-1.5h-.02Zm-3.96,8.03v-8.07c-1.21.1-2.13.41-2.73.92-.94.78-1.42,1.79-1.42,3.04,0,1.13.38,2.06,1.13,2.83.75.77,1.76,1.19,3.02,1.28h0Z"/>
          <path class="cls-3" d="m2246.22,1043.82c-2.68,0-4.66-.75-5.94-2.23-1.07-1.25-1.6-2.76-1.6-4.54,0-1.98.65-3.6,1.94-4.86s3.1-1.89,5.39-1.89c1.86,0,3.33.27,4.38.84s1.89,1.36,2.49,2.44c.58,1.06.89,2.23.89,3.48,0,2.03-.65,3.65-1.94,4.9s-3.16,1.88-5.6,1.88h-.02Zm0-2.51c1.84,0,3.24-.41,4.16-1.21.92-.8,1.38-1.83,1.38-3.05s-.46-2.22-1.38-3.04c-.92-.8-2.34-1.21-4.23-1.21-1.79,0-3.14.41-4.06,1.21s-1.38,1.83-1.38,3.02.46,2.23,1.36,3.05c.92.8,2.3,1.21,4.15,1.21v.02Z"/>
          <path class="cls-3" d="m2253.45,1026.83h-12.54v2.17h-1.91v-2.17h-1.54c-.97,0-1.69-.09-2.17-.26-.63-.24-1.14-.65-1.54-1.25s-.6-1.43-.6-2.49c0-.68.09-1.45.24-2.29l2.13.38c-.09.51-.14.99-.14,1.43,0,.75.15,1.26.48,1.57.32.31.9.46,1.77.46h1.33v-2.81h1.91v2.81h12.54v2.44h.02Z"/>
          <path class="cls-3" d="m2247.04,1012.53l-.22-2.49c.99-.12,1.81-.39,2.46-.82.63-.43,1.16-1.09,1.55-2.01s.6-1.93.6-3.05c0-1.01-.15-1.89-.44-2.66-.31-.77-.72-1.35-1.23-1.72-.53-.38-1.09-.56-1.71-.56s-1.18.19-1.64.55-.85.96-1.18,1.79c-.2.53-.53,1.72-.97,3.55-.44,1.83-.85,3.12-1.25,3.86-.49.96-1.13,1.65-1.86,2.13-.73.46-1.57.7-2.49.7-1.01,0-1.94-.29-2.81-.85s-1.54-1.4-2-2.51c-.46-1.09-.68-2.32-.68-3.65,0-1.48.24-2.78.72-3.91s1.18-2,2.1-2.61,1.98-.94,3.14-.97l.19,2.52c-1.26.14-2.22.6-2.85,1.38-.65.78-.97,1.94-.97,3.48s.29,2.76.87,3.48,1.3,1.09,2.12,1.09c.72,0,1.31-.26,1.77-.77s.94-1.83,1.42-3.97c.48-2.15.9-3.62,1.28-4.42.53-1.16,1.21-2.01,2.03-2.58.82-.55,1.76-.84,2.83-.84s2.06.31,3,.9c.94.61,1.67,1.48,2.18,2.61.53,1.14.78,2.42.78,3.84,0,1.81-.26,3.31-.78,4.54-.53,1.21-1.31,2.18-2.37,2.87-1.06.7-2.25,1.06-3.58,1.09v.02Z"/>
          <path class="cls-3" d="m2236.32,993.36h-2.81v-2.44h2.81v2.44Zm17.11,0h-14.43v-2.44h14.43v2.44Z"/>
          <path class="cls-3" d="m2253.45,987.19h-14.43v-2.18h2.03c-.72-.46-1.28-1.06-1.71-1.81s-.65-1.6-.65-2.58c0-1.07.22-1.94.67-2.63.44-.68,1.06-1.16,1.86-1.45-1.69-1.14-2.52-2.63-2.52-4.45,0-1.43.39-2.54,1.19-3.31s2.01-1.16,3.67-1.16h9.91v2.44h-9.09c-.97,0-1.69.09-2.12.24s-.78.44-1.04.87c-.26.41-.39.9-.39,1.47,0,1.02.34,1.86,1.01,2.52s1.76,1.01,3.24,1.01h8.39v2.44h-9.38c-1.09,0-1.91.2-2.44.6-.55.39-.82,1.06-.82,1.96,0,.68.19,1.33.55,1.91.36.58.89,1.01,1.59,1.28.7.26,1.71.39,3.02.39h7.49v2.44h-.02Z"/>
          <path class="cls-3" d="m2258.98,963.99h-19.97v-2.23h1.88c-.73-.53-1.28-1.13-1.65-1.77s-.55-1.47-.55-2.41c0-1.23.32-2.32.96-3.26s1.54-1.65,2.68-2.13c1.16-.48,2.42-.72,3.8-.72,1.48,0,2.81.27,3.99.8s2.08,1.3,2.71,2.3c.63,1.01.94,2.08.94,3.19,0,.82-.17,1.55-.51,2.2s-.78,1.18-1.31,1.6h7.03v2.44l.02-.02Zm-12.67-2.22c1.86,0,3.22-.38,4.13-1.13.89-.75,1.33-1.67,1.33-2.73s-.46-2.01-1.38-2.8c-.92-.77-2.35-1.16-4.28-1.16s-3.22.38-4.13,1.14c-.92.75-1.38,1.65-1.38,2.71s.49,1.96,1.47,2.76,2.39,1.21,4.25,1.21v-.02Z"/>
          <path class="cls-3" d="m2253.45,948.57h-19.92v-2.46h19.92v2.46Z"/>
          <path class="cls-3" d="m2248.79,932.43l.31-2.52c1.48.39,2.63,1.14,3.45,2.22.82,1.07,1.23,2.46,1.23,4.13,0,2.12-.65,3.79-1.94,5.03s-3.12,1.86-5.48,1.86-4.32-.63-5.66-1.88c-1.35-1.25-2.01-2.87-2.01-4.86s.65-3.51,1.98-4.73,3.16-1.84,5.54-1.84h.65v10.76c1.59-.09,2.8-.55,3.65-1.35.84-.8,1.26-1.81,1.26-3.02,0-.9-.24-1.67-.7-2.3s-1.23-1.14-2.25-1.5h-.02Zm-3.96,8.03v-8.07c-1.21.1-2.13.41-2.73.92-.94.78-1.42,1.79-1.42,3.04,0,1.13.38,2.06,1.13,2.83.75.77,1.76,1.19,3.02,1.28h0Z"/>
          <path class="cls-3" d="m2253.45,918.78h-19.92v-7.52c0-1.33.07-2.34.19-3.04.17-.97.48-1.79.94-2.46s1.09-1.19,1.93-1.6c.82-.41,1.74-.6,2.71-.6,1.69,0,3.12.55,4.3,1.62,1.18,1.07,1.76,3.02,1.76,5.85v5.12h8.1v2.64-.02Zm-10.46-2.64v-5.15c0-1.71-.32-2.92-.96-3.63-.63-.72-1.54-1.07-2.68-1.07-.84,0-1.55.2-2.15.63s-.99.97-1.18,1.67c-.12.44-.17,1.26-.17,2.46v5.1h7.13,0Z"/>
          <path class="cls-3" d="m2253.45,900.58h-19.92v-2.46h19.92v2.46Z"/>
          <path class="cls-3" d="m2248.79,884.46l.31-2.52c1.48.39,2.63,1.14,3.45,2.22.82,1.07,1.23,2.46,1.23,4.13,0,2.12-.65,3.79-1.94,5.03s-3.12,1.86-5.48,1.86-4.32-.63-5.66-1.88c-1.35-1.25-2.01-2.87-2.01-4.86s.65-3.51,1.98-4.73,3.16-1.84,5.54-1.84h.65v10.76c1.59-.09,2.8-.55,3.65-1.35.84-.8,1.26-1.81,1.26-3.02,0-.9-.24-1.67-.7-2.3s-1.23-1.14-2.25-1.5h-.02Zm-3.96,8.03v-8.07c-1.21.1-2.13.41-2.73.92-.94.78-1.42,1.79-1.42,3.04,0,1.13.38,2.06,1.13,2.83.75.77,1.76,1.19,3.02,1.28h0Z"/>
          <path class="cls-3" d="m2251.66,869.43c.77.9,1.31,1.77,1.64,2.61s.48,1.74.48,2.7c0,1.59-.39,2.8-1.16,3.65-.77.85-1.76,1.28-2.97,1.28-.7,0-1.35-.15-1.94-.48-.58-.32-1.06-.75-1.42-1.26-.36-.53-.61-1.11-.8-1.76-.14-.48-.26-1.21-.38-2.18-.24-1.98-.51-3.43-.84-4.37h-.63c-.99,0-1.71.24-2.12.7-.55.63-.84,1.55-.84,2.78,0,1.16.2,2,.6,2.54.41.55,1.13.96,2.13,1.21l-.32,2.39c-1.02-.22-1.84-.58-2.47-1.07s-1.11-1.21-1.45-2.17-.51-2.03-.51-3.28.14-2.23.43-3,.65-1.33,1.09-1.71c.44-.36.99-.61,1.67-.77.41-.09,1.18-.12,2.25-.12h3.26c2.27,0,3.72-.05,4.32-.15s1.18-.31,1.74-.61v2.56c-.51.26-1.11.41-1.77.49l.02.02Zm-5.46.2c.36.89.67,2.22.92,3.99.14,1.01.31,1.72.49,2.13s.44.73.8.97c.36.22.73.34,1.16.34.65,0,1.19-.24,1.64-.73.43-.49.65-1.21.65-2.17s-.2-1.77-.61-2.51-.97-1.28-1.69-1.62c-.55-.26-1.36-.39-2.44-.39h-.9l-.02-.02Z"/>
          <path class="cls-3" d="m2249.14,864.35l-.38-2.42c.97-.14,1.71-.51,2.23-1.14.51-.61.77-1.48.77-2.61s-.22-1.96-.68-2.51-.99-.82-1.6-.82c-.55,0-.99.24-1.31.72-.22.34-.49,1.18-.84,2.51-.46,1.79-.85,3.04-1.18,3.74s-.78,1.21-1.36,1.57-1.23.53-1.94.53c-.65,0-1.25-.15-1.79-.44-.55-.29-1.01-.7-1.36-1.21-.29-.38-.51-.9-.72-1.55s-.29-1.36-.29-2.12c0-1.13.17-2.13.49-2.99.32-.85.77-1.48,1.33-1.89.56-.41,1.3-.68,2.23-.84l.32,2.39c-.75.1-1.33.43-1.74.94s-.63,1.26-.63,2.2c0,1.13.19,1.93.56,2.41s.8.72,1.31.72c.32,0,.6-.1.85-.31s.48-.51.65-.94c.09-.24.29-.97.63-2.17.46-1.74.84-2.93,1.14-3.62.29-.68.72-1.23,1.28-1.6s1.26-.58,2.1-.58,1.59.24,2.3.72c.72.48,1.28,1.16,1.67,2.06s.6,1.91.6,3.05c0,1.88-.39,3.31-1.18,4.28s-1.93,1.6-3.46,1.88l-.02.05Z"/>
          <path class="cls-3" d="m2253.45,839.97h-2.12c1.64,1.13,2.44,2.64,2.44,4.59,0,.85-.17,1.65-.49,2.39s-.73,1.28-1.23,1.64c-.49.36-1.09.61-1.81.75-.48.1-1.25.15-2.29.15h-8.96v-2.46h8.02c1.28,0,2.13-.05,2.58-.15.65-.15,1.14-.48,1.52-.97.36-.49.55-1.11.55-1.84s-.19-1.42-.56-2.06-.89-1.09-1.54-1.36-1.59-.41-2.81-.41h-7.74v-2.44h14.43v2.18h.02Z"/>
          <path class="cls-3" d="m2253.45,833.99h-14.43v-2.2h2.18c-1.02-.56-1.71-1.07-2.03-1.55s-.49-1.01-.49-1.57c0-.82.26-1.67.78-2.51l2.27.84c-.36.6-.53,1.19-.53,1.79,0,.53.15,1.02.48,1.43.32.43.77.73,1.35.9.87.27,1.83.41,2.85.41h7.56v2.44l.02.02Z"/>
          <path class="cls-3" d="m2248.79,814.8l.31-2.52c1.48.39,2.63,1.14,3.45,2.22.82,1.07,1.23,2.46,1.23,4.13,0,2.12-.65,3.79-1.94,5.03s-3.12,1.86-5.48,1.86-4.32-.63-5.66-1.88c-1.35-1.25-2.01-2.87-2.01-4.86s.65-3.51,1.98-4.73,3.16-1.84,5.54-1.84h.65v10.76c1.59-.09,2.8-.55,3.65-1.35.84-.8,1.26-1.81,1.26-3.02,0-.9-.24-1.67-.7-2.3s-1.23-1.14-2.25-1.5h-.02Zm-3.96,8.03v-8.07c-1.21.1-2.13.41-2.73.92-.94.78-1.42,1.79-1.42,3.04,0,1.13.38,2.06,1.13,2.83.75.77,1.76,1.19,3.02,1.28h0Z"/>
          <path class="cls-3" d="m2249.14,810.17l-.38-2.42c.97-.14,1.71-.51,2.23-1.14.51-.61.77-1.48.77-2.61s-.22-1.96-.68-2.51-.99-.82-1.6-.82c-.55,0-.99.24-1.31.72-.22.34-.49,1.18-.84,2.51-.46,1.79-.85,3.04-1.18,3.74s-.78,1.21-1.36,1.57-1.23.53-1.94.53c-.65,0-1.25-.15-1.79-.44-.55-.29-1.01-.7-1.36-1.21-.29-.38-.51-.9-.72-1.55s-.29-1.36-.29-2.12c0-1.13.17-2.13.49-2.99.32-.85.77-1.48,1.33-1.89.56-.41,1.3-.68,2.23-.84l.32,2.39c-.75.1-1.33.43-1.74.94s-.63,1.26-.63,2.2c0,1.13.19,1.93.56,2.41s.8.72,1.31.72c.32,0,.6-.1.85-.31s.48-.51.65-.94c.09-.24.29-.97.63-2.17.46-1.74.84-2.93,1.14-3.62.29-.68.72-1.23,1.28-1.6s1.26-.58,2.1-.58,1.59.24,2.3.72c.72.48,1.28,1.16,1.67,2.06s.6,1.91.6,3.05c0,1.88-.39,3.31-1.18,4.28s-1.93,1.6-3.46,1.88l-.02.05Z"/>
        </g>
        <g>
          <g>
            <path class="cls-3" d="m2236.73,588.52l-19.92-7.66v-2.85l19.92-8.15v3l-6.04,2.32v8.34l6.04,2.18v2.81Zm-8.19-5.75v-6.75l-5.53,2.08c-1.67.63-3.05,1.11-4.13,1.42,1.28.26,2.54.61,3.8,1.07l5.85,2.18Z"/>
            <path class="cls-3" d="m2236.73,568.12h-19.92v-2.46h19.92v2.46Z"/>
            <path class="cls-3" d="m2232.09,552l.31-2.52c1.48.39,2.63,1.14,3.45,2.22s1.23,2.46,1.23,4.13c0,2.12-.65,3.79-1.94,5.03s-3.12,1.86-5.48,1.86-4.32-.63-5.66-1.88-2.01-2.87-2.01-4.86.67-3.51,1.98-4.73,3.16-1.84,5.54-1.84h.65v10.76c1.59-.09,2.8-.55,3.65-1.35.84-.8,1.26-1.81,1.26-3.02,0-.9-.24-1.67-.72-2.3s-1.23-1.14-2.25-1.5h0Zm-3.96,8.03v-8.07c-1.21.1-2.13.41-2.73.92-.94.78-1.42,1.79-1.42,3.04,0,1.13.38,2.06,1.13,2.83.75.77,1.76,1.19,3.02,1.28h0Z"/>
            <path class="cls-3" d="m2236.73,548.03l-7.51-5.27-6.93,4.88v-3.05l3.38-2.22c.65-.41,1.18-.75,1.62-1.01-.6-.39-1.13-.77-1.59-1.11l-3.41-2.44v-2.92l6.81,4.98,7.64-5.37v3l-4.49,2.97-1.21.78,5.7,3.79v2.97l-.02.02Z"/>
            <path class="cls-3" d="m2230.34,525.32l-.22-2.49c.99-.12,1.81-.39,2.46-.82.65-.43,1.16-1.09,1.55-2.01.39-.9.6-1.93.6-3.05,0-1.01-.15-1.89-.44-2.66s-.72-1.35-1.23-1.72c-.53-.38-1.09-.56-1.71-.56s-1.18.19-1.64.55c-.46.36-.85.96-1.18,1.79-.2.53-.53,1.72-.97,3.55-.44,1.83-.85,3.12-1.25,3.86-.49.96-1.13,1.65-1.86,2.13-.73.46-1.57.7-2.47.7-1.01,0-1.94-.29-2.81-.85s-1.54-1.4-2-2.51c-.46-1.09-.68-2.32-.68-3.65,0-1.48.24-2.78.72-3.91s1.18-2,2.1-2.61,1.98-.94,3.14-.97l.19,2.52c-1.26.14-2.22.6-2.85,1.38-.65.78-.97,1.94-.97,3.48s.29,2.76.87,3.48,1.3,1.09,2.12,1.09c.72,0,1.3-.26,1.77-.77.46-.51.94-1.83,1.42-3.97.48-2.15.9-3.62,1.28-4.42.53-1.16,1.21-2.01,2.03-2.58.82-.55,1.77-.84,2.83-.84s2.06.31,3,.9c.94.61,1.67,1.48,2.18,2.61.53,1.14.78,2.42.78,3.84,0,1.81-.26,3.31-.78,4.54-.53,1.21-1.31,2.18-2.37,2.87-1.06.7-2.25,1.06-3.58,1.09l-.02.02Z"/>
            <path class="cls-3" d="m2219.62,506.15h-2.81v-2.44h2.81v2.44Zm17.13,0h-14.43v-2.44h14.43v2.44Z"/>
            <path class="cls-3" d="m2236.73,499.98h-14.43v-2.2h2.05c-1.59-1.06-2.37-2.59-2.37-4.59,0-.87.15-1.67.48-2.41.31-.73.72-1.28,1.23-1.64.51-.36,1.11-.61,1.81-.77.46-.09,1.25-.14,2.37-.14h8.89v2.44h-8.78c-.99,0-1.74.1-2.23.29s-.89.53-1.18,1.01c-.29.48-.44,1.06-.44,1.71,0,1.04.32,1.94.99,2.7s1.91,1.14,3.77,1.14h7.88v2.44l-.02.02Z"/>
            <path class="cls-3" d="m2237.93,484.95l.36-2.39c.73-.1,1.26-.38,1.6-.84.46-.61.68-1.43.68-2.49,0-1.13-.22-2.01-.68-2.63s-1.09-1.04-1.91-1.25c-.49-.12-1.55-.19-3.14-.17,1.26,1.07,1.89,2.41,1.89,3.99,0,1.98-.72,3.51-2.15,4.61s-3.16,1.64-5.15,1.64c-1.38,0-2.64-.26-3.82-.75-1.16-.49-2.06-1.23-2.7-2.17-.63-.96-.96-2.06-.96-3.34,0-1.71.68-3.1,2.06-4.21h-1.74v-2.25h12.49c2.25,0,3.84.22,4.78.68.94.46,1.67,1.18,2.22,2.18.55.99.82,2.22.82,3.67,0,1.72-.39,3.12-1.16,4.18-.78,1.06-1.94,1.57-3.5,1.54h0Zm-8.67-2.03c1.89,0,3.28-.38,4.15-1.13s1.31-1.69,1.31-2.83-.43-2.06-1.3-2.83-2.22-1.14-4.08-1.14-3.1.39-3.99,1.18c-.9.78-1.35,1.72-1.35,2.83s.44,2.01,1.33,2.78c.89.77,2.2,1.14,3.94,1.14h-.02Z"/>
            <path class="cls-3" d="m2236.73,469.02h-19.92v-2.44h7.15c-1.33-1.14-1.98-2.58-1.98-4.32,0-1.07.2-2,.63-2.78s1.01-1.35,1.74-1.69c.75-.34,1.83-.51,3.24-.51h9.14v2.46h-9.14c-1.23,0-2.12.27-2.68.8s-.84,1.28-.84,2.25c0,.73.19,1.42.56,2.05s.89,1.09,1.54,1.36,1.54.41,2.66.41h7.9v2.44-.03Z"/>
          </g>
          <g>
            <path class="cls-3" d="m2270.15,584.02l-14.43,4.42v-2.52l8.34-2.3,3.1-.85c-.15-.03-1.14-.29-2.99-.75l-8.46-2.3v-2.51l8.38-2.17,2.76-.72-2.78-.84-8.34-2.47v-2.37l14.43,4.52v2.54l-8.65,2.3-2.46.56,11.1,2.92v2.56l-.02-.02Z"/>
            <path class="cls-3" d="m2253.04,566.57h-2.81v-2.44h2.81v2.44Zm17.11,0h-14.43v-2.44h14.43v2.44Z"/>
            <path class="cls-3" d="m2267.97,555.04l2.17-.36c.14.68.22,1.31.22,1.84,0,.89-.14,1.57-.43,2.06-.29.49-.65.84-1.11,1.04s-1.42.31-2.88.31h-8.31v1.79h-1.91v-1.79h-3.58l-1.47-2.44h5.05v-2.46h1.91v2.46h8.44c.7,0,1.14-.05,1.35-.14s.36-.22.48-.43c.12-.19.17-.48.17-.84,0-.27-.03-.63-.1-1.07v.02Z"/>
            <path class="cls-3" d="m2270.15,552.65h-19.92v-2.44h7.15c-1.33-1.14-1.98-2.58-1.98-4.32,0-1.07.2-2,.63-2.78s1.01-1.35,1.74-1.69,1.83-.51,3.24-.51h9.14v2.46h-9.14c-1.23,0-2.12.27-2.68.8s-.84,1.28-.84,2.25c0,.73.19,1.42.56,2.05.38.63.89,1.09,1.54,1.36.65.27,1.54.41,2.66.41h7.9v2.44-.03Z"/>
            <path class="cls-3" d="m2270.15,532.81l-19.92-7.66v-2.85l19.92-8.15v3l-6.04,2.32v8.34l6.04,2.18v2.81Zm-8.19-5.75v-6.75l-5.53,2.08c-1.67.63-3.05,1.11-4.13,1.42,1.28.26,2.54.61,3.8,1.07l5.85,2.18Z"/>
            <path class="cls-3" d="m2270.15,512.39h-14.43v-2.2h2.18c-1.02-.56-1.71-1.07-2.03-1.55s-.49-1.01-.49-1.57c0-.82.26-1.67.78-2.51l2.27.84c-.36.6-.53,1.19-.53,1.79,0,.53.15,1.02.48,1.43.32.43.77.73,1.35.9.87.27,1.83.41,2.85.41h7.56v2.44l.02.02Z"/>
            <path class="cls-3" d="m2265.49,493.2l.31-2.52c1.48.39,2.63,1.14,3.45,2.22s1.23,2.46,1.23,4.13c0,2.12-.65,3.79-1.94,5.03s-3.12,1.86-5.48,1.86-4.32-.63-5.66-1.88c-1.35-1.25-2.01-2.87-2.01-4.86s.65-3.51,1.98-4.73,3.16-1.84,5.54-1.84h.65v10.76c1.59-.09,2.8-.55,3.65-1.35.84-.8,1.26-1.81,1.26-3.02,0-.9-.24-1.67-.7-2.3s-1.23-1.14-2.25-1.5h-.02Zm-3.96,8.03v-8.07c-1.21.1-2.13.41-2.73.92-.94.78-1.42,1.79-1.42,3.04,0,1.13.38,2.06,1.13,2.83.75.77,1.76,1.19,3.02,1.28h0Z"/>
            <path class="cls-3" d="m2270.15,486.91h-2.78v-2.78h2.78v2.78Z"/>
            <path class="cls-3" d="m2270.15,479.86h-14.43v-2.2h2.05c-1.59-1.06-2.37-2.59-2.37-4.59,0-.87.15-1.67.46-2.41.31-.73.72-1.28,1.23-1.64.51-.36,1.11-.61,1.81-.77.46-.09,1.25-.14,2.39-.14h8.87v2.44h-8.78c-.99,0-1.74.1-2.23.29s-.89.53-1.18,1.01c-.29.48-.44,1.06-.44,1.71,0,1.04.32,1.94.99,2.7s1.91,1.14,3.77,1.14h7.88v2.46Z"/>
            <path class="cls-3" d="m2268.38,454.96c.77.9,1.31,1.77,1.64,2.61s.48,1.74.48,2.7c0,1.59-.39,2.8-1.16,3.65-.77.85-1.76,1.28-2.97,1.28-.7,0-1.35-.15-1.94-.48-.58-.32-1.06-.75-1.42-1.26-.36-.53-.61-1.11-.8-1.76-.14-.48-.26-1.21-.38-2.18-.24-1.98-.51-3.43-.84-4.37h-.63c-.99,0-1.71.24-2.12.7-.55.63-.84,1.55-.84,2.78,0,1.16.2,2,.6,2.54.41.55,1.13.96,2.13,1.21l-.32,2.39c-1.02-.22-1.84-.58-2.47-1.07-.63-.49-1.11-1.21-1.45-2.17s-.51-2.03-.51-3.28.14-2.23.43-3,.65-1.33,1.09-1.71c.44-.36.99-.61,1.67-.77.41-.09,1.18-.12,2.25-.12h3.26c2.27,0,3.72-.05,4.32-.15s1.18-.31,1.74-.61v2.56c-.51.26-1.11.41-1.77.49l.02.02Zm-5.46.2c.36.89.67,2.22.92,3.99.14,1.01.31,1.72.49,2.13s.44.73.8.97c.36.22.73.34,1.16.34.65,0,1.19-.24,1.64-.73.43-.49.65-1.21.65-2.17s-.2-1.77-.61-2.51c-.41-.73-.97-1.28-1.69-1.62-.55-.26-1.36-.39-2.44-.39h-.9l-.02-.02Z"/>
          </g>
        </g>
      </g>
    </g>
    <g>
      <path class="cls-1" d="m1061.48,398.94c-62.04.02-131.62,0-193.66,0"/>
      <path class="cls-1" d="m866.08,204.16H235.24"/>
      <path class="cls-1" d="m37.11,1274.88h190.03c275.61,0,551.21,0,826.82.02"/>
      <path class="cls-1" d="m865.5,1469.67H235.24"/>
      <path class="cls-1" d="m866.66,398.94H37.09"/>
      <path class="cls-1" d="m1053.95,1274.9c275.61,0,559.33-.02,835.23-.02V398.94h-193.95"/>
      <path class="cls-1" d="m1061.48,398.94h255.12c2.27,46.26,36.57,60.49,62.04,59.94,28.88-.61,57.14-14.94,61.49-59.65h254.5v874.49"/>
      <rect class="cls-1" x="232.92" y="72.21" width="634.04" height="1529.42" rx="42.64" ry="42.64"/>
      <path class="cls-1" d="m232.92,1408.5H97.17c-32.97,0-59.7-26.73-59.7-59.7V323.08c0-32.97,26.73-59.7,59.7-59.7h135.75"/>
      <path class="cls-1" d="m867.24,1408.5h135.75c32.97,0,59.7-26.73,59.7-59.7V323.08c0-32.97-26.73-59.7-59.7-59.7h-135.75"/>
    </g>
    <g>
      <g>
        <g>
          <path class="cls-3" d="m346.92,845.71l7.66-19.92h2.85l8.15,19.92h-3l-2.32-6.04h-8.34l-2.18,6.04h-2.81Zm5.75-8.19h6.75l-2.08-5.53c-.63-1.67-1.11-3.05-1.42-4.13-.26,1.28-.61,2.54-1.07,3.8l-2.18,5.85Z"/>
          <path class="cls-3" d="m388.11,838.73l2.64.67c-.55,2.17-1.55,3.82-2.99,4.95-1.43,1.14-3.19,1.71-5.27,1.71s-3.89-.44-5.24-1.31-2.37-2.13-3.07-3.8-1.06-3.45-1.06-5.34c0-2.08.39-3.89,1.19-5.42s1.93-2.71,3.38-3.51c1.47-.8,3.07-1.21,4.83-1.21,2,0,3.67.51,5.03,1.52,1.36,1.01,2.3,2.44,2.85,4.28l-2.59.61c-.46-1.45-1.13-2.51-2.01-3.17-.89-.67-1.98-.99-3.31-.99-1.54,0-2.81.38-3.84,1.11s-1.76,1.72-2.17,2.95-.63,2.51-.63,3.82c0,1.69.24,3.17.73,4.44s1.26,2.2,2.3,2.83,2.17.94,3.38.94c1.48,0,2.73-.43,3.75-1.28,1.02-.85,1.72-2.12,2.08-3.79v.02Z"/>
          <path class="cls-3" d="m403.11,843.93c-.9.77-1.77,1.31-2.61,1.64s-1.74.48-2.7.48c-1.59,0-2.8-.39-3.65-1.16s-1.28-1.77-1.28-2.97c0-.7.15-1.35.48-1.94.32-.58.75-1.06,1.26-1.4.53-.36,1.11-.61,1.76-.8.48-.12,1.21-.26,2.18-.36,1.98-.24,3.43-.51,4.37-.84v-.65c0-.99-.24-1.71-.7-2.12-.63-.55-1.55-.84-2.78-.84-1.16,0-2,.2-2.54.6-.55.41-.96,1.13-1.21,2.15l-2.39-.32c.22-1.02.58-1.84,1.07-2.49.49-.63,1.21-1.11,2.17-1.45s2.03-.51,3.28-.51,2.23.14,3,.43,1.33.65,1.71,1.09c.36.44.61.99.77,1.67.09.41.12,1.18.12,2.25v3.26c0,2.27.05,3.72.15,4.32s.31,1.18.61,1.74h-2.56c-.26-.51-.41-1.11-.49-1.77h-.02Zm-.2-5.46c-.89.36-2.22.67-3.99.92-1.01.14-1.72.31-2.13.49-.41.19-.73.44-.97.8-.22.34-.34.73-.34,1.16,0,.65.24,1.19.73,1.64.49.43,1.21.65,2.17.65s1.77-.2,2.51-.61c.73-.41,1.28-.97,1.62-1.69.26-.55.39-1.36.39-2.44v-.9l.02-.02Z"/>
          <path class="cls-3" d="m414.52,843.52l.36,2.17c-.68.14-1.31.22-1.84.22-.89,0-1.57-.14-2.06-.43s-.84-.65-1.04-1.11-.31-1.42-.31-2.88v-8.31h-1.79v-1.91h1.79v-3.58l2.44-1.47v5.05h2.46v1.91h-2.46v8.44c0,.7.05,1.14.14,1.35s.22.36.43.48.48.17.84.17c.27,0,.63-.03,1.07-.1h-.02Z"/>
          <path class="cls-3" d="m426.32,843.93c-.9.77-1.77,1.31-2.61,1.64s-1.74.48-2.7.48c-1.59,0-2.8-.39-3.65-1.16s-1.28-1.77-1.28-2.97c0-.7.15-1.35.48-1.94.32-.58.75-1.06,1.26-1.4.53-.36,1.11-.61,1.76-.8.48-.12,1.21-.26,2.18-.36,1.98-.24,3.43-.51,4.37-.84v-.65c0-.99-.24-1.71-.7-2.12-.63-.55-1.55-.84-2.78-.84-1.16,0-2,.2-2.54.6-.55.41-.96,1.13-1.21,2.15l-2.39-.32c.22-1.02.58-1.84,1.07-2.49.49-.63,1.21-1.11,2.17-1.45s2.03-.51,3.28-.51,2.23.14,3,.43,1.33.65,1.71,1.09c.36.44.61.99.77,1.67.09.41.12,1.18.12,2.25v3.26c0,2.27.05,3.72.15,4.32s.31,1.18.61,1.74h-2.56c-.26-.51-.41-1.11-.49-1.77h-.02Zm-.2-5.46c-.89.36-2.22.67-3.99.92-1.01.14-1.72.31-2.13.49-.41.19-.73.44-.97.8-.22.34-.34.73-.34,1.16,0,.65.24,1.19.73,1.64.49.43,1.21.65,2.17.65s1.77-.2,2.51-.61c.73-.41,1.28-.97,1.62-1.69.26-.55.39-1.36.39-2.44v-.9l.02-.02Z"/>
          <path class="cls-3" d="m432.34,845.71v-19.92h2.46v19.92h-2.46Z"/>
          <path class="cls-3" d="m437.67,838.49c0-2.68.75-4.66,2.23-5.94,1.25-1.07,2.76-1.6,4.54-1.6,1.98,0,3.6.65,4.86,1.94s1.89,3.1,1.89,5.39c0,1.86-.27,3.33-.84,4.38s-1.36,1.89-2.44,2.47-2.23.89-3.48.89c-2.03,0-3.65-.65-4.9-1.94s-1.88-3.16-1.88-5.6h0Zm2.51,0c0,1.84.41,3.24,1.21,4.15.8.92,1.83,1.38,3.05,1.38s2.22-.46,3.04-1.38c.8-.92,1.21-2.34,1.21-4.23,0-1.79-.41-3.14-1.21-4.06-.82-.92-1.83-1.38-3.02-1.38s-2.23.46-3.05,1.38c-.8.92-1.21,2.3-1.21,4.15h-.02Z"/>
          <path class="cls-3" d="m453.61,846.9l2.39.36c.1.73.38,1.26.84,1.6.61.46,1.43.68,2.49.68,1.13,0,2.01-.22,2.63-.68s1.04-1.09,1.25-1.91c.12-.49.19-1.55.17-3.14-1.07,1.26-2.41,1.89-3.99,1.89-1.98,0-3.51-.72-4.61-2.15s-1.64-3.16-1.64-5.15c0-1.38.26-2.64.75-3.82.49-1.16,1.23-2.06,2.17-2.7.96-.63,2.06-.96,3.34-.96,1.71,0,3.1.68,4.21,2.06v-1.74h2.25v12.49c0,2.25-.22,3.84-.68,4.78-.46.94-1.18,1.67-2.18,2.22-.99.55-2.22.82-3.67.82-1.72,0-3.12-.39-4.18-1.16-1.06-.78-1.57-1.94-1.54-3.5h0Zm2.03-8.67c0,1.89.38,3.28,1.13,4.15s1.69,1.31,2.83,1.31,2.06-.43,2.83-1.3,1.14-2.22,1.14-4.08-.39-3.1-1.18-3.99c-.78-.9-1.72-1.35-2.83-1.35s-2.01.44-2.78,1.33c-.77.89-1.14,2.2-1.14,3.94v-.02Z"/>
          <path class="cls-3" d="m479.01,845.71v-2.12c-1.13,1.64-2.64,2.44-4.59,2.44-.85,0-1.65-.17-2.39-.49s-1.28-.73-1.64-1.23-.61-1.09-.75-1.81c-.1-.48-.15-1.25-.15-2.29v-8.94h2.46v8c0,1.28.05,2.13.15,2.58.15.65.48,1.14.97,1.52.49.36,1.11.55,1.84.55s1.42-.19,2.06-.56,1.09-.89,1.36-1.54.41-1.59.41-2.81v-7.74h2.44v14.43h-2.18v.02Z"/>
          <path class="cls-3" d="m494.91,841.07l2.52.31c-.39,1.48-1.14,2.63-2.22,3.45s-2.46,1.23-4.13,1.23c-2.12,0-3.79-.65-5.03-1.94s-1.86-3.12-1.86-5.48.63-4.32,1.88-5.66,2.87-2.01,4.86-2.01,3.51.67,4.73,1.98,1.84,3.16,1.84,5.54v.65h-10.76c.09,1.59.55,2.8,1.35,3.65.8.84,1.81,1.26,3.02,1.26.9,0,1.67-.24,2.3-.72s1.14-1.23,1.5-2.25h0Zm-8.03-3.96h8.07c-.1-1.21-.41-2.13-.92-2.73-.78-.94-1.79-1.42-3.04-1.42-1.13,0-2.06.38-2.83,1.13s-1.19,1.76-1.28,3.02Z"/>
          <path class="cls-3" d="m507.35,838.49c0-2.68.75-4.66,2.23-5.94,1.25-1.07,2.76-1.6,4.54-1.6,1.98,0,3.6.65,4.86,1.94,1.26,1.3,1.89,3.1,1.89,5.39,0,1.86-.27,3.33-.84,4.38s-1.36,1.89-2.44,2.47-2.23.89-3.48.89c-2.03,0-3.65-.65-4.9-1.94-1.25-1.3-1.88-3.16-1.88-5.6Zm2.51,0c0,1.84.41,3.24,1.21,4.15.8.92,1.83,1.38,3.05,1.38s2.22-.46,3.04-1.38c.8-.92,1.21-2.34,1.21-4.23,0-1.79-.41-3.14-1.21-4.06-.82-.92-1.83-1.38-3.02-1.38s-2.23.46-3.05,1.38c-.8.92-1.21,2.3-1.21,4.15h-.02Z"/>
          <path class="cls-3" d="m524.32,845.71v-12.54h-2.17v-1.91h2.17v-1.54c0-.97.09-1.69.26-2.17.24-.63.65-1.14,1.25-1.54.6-.39,1.43-.6,2.49-.6.68,0,1.45.09,2.29.24l-.38,2.13c-.51-.09-.99-.14-1.43-.14-.75,0-1.26.15-1.57.48s-.46.9-.46,1.77v1.33h2.81v1.91h-2.81v12.54h-2.44v.02Z"/>
          <path class="cls-3" d="m538.63,839.31l2.49-.22c.12.99.39,1.81.82,2.46s1.09,1.16,2.01,1.55c.9.39,1.93.6,3.05.6,1.01,0,1.89-.15,2.66-.44s1.35-.72,1.72-1.23c.38-.53.56-1.09.56-1.71s-.19-1.18-.55-1.64c-.36-.46-.96-.85-1.79-1.18-.53-.2-1.72-.53-3.55-.97-1.83-.44-3.12-.85-3.86-1.25-.96-.49-1.65-1.13-2.13-1.86-.46-.73-.7-1.57-.7-2.47,0-1.01.29-1.94.85-2.81.56-.87,1.4-1.54,2.51-2,1.09-.46,2.32-.68,3.65-.68,1.48,0,2.78.24,3.91.72s2,1.18,2.61,2.1.94,1.98.97,3.14l-2.52.19c-.14-1.26-.6-2.22-1.38-2.85-.78-.65-1.94-.97-3.48-.97s-2.76.29-3.48.87-1.09,1.3-1.09,2.12c0,.72.26,1.3.77,1.77.51.46,1.83.94,3.97,1.42,2.15.48,3.62.9,4.42,1.28,1.16.53,2.01,1.21,2.58,2.03.55.82.84,1.77.84,2.83s-.31,2.06-.9,3c-.61.94-1.48,1.67-2.61,2.18-1.14.53-2.42.78-3.84.78-1.81,0-3.31-.26-4.54-.78-1.21-.53-2.18-1.31-2.87-2.37-.7-1.06-1.06-2.25-1.09-3.58l-.02-.02Z"/>
          <path class="cls-3" d="m557.8,828.6v-2.81h2.44v2.81h-2.44Zm0,17.13v-14.43h2.44v14.43h-2.44Z"/>
          <path class="cls-3" d="m563.98,845.71v-14.43h2.18v2.03c.46-.7,1.06-1.28,1.81-1.71s1.6-.65,2.58-.65c1.07,0,1.94.22,2.63.67s1.16,1.06,1.45,1.86c1.14-1.69,2.63-2.52,4.45-2.52,1.43,0,2.54.39,3.31,1.19s1.16,2.01,1.16,3.67v9.91h-2.44v-9.09c0-.97-.09-1.69-.24-2.12-.15-.43-.44-.78-.87-1.04s-.9-.39-1.47-.39c-1.02,0-1.86.34-2.52,1.01-.67.68-1.01,1.76-1.01,3.24v8.39h-2.44v-9.38c0-1.09-.2-1.91-.6-2.44-.39-.55-1.06-.82-1.96-.82-.68,0-1.33.19-1.91.55-.58.36-1.01.89-1.28,1.59-.26.7-.39,1.71-.39,3.02v7.49h-2.44v-.02Z"/>
          <path class="cls-3" d="m587.16,851.25v-19.97h2.23v1.88c.53-.73,1.13-1.28,1.77-1.65.67-.38,1.47-.55,2.41-.55,1.23,0,2.32.32,3.26.96.94.63,1.65,1.54,2.13,2.68.48,1.16.72,2.42.72,3.8,0,1.48-.27,2.81-.8,3.99s-1.3,2.08-2.3,2.71-2.08.94-3.19.94c-.82,0-1.55-.17-2.2-.51-.65-.34-1.18-.78-1.6-1.3v7.03h-2.44.02Zm2.22-12.67c0,1.86.38,3.22,1.13,4.13s1.67,1.33,2.73,1.33,2.01-.46,2.8-1.38c.77-.92,1.16-2.35,1.16-4.28s-.38-3.22-1.14-4.13c-.75-.92-1.65-1.36-2.71-1.36s-1.96.49-2.76,1.47-1.21,2.39-1.21,4.25l.02-.02Z"/>
          <path class="cls-3" d="m602.6,845.71v-19.92h2.46v19.92h-2.46Z"/>
          <path class="cls-3" d="m618.72,841.07l2.52.31c-.39,1.48-1.14,2.63-2.22,3.45s-2.46,1.23-4.13,1.23c-2.12,0-3.79-.65-5.03-1.94s-1.86-3.12-1.86-5.48.63-4.32,1.88-5.66,2.87-2.01,4.86-2.01,3.51.67,4.73,1.98,1.84,3.16,1.84,5.54v.65h-10.76c.09,1.59.55,2.8,1.35,3.65.8.84,1.81,1.26,3.02,1.26.9,0,1.67-.24,2.3-.72s1.14-1.23,1.5-2.25h0Zm-8.03-3.96h8.07c-.1-1.21-.41-2.13-.92-2.73-.78-.94-1.79-1.42-3.04-1.42-1.13,0-2.06.38-2.83,1.13s-1.19,1.76-1.28,3.02Z"/>
          <path class="cls-3" d="m632.38,845.71v-19.92h7.52c1.33,0,2.34.07,3.04.19.97.17,1.79.48,2.46.94s1.19,1.09,1.6,1.93c.41.82.6,1.72.6,2.71,0,1.69-.55,3.12-1.62,4.3s-3.02,1.76-5.85,1.76h-5.12v8.1h-2.64.02Zm2.64-10.46h5.15c1.71,0,2.92-.32,3.63-.96s1.07-1.54,1.07-2.68c0-.84-.2-1.55-.63-2.13-.43-.6-.97-.99-1.67-1.18-.44-.12-1.26-.17-2.46-.17h-5.1v7.13-.02Z"/>
          <path class="cls-3" d="m650.58,845.71v-19.92h2.46v19.92h-2.46Z"/>
          <path class="cls-3" d="m666.7,841.07l2.52.31c-.39,1.48-1.14,2.63-2.22,3.45s-2.46,1.23-4.13,1.23c-2.12,0-3.79-.65-5.03-1.94s-1.86-3.12-1.86-5.48.63-4.32,1.88-5.66,2.87-2.01,4.86-2.01,3.51.67,4.73,1.98,1.84,3.16,1.84,5.54v.65h-10.76c.09,1.59.55,2.8,1.35,3.65.8.84,1.81,1.26,3.02,1.26.9,0,1.67-.24,2.3-.72s1.14-1.23,1.5-2.25h0Zm-8.03-3.96h8.07c-.1-1.21-.41-2.13-.92-2.73-.78-.94-1.79-1.42-3.04-1.42-1.13,0-2.06.38-2.83,1.13s-1.19,1.76-1.28,3.02Z"/>
          <path class="cls-3" d="m681.73,843.93c-.9.77-1.77,1.31-2.61,1.64s-1.74.48-2.7.48c-1.59,0-2.8-.39-3.65-1.16s-1.28-1.77-1.28-2.97c0-.7.15-1.35.48-1.94.32-.58.75-1.06,1.26-1.4.53-.36,1.11-.61,1.76-.8.48-.12,1.21-.26,2.18-.36,1.98-.24,3.43-.51,4.37-.84v-.65c0-.99-.24-1.71-.7-2.12-.63-.55-1.55-.84-2.78-.84-1.16,0-2,.2-2.54.6-.55.41-.96,1.13-1.21,2.15l-2.39-.32c.22-1.02.58-1.84,1.07-2.49.49-.63,1.21-1.11,2.17-1.45s2.03-.51,3.28-.51,2.23.14,3,.43,1.33.65,1.71,1.09c.36.44.61.99.77,1.67.09.41.12,1.18.12,2.25v3.26c0,2.27.05,3.72.15,4.32s.31,1.18.61,1.74h-2.56c-.26-.51-.41-1.11-.49-1.77h-.02Zm-.2-5.46c-.89.36-2.22.67-3.99.92-1.01.14-1.72.31-2.13.49-.41.19-.73.44-.97.8-.22.34-.34.73-.34,1.16,0,.65.24,1.19.73,1.64.49.43,1.21.65,2.17.65s1.77-.2,2.51-.61,1.28-.97,1.62-1.69c.26-.55.39-1.36.39-2.44v-.9l.02-.02Z"/>
          <path class="cls-3" d="m686.81,841.41l2.42-.38c.14.97.51,1.71,1.14,2.23.61.51,1.48.78,2.61.78s1.96-.22,2.51-.68.82-.99.82-1.62c0-.55-.24-.99-.72-1.3-.34-.22-1.18-.49-2.51-.84-1.79-.46-3.04-.85-3.74-1.18s-1.21-.78-1.57-1.36-.53-1.23-.53-1.94c0-.65.15-1.25.44-1.79.29-.55.7-1.01,1.21-1.36.38-.29.9-.51,1.55-.72s1.36-.29,2.12-.29c1.13,0,2.13.17,2.99.49s1.48.77,1.89,1.33.68,1.3.84,2.23l-2.39.32c-.1-.75-.43-1.33-.94-1.74-.53-.41-1.26-.63-2.2-.63-1.13,0-1.93.19-2.41.56s-.72.8-.72,1.3c0,.32.1.6.31.85s.51.48.94.65c.24.09.97.31,2.17.63,1.74.46,2.93.84,3.62,1.14.68.29,1.23.72,1.6,1.28.39.56.58,1.26.58,2.1s-.24,1.59-.72,2.3-1.16,1.28-2.06,1.67-1.91.6-3.05.6c-1.88,0-3.31-.39-4.28-1.18s-1.6-1.93-1.88-3.46l-.05-.02Z"/>
          <path class="cls-3" d="m711.17,845.71v-2.12c-1.13,1.64-2.64,2.44-4.59,2.44-.85,0-1.65-.17-2.39-.49s-1.28-.73-1.64-1.23-.61-1.09-.75-1.81c-.1-.48-.15-1.25-.15-2.29v-8.94h2.46v8c0,1.28.05,2.13.15,2.58.15.65.48,1.14.97,1.52.49.36,1.11.55,1.84.55s1.42-.19,2.06-.56,1.09-.89,1.36-1.54.41-1.59.41-2.81v-7.74h2.44v14.43h-2.18v.02Z"/>
          <path class="cls-3" d="m717.18,845.71v-14.43h2.2v2.18c.56-1.02,1.07-1.71,1.55-2.03s1.01-.49,1.57-.49c.82,0,1.67.26,2.51.78l-.84,2.27c-.6-.36-1.19-.53-1.79-.53-.53,0-1.02.15-1.43.48-.43.32-.73.77-.9,1.35-.27.87-.41,1.83-.41,2.85v7.56h-2.44l-.02.02Z"/>
          <path class="cls-3" d="m736.35,841.07l2.52.31c-.39,1.48-1.14,2.63-2.22,3.45s-2.46,1.23-4.13,1.23c-2.12,0-3.79-.65-5.03-1.94s-1.86-3.12-1.86-5.48.63-4.32,1.88-5.66,2.87-2.01,4.86-2.01,3.51.67,4.73,1.98,1.84,3.16,1.84,5.54v.65h-10.76c.09,1.59.55,2.8,1.35,3.65.8.84,1.81,1.26,3.02,1.26.9,0,1.67-.24,2.3-.72s1.14-1.23,1.5-2.25h0Zm-8.03-3.96h8.07c-.1-1.21-.41-2.13-.92-2.73-.78-.94-1.79-1.42-3.04-1.42-1.13,0-2.06.38-2.83,1.13s-1.19,1.76-1.28,3.02Z"/>
          <path class="cls-3" d="m740.97,841.41l2.42-.38c.14.97.51,1.71,1.14,2.23.61.51,1.48.78,2.61.78s1.96-.22,2.51-.68.82-.99.82-1.62c0-.55-.24-.99-.72-1.3-.34-.22-1.18-.49-2.51-.84-1.79-.46-3.04-.85-3.74-1.18s-1.21-.78-1.57-1.36-.53-1.23-.53-1.94c0-.65.15-1.25.44-1.79.29-.55.7-1.01,1.21-1.36.38-.29.9-.51,1.55-.72s1.36-.29,2.12-.29c1.13,0,2.13.17,2.99.49s1.48.77,1.89,1.33.68,1.3.84,2.23l-2.39.32c-.1-.75-.43-1.33-.94-1.74-.53-.41-1.26-.63-2.2-.63-1.13,0-1.93.19-2.41.56s-.72.8-.72,1.3c0,.32.1.6.31.85s.51.48.94.65c.24.09.97.31,2.17.63,1.74.46,2.93.84,3.62,1.14.68.29,1.23.72,1.6,1.28.39.56.58,1.26.58,2.1s-.24,1.59-.72,2.3-1.16,1.28-2.06,1.67-1.91.6-3.05.6c-1.88,0-3.31-.39-4.28-1.18s-1.6-1.93-1.88-3.46l-.05-.02Z"/>
        </g>
        <g>
          <path class="cls-3" d="m483.89,1178.06l7.66-19.92h2.85l8.15,19.92h-3l-2.32-6.04h-8.34l-2.18,6.04h-2.81Zm5.75-8.19h6.75l-2.08-5.53c-.63-1.67-1.11-3.05-1.42-4.13-.26,1.28-.61,2.54-1.07,3.8l-2.18,5.85Z"/>
          <path class="cls-3" d="m504.28,1178.06v-19.92h2.46v19.92h-2.46Z"/>
          <path class="cls-3" d="m520.41,1173.41l2.52.31c-.39,1.48-1.14,2.63-2.22,3.45s-2.46,1.23-4.13,1.23c-2.12,0-3.79-.65-5.03-1.94s-1.86-3.12-1.86-5.48.63-4.32,1.88-5.66,2.87-2.01,4.86-2.01,3.51.67,4.73,1.98,1.84,3.16,1.84,5.54v.65h-10.76c.09,1.59.55,2.8,1.35,3.65.8.84,1.81,1.26,3.02,1.26.9,0,1.67-.24,2.3-.72s1.14-1.23,1.5-2.25h0Zm-8.03-3.96h8.07c-.1-1.21-.41-2.13-.92-2.73-.78-.94-1.79-1.42-3.04-1.42-1.13,0-2.06.38-2.83,1.13s-1.19,1.76-1.28,3.02Z"/>
          <path class="cls-3" d="m524.39,1178.06l5.27-7.51-4.88-6.93h3.05l2.22,3.38c.41.65.75,1.18,1.01,1.62.39-.6.77-1.13,1.11-1.59l2.44-3.41h2.92l-4.98,6.81,5.37,7.64h-3l-2.97-4.49-.78-1.21-3.79,5.7h-2.97l-.02-.02Z"/>
          <path class="cls-3" d="m547.09,1171.67l2.49-.22c.12.99.39,1.81.82,2.46s1.09,1.16,2.01,1.55c.9.39,1.93.6,3.05.6,1.01,0,1.89-.15,2.66-.44s1.35-.72,1.72-1.23c.38-.53.56-1.09.56-1.71s-.19-1.18-.55-1.64c-.36-.46-.96-.85-1.79-1.18-.53-.2-1.72-.53-3.55-.97-1.83-.44-3.12-.85-3.86-1.25-.96-.49-1.65-1.13-2.13-1.86-.46-.73-.7-1.57-.7-2.47,0-1.01.29-1.94.85-2.81s1.4-1.54,2.51-2c1.09-.46,2.32-.68,3.65-.68,1.48,0,2.78.24,3.91.72s2,1.18,2.61,2.1.94,1.98.97,3.14l-2.52.19c-.14-1.26-.6-2.22-1.38-2.85-.78-.65-1.94-.97-3.48-.97s-2.76.29-3.48.87-1.09,1.3-1.09,2.12c0,.72.26,1.3.77,1.77.51.46,1.83.94,3.97,1.42,2.15.48,3.62.9,4.42,1.28,1.16.53,2.01,1.21,2.58,2.03.55.82.84,1.77.84,2.83s-.31,2.06-.9,3c-.61.94-1.48,1.67-2.61,2.18-1.14.53-2.42.78-3.84.78-1.81,0-3.31-.26-4.54-.78-1.21-.53-2.18-1.31-2.87-2.37-.7-1.06-1.06-2.25-1.09-3.58l-.02-.02Z"/>
          <path class="cls-3" d="m566.25,1160.95v-2.81h2.44v2.81h-2.44Zm0,17.13v-14.43h2.44v14.43h-2.44Z"/>
          <path class="cls-3" d="m572.42,1178.06v-14.43h2.2v2.05c1.06-1.59,2.59-2.37,4.59-2.37.87,0,1.67.15,2.41.48.73.31,1.28.72,1.64,1.23s.61,1.11.77,1.81c.09.46.14,1.25.14,2.37v8.89h-2.44v-8.78c0-.99-.1-1.74-.29-2.23-.19-.49-.53-.89-1.01-1.18s-1.06-.44-1.71-.44c-1.04,0-1.94.32-2.7.99-.75.67-1.14,1.91-1.14,3.77v7.88h-2.44l-.02-.02Z"/>
          <path class="cls-3" d="m587.47,1179.26l2.39.36c.1.73.38,1.26.84,1.6.61.46,1.43.68,2.49.68,1.13,0,2.01-.22,2.63-.68s1.04-1.09,1.25-1.91c.12-.49.19-1.55.17-3.14-1.07,1.26-2.41,1.89-3.99,1.89-1.98,0-3.51-.72-4.61-2.15s-1.64-3.16-1.64-5.15c0-1.38.26-2.64.75-3.82.49-1.16,1.23-2.06,2.17-2.7.96-.63,2.06-.96,3.34-.96,1.71,0,3.1.68,4.21,2.06v-1.74h2.25v12.49c0,2.25-.22,3.84-.68,4.78s-1.18,1.67-2.18,2.22c-.99.55-2.22.82-3.67.82-1.72,0-3.12-.39-4.18-1.16-1.06-.78-1.57-1.94-1.54-3.5h0Zm2.03-8.67c0,1.89.38,3.28,1.13,4.15s1.69,1.31,2.83,1.31,2.06-.43,2.83-1.3,1.14-2.22,1.14-4.08-.39-3.1-1.18-3.99c-.78-.9-1.72-1.35-2.83-1.35s-2.01.44-2.78,1.33-1.14,2.2-1.14,3.94v-.02Z"/>
          <path class="cls-3" d="m603.4,1178.06v-19.92h2.44v7.15c1.14-1.33,2.58-1.98,4.32-1.98,1.07,0,2,.2,2.78.63s1.35,1.01,1.69,1.74c.34.75.51,1.83.51,3.24v9.14h-2.46v-9.14c0-1.23-.27-2.12-.8-2.68s-1.28-.84-2.25-.84c-.73,0-1.42.19-2.05.56s-1.09.89-1.36,1.54c-.27.65-.41,1.54-.41,2.66v7.9h-2.44.03Z"/>
        </g>
        <g>
          <path class="cls-3" d="m486.13,1211.48l-4.42-14.43h2.52l2.3,8.34.85,3.1c.03-.15.29-1.14.75-2.99l2.3-8.46h2.51l2.17,8.38.72,2.76.84-2.78,2.47-8.34h2.37l-4.52,14.43h-2.54l-2.3-8.65-.56-2.46-2.92,11.1h-2.56l.02-.02Z"/>
          <path class="cls-3" d="m503.58,1194.35v-2.81h2.44v2.81h-2.44Zm0,17.11v-14.43h2.44v14.43h-2.44Z"/>
          <path class="cls-3" d="m515.09,1209.28l.36,2.17c-.68.14-1.31.22-1.84.22-.89,0-1.57-.14-2.06-.43-.49-.29-.84-.65-1.04-1.11s-.31-1.42-.31-2.88v-8.31h-1.79v-1.91h1.79v-3.58l2.44-1.47v5.05h2.46v1.91h-2.46v8.44c0,.7.05,1.14.14,1.35s.22.36.43.48c.19.12.48.17.84.17.27,0,.63-.03,1.07-.1h-.02Z"/>
          <path class="cls-3" d="m517.48,1211.48v-19.92h2.44v7.15c1.14-1.33,2.58-1.98,4.32-1.98,1.07,0,2,.2,2.78.63s1.35,1.01,1.69,1.74.51,1.83.51,3.24v9.14h-2.46v-9.14c0-1.23-.27-2.12-.8-2.68s-1.28-.84-2.25-.84c-.73,0-1.42.19-2.05.56-.63.38-1.09.89-1.36,1.54-.27.65-.41,1.54-.41,2.66v7.9h-2.44.03Z"/>
          <path class="cls-3" d="m537.34,1211.48l7.66-19.92h2.85l8.15,19.92h-3l-2.32-6.04h-8.34l-2.18,6.04h-2.81Zm5.75-8.19h6.75l-2.08-5.53c-.63-1.67-1.11-3.05-1.42-4.13-.26,1.28-.61,2.54-1.07,3.8l-2.18,5.85Z"/>
          <path class="cls-3" d="m557.75,1211.48v-14.43h2.2v2.18c.56-1.02,1.07-1.71,1.55-2.03s1.01-.49,1.57-.49c.82,0,1.67.26,2.51.78l-.84,2.27c-.6-.36-1.19-.53-1.79-.53-.53,0-1.02.15-1.43.48-.43.32-.73.77-.9,1.35-.27.87-.41,1.83-.41,2.85v7.56h-2.44l-.02.02Z"/>
          <path class="cls-3" d="m576.93,1206.82l2.52.31c-.39,1.48-1.14,2.63-2.22,3.45-1.07.82-2.46,1.23-4.13,1.23-2.12,0-3.79-.65-5.03-1.94s-1.86-3.12-1.86-5.48.63-4.32,1.88-5.66,2.87-2.01,4.86-2.01,3.51.65,4.73,1.98,1.84,3.16,1.84,5.54v.65h-10.76c.09,1.59.55,2.8,1.35,3.65.8.84,1.81,1.26,3.02,1.26.9,0,1.67-.24,2.3-.7s1.14-1.23,1.5-2.25v-.02Zm-8.03-3.96h8.07c-.1-1.21-.41-2.13-.92-2.73-.78-.94-1.79-1.42-3.04-1.42-1.13,0-2.06.38-2.83,1.13s-1.19,1.76-1.28,3.02Z"/>
          <path class="cls-3" d="m583.22,1211.48v-2.78h2.78v2.78h-2.78Z"/>
          <path class="cls-3" d="m590.27,1211.48v-14.43h2.2v2.05c1.06-1.59,2.59-2.37,4.59-2.37.87,0,1.67.15,2.41.46s1.28.72,1.64,1.23.61,1.11.77,1.81c.09.46.14,1.25.14,2.39v8.87h-2.44v-8.78c0-.99-.1-1.74-.29-2.23-.19-.49-.53-.89-1.01-1.18s-1.06-.44-1.71-.44c-1.04,0-1.94.32-2.7.99-.75.67-1.14,1.91-1.14,3.77v7.88h-2.46Z"/>
          <path class="cls-3" d="m615.19,1209.69c-.9.77-1.77,1.31-2.61,1.64s-1.74.48-2.7.48c-1.59,0-2.8-.39-3.65-1.16s-1.28-1.76-1.28-2.97c0-.7.15-1.35.48-1.94.32-.58.75-1.06,1.26-1.42.53-.36,1.11-.61,1.76-.8.48-.14,1.21-.26,2.18-.38,1.98-.24,3.43-.51,4.37-.84v-.63c0-.99-.24-1.71-.7-2.12-.63-.55-1.55-.84-2.78-.84-1.16,0-2,.2-2.54.6-.55.41-.96,1.13-1.21,2.13l-2.39-.32c.22-1.02.58-1.84,1.07-2.47s1.21-1.11,2.17-1.45,2.03-.51,3.28-.51,2.23.14,3,.43,1.33.65,1.71,1.09c.36.44.61.99.77,1.67.09.41.12,1.18.12,2.25v3.26c0,2.27.05,3.72.15,4.32.1.6.31,1.18.61,1.74h-2.56c-.26-.51-.41-1.11-.49-1.77l-.02.02Zm-.2-5.46c-.89.36-2.22.67-3.99.92-1.01.14-1.72.31-2.13.49s-.73.44-.97.8c-.22.36-.34.73-.34,1.16,0,.65.24,1.19.73,1.64.49.43,1.21.65,2.17.65s1.77-.2,2.51-.61,1.28-.97,1.62-1.69c.26-.55.39-1.36.39-2.44v-.9l.02-.02Z"/>
        </g>
      </g>
      <g>
        <g>
          <path class="cls-3" d="m974.94,1204.69l-19.92-7.66v-2.85l19.92-8.15v3l-6.04,2.32v8.34l6.04,2.18v2.81Zm-8.19-5.75v-6.75l-5.53,2.08c-1.67.63-3.05,1.11-4.13,1.42,1.28.26,2.54.61,3.8,1.07l5.85,2.18Z"/>
          <path class="cls-3" d="m967.95,1163.5l.67-2.64c2.17.55,3.82,1.55,4.96,2.99s1.71,3.19,1.71,5.27-.44,3.89-1.31,5.24-2.15,2.37-3.8,3.07-3.45,1.06-5.34,1.06c-2.08,0-3.89-.39-5.42-1.19-1.55-.78-2.71-1.93-3.51-3.38-.8-1.47-1.21-3.07-1.21-4.83,0-2,.51-3.67,1.52-5.03,1.02-1.36,2.44-2.3,4.28-2.85l.61,2.59c-1.45.46-2.51,1.13-3.17,2.01s-.99,1.98-.99,3.31c0,1.54.36,2.81,1.11,3.84s1.72,1.76,2.95,2.17c1.25.41,2.51.63,3.82.63,1.69,0,3.17-.24,4.44-.73s2.2-1.26,2.83-2.3.94-2.17.94-3.38c0-1.48-.43-2.73-1.28-3.75-.85-1.02-2.12-1.72-3.79-2.08h0Z"/>
          <path class="cls-3" d="m973.17,1148.5c.77.9,1.31,1.77,1.64,2.61.32.84.48,1.74.48,2.7,0,1.59-.39,2.8-1.16,3.65s-1.76,1.28-2.97,1.28c-.7,0-1.35-.15-1.94-.48-.58-.32-1.06-.75-1.42-1.26-.36-.53-.61-1.11-.8-1.76-.14-.48-.26-1.21-.38-2.18-.24-1.98-.51-3.43-.84-4.37h-.63c-.99,0-1.71.24-2.12.7-.55.63-.84,1.55-.84,2.78,0,1.16.2,2,.6,2.54.41.55,1.13.96,2.13,1.21l-.32,2.39c-1.02-.22-1.84-.58-2.47-1.07s-1.11-1.21-1.45-2.17-.51-2.03-.51-3.28.14-2.23.43-3,.65-1.33,1.09-1.71c.44-.36.99-.61,1.67-.77.41-.09,1.18-.12,2.25-.12h3.26c2.27,0,3.72-.05,4.32-.15.6-.1,1.18-.31,1.74-.61v2.56c-.51.26-1.11.41-1.77.49l.02.02Zm-5.46.2c.36.89.67,2.22.92,3.99.14,1.01.31,1.72.49,2.13s.44.73.8.97c.36.22.73.34,1.16.34.65,0,1.19-.24,1.64-.73.43-.49.65-1.21.65-2.17s-.2-1.77-.61-2.51-.97-1.28-1.69-1.62c-.55-.26-1.36-.39-2.44-.39h-.9l-.02-.02Z"/>
          <path class="cls-3" d="m972.76,1137.11l2.17-.36c.14.68.22,1.31.22,1.84,0,.89-.14,1.57-.43,2.06-.29.49-.65.84-1.11,1.04s-1.42.31-2.88.31h-8.31v1.79h-1.91v-1.79h-3.58l-1.47-2.44h5.05v-2.46h1.91v2.46h8.44c.7,0,1.14-.05,1.35-.14s.36-.22.48-.43c.12-.19.17-.48.17-.84,0-.27-.03-.63-.1-1.07v.02Z"/>
          <path class="cls-3" d="m973.17,1125.29c.77.9,1.31,1.77,1.64,2.61.32.84.48,1.74.48,2.7,0,1.59-.39,2.8-1.16,3.65s-1.76,1.28-2.97,1.28c-.7,0-1.35-.15-1.94-.48-.58-.32-1.06-.75-1.42-1.26-.36-.53-.61-1.11-.8-1.76-.14-.48-.26-1.21-.38-2.18-.24-1.98-.51-3.43-.84-4.37h-.63c-.99,0-1.71.24-2.12.7-.55.63-.84,1.55-.84,2.78,0,1.16.2,2,.6,2.54.41.55,1.13.96,2.13,1.21l-.32,2.39c-1.02-.22-1.84-.58-2.47-1.07s-1.11-1.21-1.45-2.17-.51-2.03-.51-3.28.14-2.23.43-3,.65-1.33,1.09-1.71c.44-.36.99-.61,1.67-.77.41-.09,1.18-.12,2.25-.12h3.26c2.27,0,3.72-.05,4.32-.15.6-.1,1.18-.31,1.74-.61v2.56c-.51.26-1.11.41-1.77.49l.02.02Zm-5.46.2c.36.89.67,2.22.92,3.99.14,1.01.31,1.72.49,2.13s.44.73.8.97c.36.22.73.34,1.16.34.65,0,1.19-.24,1.64-.73.43-.49.65-1.21.65-2.17s-.2-1.77-.61-2.51-.97-1.28-1.69-1.62c-.55-.26-1.36-.39-2.44-.39h-.9l-.02-.02Z"/>
          <path class="cls-3" d="m974.94,1119.28h-19.92v-2.46h19.92v2.46Z"/>
          <path class="cls-3" d="m967.72,1113.94c-2.68,0-4.66-.75-5.94-2.23-1.07-1.25-1.6-2.76-1.6-4.54,0-1.98.65-3.6,1.94-4.86s3.1-1.89,5.39-1.89c1.86,0,3.33.27,4.38.84s1.89,1.36,2.49,2.44c.58,1.06.89,2.23.89,3.48,0,2.03-.65,3.65-1.94,4.9s-3.16,1.88-5.6,1.88h-.02Zm0-2.51c1.84,0,3.24-.41,4.16-1.21.92-.8,1.38-1.83,1.38-3.05s-.46-2.22-1.38-3.04c-.92-.8-2.34-1.21-4.23-1.21-1.79,0-3.14.41-4.06,1.21s-1.38,1.83-1.38,3.02.46,2.23,1.36,3.05c.92.8,2.3,1.21,4.15,1.21v.02Z"/>
          <path class="cls-3" d="m976.13,1097.99l.36-2.39c.73-.1,1.26-.38,1.6-.84.46-.61.68-1.43.68-2.49,0-1.13-.22-2.01-.68-2.63s-1.09-1.04-1.91-1.25c-.49-.12-1.55-.19-3.14-.17,1.26,1.07,1.89,2.41,1.89,3.99,0,1.98-.72,3.51-2.15,4.61s-3.16,1.64-5.15,1.64c-1.38,0-2.64-.26-3.82-.75-1.16-.49-2.06-1.23-2.7-2.17-.63-.96-.96-2.06-.96-3.34,0-1.71.68-3.1,2.06-4.21h-1.74v-2.25h12.49c2.25,0,3.84.22,4.78.68s1.67,1.18,2.22,2.18c.55.99.82,2.22.82,3.67,0,1.72-.39,3.12-1.16,4.18s-1.94,1.57-3.5,1.54h0Zm-8.67-2.03c1.89,0,3.28-.38,4.15-1.13s1.3-1.69,1.3-2.83-.43-2.06-1.3-2.83c-.87-.77-2.22-1.14-4.08-1.14s-3.1.39-3.99,1.18c-.9.78-1.35,1.72-1.35,2.83s.44,2.01,1.33,2.78,2.2,1.14,3.94,1.14h0Z"/>
          <path class="cls-3" d="m974.94,1072.59h-2.12c1.64,1.13,2.44,2.64,2.44,4.59,0,.85-.17,1.65-.49,2.39s-.73,1.28-1.23,1.64-1.09.61-1.81.75c-.48.1-1.25.15-2.29.15h-8.96v-2.46h8.02c1.28,0,2.13-.05,2.58-.15.65-.15,1.14-.48,1.52-.97.36-.49.55-1.11.55-1.84s-.19-1.42-.56-2.06c-.38-.65-.89-1.09-1.54-1.36s-1.59-.41-2.81-.41h-7.74v-2.44h14.43v2.18h.02Z"/>
          <path class="cls-3" d="m970.28,1056.7l.31-2.52c1.48.39,2.63,1.14,3.45,2.22.82,1.07,1.23,2.46,1.23,4.13,0,2.12-.65,3.79-1.94,5.03-1.3,1.25-3.12,1.86-5.48,1.86s-4.32-.63-5.66-1.88-2.01-2.87-2.01-4.86.65-3.51,1.98-4.73,3.16-1.84,5.54-1.84h.65v10.76c1.59-.09,2.8-.55,3.65-1.35.84-.8,1.26-1.81,1.26-3.02,0-.9-.24-1.67-.7-2.3s-1.23-1.14-2.25-1.5h-.02Zm-3.96,8.03v-8.07c-1.21.1-2.13.41-2.73.92-.94.78-1.42,1.79-1.42,3.04,0,1.13.38,2.06,1.13,2.83.75.77,1.76,1.19,3.02,1.28Z"/>
          <path class="cls-3" d="m967.72,1044.26c-2.68,0-4.66-.75-5.94-2.23-1.07-1.25-1.6-2.76-1.6-4.54,0-1.98.65-3.6,1.94-4.86s3.1-1.89,5.39-1.89c1.86,0,3.33.27,4.38.84s1.89,1.36,2.49,2.44c.58,1.06.89,2.23.89,3.48,0,2.03-.65,3.65-1.94,4.9s-3.16,1.88-5.6,1.88h-.02Zm0-2.51c1.84,0,3.24-.41,4.16-1.21.92-.8,1.38-1.83,1.38-3.05s-.46-2.22-1.38-3.04c-.92-.8-2.34-1.21-4.23-1.21-1.79,0-3.14.41-4.06,1.21s-1.38,1.83-1.38,3.02.46,2.23,1.36,3.05c.92.8,2.3,1.21,4.15,1.21v.02Z"/>
          <path class="cls-3" d="m974.94,1027.29h-12.54v2.17h-1.91v-2.17h-1.54c-.97,0-1.69-.09-2.17-.26-.63-.24-1.14-.65-1.54-1.25s-.6-1.43-.6-2.49c0-.68.09-1.45.24-2.29l2.13.38c-.09.51-.14.99-.14,1.43,0,.75.15,1.26.48,1.57s.9.46,1.77.46h1.33v-2.81h1.91v2.81h12.54v2.44h.02Z"/>
          <path class="cls-3" d="m968.54,1012.98l-.22-2.49c.99-.12,1.81-.39,2.46-.82.63-.43,1.16-1.09,1.55-2.01s.6-1.93.6-3.05c0-1.01-.15-1.89-.44-2.66-.31-.77-.72-1.35-1.23-1.72-.53-.38-1.09-.56-1.71-.56s-1.18.19-1.64.55-.85.96-1.18,1.79c-.2.53-.53,1.72-.97,3.55s-.85,3.12-1.25,3.86c-.49.96-1.13,1.65-1.86,2.13-.73.46-1.57.7-2.49.7-1.01,0-1.94-.29-2.81-.85s-1.54-1.4-2-2.51c-.46-1.09-.68-2.32-.68-3.65,0-1.48.24-2.78.72-3.91.48-1.13,1.18-2,2.1-2.61s1.98-.94,3.14-.97l.19,2.52c-1.26.14-2.22.6-2.85,1.38-.65.78-.97,1.94-.97,3.48s.29,2.76.87,3.48,1.3,1.09,2.12,1.09c.72,0,1.31-.26,1.77-.77.46-.51.94-1.83,1.42-3.97s.9-3.62,1.28-4.42c.53-1.16,1.21-2.01,2.03-2.58.82-.55,1.76-.84,2.83-.84s2.06.31,3,.9c.94.61,1.67,1.48,2.18,2.61.53,1.14.78,2.42.78,3.84,0,1.81-.26,3.31-.78,4.54-.53,1.21-1.31,2.18-2.37,2.87-1.06.7-2.25,1.06-3.58,1.09v.02Z"/>
          <path class="cls-3" d="m957.83,993.82h-2.81v-2.44h2.81v2.44Zm17.11,0h-14.43v-2.44h14.43v2.44Z"/>
          <path class="cls-3" d="m974.94,987.65h-14.43v-2.18h2.03c-.72-.46-1.28-1.06-1.71-1.81s-.65-1.6-.65-2.58c0-1.07.22-1.94.67-2.63.44-.68,1.06-1.16,1.86-1.45-1.69-1.14-2.52-2.63-2.52-4.45,0-1.43.39-2.54,1.19-3.31s2.01-1.16,3.67-1.16h9.91v2.44h-9.09c-.97,0-1.69.09-2.12.24s-.78.44-1.04.87c-.26.41-.39.9-.39,1.47,0,1.02.34,1.86,1.01,2.52s1.76,1.01,3.24,1.01h8.39v2.44h-9.38c-1.09,0-1.91.2-2.44.6-.55.39-.82,1.06-.82,1.96,0,.68.19,1.33.55,1.91.36.58.89,1.01,1.59,1.28.7.26,1.71.39,3.02.39h7.49v2.44h-.02Z"/>
          <path class="cls-3" d="m980.47,964.45h-19.97v-2.23h1.88c-.73-.53-1.28-1.13-1.65-1.77s-.55-1.47-.55-2.41c0-1.23.32-2.32.96-3.26s1.54-1.65,2.68-2.13c1.16-.48,2.42-.72,3.8-.72,1.48,0,2.81.27,3.99.8s2.08,1.3,2.71,2.3c.63,1.01.94,2.08.94,3.19,0,.82-.17,1.55-.51,2.2s-.78,1.18-1.31,1.6h7.03v2.44l.02-.02Zm-12.67-2.22c1.86,0,3.22-.38,4.13-1.13.89-.75,1.33-1.67,1.33-2.73s-.46-2.01-1.38-2.8c-.92-.77-2.35-1.16-4.28-1.16s-3.22.38-4.13,1.14c-.92.75-1.38,1.65-1.38,2.71s.49,1.96,1.47,2.76,2.39,1.21,4.25,1.21v-.02Z"/>
          <path class="cls-3" d="m974.94,949.01h-19.92v-2.46h19.92v2.46Z"/>
          <path class="cls-3" d="m970.28,932.89l.31-2.52c1.48.39,2.63,1.14,3.45,2.22.82,1.07,1.23,2.46,1.23,4.13,0,2.12-.65,3.79-1.94,5.03s-3.12,1.86-5.48,1.86-4.32-.63-5.66-1.88-2.01-2.87-2.01-4.86.65-3.51,1.98-4.73,3.16-1.84,5.54-1.84h.65v10.76c1.59-.09,2.8-.55,3.65-1.35.84-.8,1.26-1.81,1.26-3.02,0-.9-.24-1.67-.7-2.3s-1.23-1.14-2.25-1.5h-.02Zm-3.96,8.03v-8.07c-1.21.1-2.13.41-2.73.92-.94.78-1.42,1.79-1.42,3.04,0,1.13.38,2.06,1.13,2.83s1.76,1.19,3.02,1.28Z"/>
          <path class="cls-3" d="m974.94,919.24h-19.92v-7.52c0-1.33.07-2.34.19-3.04.17-.97.48-1.79.94-2.46.46-.67,1.09-1.19,1.93-1.6.82-.41,1.74-.6,2.71-.6,1.69,0,3.12.55,4.3,1.62s1.76,3.02,1.76,5.85v5.12h8.1v2.64-.02Zm-10.46-2.64v-5.15c0-1.71-.32-2.92-.96-3.63s-1.54-1.07-2.68-1.07c-.84,0-1.55.2-2.15.63-.6.43-.99.97-1.18,1.67-.12.44-.17,1.26-.17,2.46v5.1h7.13Z"/>
          <path class="cls-3" d="m974.94,901.04h-19.92v-2.46h19.92v2.46Z"/>
          <path class="cls-3" d="m970.28,884.91l.31-2.52c1.48.39,2.63,1.14,3.45,2.22.82,1.07,1.23,2.46,1.23,4.13,0,2.12-.65,3.79-1.94,5.03s-3.12,1.86-5.48,1.86-4.32-.63-5.66-1.88-2.01-2.87-2.01-4.86.65-3.51,1.98-4.73,3.16-1.84,5.54-1.84h.65v10.76c1.59-.09,2.8-.55,3.65-1.35.84-.8,1.26-1.81,1.26-3.02,0-.9-.24-1.67-.7-2.3s-1.23-1.14-2.25-1.5h-.02Zm-3.96,8.03v-8.07c-1.21.1-2.13.41-2.73.92-.94.78-1.42,1.79-1.42,3.04,0,1.13.38,2.06,1.13,2.83s1.76,1.19,3.02,1.28Z"/>
          <path class="cls-3" d="m973.17,869.88c.77.9,1.31,1.77,1.64,2.61s.48,1.74.48,2.7c0,1.59-.39,2.8-1.16,3.65s-1.76,1.28-2.97,1.28c-.7,0-1.35-.15-1.94-.48-.58-.32-1.06-.75-1.42-1.26-.36-.53-.61-1.11-.8-1.76-.14-.48-.26-1.21-.38-2.18-.24-1.98-.51-3.43-.84-4.37h-.63c-.99,0-1.71.24-2.12.7-.55.63-.84,1.55-.84,2.78,0,1.16.2,2,.6,2.54.41.55,1.13.96,2.13,1.21l-.32,2.39c-1.02-.22-1.84-.58-2.47-1.07s-1.11-1.21-1.45-2.17-.51-2.03-.51-3.28.14-2.23.43-3,.65-1.33,1.09-1.71c.44-.36.99-.61,1.67-.77.41-.09,1.18-.12,2.25-.12h3.26c2.27,0,3.72-.05,4.32-.15.6-.1,1.18-.31,1.74-.61v2.56c-.51.26-1.11.41-1.77.49l.02.02Zm-5.46.2c.36.89.67,2.22.92,3.99.14,1.01.31,1.72.49,2.13s.44.73.8.97c.36.22.73.34,1.16.34.65,0,1.19-.24,1.64-.73.43-.49.65-1.21.65-2.17s-.2-1.77-.61-2.51-.97-1.28-1.69-1.62c-.55-.26-1.36-.39-2.44-.39h-.9l-.02-.02Z"/>
          <path class="cls-3" d="m970.62,864.79l-.38-2.42c.97-.14,1.71-.51,2.23-1.14.51-.61.77-1.48.77-2.61s-.22-1.96-.68-2.51-.99-.82-1.6-.82c-.55,0-.99.24-1.31.72-.22.34-.49,1.18-.84,2.51-.46,1.79-.85,3.04-1.18,3.74s-.78,1.21-1.36,1.57-1.23.53-1.94.53c-.65,0-1.25-.15-1.79-.44s-1.01-.7-1.36-1.21c-.29-.38-.51-.9-.72-1.55s-.29-1.36-.29-2.12c0-1.13.17-2.13.49-2.99s.77-1.48,1.33-1.89,1.3-.68,2.23-.84l.32,2.39c-.75.1-1.33.43-1.74.94s-.63,1.26-.63,2.2c0,1.13.19,1.93.56,2.41.38.48.8.72,1.31.72.32,0,.6-.1.85-.31s.48-.51.65-.94c.09-.24.29-.97.63-2.17.46-1.74.84-2.93,1.14-3.62.29-.68.72-1.23,1.28-1.6s1.26-.58,2.1-.58,1.59.24,2.3.72,1.28,1.16,1.67,2.06.6,1.91.6,3.05c0,1.88-.39,3.31-1.18,4.28s-1.93,1.6-3.46,1.88l-.02.05Z"/>
          <path class="cls-3" d="m974.94,840.44h-2.12c1.64,1.13,2.44,2.64,2.44,4.59,0,.85-.17,1.65-.49,2.39s-.73,1.28-1.23,1.64-1.09.61-1.81.75c-.48.1-1.25.15-2.29.15h-8.96v-2.46h8.02c1.28,0,2.13-.05,2.58-.15.65-.15,1.14-.48,1.52-.97.36-.49.55-1.11.55-1.84s-.19-1.42-.56-2.06c-.38-.65-.89-1.09-1.54-1.36s-1.59-.41-2.81-.41h-7.74v-2.44h14.43v2.18h.02Z"/>
          <path class="cls-3" d="m974.94,834.45h-14.43v-2.2h2.18c-1.02-.56-1.71-1.07-2.03-1.55s-.49-1.01-.49-1.57c0-.82.26-1.67.78-2.51l2.27.84c-.36.6-.53,1.19-.53,1.79,0,.53.15,1.02.48,1.43.32.43.77.73,1.35.9.87.27,1.83.41,2.85.41h7.56v2.44l.02.02Z"/>
          <path class="cls-3" d="m970.28,815.26l.31-2.52c1.48.39,2.63,1.14,3.45,2.22.82,1.07,1.23,2.46,1.23,4.13,0,2.12-.65,3.79-1.94,5.03s-3.12,1.86-5.48,1.86-4.32-.63-5.66-1.88-2.01-2.87-2.01-4.86.65-3.51,1.98-4.73,3.16-1.84,5.54-1.84h.65v10.76c1.59-.09,2.8-.55,3.65-1.35.84-.8,1.26-1.81,1.26-3.02,0-.9-.24-1.67-.7-2.3s-1.23-1.14-2.25-1.5h-.02Zm-3.96,8.03v-8.07c-1.21.1-2.13.41-2.73.92-.94.78-1.42,1.79-1.42,3.04,0,1.13.38,2.06,1.13,2.83s1.76,1.19,3.02,1.28Z"/>
          <path class="cls-3" d="m970.62,810.64l-.38-2.42c.97-.14,1.71-.51,2.23-1.14.51-.61.77-1.48.77-2.61s-.22-1.96-.68-2.51-.99-.82-1.6-.82c-.55,0-.99.24-1.31.72-.22.34-.49,1.18-.84,2.51-.46,1.79-.85,3.04-1.18,3.74s-.78,1.21-1.36,1.57-1.23.53-1.94.53c-.65,0-1.25-.15-1.79-.44s-1.01-.7-1.36-1.21c-.29-.38-.51-.9-.72-1.55s-.29-1.36-.29-2.12c0-1.13.17-2.13.49-2.99s.77-1.48,1.33-1.89,1.3-.68,2.23-.84l.32,2.39c-.75.1-1.33.43-1.74.94s-.63,1.26-.63,2.2c0,1.13.19,1.93.56,2.41.38.48.8.72,1.31.72.32,0,.6-.1.85-.31s.48-.51.65-.94c.09-.24.29-.97.63-2.17.46-1.74.84-2.93,1.14-3.62.29-.68.72-1.23,1.28-1.6s1.26-.58,2.1-.58,1.59.24,2.3.72,1.28,1.16,1.67,2.06.6,1.91.6,3.05c0,1.88-.39,3.31-1.18,4.28s-1.93,1.6-3.46,1.88l-.02.05Z"/>
        </g>
        <g>
          <g>
            <path class="cls-3" d="m958.24,588.97l-19.92-7.66v-2.85l19.92-8.15v3l-6.04,2.32v8.34l6.04,2.18v2.81Zm-8.19-5.75v-6.75l-5.53,2.08c-1.67.63-3.05,1.11-4.13,1.42,1.28.26,2.54.61,3.8,1.07l5.85,2.18Z"/>
            <path class="cls-3" d="m958.24,568.58h-19.92v-2.46h19.92v2.46Z"/>
            <path class="cls-3" d="m953.58,552.45l.31-2.52c1.48.39,2.63,1.14,3.45,2.22s1.23,2.46,1.23,4.13c0,2.12-.65,3.79-1.94,5.03s-3.12,1.86-5.48,1.86-4.32-.63-5.66-1.88-2.01-2.87-2.01-4.86.67-3.51,1.98-4.73,3.16-1.84,5.54-1.84h.65v10.76c1.59-.09,2.8-.55,3.65-1.35.84-.8,1.26-1.81,1.26-3.02,0-.9-.24-1.67-.72-2.3s-1.23-1.14-2.25-1.5h0Zm-3.96,8.03v-8.07c-1.21.1-2.13.41-2.73.92-.94.78-1.42,1.79-1.42,3.04,0,1.13.38,2.06,1.13,2.83s1.76,1.19,3.02,1.28Z"/>
            <path class="cls-3" d="m958.24,548.49l-7.51-5.27-6.93,4.88v-3.05l3.38-2.22c.65-.41,1.18-.75,1.62-1.01-.6-.39-1.13-.77-1.59-1.11l-3.41-2.44v-2.92l6.81,4.98,7.64-5.37v3l-4.49,2.97-1.21.78,5.7,3.79v2.97l-.02.02Z"/>
            <path class="cls-3" d="m951.83,525.78l-.22-2.49c.99-.12,1.81-.39,2.46-.82s1.16-1.09,1.55-2.01c.39-.9.6-1.93.6-3.05,0-1.01-.15-1.89-.44-2.66s-.72-1.35-1.23-1.72c-.53-.38-1.09-.56-1.71-.56s-1.18.19-1.64.55c-.46.36-.85.96-1.18,1.79-.2.53-.53,1.72-.97,3.55-.44,1.83-.85,3.12-1.25,3.86-.49.96-1.13,1.65-1.86,2.13-.73.46-1.57.7-2.47.7-1.01,0-1.94-.29-2.81-.85s-1.54-1.4-2-2.51c-.46-1.09-.68-2.32-.68-3.65,0-1.48.24-2.78.72-3.91s1.18-2,2.1-2.61,1.98-.94,3.14-.97l.19,2.52c-1.26.14-2.22.6-2.85,1.38-.65.78-.97,1.94-.97,3.48s.29,2.76.87,3.48,1.3,1.09,2.12,1.09c.72,0,1.3-.26,1.77-.77.46-.51.94-1.83,1.42-3.97.48-2.15.9-3.62,1.28-4.42.53-1.16,1.21-2.01,2.03-2.58.82-.55,1.77-.84,2.83-.84s2.06.31,3,.9c.94.61,1.67,1.48,2.18,2.61.53,1.14.78,2.42.78,3.84,0,1.81-.26,3.31-.78,4.54-.53,1.21-1.31,2.18-2.37,2.87-1.06.7-2.25,1.06-3.58,1.09l-.02.02Z"/>
            <path class="cls-3" d="m941.11,506.61h-2.81v-2.44h2.81v2.44Zm17.13,0h-14.43v-2.44h14.43v2.44Z"/>
            <path class="cls-3" d="m958.24,500.44h-14.43v-2.2h2.05c-1.59-1.06-2.37-2.59-2.37-4.59,0-.87.15-1.67.48-2.41.31-.73.72-1.28,1.23-1.64s1.11-.61,1.81-.77c.46-.09,1.25-.14,2.37-.14h8.89v2.44h-8.78c-.99,0-1.74.1-2.23.29s-.89.53-1.18,1.01-.44,1.06-.44,1.71c0,1.04.32,1.94.99,2.7s1.91,1.14,3.77,1.14h7.88v2.44l-.02.02Z"/>
            <path class="cls-3" d="m959.43,485.39l.36-2.39c.73-.1,1.26-.38,1.6-.84.46-.61.68-1.43.68-2.49,0-1.13-.22-2.01-.68-2.63s-1.09-1.04-1.91-1.25c-.49-.12-1.55-.19-3.14-.17,1.26,1.07,1.89,2.41,1.89,3.99,0,1.98-.72,3.51-2.15,4.61s-3.16,1.64-5.15,1.64c-1.38,0-2.64-.26-3.82-.75-1.16-.49-2.06-1.23-2.7-2.17-.63-.96-.96-2.06-.96-3.34,0-1.71.68-3.1,2.06-4.21h-1.74v-2.25h12.49c2.25,0,3.84.22,4.78.68.94.46,1.67,1.18,2.22,2.18.55.99.82,2.22.82,3.67,0,1.72-.39,3.12-1.16,4.18-.78,1.06-1.94,1.57-3.5,1.54h0Zm-8.67-2.03c1.89,0,3.28-.38,4.15-1.13s1.31-1.69,1.31-2.83-.43-2.06-1.3-2.83-2.22-1.14-4.08-1.14-3.1.39-3.99,1.18c-.9.78-1.35,1.72-1.35,2.83s.44,2.01,1.33,2.78c.89.77,2.2,1.14,3.94,1.14h-.02Z"/>
            <path class="cls-3" d="m958.24,469.46h-19.92v-2.44h7.15c-1.33-1.14-1.98-2.58-1.98-4.32,0-1.07.2-2,.63-2.78s1.01-1.35,1.74-1.69c.75-.34,1.83-.51,3.24-.51h9.14v2.46h-9.14c-1.23,0-2.12.27-2.68.8s-.84,1.28-.84,2.25c0,.73.19,1.42.56,2.05s.89,1.09,1.54,1.36,1.54.41,2.66.41h7.9v2.44-.03Z"/>
          </g>
          <g>
            <path class="cls-3" d="m991.64,584.48l-14.43,4.42v-2.52l8.34-2.3,3.1-.85c-.15-.03-1.14-.29-2.99-.75l-8.46-2.3v-2.51l8.38-2.17,2.76-.72-2.78-.84-8.34-2.47v-2.37l14.43,4.52v2.54l-8.65,2.3-2.46.56,11.1,2.92v2.56l-.02-.02Z"/>
            <path class="cls-3" d="m974.53,567.01h-2.81v-2.44h2.81v2.44Zm17.11,0h-14.43v-2.44h14.43v2.44Z"/>
            <path class="cls-3" d="m989.46,555.5l2.17-.36c.14.68.22,1.31.22,1.84,0,.89-.14,1.57-.43,2.06-.29.49-.65.84-1.11,1.04s-1.42.31-2.88.31h-8.31v1.79h-1.91v-1.79h-3.58l-1.47-2.44h5.05v-2.46h1.91v2.46h8.44c.7,0,1.14-.05,1.35-.14s.36-.22.48-.43c.12-.19.17-.48.17-.84,0-.27-.03-.63-.1-1.07v.02Z"/>
            <path class="cls-3" d="m991.64,553.11h-19.92v-2.44h7.15c-1.33-1.14-1.98-2.58-1.98-4.32,0-1.07.2-2,.63-2.78s1.01-1.35,1.74-1.69,1.83-.51,3.24-.51h9.14v2.46h-9.14c-1.23,0-2.12.27-2.68.8s-.84,1.28-.84,2.25c0,.73.19,1.42.56,2.05.38.63.89,1.09,1.54,1.36.65.27,1.54.41,2.66.41h7.9v2.44-.03Z"/>
            <path class="cls-3" d="m991.64,533.27l-19.92-7.66v-2.85l19.92-8.15v3l-6.04,2.32v8.34l6.04,2.18v2.81Zm-8.19-5.75v-6.75l-5.53,2.08c-1.67.63-3.05,1.11-4.13,1.42,1.28.26,2.54.61,3.8,1.07l5.85,2.18Z"/>
            <path class="cls-3" d="m991.64,512.84h-14.43v-2.2h2.18c-1.02-.56-1.71-1.07-2.03-1.55s-.49-1.01-.49-1.57c0-.82.26-1.67.78-2.51l2.27.84c-.36.6-.53,1.19-.53,1.79,0,.53.15,1.02.48,1.43.32.43.77.73,1.35.9.87.27,1.83.41,2.85.41h7.56v2.44l.02.02Z"/>
            <path class="cls-3" d="m987,493.66l.31-2.52c1.48.39,2.63,1.14,3.45,2.22.82,1.07,1.23,2.46,1.23,4.13,0,2.12-.65,3.79-1.94,5.03s-3.12,1.86-5.48,1.86-4.32-.63-5.66-1.88c-1.35-1.25-2.01-2.87-2.01-4.86s.65-3.51,1.98-4.73,3.16-1.84,5.54-1.84h.65v10.76c1.59-.09,2.8-.55,3.65-1.35.84-.8,1.26-1.81,1.26-3.02,0-.9-.24-1.67-.7-2.3s-1.23-1.14-2.25-1.5h-.02Zm-3.96,8.03v-8.07c-1.21.1-2.13.41-2.73.92-.94.78-1.42,1.79-1.42,3.04,0,1.13.38,2.06,1.13,2.83s1.76,1.19,3.02,1.28Z"/>
            <path class="cls-3" d="m991.64,487.37h-2.78v-2.78h2.78v2.78Z"/>
            <path class="cls-3" d="m991.64,480.33h-14.43v-2.2h2.05c-1.59-1.06-2.37-2.59-2.37-4.59,0-.87.15-1.67.46-2.41.31-.73.72-1.28,1.23-1.64s1.11-.61,1.81-.77c.46-.09,1.25-.14,2.39-.14h8.87v2.44h-8.78c-.99,0-1.74.1-2.23.29s-.89.53-1.18,1.01-.44,1.06-.44,1.71c0,1.04.32,1.94.99,2.7s1.91,1.14,3.77,1.14h7.88v2.46Z"/>
            <path class="cls-3" d="m989.87,455.42c.77.9,1.31,1.77,1.64,2.61s.48,1.74.48,2.7c0,1.59-.39,2.8-1.16,3.65s-1.76,1.28-2.97,1.28c-.7,0-1.35-.15-1.94-.48-.58-.32-1.06-.75-1.42-1.26-.36-.53-.61-1.11-.8-1.76-.14-.48-.26-1.21-.38-2.18-.24-1.98-.51-3.43-.84-4.37h-.63c-.99,0-1.71.24-2.12.7-.55.63-.84,1.55-.84,2.78,0,1.16.2,2,.6,2.54.41.55,1.13.96,2.13,1.21l-.32,2.39c-1.02-.22-1.84-.58-2.47-1.07-.63-.49-1.11-1.21-1.45-2.17s-.51-2.03-.51-3.28.14-2.23.43-3,.65-1.33,1.09-1.71c.44-.36.99-.61,1.67-.77.41-.09,1.18-.12,2.25-.12h3.26c2.27,0,3.72-.05,4.32-.15.6-.1,1.18-.31,1.74-.61v2.56c-.51.26-1.11.41-1.77.49l.02.02Zm-5.46.2c.36.89.67,2.22.92,3.99.14,1.01.31,1.72.49,2.13s.44.73.8.97c.36.22.73.34,1.16.34.65,0,1.19-.24,1.64-.73.43-.49.65-1.21.65-2.17s-.2-1.77-.61-2.51c-.41-.73-.97-1.28-1.69-1.62-.55-.26-1.36-.39-2.44-.39h-.9l-.02-.02Z"/>
          </g>
        </g>
      </g>
      <g>
        <g>
          <path class="cls-3" d="m145.17,1204.69l-19.92-7.66v-2.85l19.92-8.15v3l-6.04,2.32v8.34l6.04,2.18v2.81Zm-8.19-5.75v-6.75l-5.53,2.08c-1.67.63-3.05,1.11-4.13,1.42,1.28.26,2.54.61,3.8,1.07,0,0,5.85,2.18,5.85,2.18Z"/>
          <path class="cls-3" d="m138.18,1163.5l.67-2.64c2.17.55,3.82,1.55,4.96,2.99s1.71,3.19,1.71,5.27-.44,3.89-1.31,5.24-2.15,2.37-3.8,3.07-3.45,1.06-5.34,1.06c-2.08,0-3.89-.39-5.42-1.19-1.55-.78-2.71-1.93-3.51-3.38-.8-1.47-1.21-3.07-1.21-4.83,0-2,.51-3.67,1.52-5.03,1.02-1.36,2.44-2.3,4.28-2.85l.61,2.59c-1.45.46-2.51,1.13-3.17,2.01s-.99,1.98-.99,3.31c0,1.54.36,2.81,1.11,3.84s1.72,1.76,2.95,2.17c1.25.41,2.51.63,3.82.63,1.69,0,3.17-.24,4.44-.73s2.2-1.26,2.83-2.3.94-2.17.94-3.38c0-1.48-.43-2.73-1.28-3.75-.85-1.02-2.12-1.72-3.79-2.08h0Z"/>
          <path class="cls-3" d="m143.38,1148.5c.77.9,1.31,1.77,1.64,2.61.32.84.48,1.74.48,2.7,0,1.59-.39,2.8-1.16,3.65s-1.76,1.28-2.97,1.28c-.7,0-1.35-.15-1.94-.48-.58-.32-1.06-.75-1.42-1.26-.36-.53-.61-1.11-.8-1.76-.14-.48-.26-1.21-.38-2.18-.24-1.98-.51-3.43-.84-4.37h-.63c-.99,0-1.71.24-2.12.7-.55.63-.84,1.55-.84,2.78,0,1.16.2,2,.6,2.54.41.55,1.13.96,2.13,1.21l-.32,2.39c-1.02-.22-1.84-.58-2.47-1.07s-1.11-1.21-1.45-2.17-.51-2.03-.51-3.28.14-2.23.43-3,.65-1.33,1.09-1.71c.44-.36.99-.61,1.67-.77.41-.09,1.18-.12,2.25-.12h3.26c2.27,0,3.72-.05,4.32-.15s1.18-.31,1.74-.61v2.56c-.51.26-1.11.41-1.77.49l.02.02Zm-5.46.2c.36.89.67,2.22.92,3.99.14,1.01.31,1.72.49,2.13s.44.73.8.97c.36.22.73.34,1.16.34.65,0,1.19-.24,1.64-.73.43-.49.65-1.21.65-2.17s-.2-1.77-.61-2.51-.97-1.28-1.69-1.62c-.55-.26-1.36-.39-2.44-.39h-.9l-.02-.02Z"/>
          <path class="cls-3" d="m142.99,1137.11l2.17-.36c.14.68.22,1.31.22,1.84,0,.89-.14,1.57-.43,2.06-.29.49-.65.84-1.11,1.04s-1.42.31-2.88.31h-8.31v1.79h-1.91v-1.79h-3.58l-1.47-2.44h5.05v-2.46h1.91v2.46h8.44c.7,0,1.14-.05,1.35-.14.2-.09.36-.22.48-.43.12-.19.17-.48.17-.84,0-.27-.03-.63-.1-1.07v.02Z"/>
          <path class="cls-3" d="m143.38,1125.29c.77.9,1.31,1.77,1.64,2.61.32.84.48,1.74.48,2.7,0,1.59-.39,2.8-1.16,3.65s-1.76,1.28-2.97,1.28c-.7,0-1.35-.15-1.94-.48-.58-.32-1.06-.75-1.42-1.26-.36-.53-.61-1.11-.8-1.76-.14-.48-.26-1.21-.38-2.18-.24-1.98-.51-3.43-.84-4.37h-.63c-.99,0-1.71.24-2.12.7-.55.63-.84,1.55-.84,2.78,0,1.16.2,2,.6,2.54.41.55,1.13.96,2.13,1.21l-.32,2.39c-1.02-.22-1.84-.58-2.47-1.07s-1.11-1.21-1.45-2.17-.51-2.03-.51-3.28.14-2.23.43-3,.65-1.33,1.09-1.71c.44-.36.99-.61,1.67-.77.41-.09,1.18-.12,2.25-.12h3.26c2.27,0,3.72-.05,4.32-.15s1.18-.31,1.74-.61v2.56c-.51.26-1.11.41-1.77.49l.02.02Zm-5.46.2c.36.89.67,2.22.92,3.99.14,1.01.31,1.72.49,2.13s.44.73.8.97c.36.22.73.34,1.16.34.65,0,1.19-.24,1.64-.73.43-.49.65-1.21.65-2.17s-.2-1.77-.61-2.51-.97-1.28-1.69-1.62c-.55-.26-1.36-.39-2.44-.39h-.9l-.02-.02Z"/>
          <path class="cls-3" d="m145.17,1119.28h-19.92v-2.46h19.92v2.46Z"/>
          <path class="cls-3" d="m137.96,1113.94c-2.68,0-4.66-.75-5.94-2.23-1.07-1.25-1.6-2.76-1.6-4.54,0-1.98.65-3.6,1.94-4.86s3.1-1.89,5.39-1.89c1.86,0,3.33.27,4.38.84s1.89,1.36,2.49,2.44c.58,1.06.89,2.23.89,3.48,0,2.03-.65,3.65-1.94,4.9s-3.16,1.88-5.6,1.88h-.02Zm0-2.51c1.84,0,3.24-.41,4.16-1.21.92-.8,1.38-1.83,1.38-3.05s-.46-2.22-1.38-3.04c-.92-.8-2.34-1.21-4.23-1.21-1.79,0-3.14.41-4.06,1.21s-1.38,1.83-1.38,3.02.46,2.23,1.36,3.05c.92.8,2.3,1.21,4.15,1.21v.02Z"/>
          <path class="cls-3" d="m146.37,1097.99l.36-2.39c.73-.1,1.26-.38,1.6-.84.46-.61.68-1.43.68-2.49,0-1.13-.22-2.01-.68-2.63s-1.09-1.04-1.91-1.25c-.49-.12-1.55-.19-3.14-.17,1.26,1.07,1.89,2.41,1.89,3.99,0,1.98-.72,3.51-2.15,4.61s-3.16,1.64-5.15,1.64c-1.38,0-2.64-.26-3.82-.75-1.16-.49-2.06-1.23-2.7-2.17-.63-.96-.96-2.06-.96-3.34,0-1.71.68-3.1,2.06-4.21h-1.74v-2.25h12.49c2.25,0,3.84.22,4.78.68s1.67,1.18,2.22,2.18c.55.99.82,2.22.82,3.67,0,1.72-.39,3.12-1.16,4.18s-1.94,1.57-3.5,1.54h0Zm-8.67-2.03c1.89,0,3.28-.38,4.15-1.13.87-.75,1.3-1.69,1.3-2.83s-.43-2.06-1.3-2.83c-.87-.77-2.22-1.14-4.08-1.14s-3.1.39-3.99,1.18c-.9.78-1.35,1.72-1.35,2.83s.44,2.01,1.33,2.78,2.2,1.14,3.94,1.14h0Z"/>
          <path class="cls-3" d="m145.17,1072.59h-2.12c1.64,1.13,2.44,2.64,2.44,4.59,0,.85-.17,1.65-.49,2.39s-.73,1.28-1.23,1.64-1.09.61-1.81.75c-.48.1-1.25.15-2.29.15h-8.96v-2.46h8.02c1.28,0,2.13-.05,2.58-.15.65-.15,1.14-.48,1.52-.97.36-.49.55-1.11.55-1.84s-.19-1.42-.56-2.06-.89-1.09-1.54-1.36-1.59-.41-2.81-.41h-7.74v-2.44h14.43v2.18h.02Z"/>
          <path class="cls-3" d="m140.52,1056.7l.31-2.52c1.48.39,2.63,1.14,3.45,2.22s1.23,2.46,1.23,4.13c0,2.12-.65,3.79-1.94,5.03-1.3,1.25-3.12,1.86-5.48,1.86s-4.32-.63-5.66-1.88-2.01-2.87-2.01-4.86.65-3.51,1.98-4.73,3.16-1.84,5.54-1.84h.65v10.76c1.59-.09,2.8-.55,3.65-1.35.84-.8,1.26-1.81,1.26-3.02,0-.9-.24-1.67-.7-2.3s-1.23-1.14-2.25-1.5h-.02Zm-3.96,8.03v-8.07c-1.21.1-2.13.41-2.73.92-.94.78-1.42,1.79-1.42,3.04,0,1.13.38,2.06,1.13,2.83.75.77,1.76,1.19,3.02,1.28Z"/>
          <path class="cls-3" d="m137.96,1044.26c-2.68,0-4.66-.75-5.94-2.23-1.07-1.25-1.6-2.76-1.6-4.54,0-1.98.65-3.6,1.94-4.86s3.1-1.89,5.39-1.89c1.86,0,3.33.27,4.38.84s1.89,1.36,2.49,2.44c.58,1.06.89,2.23.89,3.48,0,2.03-.65,3.65-1.94,4.9s-3.16,1.88-5.6,1.88h-.02Zm0-2.51c1.84,0,3.24-.41,4.16-1.21.92-.8,1.38-1.83,1.38-3.05s-.46-2.22-1.38-3.04c-.92-.8-2.34-1.21-4.23-1.21-1.79,0-3.14.41-4.06,1.21s-1.38,1.83-1.38,3.02.46,2.23,1.36,3.05c.92.8,2.3,1.21,4.15,1.21v.02Z"/>
          <path class="cls-3" d="m145.17,1027.29h-12.54v2.17h-1.91v-2.17h-1.54c-.97,0-1.69-.09-2.17-.26-.63-.24-1.14-.65-1.54-1.25s-.6-1.43-.6-2.49c0-.68.09-1.45.24-2.29l2.13.38c-.09.51-.14.99-.14,1.43,0,.75.15,1.26.48,1.57s.9.46,1.77.46h1.33v-2.81h1.91v2.81h12.54v2.44h.02Z"/>
          <path class="cls-3" d="m138.76,1012.98l-.22-2.49c.99-.12,1.81-.39,2.46-.82.63-.43,1.16-1.09,1.55-2.01s.6-1.93.6-3.05c0-1.01-.15-1.89-.44-2.66-.31-.77-.72-1.35-1.23-1.72-.53-.38-1.09-.56-1.71-.56s-1.18.19-1.64.55-.85.96-1.18,1.79c-.2.53-.53,1.72-.97,3.55s-.85,3.12-1.25,3.86c-.49.96-1.13,1.65-1.86,2.13-.73.46-1.57.7-2.49.7-1.01,0-1.94-.29-2.81-.85-.87-.56-1.54-1.4-2-2.51-.46-1.09-.68-2.32-.68-3.65,0-1.48.24-2.78.72-3.91s1.18-2,2.1-2.61,1.98-.94,3.14-.97l.19,2.52c-1.26.14-2.22.6-2.85,1.38-.65.78-.97,1.94-.97,3.48s.29,2.76.87,3.48,1.3,1.09,2.12,1.09c.72,0,1.31-.26,1.77-.77s.94-1.83,1.42-3.97c.48-2.15.9-3.62,1.28-4.42.53-1.16,1.21-2.01,2.03-2.58.82-.55,1.76-.84,2.83-.84s2.06.31,3,.9c.94.61,1.67,1.48,2.18,2.61.53,1.14.78,2.42.78,3.84,0,1.81-.26,3.31-.78,4.54-.53,1.21-1.31,2.18-2.37,2.87-1.06.7-2.25,1.06-3.58,1.09v.02Z"/>
          <path class="cls-3" d="m128.05,993.82h-2.81v-2.44h2.81v2.44Zm17.11,0h-14.43v-2.44h14.43v2.44Z"/>
          <path class="cls-3" d="m145.17,987.65h-14.43v-2.18h2.03c-.72-.46-1.28-1.06-1.71-1.81s-.65-1.6-.65-2.58c0-1.07.22-1.94.67-2.63.44-.68,1.06-1.16,1.86-1.45-1.69-1.14-2.52-2.63-2.52-4.45,0-1.43.39-2.54,1.19-3.31s2.01-1.16,3.67-1.16h9.91v2.44h-9.09c-.97,0-1.69.09-2.12.24s-.78.44-1.04.87c-.26.41-.39.9-.39,1.47,0,1.02.34,1.86,1.01,2.52s1.76,1.01,3.24,1.01h8.39v2.44h-9.38c-1.09,0-1.91.2-2.44.6-.55.39-.82,1.06-.82,1.96,0,.68.19,1.33.55,1.91.36.58.89,1.01,1.59,1.28.7.26,1.71.39,3.02.39h7.49v2.44h-.02Z"/>
          <path class="cls-3" d="m150.7,964.45h-19.97v-2.23h1.88c-.73-.53-1.28-1.13-1.65-1.77s-.55-1.47-.55-2.41c0-1.23.32-2.32.96-3.26s1.54-1.65,2.68-2.13c1.16-.48,2.42-.72,3.8-.72,1.48,0,2.81.27,3.99.8s2.08,1.3,2.71,2.3c.63,1.01.94,2.08.94,3.19,0,.82-.17,1.55-.51,2.2s-.78,1.18-1.31,1.6h7.03v2.44l.02-.02Zm-12.67-2.22c1.86,0,3.22-.38,4.13-1.13.89-.75,1.33-1.67,1.33-2.73s-.46-2.01-1.38-2.8c-.92-.77-2.35-1.16-4.28-1.16s-3.22.38-4.13,1.14c-.92.75-1.38,1.65-1.38,2.71s.49,1.96,1.47,2.76,2.39,1.21,4.25,1.21v-.02Z"/>
          <path class="cls-3" d="m145.17,949.01h-19.92v-2.46h19.92v2.46Z"/>
          <path class="cls-3" d="m140.52,932.89l.31-2.52c1.48.39,2.63,1.14,3.45,2.22.82,1.07,1.23,2.46,1.23,4.13,0,2.12-.65,3.79-1.94,5.03s-3.12,1.86-5.48,1.86-4.32-.63-5.66-1.88-2.01-2.87-2.01-4.86.65-3.51,1.98-4.73,3.16-1.84,5.54-1.84h.65v10.76c1.59-.09,2.8-.55,3.65-1.35.84-.8,1.26-1.81,1.26-3.02,0-.9-.24-1.67-.7-2.3s-1.23-1.14-2.25-1.5h-.02Zm-3.96,8.03v-8.07c-1.21.1-2.13.41-2.73.92-.94.78-1.42,1.79-1.42,3.04,0,1.13.38,2.06,1.13,2.83s1.76,1.19,3.02,1.28Z"/>
          <path class="cls-3" d="m145.17,919.24h-19.92v-7.52c0-1.33.07-2.34.19-3.04.17-.97.48-1.79.94-2.46s1.09-1.19,1.93-1.6c.82-.41,1.74-.6,2.71-.6,1.69,0,3.12.55,4.3,1.62s1.76,3.02,1.76,5.85v5.12h8.1v2.64-.02Zm-10.46-2.64v-5.15c0-1.71-.32-2.92-.96-3.63-.63-.72-1.54-1.07-2.68-1.07-.84,0-1.55.2-2.15.63s-.99.97-1.18,1.67c-.12.44-.17,1.26-.17,2.46v5.1s7.13,0,7.13,0Z"/>
          <path class="cls-3" d="m145.17,901.04h-19.92v-2.46h19.92v2.46Z"/>
          <path class="cls-3" d="m140.52,884.91l.31-2.52c1.48.39,2.63,1.14,3.45,2.22.82,1.07,1.23,2.46,1.23,4.13,0,2.12-.65,3.79-1.94,5.03s-3.12,1.86-5.48,1.86-4.32-.63-5.66-1.88-2.01-2.87-2.01-4.86.65-3.51,1.98-4.73,3.16-1.84,5.54-1.84h.65v10.76c1.59-.09,2.8-.55,3.65-1.35.84-.8,1.26-1.81,1.26-3.02,0-.9-.24-1.67-.7-2.3s-1.23-1.14-2.25-1.5h-.02Zm-3.96,8.03v-8.07c-1.21.1-2.13.41-2.73.92-.94.78-1.42,1.79-1.42,3.04,0,1.13.38,2.06,1.13,2.83s1.76,1.19,3.02,1.28Z"/>
          <path class="cls-3" d="m143.38,869.88c.77.9,1.31,1.77,1.64,2.61s.48,1.74.48,2.7c0,1.59-.39,2.8-1.16,3.65s-1.76,1.28-2.97,1.28c-.7,0-1.35-.15-1.94-.48-.58-.32-1.06-.75-1.42-1.26-.36-.53-.61-1.11-.8-1.76-.14-.48-.26-1.21-.38-2.18-.24-1.98-.51-3.43-.84-4.37h-.63c-.99,0-1.71.24-2.12.7-.55.63-.84,1.55-.84,2.78,0,1.16.2,2,.6,2.54.41.55,1.13.96,2.13,1.21l-.32,2.39c-1.02-.22-1.84-.58-2.47-1.07s-1.11-1.21-1.45-2.17-.51-2.03-.51-3.28.14-2.23.43-3,.65-1.33,1.09-1.71c.44-.36.99-.61,1.67-.77.41-.09,1.18-.12,2.25-.12h3.26c2.27,0,3.72-.05,4.32-.15s1.18-.31,1.74-.61v2.56c-.51.26-1.11.41-1.77.49l.02.02Zm-5.46.2c.36.89.67,2.22.92,3.99.14,1.01.31,1.72.49,2.13s.44.73.8.97c.36.22.73.34,1.16.34.65,0,1.19-.24,1.64-.73.43-.49.65-1.21.65-2.17s-.2-1.77-.61-2.51-.97-1.28-1.69-1.62c-.55-.26-1.36-.39-2.44-.39h-.9l-.02-.02Z"/>
          <path class="cls-3" d="m140.86,864.79l-.38-2.42c.97-.14,1.71-.51,2.23-1.14.51-.61.77-1.48.77-2.61s-.22-1.96-.68-2.51-.99-.82-1.6-.82c-.55,0-.99.24-1.31.72-.22.34-.49,1.18-.84,2.51-.46,1.79-.85,3.04-1.18,3.74s-.78,1.21-1.36,1.57-1.23.53-1.94.53c-.65,0-1.25-.15-1.79-.44s-1.01-.7-1.36-1.21c-.29-.38-.51-.9-.72-1.55s-.29-1.36-.29-2.12c0-1.13.17-2.13.49-2.99.32-.85.77-1.48,1.33-1.89.56-.41,1.3-.68,2.23-.84l.32,2.39c-.75.1-1.33.43-1.74.94s-.63,1.26-.63,2.2c0,1.13.19,1.93.56,2.41s.8.72,1.31.72c.32,0,.6-.1.85-.31s.48-.51.65-.94c.09-.24.29-.97.63-2.17.46-1.74.84-2.93,1.14-3.62.29-.68.72-1.23,1.28-1.6s1.26-.58,2.1-.58,1.59.24,2.3.72,1.28,1.16,1.67,2.06.6,1.91.6,3.05c0,1.88-.39,3.31-1.18,4.28s-1.93,1.6-3.46,1.88l-.02.05Z"/>
          <path class="cls-3" d="m145.17,840.44h-2.12c1.64,1.13,2.44,2.64,2.44,4.59,0,.85-.17,1.65-.49,2.39s-.73,1.28-1.23,1.64-1.09.61-1.81.75c-.48.1-1.25.15-2.29.15h-8.96v-2.46h8.02c1.28,0,2.13-.05,2.58-.15.65-.15,1.14-.48,1.52-.97.36-.49.55-1.11.55-1.84s-.19-1.42-.56-2.06-.89-1.09-1.54-1.36-1.59-.41-2.81-.41h-7.74v-2.44h14.43v2.18h.02Z"/>
          <path class="cls-3" d="m145.17,834.45h-14.43v-2.2h2.18c-1.02-.56-1.71-1.07-2.03-1.55s-.49-1.01-.49-1.57c0-.82.26-1.67.78-2.51l2.27.84c-.36.6-.53,1.19-.53,1.79,0,.53.15,1.02.48,1.43.32.43.77.73,1.35.9.87.27,1.83.41,2.85.41h7.56v2.44l.02.02Z"/>
          <path class="cls-3" d="m140.52,815.26l.31-2.52c1.48.39,2.63,1.14,3.45,2.22.82,1.07,1.23,2.46,1.23,4.13,0,2.12-.65,3.79-1.94,5.03s-3.12,1.86-5.48,1.86-4.32-.63-5.66-1.88-2.01-2.87-2.01-4.86.65-3.51,1.98-4.73,3.16-1.84,5.54-1.84h.65v10.76c1.59-.09,2.8-.55,3.65-1.35.84-.8,1.26-1.81,1.26-3.02,0-.9-.24-1.67-.7-2.3s-1.23-1.14-2.25-1.5h-.02Zm-3.96,8.03v-8.07c-1.21.1-2.13.41-2.73.92-.94.78-1.42,1.79-1.42,3.04,0,1.13.38,2.06,1.13,2.83s1.76,1.19,3.02,1.28Z"/>
          <path class="cls-3" d="m140.86,810.64l-.38-2.42c.97-.14,1.71-.51,2.23-1.14.51-.61.77-1.48.77-2.61s-.22-1.96-.68-2.51-.99-.82-1.6-.82c-.55,0-.99.24-1.31.72-.22.34-.49,1.18-.84,2.51-.46,1.79-.85,3.04-1.18,3.74s-.78,1.21-1.36,1.57-1.23.53-1.94.53c-.65,0-1.25-.15-1.79-.44s-1.01-.7-1.36-1.21c-.29-.38-.51-.9-.72-1.55s-.29-1.36-.29-2.12c0-1.13.17-2.13.49-2.99.32-.85.77-1.48,1.33-1.89.56-.41,1.3-.68,2.23-.84l.32,2.39c-.75.1-1.33.43-1.74.94s-.63,1.26-.63,2.2c0,1.13.19,1.93.56,2.41s.8.72,1.31.72c.32,0,.6-.1.85-.31s.48-.51.65-.94c.09-.24.29-.97.63-2.17.46-1.74.84-2.93,1.14-3.62.29-.68.72-1.23,1.28-1.6s1.26-.58,2.1-.58,1.59.24,2.3.72,1.28,1.16,1.67,2.06.6,1.91.6,3.05c0,1.88-.39,3.31-1.18,4.28s-1.93,1.6-3.46,1.88l-.02.05Z"/>
        </g>
        <g>
          <g>
            <path class="cls-3" d="m128.47,588.97l-19.92-7.66v-2.85l19.92-8.15v3l-6.04,2.32v8.34l6.04,2.18v2.81Zm-8.19-5.75v-6.75l-5.53,2.08c-1.67.63-3.05,1.11-4.13,1.42,1.28.26,2.54.61,3.8,1.07,0,0,5.85,2.18,5.85,2.18Z"/>
            <path class="cls-3" d="m128.47,568.58h-19.92v-2.46h19.92v2.46Z"/>
            <path class="cls-3" d="m123.82,552.45l.31-2.52c1.48.39,2.63,1.14,3.45,2.22s1.23,2.46,1.23,4.13c0,2.12-.65,3.79-1.94,5.03s-3.12,1.86-5.48,1.86-4.32-.63-5.66-1.88-2.01-2.87-2.01-4.86.67-3.51,1.98-4.73,3.16-1.84,5.54-1.84h.65v10.76c1.59-.09,2.8-.55,3.65-1.35.84-.8,1.26-1.81,1.26-3.02,0-.9-.24-1.67-.72-2.3s-1.23-1.14-2.25-1.5Zm-3.96,8.03v-8.07c-1.21.1-2.13.41-2.73.92-.94.78-1.42,1.79-1.42,3.04,0,1.13.38,2.06,1.13,2.83s1.76,1.19,3.02,1.28Z"/>
            <path class="cls-3" d="m128.47,548.49l-7.51-5.27-6.93,4.88v-3.05l3.38-2.22c.65-.41,1.18-.75,1.62-1.01-.6-.39-1.13-.77-1.59-1.11l-3.41-2.44v-2.92l6.81,4.98,7.64-5.37v3l-4.49,2.97-1.21.78,5.7,3.79v2.97l-.02.02Z"/>
            <path class="cls-3" d="m122.06,525.78l-.22-2.49c.99-.12,1.81-.39,2.46-.82.65-.43,1.16-1.09,1.55-2.01.39-.9.6-1.93.6-3.05,0-1.01-.15-1.89-.44-2.66s-.72-1.35-1.23-1.72c-.53-.38-1.09-.56-1.71-.56s-1.18.19-1.64.55c-.46.36-.85.96-1.18,1.79-.2.53-.53,1.72-.97,3.55-.44,1.83-.85,3.12-1.25,3.86-.49.96-1.13,1.65-1.86,2.13-.73.46-1.57.7-2.47.7-1.01,0-1.94-.29-2.81-.85-.87-.56-1.54-1.4-2-2.51-.46-1.09-.68-2.32-.68-3.65,0-1.48.24-2.78.72-3.91s1.18-2,2.1-2.61,1.98-.94,3.14-.97l.19,2.52c-1.26.14-2.22.6-2.85,1.38-.65.78-.97,1.94-.97,3.48s.29,2.76.87,3.48,1.3,1.09,2.12,1.09c.72,0,1.3-.26,1.77-.77.46-.51.94-1.83,1.42-3.97.48-2.15.9-3.62,1.28-4.42.53-1.16,1.21-2.01,2.03-2.58.82-.55,1.77-.84,2.83-.84s2.06.31,3,.9c.94.61,1.67,1.48,2.18,2.61.53,1.14.78,2.42.78,3.84,0,1.81-.26,3.31-.78,4.54-.53,1.21-1.31,2.18-2.37,2.87-1.06.7-2.25,1.06-3.58,1.09l-.02.02Z"/>
            <path class="cls-3" d="m111.35,506.61h-2.81v-2.44h2.81v2.44Zm17.13,0h-14.43v-2.44h14.43v2.44Z"/>
            <path class="cls-3" d="m128.47,500.44h-14.43v-2.2h2.05c-1.59-1.06-2.37-2.59-2.37-4.59,0-.87.15-1.67.48-2.41.31-.73.72-1.28,1.23-1.64.51-.36,1.11-.61,1.81-.77.46-.09,1.25-.14,2.37-.14h8.89v2.44h-8.78c-.99,0-1.74.1-2.23.29s-.89.53-1.18,1.01-.44,1.06-.44,1.71c0,1.04.32,1.94.99,2.7.67.75,1.91,1.14,3.77,1.14h7.88v2.44l-.02.02Z"/>
            <path class="cls-3" d="m129.67,485.39l.36-2.39c.73-.1,1.26-.38,1.6-.84.46-.61.68-1.43.68-2.49,0-1.13-.22-2.01-.68-2.63s-1.09-1.04-1.91-1.25c-.49-.12-1.55-.19-3.14-.17,1.26,1.07,1.89,2.41,1.89,3.99,0,1.98-.72,3.51-2.15,4.61s-3.16,1.64-5.15,1.64c-1.38,0-2.64-.26-3.82-.75-1.16-.49-2.06-1.23-2.7-2.17-.63-.96-.96-2.06-.96-3.34,0-1.71.68-3.1,2.06-4.21h-1.74v-2.25h12.49c2.25,0,3.84.22,4.78.68.94.46,1.67,1.18,2.22,2.18.55.99.82,2.22.82,3.67,0,1.72-.39,3.12-1.16,4.18-.78,1.06-1.94,1.57-3.5,1.54h0Zm-8.67-2.03c1.89,0,3.28-.38,4.15-1.13s1.31-1.69,1.31-2.83-.43-2.06-1.3-2.83-2.22-1.14-4.08-1.14-3.1.39-3.99,1.18c-.9.78-1.35,1.72-1.35,2.83s.44,2.01,1.33,2.78c.89.77,2.2,1.14,3.94,1.14h-.02Z"/>
            <path class="cls-3" d="m128.47,469.46h-19.92v-2.44h7.15c-1.33-1.14-1.98-2.58-1.98-4.32,0-1.07.2-2,.63-2.78s1.01-1.35,1.74-1.69c.75-.34,1.83-.51,3.24-.51h9.14v2.46h-9.14c-1.23,0-2.12.27-2.68.8-.56.53-.84,1.28-.84,2.25,0,.73.19,1.42.56,2.05s.89,1.09,1.54,1.36,1.54.41,2.66.41h7.9v2.44-.03Z"/>
          </g>
          <g>
            <path class="cls-3" d="m161.87,584.48l-14.43,4.42v-2.52l8.34-2.3,3.1-.85c-.15-.03-1.14-.29-2.99-.75l-8.46-2.3v-2.51l8.38-2.17,2.76-.72-2.78-.84-8.34-2.47v-2.37l14.43,4.52v2.54l-8.65,2.3-2.46.56,11.1,2.92v2.56l-.02-.02Z"/>
            <path class="cls-3" d="m144.76,567.01h-2.81v-2.44h2.81v2.44Zm17.11,0h-14.43v-2.44h14.43v2.44Z"/>
            <path class="cls-3" d="m159.69,555.5l2.17-.36c.14.68.22,1.31.22,1.84,0,.89-.14,1.57-.43,2.06-.29.49-.65.84-1.11,1.04-.46.2-1.42.31-2.88.31h-8.31v1.79h-1.91v-1.79h-3.58l-1.47-2.44h5.05v-2.46h1.91v2.46h8.44c.7,0,1.14-.05,1.35-.14s.36-.22.48-.43c.12-.19.17-.48.17-.84,0-.27-.03-.63-.1-1.07v.02Z"/>
            <path class="cls-3" d="m161.87,553.11h-19.92v-2.44h7.15c-1.33-1.14-1.98-2.58-1.98-4.32,0-1.07.2-2,.63-2.78s1.01-1.35,1.74-1.69,1.83-.51,3.24-.51h9.14v2.46h-9.14c-1.23,0-2.12.27-2.68.8s-.84,1.28-.84,2.25c0,.73.19,1.42.56,2.05.38.63.89,1.09,1.54,1.36.65.27,1.54.41,2.66.41h7.9v2.44-.03Z"/>
            <path class="cls-3" d="m161.87,533.27l-19.92-7.66v-2.85l19.92-8.15v3l-6.04,2.32v8.34l6.04,2.18v2.81Zm-8.19-5.75v-6.75l-5.53,2.08c-1.67.63-3.05,1.11-4.13,1.42,1.28.26,2.54.61,3.8,1.07,0,0,5.85,2.18,5.85,2.18Z"/>
            <path class="cls-3" d="m161.87,512.84h-14.43v-2.2h2.18c-1.02-.56-1.71-1.07-2.03-1.55s-.49-1.01-.49-1.57c0-.82.26-1.67.78-2.51l2.27.84c-.36.6-.53,1.19-.53,1.79,0,.53.15,1.02.48,1.43.32.43.77.73,1.35.9.87.27,1.83.41,2.85.41h7.56v2.44l.02.02Z"/>
            <path class="cls-3" d="m157.23,493.66l.31-2.52c1.48.39,2.63,1.14,3.45,2.22.82,1.07,1.23,2.46,1.23,4.13,0,2.12-.65,3.79-1.94,5.03s-3.12,1.86-5.48,1.86-4.32-.63-5.66-1.88c-1.35-1.25-2.01-2.87-2.01-4.86s.65-3.51,1.98-4.73,3.16-1.84,5.54-1.84h.65v10.76c1.59-.09,2.8-.55,3.65-1.35.84-.8,1.26-1.81,1.26-3.02,0-.9-.24-1.67-.7-2.3s-1.23-1.14-2.25-1.5h-.02Zm-3.96,8.03v-8.07c-1.21.1-2.13.41-2.73.92-.94.78-1.42,1.79-1.42,3.04,0,1.13.38,2.06,1.13,2.83s1.76,1.19,3.02,1.28Z"/>
            <path class="cls-3" d="m161.87,487.37h-2.78v-2.78h2.78v2.78Z"/>
            <path class="cls-3" d="m161.87,480.33h-14.43v-2.2h2.05c-1.59-1.06-2.37-2.59-2.37-4.59,0-.87.15-1.67.46-2.41.31-.73.72-1.28,1.23-1.64s1.11-.61,1.81-.77c.46-.09,1.25-.14,2.39-.14h8.87v2.44h-8.78c-.99,0-1.74.1-2.23.29s-.89.53-1.18,1.01c-.29.48-.44,1.06-.44,1.71,0,1.04.32,1.94.99,2.7s1.91,1.14,3.77,1.14h7.88v2.46Z"/>
            <path class="cls-3" d="m160.1,455.42c.77.9,1.31,1.77,1.64,2.61s.48,1.74.48,2.7c0,1.59-.39,2.8-1.16,3.65s-1.76,1.28-2.97,1.28c-.7,0-1.35-.15-1.94-.48-.58-.32-1.06-.75-1.42-1.26-.36-.53-.61-1.11-.8-1.76-.14-.48-.26-1.21-.38-2.18-.24-1.98-.51-3.43-.84-4.37h-.63c-.99,0-1.71.24-2.12.7-.55.63-.84,1.55-.84,2.78,0,1.16.2,2,.6,2.54.41.55,1.13.96,2.13,1.21l-.32,2.39c-1.02-.22-1.84-.58-2.47-1.07-.63-.49-1.11-1.21-1.45-2.17s-.51-2.03-.51-3.28.14-2.23.43-3,.65-1.33,1.09-1.71c.44-.36.99-.61,1.67-.77.41-.09,1.18-.12,2.25-.12h3.26c2.27,0,3.72-.05,4.32-.15s1.18-.31,1.74-.61v2.56c-.51.26-1.11.41-1.77.49l.02.02Zm-5.46.2c.36.89.67,2.22.92,3.99.14,1.01.31,1.72.49,2.13s.44.73.8.97c.36.22.73.34,1.16.34.65,0,1.19-.24,1.64-.73.43-.49.65-1.21.65-2.17s-.2-1.77-.61-2.51c-.41-.73-.97-1.28-1.69-1.62-.55-.26-1.36-.39-2.44-.39h-.9l-.02-.02Z"/>
          </g>
        </g>
      </g>
      <g>
        <path class="cls-3" d="m403.64,1366.69v2.85h-2.63v-2.23c0-1.21.14-2.1.43-2.64.38-.73.99-1.28,1.81-1.64l.6.96c-.49.2-.87.51-1.11.94-.24.41-.36,1.01-.39,1.81h1.28l.02-.03Zm4.21,0v2.85h-2.63v-2.23c0-1.21.14-2.1.43-2.64.38-.73.99-1.28,1.81-1.64l.6.96c-.49.2-.87.51-1.11.94-.24.41-.36,1.01-.39,1.81h1.28l.02-.03Z"/>
        <path class="cls-3" d="m409.67,1383.27v-19.92h7.47c1.52,0,2.75.2,3.67.6.92.41,1.64,1.02,2.17,1.86.53.84.78,1.72.78,2.63,0,.85-.24,1.65-.7,2.41s-1.16,1.36-2.1,1.83c1.21.36,2.13.96,2.78,1.81s.97,1.86.97,3.02c0,.94-.2,1.81-.6,2.61-.39.8-.89,1.42-1.47,1.86-.58.43-1.31.77-2.18.99s-1.94.34-3.22.34h-7.61l.03-.02Zm2.64-11.55h4.32c1.18,0,2.01-.07,2.51-.24.67-.2,1.18-.53,1.52-.99s.51-1.04.51-1.74-.15-1.25-.48-1.74-.77-.85-1.36-1.04-1.6-.27-3.04-.27h-3.99v6.02h.02Zm0,9.21h4.96c.85,0,1.45-.03,1.79-.1.61-.1,1.11-.29,1.52-.55s.75-.63,1.01-1.11.39-1.04.39-1.67c0-.75-.19-1.38-.56-1.94-.38-.55-.9-.94-1.59-1.16s-1.65-.34-2.92-.34h-4.61v6.87Z"/>
        <path class="cls-3" d="m435.93,1381.5c-.9.77-1.77,1.31-2.61,1.64s-1.74.48-2.7.48c-1.59,0-2.8-.39-3.65-1.16s-1.28-1.76-1.28-2.97c0-.7.15-1.35.48-1.94s.75-1.06,1.26-1.4c.53-.36,1.11-.61,1.76-.8.48-.12,1.21-.26,2.18-.38,1.98-.24,3.43-.51,4.37-.84v-.63c0-.99-.24-1.71-.7-2.12-.63-.55-1.55-.84-2.78-.84-1.16,0-2,.2-2.56.6-.55.41-.96,1.13-1.21,2.15l-2.39-.32c.22-1.02.58-1.84,1.07-2.47.49-.63,1.21-1.11,2.17-1.45s2.03-.51,3.28-.51,2.23.14,3,.43,1.33.65,1.71,1.09c.36.44.61.99.77,1.67.09.41.12,1.18.12,2.25v3.26c0,2.27.05,3.72.15,4.32s.31,1.18.61,1.74h-2.56c-.26-.51-.41-1.11-.49-1.77v-.02Zm-.2-5.46c-.89.36-2.22.67-3.99.92-1.01.14-1.72.31-2.13.49-.43.19-.73.44-.97.8s-.34.73-.34,1.16c0,.65.24,1.19.73,1.64.49.43,1.21.65,2.17.65s1.77-.2,2.51-.61c.73-.41,1.28-.97,1.62-1.69.26-.55.39-1.36.39-2.44v-.9l.02-.02Z"/>
        <path class="cls-3" d="m449.88,1377.98l2.41.31c-.26,1.65-.94,2.95-2.01,3.89-1.07.94-2.42,1.42-3.99,1.42-1.98,0-3.57-.65-4.76-1.94s-1.81-3.14-1.81-5.56c0-1.55.26-2.92.77-4.09s1.3-2.05,2.35-2.63c1.06-.58,2.2-.87,3.45-.87,1.57,0,2.85.39,3.86,1.19.99.78,1.64,1.91,1.91,3.38l-2.37.38c-.22-.97-.63-1.71-1.21-2.18-.58-.49-1.28-.73-2.08-.73-1.23,0-2.23.44-3,1.33s-1.16,2.29-1.16,4.2.38,3.34,1.11,4.23c.75.89,1.71,1.31,2.92,1.31.96,0,1.76-.29,2.41-.89.65-.6,1.06-1.5,1.23-2.71v-.02Z"/>
        <path class="cls-3" d="m452.86,1383.27v-19.92h2.44v11.36l5.8-5.87h3.17l-5.53,5.36,6.07,9.07h-3.02l-4.78-7.39-1.72,1.65v5.73h-2.44,0Z"/>
        <path class="cls-3" d="m476.78,1381.09l.36,2.17c-.68.14-1.3.22-1.84.22-.89,0-1.57-.14-2.06-.43-.49-.29-.84-.65-1.04-1.11s-.29-1.42-.29-2.88v-8.31h-1.79v-1.91h1.79v-3.58l2.44-1.47v5.05h2.46v1.91h-2.46v8.44c0,.7.05,1.14.14,1.35s.22.36.43.48c.19.12.48.17.84.17.27,0,.63-.03,1.07-.1h-.03Z"/>
        <path class="cls-3" d="m476.75,1376.06c0-2.68.75-4.66,2.23-5.94,1.25-1.07,2.76-1.6,4.54-1.6,1.98,0,3.6.65,4.86,1.94,1.26,1.3,1.89,3.1,1.89,5.39,0,1.86-.27,3.33-.84,4.38s-1.36,1.89-2.44,2.47c-1.06.6-2.23.89-3.48.89-2.03,0-3.65-.65-4.9-1.94-1.25-1.3-1.88-3.16-1.88-5.6Zm2.51,0c0,1.84.41,3.24,1.21,4.16s1.83,1.38,3.05,1.38,2.22-.46,3.04-1.38,1.21-2.34,1.21-4.23c0-1.79-.41-3.14-1.21-4.06-.82-.92-1.83-1.38-3.02-1.38s-2.23.46-3.05,1.38c-.8.92-1.21,2.3-1.21,4.15l-.02-.02Z"/>
        <path class="cls-3" d="m497.76,1383.27v-19.92h2.44v19.92h-2.44Z"/>
        <path class="cls-3" d="m502.47,1366.16v-2.81h2.44v2.81h-2.44Zm0,17.11v-14.43h2.44v14.43h-2.44Z"/>
        <path class="cls-3" d="m507.71,1383.27v-12.54h-2.17v-1.91h2.17v-1.54c0-.97.09-1.69.26-2.17.24-.63.65-1.14,1.25-1.54.6-.39,1.42-.6,2.49-.6.68,0,1.45.09,2.29.24l-.38,2.13c-.51-.09-.99-.14-1.43-.14-.75,0-1.26.15-1.57.48-.31.32-.46.9-.46,1.77v1.33h2.81v1.91h-2.81v12.54h-2.44v.02Z"/>
        <path class="cls-3" d="m523.21,1378.61l2.52.31c-.39,1.48-1.14,2.63-2.22,3.45-1.07.82-2.46,1.23-4.13,1.23-2.12,0-3.79-.65-5.03-1.94s-1.86-3.12-1.86-5.48.63-4.32,1.88-5.66,2.87-2.01,4.86-2.01,3.51.67,4.73,1.98c1.23,1.31,1.84,3.16,1.84,5.54v.65h-10.76c.09,1.59.55,2.8,1.35,3.65s1.81,1.26,3.02,1.26c.9,0,1.65-.24,2.3-.7s1.14-1.23,1.5-2.25v-.02Zm-8.03-3.96h8.07c-.1-1.21-.43-2.13-.92-2.73-.78-.94-1.79-1.42-3.04-1.42-1.13,0-2.06.38-2.83,1.13s-1.19,1.76-1.28,3.02Z"/>
        <path class="cls-3" d="m531.64,1383.61l5.78-20.61h1.96l-5.77,20.61h-1.98Z"/>
        <path class="cls-3" d="m548.15,1383.27h-2.27v-19.92h2.46v7.11c1.04-1.3,2.35-1.94,3.96-1.94.89,0,1.72.17,2.52.53.78.36,1.45.85,1.96,1.5s.92,1.43,1.21,2.35.43,1.89.43,2.93c0,2.47-.61,4.38-1.84,5.73s-2.7,2.03-4.4,2.03-3.04-.72-4.01-2.13v1.81h-.02Zm-.03-7.33c0,1.72.24,2.99.72,3.75.77,1.26,1.81,1.89,3.12,1.89,1.07,0,2-.46,2.78-1.4.78-.92,1.18-2.32,1.18-4.16s-.38-3.28-1.13-4.18-1.65-1.35-2.71-1.35-2,.46-2.78,1.4c-.78.92-1.18,2.27-1.18,4.03v.02Z"/>
        <path class="cls-3" d="m569.27,1381.5c-.9.77-1.77,1.31-2.61,1.64s-1.74.48-2.7.48c-1.59,0-2.8-.39-3.65-1.16s-1.28-1.76-1.28-2.97c0-.7.15-1.35.48-1.94.32-.58.75-1.06,1.26-1.4.51-.36,1.11-.61,1.76-.8.48-.12,1.21-.26,2.18-.38,1.98-.24,3.43-.51,4.37-.84v-.63c0-.99-.22-1.71-.7-2.12-.63-.55-1.55-.84-2.78-.84-1.14,0-2,.2-2.54.6-.55.41-.96,1.13-1.21,2.15l-2.39-.32c.22-1.02.58-1.84,1.07-2.47s1.21-1.11,2.17-1.45,2.03-.51,3.28-.51,2.23.14,3,.43,1.33.65,1.71,1.09.61.99.77,1.67c.09.41.12,1.18.12,2.25v3.26c0,2.27.05,3.72.15,4.32.1.6.31,1.18.61,1.74h-2.56c-.26-.51-.43-1.11-.49-1.77l-.02-.02Zm-.2-5.46c-.89.36-2.22.67-3.99.92-1.01.14-1.72.31-2.13.49s-.73.44-.97.8-.34.73-.34,1.16c0,.65.24,1.19.73,1.64.49.43,1.21.65,2.17.65s1.77-.2,2.51-.61,1.28-.97,1.62-1.69c.26-.55.39-1.36.39-2.44v-.9l.02-.02Z"/>
        <path class="cls-3" d="m583.22,1377.98l2.41.31c-.26,1.65-.94,2.95-2.01,3.89-1.07.94-2.41,1.42-3.99,1.42-1.98,0-3.57-.65-4.76-1.94s-1.81-3.14-1.81-5.56c0-1.55.26-2.92.77-4.09s1.3-2.05,2.35-2.63c1.06-.58,2.2-.87,3.45-.87,1.57,0,2.85.39,3.86,1.19.99.78,1.64,1.91,1.91,3.38l-2.39.38c-.22-.97-.63-1.71-1.21-2.18-.58-.49-1.28-.73-2.08-.73-1.23,0-2.23.44-3,1.33s-1.16,2.29-1.16,4.2.38,3.34,1.11,4.23c.75.89,1.71,1.31,2.92,1.31.96,0,1.76-.29,2.41-.89s1.06-1.5,1.23-2.71l.02-.02Z"/>
        <path class="cls-3" d="m586.21,1383.27v-19.92h2.44v11.36l5.8-5.87h3.17l-5.53,5.36,6.07,9.07h-3.02l-4.78-7.39-1.72,1.65v5.73h-2.44Z"/>
        <path class="cls-3" d="m610.12,1381.09l.36,2.17c-.68.14-1.31.22-1.84.22-.89,0-1.57-.14-2.06-.43-.49-.29-.84-.65-1.04-1.11s-.31-1.42-.31-2.88v-8.31h-1.79v-1.91h1.79v-3.58l2.44-1.47v5.05h2.46v1.91h-2.46v8.44c0,.7.05,1.14.14,1.35s.22.36.43.48c.19.12.48.17.84.17.27,0,.63-.03,1.07-.1h-.02Z"/>
        <path class="cls-3" d="m610.09,1376.06c0-2.68.75-4.66,2.23-5.94,1.25-1.07,2.76-1.6,4.54-1.6,1.98,0,3.62.65,4.86,1.94,1.26,1.3,1.89,3.1,1.89,5.39,0,1.86-.27,3.33-.84,4.38s-1.36,1.89-2.44,2.47c-1.06.6-2.23.89-3.48.89-2.01,0-3.65-.65-4.9-1.94-1.25-1.3-1.88-3.16-1.88-5.6Zm2.51,0c0,1.84.41,3.24,1.21,4.16s1.83,1.38,3.05,1.38,2.22-.46,3.04-1.38c.8-.92,1.21-2.34,1.21-4.23,0-1.79-.41-3.14-1.21-4.06-.82-.92-1.83-1.38-3.02-1.38s-2.23.46-3.05,1.38-1.21,2.3-1.21,4.15l-.02-.02Z"/>
        <path class="cls-3" d="m631.12,1383.27v-14.43h2.2v2.18c.56-1.02,1.07-1.71,1.55-2.03s1.01-.49,1.57-.49c.82,0,1.67.26,2.51.78l-.84,2.27c-.6-.36-1.19-.53-1.79-.53-.53,0-1.02.15-1.43.48-.43.32-.73.77-.9,1.35-.27.87-.41,1.83-.41,2.85v7.56h-2.44l-.02.02Z"/>
        <path class="cls-3" d="m648.78,1378.61l2.52.31c-.39,1.48-1.14,2.63-2.22,3.45-1.07.82-2.46,1.23-4.13,1.23-2.12,0-3.79-.65-5.03-1.94-1.23-1.3-1.86-3.12-1.86-5.48s.63-4.32,1.88-5.66,2.87-2.01,4.86-2.01,3.51.67,4.73,1.98c1.23,1.31,1.84,3.16,1.84,5.54v.65h-10.76c.09,1.59.55,2.8,1.35,3.65.8.84,1.81,1.26,3.02,1.26.9,0,1.67-.24,2.3-.7s1.14-1.23,1.5-2.25v-.02Zm-8.03-3.96h8.07c-.1-1.21-.41-2.13-.92-2.73-.78-.94-1.79-1.42-3.04-1.42-1.13,0-2.06.38-2.83,1.13s-1.19,1.76-1.28,3.02Z"/>
        <path class="cls-3" d="m662.27,1381.5c-.9.77-1.77,1.31-2.61,1.64s-1.74.48-2.7.48c-1.59,0-2.8-.39-3.65-1.16s-1.28-1.76-1.28-2.97c0-.7.15-1.35.48-1.94s.75-1.06,1.26-1.4c.53-.36,1.11-.61,1.76-.8.48-.12,1.21-.26,2.18-.38,1.98-.24,3.43-.51,4.37-.84v-.63c0-.99-.24-1.71-.7-2.12-.63-.55-1.55-.84-2.78-.84-1.16,0-2,.2-2.56.6-.55.41-.96,1.13-1.21,2.15l-2.39-.32c.22-1.02.58-1.84,1.07-2.47s1.21-1.11,2.17-1.45,2.03-.51,3.28-.51,2.23.14,3,.43,1.33.65,1.71,1.09c.36.44.61.99.77,1.67.09.41.12,1.18.12,2.25v3.26c0,2.27.05,3.72.15,4.32s.31,1.18.61,1.74h-2.56c-.26-.51-.41-1.11-.49-1.77v-.02Zm-.2-5.46c-.89.36-2.22.67-3.99.92-1.01.14-1.72.31-2.13.49-.43.19-.73.44-.97.8s-.34.73-.34,1.16c0,.65.24,1.19.73,1.64.49.43,1.21.65,2.17.65s1.77-.2,2.51-.61,1.28-.97,1.62-1.69c.26-.55.39-1.36.39-2.44v-.9l.02-.02Z"/>
        <path class="cls-3" d="m666.74,1383.27v-19.92h2.46v19.92h-2.46Z"/>
        <path class="cls-3" d="m671.46,1366.16v-2.81h2.44v2.81h-2.44Zm0,17.11v-14.43h2.44v14.43h-2.44Z"/>
        <path class="cls-3" d="m681.46,1381.09l.36,2.17c-.68.14-1.3.22-1.84.22-.89,0-1.57-.14-2.06-.43-.49-.29-.84-.65-1.04-1.11s-.29-1.42-.29-2.88v-8.31h-1.79v-1.91h1.79v-3.58l2.44-1.47v5.05h2.46v1.91h-2.46v8.44c0,.7.05,1.14.14,1.35s.22.36.43.48c.19.12.48.17.84.17.27,0,.63-.03,1.07-.1h-.03Z"/>
        <path class="cls-3" d="m682.21,1388.83l-.27-2.3c.53.14,1.01.22,1.4.22.55,0,.97-.09,1.31-.27.32-.19.6-.43.8-.77.15-.24.41-.85.75-1.83.05-.14.12-.34.22-.6l-5.48-14.47h2.64l3,8.36c.39,1.06.73,2.18,1.04,3.34.29-1.13.61-2.22,1.01-3.29l3.09-8.41h2.44l-5.49,14.69c-.6,1.59-1.04,2.68-1.38,3.28-.43.8-.94,1.4-1.5,1.77-.56.38-1.23.56-2.01.56-.48,0-.99-.1-1.57-.31v.02Z"/>
        <path class="cls-3" d="m694.05,1365.97v-2.85h2.63v2.23c0,1.21-.14,2.1-.43,2.63-.39.73-.99,1.28-1.83,1.65l-.6-.97c.49-.2.85-.51,1.09-.94s.38-1.02.41-1.77h-1.28v.02Zm4.21,0v-2.85h2.63v2.23c0,1.21-.14,2.1-.43,2.63-.39.73-.99,1.28-1.83,1.65l-.6-.97c.49-.2.85-.51,1.09-.94s.38-1.02.41-1.77h-1.28v.02Z"/>
      </g>
      <path class="cls-3" d="m583.44,150.2l-9.11-7.15c-.56-.44-.56-1.16,0-1.59l9.11-7.15c.56-.44.78-1.18.51-1.64s-1.04-.63-1.69-.36l-10.83,4.32c-.67.26-1.28-.1-1.38-.8l-1.62-11.57c-.1-.7-.63-1.28-1.18-1.28s-1.07.58-1.18,1.28l-1.62,11.57c-.1.7-.72,1.06-1.38.8l-10.64-4.25c-.67-.26-1.74-.26-2.39,0l-10.64,4.25c-.67.26-1.28-.1-1.38-.8l-1.62-11.57c-.1-.7-.63-1.28-1.18-1.28s-1.07.58-1.18,1.28l-1.62,11.57c-.1.7-.72,1.06-1.38.8l-10.83-4.32c-.67-.26-1.42-.1-1.69.36s-.03,1.21.51,1.64l9.11,7.15c.56.44.56,1.16,0,1.59l-9.11,7.15c-.56.44-.78,1.23-.51,1.74s1.04.73,1.69.46l10.73-4.32c.67-.26,1.28.1,1.36.8l1.55,11.67c.09.7.7,1.28,1.36,1.28s1.26-.58,1.36-1.28l1.55-11.67c.09-.7.7-1.06,1.36-.8l10.56,4.23c.67.26,1.74.26,2.39,0l10.56-4.23c.67-.26,1.28.1,1.36.8l1.55,11.67c.09.7.7,1.28,1.36,1.28s1.26-.58,1.36-1.28l1.55-11.67c.09-.7.7-1.06,1.36-.8l10.73,4.32c.65.26,1.42.05,1.69-.46s.03-1.3-.51-1.74h-.03Zm-23.16-7.06l-8.02,6.17c-.56.43-1.48.43-2.05,0l-8.02-6.17c-.56-.43-.56-1.14,0-1.59l8.03-6.33c.56-.44,1.47-.44,2.03,0l8.03,6.33c.56.44.55,1.14,0,1.59h-.02Z"/>
    </g>
  </g>
</svg>