<?xml version="1.0" encoding="UTF-8"?>
<svg id="Layer_2" data-name="Layer 2" xmlns="http://www.w3.org/2000/svg" viewBox="0 0 405 272">
  <defs>
    <style>
      .cls-1 {
        font-family: ArialMT, Arial;
      }

      .cls-1, .cls-2 {
        fill: #231f20;
        font-size: 8px;
      }

      .cls-3 {
        letter-spacing: -.05em;
      }

      .cls-4 {
        letter-spacing: -.05em;
      }

      .cls-5 {
        fill: #fff;
        stroke: #000;
        stroke-miterlimit: 10;
        stroke-width: .25px;
      }

      .cls-6 {
        letter-spacing: -.02em;
      }

      .cls-7 {
        letter-spacing: -.07em;
      }

      .cls-8 {
        letter-spacing: -.04em;
      }

      .cls-9 {
        letter-spacing: -.07em;
      }

      .cls-10 {
        letter-spacing: -.05em;
      }

      .cls-2 {
        font-family: ArialUnicodeMS, 'Arial Unicode MS';
      }

      .cls-11 {
        letter-spacing: -.11em;
      }

      .cls-12 {
        letter-spacing: -.09em;
      }

      .cls-13 {
        letter-spacing: -.02em;
      }
    </style>
  </defs>
  <g>
    <rect class="cls-5" x="15" y="1" width="179" height="251" rx="14.99" ry="14.99"/>
    <rect class="cls-5" x="210" y="19" width="179" height="251" rx="14.99" ry="14.99"/>
  </g>
  <g>
    <text class="cls-1" transform="translate(32.5 80.9)"><tspan class="cls-10" x="0" y="0">A</tspan><tspan x="4.9" y="0" xml:space="preserve"> Catalogue of Simple Pleasures</tspan></text>
    <text class="cls-1" transform="translate(32.5 90.5)"><tspan x="0" y="0">by</tspan><tspan class="cls-4" x="8.45" y="0"> </tspan><tspan x="10.24" y="0">Alex Singh</tspan></text>
    <text class="cls-1" transform="translate(32.5 100.1)"><tspan x="0" y="0">with</tspan><tspan class="cls-4" x="14.23" y="0"> </tspan><tspan x="16.02" y="0">Are.na</tspan></text>
    <text class="cls-1" transform="translate(32.5 119.3)"><tspan x="0" y="0">Date: Summer 2023</tspan></text>
    <text class="cls-1" transform="translate(32.5 128.9)"><tspan x="0" y="0">Publisher:</tspan><tspan class="cls-4" x="35.57" y="0"> </tspan><tspan x="37.36" y="0">Are.na Gift Shop</tspan></text>
    <text class="cls-1" transform="translate(32.5 138.5)"><tspan x="0" y="0">Director: Laurel Schwulst</tspan></text>
    <text class="cls-1" transform="translate(32.5 148.1)"><tspan x="0" y="0">Design: Megan Pai</tspan></text>
    <text class="cls-1" transform="translate(32.5 157.7)"><tspan x="0" y="0">Printing: Oddi Sales</tspan></text>
    <text class="cls-1" transform="translate(32.5 176.9)"><tspan x="0" y="0">ISBN: 979-8-218-27128-2</tspan></text>
    <text class="cls-1" transform="translate(32.5 196.1)"><tspan x="0" y="0">© 2023</tspan><tspan class="cls-4" x="25.91" y="0"> </tspan><tspan x="27.7" y="0">Alex Singh &amp;</tspan><tspan class="cls-3" x="73.51" y="0"> </tspan><tspan x="75.3" y="0">Are.na</tspan></text>
    <text class="cls-1" transform="translate(32.5 215.3)"><tspan x="0" y="0">Are.na</tspan></text>
    <text class="cls-1" transform="translate(32.5 224.9)"><tspan x="0" y="0">99 </tspan><tspan class="cls-8" x="11.12" y="0">W</tspan><tspan x="18.38" y="0">all Street, #4441</tspan></text>
    <text class="cls-1" transform="translate(32.5 234.5)"><tspan x="0" y="0">New</tspan><tspan class="cls-13" x="16" y="0"> </tspan><tspan class="cls-12" x="18.09" y="0">Y</tspan><tspan x="22.7" y="0">ork, N</tspan><tspan class="cls-6" x="44.03" y="0">Y</tspan><tspan x="49.23" y="0" xml:space="preserve"> 10005</tspan></text>
    <text class="cls-1" transform="translate(32.5 24.32)"><tspan x="0" y="0">COLOPHON</tspan></text>
  </g>
  <g>
    <text class="cls-1" transform="translate(227.5 89.3)"><tspan x="0" y="0">108_</tspan><tspan class="cls-9" x="17.8" y="0">1</tspan><tspan class="cls-7" x="21.66" y="0">1</tspan><tspan x="25.52" y="0">1_108 f</tspan></text>
    <text class="cls-1" transform="translate(227.5 98.9)"><tspan x="0" y="0">Alex Singh</tspan></text>
    <text class="cls-1" transform="translate(227.5 108.5)"><tspan x="0" y="0">David Boyd</tspan></text>
    <text class="cls-1" transform="translate(227.5 118.1)"><tspan x="0" y="0">Giancarlos Rodriguez</tspan></text>
    <text class="cls-1" transform="translate(227.5 127.7)"><tspan x="0" y="0">Gloria Lin</tspan></text>
    <text class="cls-1" transform="translate(227.5 137.3)"><tspan x="0" y="0">Juliana Castro</tspan></text>
    <text class="cls-1" transform="translate(227.5 146.9)"><tspan x="0" y="0">KOLORF</tspan><tspan class="cls-7" x="32.89" y="0">L</tspan><tspan x="36.75" y="0">Y</tspan></text>
    <text class="cls-1" transform="translate(227.5 156.5)"><tspan x="0" y="0">leslie liu</tspan></text>
    <text class="cls-1" transform="translate(227.5 166.1)"><tspan x="0" y="0">Nils Braun</tspan></text>
    <text class="cls-1" transform="translate(227.5 175.7)"><tspan x="0" y="0">magnus</tspan></text>
    <text class="cls-1" transform="translate(227.5 185.3)"><tspan x="0" y="0">mark f beasley</tspan></text>
    <text class="cls-1" transform="translate(227.5 194.9)"><tspan x="0" y="0">maybe: michelle</tspan></text>
    <text class="cls-1" transform="translate(227.5 204.5)"><tspan x="0" y="0">Melquíades &amp;</tspan></text>
    <text class="cls-1" transform="translate(227.5 214.1)"><tspan x="0" y="0">miaoye que</tspan></text>
    <text class="cls-1" transform="translate(227.5 223.7)"><tspan x="0" y="0">Ploy Phairam D.</tspan></text>
    <text class="cls-1" transform="translate(227.5 233.3)"><tspan x="0" y="0">tf</tspan></text>
    <text class="cls-1" transform="translate(227.5 242.9)"><tspan class="cls-11" x="0" y="0">T</tspan><tspan x="4.01" y="0">om Sibma</tspan></text>
    <text class="cls-1" transform="translate(227.5 252.5)"><tspan x="0" y="0">ZUNE </tspan></text>
    <text class="cls-2" transform="translate(251.5 252.5)"><tspan x="0" y="0">▶</tspan></text>
    <text class="cls-1" transform="translate(227.5 42.32)"><tspan x="0" y="0">CO-CRE</tspan><tspan class="cls-9" x="31.55" y="0">A</tspan><tspan class="cls-6" x="36.31" y="0">T</tspan><tspan x="41.05" y="0">ORS</tspan></text>
  </g>
</svg>