<?xml version="1.0" encoding="UTF-8"?>
<svg id="Layer_2" data-name="Layer 2" xmlns="http://www.w3.org/2000/svg" viewBox="0 0 405 272">
  <defs>
    <style>
      .cls-1 {
        font-family: ArialMT, Arial;
        font-size: 8px;
      }

      .cls-1, .cls-2 {
        fill: #231f20;
      }

      .cls-3 {
        letter-spacing: -.02em;
      }

      .cls-4 {
        letter-spacing: -.05em;
      }

      .cls-5 {
        fill: #fff;
        stroke: #000;
        stroke-miterlimit: 10;
        stroke-width: .25px;
      }

      .cls-6 {
        letter-spacing: -.02em;
      }

      .cls-7 {
        letter-spacing: -.04em;
      }

      .cls-8 {
        letter-spacing: -.07em;
      }

      .cls-9 {
        letter-spacing: -.07em;
      }

      .cls-10 {
        letter-spacing: -.05em;
      }

      .cls-11 {
        letter-spacing: -.02em;
      }

      .cls-12 {
        letter-spacing: -.02em;
      }

      .cls-2 {
        stroke-width: 0px;
      }

      .cls-13 {
        letter-spacing: -.05em;
      }
    </style>
  </defs>
  <g>
    <rect class="cls-5" x="15" y="1" width="179" height="251" rx="14.99" ry="14.99"/>
    <rect class="cls-5" x="211" y="19" width="179" height="251" rx="14.99" ry="14.99"/>
  </g>
  <g>
    <text class="cls-1" transform="translate(32.5 61.7)"><tspan x="0" y="0">This collection is designed as a set of </tspan></text>
    <text class="cls-1" transform="translate(32.5 71.3)"><tspan x="0" y="0">cards to preserve the project</tspan><tspan class="cls-12" x="101.38" y="0">’</tspan><tspan x="103.02" y="0">s spirit of </tspan></text>
    <path class="cls-2" d="m32.77,78.83c0-.77.21-1.34.64-1.71.36-.31.79-.46,1.3-.46.57,0,1.04.19,1.4.56.36.37.54.89.54,1.55,0,.53-.08.95-.24,1.26-.16.31-.39.54-.7.71-.31.17-.64.25-1,.25-.58,0-1.05-.19-1.41-.56-.36-.37-.54-.91-.54-1.61Zm.72,0c0,.53.12.93.35,1.19.23.26.52.4.88.4s.64-.13.87-.4c.23-.27.35-.67.35-1.21,0-.51-.12-.9-.35-1.17-.23-.26-.52-.4-.87-.4s-.64.13-.88.39c-.23.26-.35.66-.35,1.19Zm3.99,3.66v-5.74h.64v.54c.15-.21.32-.37.51-.47.19-.11.42-.16.69-.16.35,0,.67.09.94.27.27.18.48.44.61.77.14.33.21.7.21,1.09,0,.42-.08.81-.23,1.15s-.37.6-.66.78c-.29.18-.6.27-.92.27-.23,0-.44-.05-.63-.15-.19-.1-.34-.22-.46-.38v2.02h-.7Zm.64-3.64c0,.53.11.93.32,1.18.22.26.48.38.79.38s.58-.13.8-.4c.22-.26.33-.67.33-1.23s-.11-.92-.33-1.19c-.22-.26-.48-.39-.78-.39s-.56.14-.79.42c-.23.28-.35.69-.35,1.22Zm6.65.71l.73.09c-.11.42-.33.75-.64.99-.31.23-.71.35-1.19.35-.61,0-1.09-.19-1.44-.56-.36-.37-.53-.9-.53-1.57s.18-1.24.54-1.62c.36-.39.83-.58,1.4-.58s1.01.19,1.36.57c.35.38.53.91.53,1.59,0,.04,0,.1,0,.19h-3.09c.03.46.15.8.39,1.05.23.24.52.36.87.36.26,0,.48-.07.66-.2.18-.14.33-.35.43-.65Zm-2.31-1.14h2.32c-.03-.35-.12-.61-.27-.79-.22-.27-.51-.41-.87-.41-.32,0-.59.11-.81.32-.22.22-.34.51-.37.87Zm3.92,2.47v-4.15h.63v.59c.3-.46.74-.68,1.32-.68.25,0,.48.04.69.13.21.09.37.21.47.35.1.15.18.32.22.52.03.13.04.36.04.68v2.55h-.7v-2.52c0-.29-.03-.5-.08-.64-.05-.14-.15-.26-.29-.34-.14-.08-.3-.13-.49-.13-.3,0-.56.1-.78.29-.22.19-.33.55-.33,1.08v2.27h-.7Zm4.45,0v-4.15h.63v.59c.3-.46.74-.68,1.32-.68.25,0,.48.04.69.13.21.09.37.21.47.35.1.15.18.32.22.52.03.13.04.36.04.68v2.55h-.7v-2.52c0-.29-.03-.5-.08-.64-.05-.14-.15-.26-.29-.34-.14-.08-.3-.13-.49-.13-.3,0-.56.1-.78.29-.22.19-.33.55-.33,1.08v2.27h-.7Zm7.29-1.34l.73.09c-.11.42-.33.75-.64.99-.31.23-.71.35-1.19.35-.61,0-1.09-.19-1.44-.56-.36-.37-.53-.9-.53-1.57s.18-1.24.54-1.62c.36-.39.83-.58,1.4-.58s1.01.19,1.36.57c.35.38.53.91.53,1.59,0,.04,0,.1,0,.19h-3.09c.03.46.15.8.39,1.05.23.24.52.36.87.36.26,0,.48-.07.66-.2.18-.14.33-.35.43-.65Zm-2.31-1.14h2.32c-.03-.35-.12-.61-.27-.79-.22-.27-.51-.41-.87-.41-.32,0-.59.11-.81.32-.22.22-.34.51-.37.87Zm3.64,1.23l.7-.11c.04.28.15.49.33.64.18.15.43.22.75.22s.56-.07.72-.2c.16-.13.23-.29.23-.46,0-.16-.07-.28-.21-.38-.1-.06-.34-.14-.72-.24-.52-.13-.87-.24-1.07-.34-.2-.1-.35-.23-.45-.39-.1-.17-.15-.35-.15-.56,0-.18.04-.36.13-.51.08-.16.2-.29.35-.39.11-.08.26-.15.45-.21.19-.06.39-.08.61-.08.33,0,.61.05.86.14s.43.22.54.38.2.37.24.64l-.69.09c-.03-.21-.12-.38-.27-.5-.15-.12-.36-.18-.63-.18-.32,0-.55.05-.69.16-.14.11-.21.23-.21.38,0,.09.03.17.09.25.06.08.15.14.27.19.07.03.28.09.62.18.5.13.84.24,1.04.33.2.08.35.21.46.37.11.16.17.36.17.6s-.07.46-.21.66-.33.37-.59.48-.55.17-.88.17c-.54,0-.95-.11-1.23-.34-.28-.22-.46-.56-.54-1Zm4,0l.7-.11c.04.28.15.49.33.64.18.15.43.22.75.22s.56-.07.72-.2c.16-.13.23-.29.23-.46,0-.16-.07-.28-.21-.38-.1-.06-.34-.14-.72-.24-.52-.13-.87-.24-1.07-.34-.2-.1-.35-.23-.45-.39-.1-.17-.15-.35-.15-.56,0-.18.04-.36.13-.51.08-.16.2-.29.35-.39.11-.08.26-.15.45-.21.19-.06.39-.08.61-.08.33,0,.61.05.86.14s.43.22.54.38.2.37.24.64l-.69.09c-.03-.21-.12-.38-.27-.5-.15-.12-.36-.18-.63-.18-.32,0-.55.05-.69.16-.14.11-.21.23-.21.38,0,.09.03.17.09.25.06.08.15.14.27.19.07.03.28.09.62.18.5.13.84.24,1.04.33.2.08.35.21.46.37.11.16.17.36.17.6s-.07.46-.21.66-.33.37-.59.48-.55.17-.88.17c-.54,0-.95-.11-1.23-.34-.28-.22-.46-.56-.54-1Zm9.35,1.24c-.07-.15-.12-.32-.14-.51-.26.22-.51.38-.75.47-.24.09-.5.14-.78.14-.46,0-.81-.11-1.05-.33-.24-.22-.37-.51-.37-.85,0-.2.05-.39.14-.56.09-.17.21-.3.36-.4.15-.1.32-.18.51-.23.14-.04.35-.07.62-.11.57-.07.99-.15,1.25-.24,0-.1,0-.16,0-.18,0-.29-.07-.49-.2-.61-.18-.16-.45-.24-.8-.24-.33,0-.57.06-.73.17-.16.12-.27.32-.35.62l-.69-.09c.06-.29.17-.53.31-.71.14-.18.35-.32.62-.42.27-.1.58-.15.94-.15s.64.04.86.12c.22.08.38.19.49.31.1.13.18.29.22.48.02.12.04.34.04.65v.94c0,.65.01,1.07.04,1.24.03.17.09.34.18.5h-.73Zm-.2-2.08c-.26.1-.64.19-1.15.27-.29.04-.49.09-.61.14-.12.05-.21.13-.28.23-.07.1-.1.21-.1.33,0,.19.07.34.21.47.14.12.35.19.62.19s.51-.06.72-.18c.21-.12.37-.28.46-.49.08-.16.11-.39.11-.7v-.26Zm1.8,2.08v-4.15h.63v.59c.3-.46.74-.68,1.32-.68.25,0,.48.04.69.13.21.09.37.21.47.35.1.15.18.32.22.52.03.13.04.36.04.68v2.55h-.7v-2.52c0-.29-.03-.5-.08-.64-.05-.14-.15-.26-.29-.34-.14-.08-.3-.13-.49-.13-.3,0-.56.1-.78.29-.22.19-.33.55-.33,1.08v2.27h-.7Zm7.14,0v-.52c-.26.41-.65.62-1.16.62-.33,0-.63-.09-.91-.27s-.49-.44-.64-.76c-.15-.33-.23-.7-.23-1.13s.07-.79.21-1.13c.14-.34.35-.6.62-.78.28-.18.58-.27.93-.27.25,0,.47.05.67.16s.35.24.48.41v-2.05h.7v5.73h-.65Zm-2.22-2.07c0,.53.11.93.34,1.19.22.26.49.39.79.39s.57-.13.78-.38c.21-.25.32-.63.32-1.15,0-.57-.11-.98-.33-1.25s-.49-.4-.81-.4-.57.13-.78.38c-.21.26-.31.66-.31,1.21Zm6.39,2.07v-3.61h-.62v-.54h.62v-.4c0-.41.09-.73.27-.95.18-.22.46-.33.84-.33.26,0,.5.03.71.09l-.11.59c-.14-.02-.26-.04-.38-.04-.24,0-.41.05-.5.14-.09.1-.13.3-.13.61v.27h.8v.54h-.8v3.61h-.7Zm2.03,0v-5.73h.7v5.73h-.7Zm4.62-1.34l.73.09c-.11.42-.33.75-.64.99-.31.23-.71.35-1.19.35-.61,0-1.09-.19-1.44-.56-.36-.37-.53-.9-.53-1.57s.18-1.24.54-1.62c.36-.39.83-.58,1.4-.58s1.01.19,1.36.57c.35.38.53.91.53,1.59,0,.04,0,.1,0,.19h-3.09c.03.46.15.8.39,1.05.23.24.52.36.87.36.26,0,.48-.07.66-.2.18-.14.33-.35.43-.65Zm-2.31-1.14h2.32c-.03-.35-.12-.61-.27-.79-.22-.27-.51-.41-.87-.41-.32,0-.59.11-.81.32-.22.22-.34.51-.37.87Zm3.45,2.47l1.52-2.16-1.4-1.99h.88l.64.97c.12.18.22.34.29.46.11-.17.22-.32.32-.46l.7-.98h.84l-1.43,1.95,1.54,2.2h-.86l-.85-1.29-.23-.35-1.09,1.64h-.85Zm4.47-4.92v-.81h.7v.81h-.7Zm0,4.92v-4.15h.7v4.15h-.7Zm2.42,0h-.65v-5.73h.7v2.04c.3-.37.68-.56,1.14-.56.26,0,.5.05.72.15.23.1.42.25.56.43.15.19.26.41.35.67.08.26.12.54.12.84,0,.71-.18,1.26-.53,1.65-.35.39-.77.58-1.27.58s-.87-.2-1.15-.61v.52Zm0-2.11c0,.5.07.86.2,1.08.22.36.52.54.9.54.31,0,.57-.13.8-.4.22-.27.34-.66.34-1.19s-.11-.94-.32-1.2-.47-.39-.78-.39-.57.13-.8.4c-.22.27-.34.65-.34,1.16Zm3.81-2.81v-.81h.7v.81h-.7Zm0,4.92v-4.15h.7v4.15h-.7Zm1.76,0v-5.73h.7v5.73h-.7Zm1.8-4.92v-.81h.7v.81h-.7Zm0,4.92v-4.15h.7v4.15h-.7Zm3-.6c.08,0,.18,0,.31-.03l.1.62c-.2.04-.38.06-.53.06-.26,0-.45-.04-.59-.12s-.24-.19-.3-.32c-.06-.13-.09-.41-.09-.83v-2.39h-.52v-.55h.52v-1.03l.7-.42v1.45h.71v.55h-.71v2.43c0,.2.01.33.04.39.02.06.07.1.12.14.06.03.14.05.24.05h0Zm1.42,2.29c-.14,0-.29-.03-.45-.09l-.08-.66c.15.04.29.06.4.06.16,0,.28-.03.38-.08.09-.05.17-.12.23-.22.04-.07.12-.24.21-.52.01-.04.03-.1.06-.17l-1.57-4.16h.76l.86,2.4c.11.3.21.62.3.96.08-.32.18-.64.29-.95l.89-2.42h.7l-1.58,4.22c-.17.46-.3.77-.39.94-.12.23-.27.4-.43.51-.16.11-.35.16-.58.16h0Zm3.2-1.68v-.8h.8v.8h-.8Z"/>
    <text class="cls-1" transform="translate(32.5 100.1)"><tspan x="0" y="0">There are many ways to interact with it.</tspan></text>
    <text class="cls-1" transform="translate(32.5 119.3)"><tspan x="0" y="0">Perhaps:</tspan></text>
    <text class="cls-1" transform="translate(32.5 138.5)"><tspan x="0" y="0">Keep them at home.</tspan></text>
    <text class="cls-1" transform="translate(32.5 148.1)"><tspan x="0" y="0">Or carry them with you.</tspan></text>
    <text class="cls-1" transform="translate(32.5 157.7)"><tspan x="0" y="0">Choose one at random each da</tspan><tspan class="cls-8" x="112.08" y="0">y</tspan><tspan x="115.5" y="0">. </tspan></text>
    <text class="cls-1" transform="translate(32.5 167.3)"><tspan x="0" y="0">Or select them sequentiall</tspan><tspan class="cls-9" x="92.49" y="0">y</tspan><tspan x="95.9" y="0">. </tspan></text>
    <text class="cls-1" transform="translate(32.5 176.9)"><tspan x="0" y="0">Use them as “seeds” for meditation. </tspan></text>
    <text class="cls-1" transform="translate(32.5 186.5)"><tspan x="0" y="0">Or to plan out your da</tspan><tspan class="cls-9" x="77.38" y="0">y</tspan><tspan x="80.79" y="0">.</tspan></text>
    <text class="cls-1" transform="translate(32.5 196.1)"><tspan class="cls-7" x="0" y="0">T</tspan><tspan x="4.59" y="0">reat them as blessings to bury or burn.</tspan></text>
    <text class="cls-1" transform="translate(32.5 205.7)"><tspan x="0" y="0">Or gift them to friends or strangers. </tspan></text>
    <text class="cls-1" transform="translate(32.5 215.3)"><tspan x="0" y="0">Keep them close. </tspan></text>
    <text class="cls-1" transform="translate(32.5 234.5)"><tspan x="0" y="0">( ... )</tspan></text>
    <text class="cls-1" transform="translate(32.5 24.32)"><tspan x="0" y="0">HOW</tspan><tspan class="cls-12" x="19.55" y="0"> </tspan><tspan class="cls-3" x="21.64" y="0">T</tspan><tspan x="26.38" y="0">O</tspan></text>
  </g>
  <g>
    <text class="cls-1" transform="translate(228.5 108.5)"><tspan class="cls-10" x="0" y="0">A</tspan><tspan x="4.9" y="0" xml:space="preserve"> Catalogue of Simple Pleasures is </tspan></text>
    <text class="cls-1" transform="translate(355.68 108.5)"><tspan x="0" y="0"> </tspan></text>
    <text class="cls-1" transform="translate(228.5 118.1)"><tspan x="0" y="0">a crowdsourced collection of life</tspan><tspan class="cls-11" x="113.39" y="0">’</tspan><tspan x="115.04" y="0">s </tspan></text>
    <text class="cls-1" transform="translate(349.75 118.1)"><tspan x="0" y="0"> </tspan></text>
    <text class="cls-1" transform="translate(228.5 127.7)"><tspan x="0" y="0">small joys. </tspan></text>
    <text class="cls-1" transform="translate(228.5 146.9)"><tspan x="0" y="0">They’re the seemingly minor </tspan></text>
    <text class="cls-1" transform="translate(228.5 156.5)"><tspan x="0" y="0">experiences that are ultimately at </tspan></text>
    <text class="cls-1" transform="translate(228.5 166.1)"><tspan x="0" y="0">the heart of being human.</tspan><tspan class="cls-12" x="91.18" y="0"> </tspan><tspan x="93.26" y="0">The quiet </tspan></text>
    <text class="cls-1" transform="translate(228.5 175.7)"><tspan x="0" y="0">moments that fade away if you try to </tspan></text>
    <text class="cls-1" transform="translate(228.5 185.3)"><tspan x="0" y="0">look at them directl</tspan><tspan class="cls-9" x="67.14" y="0">y</tspan><tspan x="70.56" y="0">. Many can be </tspan></text>
    <text class="cls-1" transform="translate(228.5 194.9)"><tspan x="0" y="0">experienced immediately in the present </tspan></text>
    <text class="cls-1" transform="translate(228.5 204.5)"><tspan x="0" y="0">moment. </tspan><tspan class="cls-6" x="33.34" y="0">W</tspan><tspan x="40.75" y="0">e just have to remembe</tspan><tspan class="cls-4" x="124.35" y="0">r</tspan><tspan x="126.58" y="0">.</tspan></text>
    <text class="cls-1" transform="translate(228.5 223.7)"><tspan x="0" y="0">The project began in 2018 on</tspan><tspan class="cls-13" x="104.08" y="0"> </tspan><tspan x="105.88" y="0">Are.na. </tspan></text>
    <text class="cls-1" transform="translate(228.5 233.3)"><tspan x="0" y="0">This particular collection presents 52 </tspan></text>
    <text class="cls-1" transform="translate(360.56 233.3)"><tspan x="0" y="0"> </tspan></text>
    <text class="cls-1" transform="translate(228.5 242.9)"><tspan x="0" y="0">of the many “simple pleasures” that </tspan></text>
    <text class="cls-1" transform="translate(228.5 252.5)"><tspan x="0" y="0">have been submitted to date.</tspan></text>
    <text class="cls-1" transform="translate(228.5 42.32)"><tspan x="0" y="0">INTRODUCTION</tspan></text>
  </g>
</svg>